<?xml version="1.0" encoding="utf-8"?>
<!-- Generator: Adobe Illustrator 28.0.0, SVG Export Plug-In . SVG Version: 6.00 Build 0)  -->
<svg version="1.1" id="Layer_1" xmlns="http://www.w3.org/2000/svg" xmlns:xlink="http://www.w3.org/1999/xlink" x="0px" y="0px"
	 viewBox="0 0 232.83 38.78" style="enable-background:new 0 0 232.83 38.78;" xml:space="preserve">
<style type="text/css">
	.st0{opacity:0.87;}
	.st1{fill:#FF80B1;}
	.st2{fill:#5D5E9F;}
	.st3{fill:#F9D97C;}
	.st4{fill:#43B2AE;}
	.st5{fill:#FF5541;}
</style>
<g>
	<g>
		<path class="st0" d="M45.24,9.23h3.44v16.71h8.82v3.24H45.24V9.23z"/>
		<path class="st0" d="M58.88,21.81c0-4.4,3.38-7.72,7.86-7.72c4.51,0,7.89,3.33,7.89,7.75c0,0.41-0.03,0.84-0.09,1.21h-12.2
			c0.49,2.14,2.23,3.56,4.54,3.56c1.71,0,3.18-0.75,3.93-1.88h3.59c-1.19,2.86-4.08,4.8-7.58,4.8
			C62.27,29.53,58.88,26.21,58.88,21.81z M62.38,20.39h8.79c-0.49-2.02-2.23-3.38-4.42-3.38C64.61,17.01,62.9,18.34,62.38,20.39z"/>
		<path class="st0" d="M76.63,21.81c0-4.4,3.09-7.72,7.26-7.72c2.17,0,3.96,0.92,5.18,2.46v-2.11h3.24V24.7
			c0,0.84,0.49,1.36,1.36,1.36h0.26v3.12H93c-2.02,0-3.3-0.81-3.73-2.34c-1.24,1.68-3.12,2.69-5.38,2.69
			C79.73,29.53,76.63,26.21,76.63,21.81z M89.07,21.81c0-2.6-1.94-4.6-4.54-4.6c-2.63,0-4.57,2-4.57,4.6c0,2.6,1.94,4.6,4.57,4.6
			C87.13,26.41,89.07,24.41,89.07,21.81z"/>
		<path class="st0" d="M96.32,14.44h3.24v2.46c1.16-1.68,2.86-2.69,4.94-2.69h0.52v3.33h-0.52c-3.12,0-4.94,1.76-4.94,4.48v7.17
			h-3.24V14.44z"/>
		<path class="st0" d="M107.39,14.44h3.24v1.88c1.19-1.45,2.89-2.23,4.97-2.23c3.5,0,5.84,2.31,5.84,5.81v4.8
			c0,0.84,0.49,1.36,1.33,1.36h0.29v3.12h-0.93c-2.57,0-3.93-1.3-3.93-3.76v-4.45c0-2.26-1.45-3.76-3.67-3.76
			c-2.34,0-3.9,1.53-3.9,3.82v8.15h-3.24V14.44z"/>
		<path class="st0" d="M124.91,10.01c0-1.19,0.9-2.05,2.05-2.05c1.19,0,2.08,0.87,2.08,2.05c0,1.16-0.9,2.05-2.08,2.05
			C125.81,12.07,124.91,11.17,124.91,10.01z M125.34,14.44h3.24v14.75h-3.24V14.44z"/>
		<path class="st0" d="M132.48,14.44h3.24v1.88c1.19-1.45,2.89-2.23,4.97-2.23c3.5,0,5.84,2.31,5.84,5.81v4.8
			c0,0.84,0.49,1.36,1.33,1.36h0.29v3.12h-0.93c-2.57,0-3.93-1.3-3.93-3.76v-4.45c0-2.26-1.45-3.76-3.67-3.76
			c-2.34,0-3.9,1.53-3.9,3.82v8.15h-3.24V14.44z"/>
		<path class="st0" d="M149.63,21.46c0-4.19,3.12-7.37,7.26-7.37c2.17,0,3.96,0.9,5.21,2.34v-2h3.24v13.16
			c0,4.48-3.01,7.43-7.58,7.43c-3.79,0-6.68-2.02-7.26-5.18h3.33c0.49,1.36,2.05,2.26,3.96,2.26c2.6,0,4.31-1.68,4.31-4.37v-1.27
			c-1.24,1.47-3.04,2.34-5.21,2.34C152.75,28.81,149.63,25.66,149.63,21.46z M162.09,21.46c0-2.43-1.97-4.28-4.57-4.28
			s-4.57,1.85-4.57,4.28s1.97,4.25,4.57,4.25S162.09,23.89,162.09,21.46z"/>
		<path class="st0" d="M176.16,9.23h3.44v8.3h9.77v-8.3h3.41v19.95h-3.41v-8.41h-9.77v8.41h-3.44V9.23z"/>
		<path class="st0" d="M196.66,23.84v-9.4h3.24v8.44c0,2.11,1.36,3.53,3.44,3.53c2.2,0,3.67-1.45,3.67-3.58v-8.39h3.24V24.7
			c0,0.84,0.52,1.36,1.36,1.36h0.29v3.12h-0.95c-1.94,0-3.18-0.75-3.67-2.14c-1.13,1.62-2.83,2.49-4.97,2.49
			C198.92,29.53,196.66,27.28,196.66,23.84z"/>
		<path class="st0" d="M214.32,8.37h3.24v8.18c1.24-1.53,3.04-2.46,5.21-2.46c4.13,0,7.26,3.33,7.26,7.72
			c0,4.39-3.12,7.72-7.26,7.72c-2.17,0-3.96-0.92-5.21-2.46v2.11h-3.24V8.37z M226.67,21.81c0-2.6-1.94-4.6-4.54-4.6
			s-4.57,2-4.57,4.6c0,2.6,1.97,4.6,4.57,4.6S226.67,24.41,226.67,21.81z"/>
	</g>
	<g>
		<path class="st1" d="M12.54,3.79c-5.77,2.82-9.74,8.75-9.74,15.6c0,1.73,0.26,3.41,0.73,4.99c1.23,0.21,2.49,0.32,3.78,0.32
			c6.73,0,12.79-2.96,16.94-7.63C22.31,11.22,18.04,6.43,12.54,3.79z"/>
	</g>
	<g>
		<path class="st2" d="M20.17,2.03c-1.67,0-3.29,0.24-4.82,0.68c4.75,2.79,8.5,7.1,10.57,12.26c2.03-2.92,3.4-6.33,3.87-10.02
			C27.04,3.1,23.73,2.03,20.17,2.03z"/>
	</g>
	<g>
		<path class="st3" d="M31.33,21.96c0-4.46,1.18-8.65,3.24-12.28c-0.78-1.15-1.69-2.2-2.71-3.14c-0.76,4.12-2.53,7.89-5.05,11.04
			c0.59,2.12,0.9,4.35,0.9,6.65c0,4.32-1.1,8.38-3.04,11.92c3.27-0.88,6.16-2.68,8.37-5.12C31.94,28.22,31.33,25.16,31.33,21.96z"/>
	</g>
	<g>
		<path class="st4" d="M37.53,19.39c0,3.51-1.04,6.77-2.83,9.5c-0.7-2.19-1.09-4.52-1.09-6.93c0-3.56,0.83-6.92,2.29-9.92
			C36.94,14.27,37.53,16.76,37.53,19.39z"/>
	</g>
	<g>
		<path class="st5" d="M7.32,26.98c-0.96,0-1.91-0.06-2.85-0.16c2.78,5.87,8.77,9.94,15.7,9.94c0.52,0,1.02-0.03,1.53-0.07
			c2.36-3.57,3.74-7.85,3.74-12.45c0-1.57-0.16-3.1-0.47-4.59C20.45,24.17,14.21,26.98,7.32,26.98z"/>
	</g>
</g>
</svg>
