<?xml version="1.0" encoding="UTF-8"?>
<svg id="Layer_1" data-name="Layer 1" xmlns="http://www.w3.org/2000/svg" version="1.1" viewBox="0 0 32 32">
  <defs>
    <style>
      .cls-1 {
        fill: #008582;
      }

      .cls-1, .cls-2 {
        stroke-width: 0px;
      }

      .cls-2 {
        fill: #123a37;
      }
    </style>
  </defs>
  <path class="cls-1" d="M15.8,3.2c-1.5,1-13,9.2-14.6,25.9s.1.3.3.3h4.8c.1,0,.3-.1.3-.3.2-1.6,1.5-11,9.2-18.8s.3-.1.4,0c7.7,7.8,9,17.2,9.2,18.8s.1.3.3.3h4.8c.2,0,.3-.2.3-.3-1.6-16.6-13.1-24.9-14.6-25.9s-.2,0-.3,0Z"/>
  <path class="cls-2" d="M21.7,29.1c-.3-2.5-2.8-17.4-20-23.4s-.4,0-.4.3v5c0,.1,0,.3.2.3,1.7.5,12.2,4.3,14.8,17.9s.2.3.3.3h4.8c.2,0,.3-.2.3-.3Z"/>
</svg>