<?xml version="1.0" encoding="UTF-8"?>
<svg id="Layer_1" data-name="Layer 1" xmlns="http://www.w3.org/2000/svg" version="1.1" viewBox="0 0 32 32">
  <defs>
    <style>
      .cls-1 {
        fill: #008582;
      }

      .cls-1, .cls-2 {
        stroke-width: 0px;
      }

      .cls-2 {
        fill: #123a37;
      }
    </style>
  </defs>
  <path class="cls-1" d="M16,2.3S2.2,10.9.6,29.7h5.6s.8-11.1,9.8-20.1c9,9,9.8,20.1,9.8,20.1h5.6C29.8,10.9,16,2.3,16,2.3Z"/>
  <path class="cls-2" d="M21.4,29.3c-.1-1.3-.7-3.7-.7-3.7-1.3-4.8-3.7-9-7.2-12.6-2.6-2.3-4.6-3.9-4.6-3.9-2.5-1.7-5.1-2.9-8-3.8-.3-.1-.4,0-.4.3,0,1.7,0,3.3,0,5,0,.3.1.4.3.5,1.6.6,3.1,1.3,4.5,2.3,0,0,4.1,2.7,4.9,4.2,2.9,3.4,4.8,7.3,5.6,11.7,0,.3.2.4.5.4h4.7c.2,0,.4-.2.3-.4Z"/>
</svg>