<svg xmlns="http://www.w3.org/2000/svg" viewBox="0 0 1763.68 676.38"><defs><style>.cls-1{fill:#5f5e61;}.cls-2{fill:#236220;}.cls-3{fill:#87a386;}</style></defs><g id="Layer_2" data-name="Layer 2"><g id="Layer_1-2" data-name="Layer 1"><path class="cls-1" d="M1762.2,381.84h-79.58c0-69.45,1.27-138-.57-206.43-.85-31.66-6.72-63.72-44.16-75.65-40.74-13-74.79,4.28-87.57,45.18-9.5,30.42-10.5,61.9-10.31,93.51.28,46.74.07,93.48.07,142.31h-73.47V22H1539c1,11,2,21.77,3.24,36.12,23.31-24.18,47.1-41.93,79.43-43.91,77.43-4.72,134.27,40.94,139.42,122.68C1766.17,217.56,1762.2,298.8,1762.2,381.84Z"/><path class="cls-2" d="M799.92,668.55V567H576.25V670.86h-69.4V418.22h68.33v94H798.74V418.75h69.82V672H806.22A6.63,6.63,0,0,1,799.92,668.55Z"/><path class="cls-1" d="M504.45,21.68h70.79c.85,11.94,1.63,22.83,2.72,38.09,24.16-26.27,48.9-44.26,84.63-43.18V91.1C589,116.49,582.05,126.45,582,208.4c0,57.15,0,114.3,0,172.94H504.45Z"/><path class="cls-2" d="M1763,418.25v44.26H1622.34V670.35h-70.8V463.45h-139v-45.2Z"/><path class="cls-3" d="M799.92,668.55l6.3,3.46C802.34,674.1,800.45,672.58,799.92,668.55Z"/><path class="cls-1" d="M346.92,67.08V15.3H429c.9,1.47,2.73,3.06,2.71,4.63-1.82,151.87,8.81,304.05-5.32,455.55C413,619.08,299.67,702,166.94,669.28c-79.23-19.53-118.22-77.53-141.85-153h89.48c42.06,60,85.35,79.11,140.8,61.63,56.58-17.83,91.17-74.45,90-151.6-30.19,28.27-60.78,51.9-100.25,58.94C163.58,499.79,98.1,472.08,50,406.14c-71.41-97.95-65.29-250.63,11.5-338.86C134.91-17,251.87-22.8,332.84,53.9,336.06,57,339.32,60,346.92,67.08ZM294.87,354.2c52.78-53.61,58.55-141.18,13.57-202.73-50.54-69.17-138.2-68.28-187.79,1.92-43,60.83-33.71,154.06,20.36,205.06,21.07,19.88,45.67,30.87,75.48,29.88C248,390.22,273.26,376.16,294.87,354.2Z"/><path class="cls-1" d="M1411.55,228.23H1143.69c1,36.11,17,60.36,47.09,75.37,44.16,22,87.76,9.78,129-35h79.6c-23,89-110.09,140.21-201.76,119.57C1104,367.08,1044,264.69,1063.94,160c17.55-92.21,106.65-161.26,191.5-148.42C1358.38,27.17,1424,116.47,1411.55,228.23Zm-85.67-67c-9.39-46-40.43-71.64-86.27-72.57-47.22-1-81.12,25.43-92.3,72.57Z"/><path class="cls-1" d="M1026.71,227.83H761.92c-1.51,36.3,18.62,66.31,51.33,78.8,45.74,17.48,86.66,4.67,121.51-38.46h79.56c-11.19,75.45-100.64,136.3-182.06,124-104-15.66-171.43-116.12-152.94-227.81C695.18,68.56,787-2.43,875.84,12.45,977,29.38,1044.26,124.27,1026.71,227.83ZM843.91,88.72c-40.52,2.34-75,34.25-77.94,73H942.05C932,111.32,896.51,85.68,843.91,88.72Z"/><path class="cls-2" d="M1374.75,671H1295l-35.72-53.54H1064.58l-36,53.72H957.93l172.68-253.67h68.91Zm-146-102.58c-23.27-35.87-44.65-68.81-67.78-104.48-22.58,36.6-42.87,69.5-64.44,104.48Z"/></g></g></svg>