<?xml version="1.0" encoding="UTF-8"?>
<svg id="Layer_1" data-name="Layer 1" xmlns="http://www.w3.org/2000/svg" version="1.1" viewBox="0 0 313 109">
  <defs>
    <style>
      .cls-1 {
        fill: #008582;
      }

      .cls-1, .cls-2 {
        stroke-width: 0px;
      }

      .cls-2 {
        fill: #123a37;
      }
    </style>
  </defs>
  <g>
    <path class="cls-1" d="M79,100.8c-4.6,0-9.2,0-13.8,0-1,0-1.4-.3-1.6-1.3-2.6-15.2-9-28.6-19.1-40.2-.7-.8-1-.8-1.4,0-6.3,11.7-10.6,24.2-12.3,37.5-.5,3.8-.4,3.8-4.2,3.8h-13.4q-1.9,0-1.7-1.9c1.1-10.6,3.5-20.9,7.1-30.9,2.6-7.3,5.9-14.3,9.8-21,.6-1.1.4-1.5-.6-2.1-4.9-3.1-10-5.7-15.5-7.8-.9-.3-1.2-.7-1.2-1.7,0-5.7,0-11.4,0-17.1,0-1.1.2-1.3,1.3-1,9.7,3,18.9,7.2,27.4,13,6.5-7.9,13.8-15.1,21.8-21.4.9-.7,1.5-.9,2.5,0,15.3,11.9,27.3,26.4,36.3,43.6,3,5.7,5.5,11.5,7.6,17.6,1.4,4.7,2.7,9.4,4.1,14,.9,5.1,1.9,10.3,2.4,15.5.1,1.1-.2,1.1-1.1,1.1h-17.5l-.3-.3c0-.2,0-.3-.3-.3h0c0-1.4,0-2.9-.4-4.3-.7-4.8-1.7-9.5-3.1-14.1-.4-1.9-1.1-3.8-1.8-5.7-5.5-15.9-14.3-29.8-26-41.9-1-1-1.5-1-2.4,0-2,2.4-4.1,4.7-6.2,7-1,1-.8,1.6,0,2.5,11.9,12.3,20,26.7,24.6,43.2,1.3,4.6,2.3,9.2,2.6,14-1.2.1-2.4.2-3.7.2Z"/>
    <path class="cls-1" d="M95.6,100.4l-.3-.3c.2,0,.4.1.3.3Z"/>
  </g>
  <g>
    <path class="cls-2" d="M199.6,75.6v-22.1c0-1.2.2-1.8,1.6-1.8,7,.1,13.9-.1,20.9.2,14,.6,24.6,14.9,21.5,28.6-2.8,11.8-12.1,19.3-24.2,19.3s-11.4-.1-17.2,0c-1.9,0-2.6-.4-2.6-2.5,0-7.1,0-14.4,0-21.7ZM211,75.8v11.4c0,1,0,1.6,1.3,1.6,3.2-.1,6.4.2,9.6-.2,5.8-.6,10.3-5.6,10.9-11.9.5-5.5-3.3-11.3-8.5-13-3.9-1.3-7.8-.6-11.7-.8-1.3-.1-1.7.4-1.7,1.7.2,3.7,0,7.5,0,11.2Z"/>
    <path class="cls-2" d="M258.7,99.9h-5.1c-1.2,0-1.3-.4-.9-1.4,5.9-15.2,11.8-30.5,17.7-45.7.4-1,1-1,1.8-1,2.7,0,5.4.1,8.1,0,1.6-.1,1.9.3,1.3,1.8-4,11.2-8,22.4-12,33.5-1.3,3.8-2.7,7.5-4,11.3-.4,1-.9,1.5-2,1.4-1.6,0-3.3,0-4.9,0Z"/>
    <path class="cls-2" d="M145.1,99.9h-4.3q-2.3,0-1.5-2.1c4.4-11.3,8.8-22.7,13.1-34,1.3-3.4,2.7-6.8,4-10.3.5-1.3,1.1-1.9,2.5-1.8,2.5.1,5,.1,7.5,0,1.6-.1,2,.3,1.4,1.9-5.1,14.2-10.1,28.5-15.2,42.7q-1.3,3.5-5,3.5c-.8.1-1.7.1-2.5.1Z"/>
    <path class="cls-2" d="M181.6,100.1q-6.1,0-8.1-5.8c-2.6-7.5-5.1-14.9-7.8-22.3-.5-1.3-.3-1.8,1.2-1.8h8.7c1,0,1.6.4,1.9,1.3,3.4,9,6.9,17.9,10.3,26.8.5,1.4,0,1.8-1.3,1.8-1.6-.1-3.2,0-4.9,0Z"/>
    <path class="cls-2" d="M295.6,100.1q-6.4,0-8.4-6c-2.5-7.4-5.1-14.8-7.7-22.1-.5-1.3-.5-1.9,1.2-1.9,2.8.1,5.6.1,8.5,0,1.2,0,1.7.4,2.2,1.5,3.4,8.8,6.8,17.6,10.2,26.4.6,1.6.3,2.1-1.4,2-1.6,0-3.1.1-4.6.1Z"/>
  </g>
  <path class="cls-2" d="M44.5,59.2c10.1,11.6,16.6,25,19.1,40.2.2,1,.6,1.3,1.6,1.3h17.5c-.3-4.8-1.3-9.4-2.6-14-4.6-16.4-12.7-30.9-24.6-43.2-8.8-7.9-15.7-13.3-15.7-13.3-8.5-5.7-17.6-10-27.4-13-1.1-.4-1.3-.2-1.3,1,0,5.7,0,11.4,0,17.1,0,1,.4,1.4,1.2,1.7,5.4,2,10.6,4.6,15.5,7.8,0,.1,13.9,9.3,16.7,14.4Z"/>
</svg>