<svg width="33" height="34" viewBox="0 0 33 34" fill="none" xmlns="http://www.w3.org/2000/svg">
<g clip-path="url(#clip0_36_7400)">
<g opacity="0.87">
<path d="M16.5229 28.3064C13.5687 28.3064 10.9908 27.1943 8.82561 24.9891C6.70635 22.8314 5.63295 20.1224 5.62378 16.9667C5.62378 10.7789 10.5229 5.74112 16.5596 5.72211H16.5779C19.4586 5.72211 22.1651 6.89124 24.2109 9.02991C26.266 11.1686 27.3944 14.0011 27.3944 17.0047C27.3944 23.8865 21.7981 27.7646 18.0091 28.2208C17.5045 28.2779 16.9999 28.3159 16.5137 28.3159L16.5229 28.3064ZM16.5871 7.61364H16.5687C11.5412 7.62314 7.45864 11.8149 7.46782 16.9572C7.46782 19.5902 8.3669 21.8429 10.1192 23.6299C12.2568 25.8065 14.7797 26.6905 17.8164 26.3293C20.9449 25.9491 25.5779 22.7269 25.5779 16.9952C25.5779 14.4954 24.633 12.1381 22.9265 10.3606C21.2293 8.59267 18.9816 7.61364 16.5963 7.61364H16.5871Z" fill="#070707"/>
<path d="M13.7705 22.4797C13.6512 22.4797 13.532 22.4607 13.4035 22.4227C13.2017 22.3562 12.9356 22.2041 12.7246 21.8714C12.1834 21.2726 12.376 20.5597 12.4586 20.2745C12.5595 19.8753 12.6696 19.5616 12.7797 19.248C12.8989 18.9058 13.009 18.5731 13.0824 18.2499C12.8439 18.0503 12.587 17.8602 12.321 17.6701C11.9815 17.4325 11.6329 17.1758 11.3026 16.8812C11.2384 16.8241 11.1742 16.7576 11.1191 16.6816L11.009 16.5295C10.6879 15.9592 10.6512 15.3604 10.9081 14.8756C11.165 14.4003 11.6696 14.1152 12.2934 14.1057C12.9907 14.0962 13.6879 14.0962 14.3852 14.1057C14.5228 13.6114 14.6696 13.1742 14.8072 12.7274L15.0182 12.0526C15.2292 11.3777 15.7338 10.95 16.3668 10.9024C17.0916 10.8454 17.6604 11.2446 17.8714 11.9195C18.0916 12.3852 18.22 12.851 18.3485 13.3072C18.4035 13.4878 18.4494 13.6779 18.5045 13.8585C18.532 13.9441 18.5595 14.0296 18.587 14.0962C18.9356 14.1247 19.3026 14.1152 19.6788 14.1057C19.9907 14.1057 20.3026 14.0867 20.6145 14.1057C20.9081 14.1152 21.7889 14.1437 22.1467 15.0942C22.4311 15.7976 22.2292 16.4915 21.6421 16.8907C21.2384 17.3279 20.7705 17.6416 20.3577 17.9172C20.22 18.0028 20.0916 18.0978 19.9632 18.1929C19.9356 18.2119 19.9173 18.2309 19.8989 18.2404C19.8989 18.2594 19.9081 18.2784 19.9265 18.3165C20.1375 18.9343 20.3393 19.5616 20.5045 20.189C20.8714 21.2821 20.4127 21.8144 20.0366 22.0615C19.4494 22.5748 18.7705 22.5558 18.0182 21.9855L16.4402 20.8353C16.3301 20.9114 16.2017 21.0159 16.0457 21.149C15.8531 21.3201 15.6329 21.5102 15.3668 21.6623C15.2567 21.7288 15.1558 21.8049 15.0457 21.8809C14.8806 22.0045 14.7246 22.1185 14.5503 22.2231C14.4219 22.2991 14.1191 22.4797 13.743 22.4797H13.7705ZM16.8623 18.8012L18.5778 20.0464C18.4678 19.6757 18.3393 19.305 18.2201 18.9343C17.9081 17.9933 18.1558 17.1948 18.954 16.634C19.1008 16.5295 19.2476 16.4249 19.3944 16.3299C19.5503 16.2253 19.7063 16.1208 19.8531 16.0162C19.8256 16.0162 19.7889 16.0162 19.7613 16.0162C19.165 16.0352 18.5595 16.0447 17.9081 15.9212L17.6421 15.8641L17.4494 15.6645C17.0549 15.2748 16.9081 14.7995 16.798 14.4574C16.7338 14.2578 16.6788 14.0486 16.6145 13.8395C16.587 13.7255 16.5503 13.6114 16.5228 13.5068C16.3944 13.8966 16.2751 14.2958 16.165 14.695C15.9356 15.5505 15.3026 16.0352 14.4494 16.0162C14.0457 16.0162 13.6329 16.0067 13.2292 16.0067C13.2843 16.0447 13.3393 16.0827 13.3944 16.1208C13.8439 16.4439 14.321 16.7861 14.743 17.2329L15.0366 17.5465L14.9999 17.9838C14.9448 18.6967 14.7338 19.305 14.532 19.8943C14.5136 19.9418 14.4953 19.9894 14.4861 20.0369C14.6421 19.9418 14.7705 19.8278 14.9081 19.7042C15.3026 19.362 15.7889 18.9438 16.532 18.8583L16.8806 18.8202L16.8623 18.8012Z" fill="#070707"/>
<path d="M18.6697 34C17.3394 34 16.3486 33.3251 15.6789 32.7738C15.3761 32.5267 15.0458 32.4031 14.4954 32.3461C13.7247 32.2606 12.9816 32.5457 12.1926 32.8499C11.1376 33.2491 10.2385 32.8879 9.58713 32.6313C9.22933 32.4887 8.65135 32.2606 8.22933 31.7093C7.64218 31.1485 7.23851 30.4546 7.00915 29.6371C6.90823 29.2569 6.82567 28.9718 6.67888 28.7627L6.61466 28.6486C6.51374 28.449 6.33025 28.2589 6.11007 28.0403C6.05502 27.9832 6.00915 27.9357 5.95411 27.8787C5.67888 27.7361 5.35778 27.641 5.01833 27.5365C4.53209 27.3844 3.98163 27.2133 3.46787 26.8901C3.23851 26.7476 2.98163 26.5955 2.77979 26.3293C1.41282 24.9796 1.01833 23.2116 1.67888 21.3486C1.9908 20.4646 1.95411 19.7327 1.56878 19.0199L1.29356 18.5351C0.357776 17.4895 -0.10094 16.1968 0.0183261 14.8851C0.146766 13.5259 0.889886 12.3187 2.10089 11.4632C3.0275 10.8169 3.3853 10.028 3.25686 8.91585C3.10089 7.57563 3.51374 6.2354 4.39447 5.23735C5.28438 4.2298 6.55044 3.68801 7.86236 3.73554C9.09172 3.78306 9.91741 3.32681 10.5229 2.26223C11.1835 1.11211 12.1926 0.332683 13.3853 0.085549C14.6055 -0.171091 15.8715 0.133075 16.9541 0.95052L17.6605 1.44479C18.4036 1.825 19.1192 1.825 19.9082 1.4638C21.5504 0.71289 23.1651 0.931509 24.5596 2.08164C25.3119 2.61392 25.6881 3.43137 25.9725 4.2203C26.0458 4.42941 26.1009 4.64803 26.1559 4.86665L26.1926 5.02824C26.4036 5.47498 26.7523 5.83618 27.2018 6.22589C27.4036 6.29243 27.6147 6.34946 27.8165 6.41599C28.6697 6.66313 29.6422 6.92927 30.4036 7.84177L30.4954 7.95583C31.2018 8.68773 31.9633 10.066 31.4036 12.2522C31.1559 13.2027 31.0458 13.9061 31.2018 14.6095L31.5137 15.2653C32.5137 16.1778 33.055 17.48 32.9816 18.8678C32.9082 20.3411 32.1743 21.6528 30.9633 22.4702C30.0275 23.0976 29.633 23.896 29.6697 25.0746C29.7064 26.1107 29.6697 27.3084 28.8715 28.392C27.9816 29.5896 26.844 30.2074 25.4862 30.2169H25.3578C24.7339 30.2169 24.1926 30.2264 23.7247 30.4546C23.1835 30.7112 22.8257 31.1675 22.3578 31.9089C21.6605 33.0115 20.6605 33.6863 19.367 33.9145C19.1192 33.962 18.8807 33.981 18.6514 33.981L18.6697 34ZM14.2293 30.4356C14.3761 30.4356 14.5321 30.4356 14.6881 30.4641C15.2844 30.5306 16.0734 30.6732 16.8165 31.291C17.6422 31.9659 18.3211 32.2035 19.0734 32.0705C19.8624 31.9279 20.422 31.5572 20.8348 30.9013C21.3303 30.1219 21.9358 29.2474 22.9816 28.7531C23.8073 28.3634 24.633 28.3539 25.3578 28.3444H25.477C26.266 28.3349 26.8807 27.9927 27.422 27.2608C27.8165 26.7285 27.8715 26.1107 27.844 25.1602C27.7798 23.3257 28.4954 21.8904 29.9725 20.9019C30.688 20.4171 31.1192 19.6567 31.1651 18.8012C31.2018 17.9648 30.8624 17.1758 30.2202 16.6341L30.0642 16.501L29.4587 15.1988C29.1468 13.9441 29.3853 12.775 29.6422 11.7864C30.0092 10.3606 29.5413 9.66676 29.1651 9.26755L29.0275 9.09645C28.633 8.6307 28.0367 8.45961 27.3486 8.26C27.0458 8.17445 26.7431 8.0889 26.4495 7.97484L26.3027 7.91781L26.1835 7.81325C25.5504 7.28096 24.9082 6.66313 24.5137 5.76014L24.4679 5.61756L24.3945 5.34191C24.3578 5.18983 24.3211 5.03774 24.266 4.88566C24.055 4.28684 23.844 3.86861 23.4862 3.61197C22.5688 2.86106 21.6881 2.747 20.6605 3.21275C19.3486 3.81158 18.0458 3.78306 16.789 3.1177L16.6881 3.06067L15.9082 2.50937C15.2202 1.99609 14.4679 1.79648 13.7614 1.94856C13.0825 2.09114 12.4954 2.54739 12.1101 3.23176C11.1559 4.90467 9.69722 5.71261 7.79814 5.63657C7.01833 5.60805 6.27521 5.93123 5.75227 6.52055C5.23851 7.10037 4.9908 7.8893 5.08255 8.67823C5.30273 10.5127 4.65135 11.9765 3.13759 13.0316C2.3853 13.5544 1.93576 14.2768 1.85319 15.0562C1.77979 15.8356 2.08255 16.6245 2.71557 17.2804L2.85319 17.4705L3.18346 18.0598C3.84401 19.2575 3.92658 20.5787 3.43117 21.9855C3.00915 23.1831 3.22934 24.1336 4.12842 24.9796L4.28438 25.1697C4.28438 25.1697 4.3119 25.1697 4.35778 25.1887L4.45869 25.2552C4.77062 25.4549 5.16511 25.5784 5.57796 25.702C6.03667 25.8446 6.51374 25.9966 6.98163 26.2628L7.20181 26.4339C7.27521 26.5099 7.3486 26.586 7.422 26.662C7.68805 26.9377 7.9908 27.2418 8.22016 27.6601C8.53209 28.1258 8.66053 28.6106 8.77979 29.0383C8.92658 29.5706 9.17429 29.9793 9.53209 30.3215L9.67888 30.4926C9.76145 30.6257 9.9908 30.7207 10.2569 30.8253C10.8257 31.0534 11.2018 31.177 11.578 31.0344C12.3669 30.7397 13.2385 30.3975 14.2385 30.3975L14.2293 30.4356Z" fill="#070707"/>
</g>
</g>
<defs>
<clipPath id="clip0_36_7400">
<rect width="33" height="34" fill="white"/>
</clipPath>
</defs>
</svg>
