<svg width="24" height="32" viewBox="0 0 24 32" fill="none" xmlns="http://www.w3.org/2000/svg">
<g clip-path="url(#clip0_36_7377)">
<path d="M12.0582 -0.000267424C15.0936 -0.000267424 18.1291 -0.0166945 21.1728 -0.000267424C22.4821 -0.000267424 23.4911 0.763593 23.8664 1.91349C24.225 3.02232 23.8664 4.18864 22.9157 4.89501C22.6572 5.09213 22.3487 5.29747 22.0485 5.33854C21.323 5.42068 21.1312 5.76565 21.1812 6.44737C21.2479 7.26051 21.1312 8.08187 21.2062 8.89501C21.3646 10.5213 20.9227 11.9094 19.7052 13.0264C19.1298 13.5521 19.1464 13.9053 19.7302 14.5049C22.8657 17.7328 23.4828 22.6445 21.323 26.5213C19.0881 30.5377 14.4849 32.6815 9.99008 31.7944C5.52865 30.9155 2.05123 27.3509 1.51753 22.9813C1.11725 19.6958 2.03456 16.78 4.38619 14.3817C4.8365 13.9217 4.88654 13.6342 4.41955 13.2071C3.09363 11.9915 2.55158 10.5049 2.78508 8.72253C2.85179 8.21328 2.75172 7.68762 2.80176 7.17838C2.90183 6.18454 2.84345 5.46996 1.5759 5.14142C0.38341 4.83751 -0.200329 3.3755 0.0581839 2.20918C0.358392 0.886796 1.4258 0.0161597 2.86013 0.00794613C5.92893 -0.00848098 8.98939 0.00794613 12.0582 0.00794613V-0.000267424ZM11.9665 30.2502C16.8782 30.2667 20.8476 26.3981 20.8476 21.6014C20.8476 16.8047 16.8782 12.9032 11.9998 12.9032C7.15478 12.9032 3.19369 16.7718 3.152 21.5192C3.11864 26.3242 7.06305 30.2256 11.9581 30.242L11.9665 30.2502ZM11.9998 1.74922C8.98939 1.74922 5.9873 1.74922 2.97688 1.74922C2.17632 1.74922 1.74269 2.12704 1.78438 2.7677C1.82608 3.47407 2.26805 3.74511 2.94352 3.74511C8.98105 3.74511 15.0269 3.74511 21.0644 3.74511C21.5564 3.74511 21.9317 3.58905 22.1402 3.14552C22.4821 2.4063 21.9567 1.74101 21.0061 1.74101C17.9956 1.73279 14.9936 1.74101 11.9831 1.74101L11.9998 1.74922ZM8.57243 8.67324C8.57243 7.80261 8.55575 6.93197 8.58077 6.06133C8.59745 5.63423 8.46402 5.48639 8.02205 5.50281C7.05471 5.52745 6.08737 5.53567 5.12837 5.50281C4.66138 5.48639 4.51128 5.62602 4.51962 6.1024C4.55297 7.3755 4.52795 8.65682 4.52795 9.93813C4.52795 11.1784 5.52031 11.8601 6.24581 12.6157C6.62107 13.0018 7.18814 12.2051 7.72184 12.0819C7.80523 12.0654 7.87194 12.0162 7.95533 11.9997C8.50572 11.893 8.60579 11.5398 8.58077 11.047C8.53907 10.2585 8.57243 9.46996 8.57243 8.68146V8.67324ZM15.7357 8.66503C15.7357 9.20712 15.8025 9.75743 15.7191 10.2913C15.5523 11.4001 15.8692 12.164 17.045 12.4515C17.2701 12.509 17.537 12.8539 17.6871 12.6815C18.3209 11.9176 19.2965 11.318 19.3799 10.2585C19.4883 8.8293 19.405 7.38372 19.4216 5.94634C19.4216 5.64244 19.3299 5.51103 19.0047 5.51924C18.0707 5.53567 17.1284 5.54388 16.1944 5.51924C15.8191 5.51103 15.7274 5.64244 15.7357 5.98741C15.7524 6.88269 15.7357 7.77797 15.7357 8.67324V8.66503ZM14.0012 8.41041C14.0012 7.62191 13.9929 6.83341 14.0012 6.04491C14.0012 5.69172 13.9512 5.48639 13.5092 5.50281C12.6002 5.52745 11.6913 5.51924 10.7823 5.50281C10.4571 5.50281 10.2736 5.56031 10.2819 5.94634C10.2986 7.57263 10.2986 9.20712 10.2819 10.8334C10.2819 11.1866 10.382 11.2852 10.7573 11.2523C11.6913 11.1702 12.6252 11.1127 13.5592 11.318C14.0012 11.4166 13.9929 11.1455 13.9929 10.8498C13.9929 10.0367 13.9929 9.22355 13.9929 8.4022L14.0012 8.41041Z" fill="#070707"/>
<path d="M11.9416 27.1455C8.73933 27.1455 6.22925 24.6568 6.24593 21.5028C6.27095 18.3735 8.7977 15.9258 12.0166 15.934C15.1271 15.934 17.6872 18.472 17.6872 21.5439C17.6872 24.6568 15.1271 27.1538 11.9332 27.1455H11.9416ZM15.9277 21.5357C15.9277 19.3673 14.2015 17.6753 11.9916 17.6507C9.79006 17.626 7.96379 19.4002 7.97213 21.5603C7.97213 23.6794 9.76504 25.4453 11.9332 25.47C14.1264 25.4946 15.936 23.7123 15.9277 21.5357Z" fill="#070707"/>
</g>
<defs>
<clipPath id="clip0_36_7377">
<rect width="24" height="32" fill="white"/>
</clipPath>
</defs>
</svg>
