<?xml version="1.0" encoding="UTF-8"?>
<svg id="Layer_1" data-name="Layer 1" xmlns="http://www.w3.org/2000/svg" viewBox="0 0 100 99.29">
  <defs>
    <style>
      .cls-1 {
        fill: #262626;
      }

      .cls-1, .cls-2 {
        stroke-width: 0px;
      }

      .cls-2 {
        fill: #4cc1b6;
      }
    </style>
  </defs>
  <path id="_10_" data-name="10%" class="cls-2" d="M25.39,89.82s3.7-4.56,8.37-4.56,11.75,5.78,21.09,5.3,17.23-3.86,17.23-3.86l-5.64,5.96-7.57,4.99-8.82-1.45-6.31-3.86-8.15,2.05-8.44-2.05-1.77-2.51Z"/>
  <path id="_20_" data-name="20%" class="cls-2" d="M18.79,80.7s10.3-4.56,19.64-4.56,18.62,9.63,29.18,9.12,19.93-4.55,19.93-4.55l-7.9,5.99h-7.24l-5.8,5.64-6.76,4.83-8.86-1.5-6.12-3.65-10.62,2.37-8.21-3.18-7.25-10.51Z"/>
  <path id="_30_" data-name="30%" class="cls-2" d="M6.87,71.57s17.07,4.56,26.4,4.56,27.87-9.12,40.74-9.12,14.97,4.56,14.97,4.56l-1.93,9.97-6.44,5.31h-7.73l-7.41,5.64-5.96,4.67-12.56-2.78-7.41-2.05-6.44,3.33-9.02-8-2.74-5.57-9.5-4.57-4.99-5.94Z"/>
  <path id="_40_" data-name="40%" class="cls-2" d="M7.19,62.65s17.2-4.44,28.4-4.44,32.94,8.8,40.67,8.8,19.48-4.48,19.48-4.48l-5.96,4.56-1.29,7.69-1.29,4.55-3.38,5.11-9.82,2.42-6.4,2.96-4.71,5.84-5.31,1.98-6.76-1.98-5.96-3.17-9.27,1.89-6.02-1.24-5.31-5.15-3.89-7.29-8.51-3.18-5.64-7.08.97-7.78Z"/>
  <path id="_50_" data-name="50%" class="cls-2" d="M7.19,58.21s12.56-9.12,22.38-9.12,34.45,9.46,45.08,8.88,21.61-7.5,21.61-7.5l2.22,5.96-4.35,7.89-4.51,2.78-3.38,15.26-13.52,4.34-5.11,3.12-6.96,6.54-7.81.64-7.98-4.35-10.46,1.73-7.73-2.69-4.03-7.08-5.18-5.27-8.35-3.2-2.9-7.31.97-10.61Z"/>
  <path id="_60_" data-name="60%" class="cls-2" d="M1.88,44.67s17.56,4.42,27.21,4.42,27.53-9.12,46.05-9.12,21.13,7.92,21.13,7.92l2.22,5.76s-3.06,9.32-6.76,12-1.45,12.52-5.64,16.7-10.14,3.37-13.85,4.98-6.92,7.89-11.75,9.5-11.93-4.35-15.62-4.51-8.9,3.68-14.48,2.05-6.32-8.92-10-13-10.77-2.02-13.5-8.86.97-10.63.64-13.85-5.47-9.31-5.64-14.01Z"/>
  <path id="_70_" data-name="70%" class="cls-2" d="M10.41,30.85s20.81,9.12,39.55,9.12,28.87-9.12,35.48-9.12,8.86,4.02,8.86,4.02l-1.61,8.51,5.47,10.27-1.9,7.6-6.96,5.84-1.45,9.04-3.54,9.12-7.89,1.44h-4.19l-11.43,9.82h-7.89l-8.06-3.86-9.27,1.73-8.76-1.24-4.51-8.53-6.44-5.27-7.25-4.39-2.58-10.3v-9.02l-4.03-9.5,1.62-8.21,6.76-7.06Z"/>
  <path id="_80_" data-name="80%" class="cls-2" d="M10.74,30.85s13.69-8.84,26.57-8.84,22.38,10.15,37.67,8.84,17.07-5.98,17.07-5.98c0,0,2.9,4.9,1.77,10s.26,11.57.26,11.57c0,0,5.05,4.19,4.25,9.02s-9.18,12.88-9.18,12.88l-2.9,14.02-8.69,4.34h-6.44l-10.3,10.14-15.94-3.86-11.91,1.41-9.5-5.27-3.08-8.41-10.6-4.56-4.03-7.8,2.09-10.37-5.31-9.29v-8.71l8.21-9.12Z"/>
  <path id="_90_" data-name="90%" class="cls-2" d="M13.15,18.27s11.91,3.74,17.71,3.74,22.54-8.22,36.06-9.12,14.49,7.15,14.49,7.15c0,0,10.47,1.45,11.91,7.57s-1.29,14.97-1.29,14.97c0,0,7.41,6.92,6.12,12.4s-8.21,10.23-9.18,12.12-2.74,15.26-2.74,15.26l-11.27,4.82-7.37,2.09-6.16,7.08-7.57,1.29-9.02-4.99-10.78,1.73-9.02-3.66-4.69-9.34-9.8-5.25-4.51-9.04,1.45-7.45-2.25-6.92-3.54-8.05,2.74-7.73,5.96-4.19,2.74-14.49Z"/>
  <polygon id="_100_" data-name="100%" class="cls-2" points="41.17 1.2 55.98 6.84 70.31 4.9 80.45 18.59 91.4 24.55 94.3 31.7 91.88 41.61 97.84 51.92 96.26 60.45 89.31 67.09 86.73 80.7 79.64 86.37 71.59 87.5 62.26 95.66 54.05 97.48 44.86 92.33 34.73 94.38 26.84 92.17 19.59 80.12 8.16 74.78 5.91 65.66 5.91 53.65 1.56 44.67 5.1 35.69 10.9 31.13 11.7 22.94 15.89 14.89 25.39 12.31 29.73 11.67 41.17 1.2"/>
  <g>
    <path class="cls-1" d="M54.59,17.35c5.53.93,10.61,2.91,15.1,6.32,3.15,2.39,5.68,5.36,7.99,8.54.12.16.13.38.19.57,2.82,4.41,4.19,9.31,4.63,14.47.32,3.71,0,7.38-1.05,10.98-3.33,11.38-10.67,18.98-21.92,22.58-8.39,2.67-16.64,1.81-24.55-2.13-1.17-.7-2.3-1.48-3.51-2.09-.85-.42-1.02-1.68-2.19-1.62-5-4.33-8.67-9.53-10.58-15.93-.61-2.06-.89-4.17-1.25-6.28,0-2.16,0-4.32.02-6.48.64-4.69,1.91-9.16,4.4-13.24,3.31-5.41,7.68-9.64,13.42-12.47,3.49-1.73,7.16-2.76,10.98-3.38,2.77-.12,5.55-.16,8.31.16h0ZM79.64,49.64c-.02-16.33-13.28-29.64-29.49-29.61-16.47.04-29.79,13.24-29.77,29.49,0,8.21,2.85,15.32,8.69,21.07,6.96,6.85,15.33,9.63,25.1,8.49,10.38-1.21,25.48-11.3,25.46-29.45h0Z"/>
    <path class="cls-1" d="M39.79,40.94c2.4,0,3.98-1.14,4.73-3.42.3-.92.56-1.87.93-2.76.82-2,2.54-3.09,4.72-3.04,2,.05,3.73,1.26,4.45,3.23.57,1.59,1.11,3.2,1.56,4.82.24.89.64,1.24,1.6,1.2,1.6-.09,3.19-.04,4.79-.02,2.36.02,4.14,1.28,4.8,3.38.66,2.09-.04,4.2-1.87,5.57-1.23.91-2.42,1.88-3.74,2.67-1.01.61-1.1,1.24-.69,2.26.56,1.43.99,2.92,1.42,4.4.63,2.17-.05,4.31-1.69,5.52-1.67,1.24-4.06,1.24-5.93-.05-1.39-.96-2.78-1.95-4.11-3-.59-.48-.98-.44-1.56,0-1.29,1.01-2.65,1.96-3.99,2.9-1.96,1.38-4.29,1.41-6.03.12-1.7-1.25-2.33-3.38-1.64-5.67.46-1.52.92-3.04,1.47-4.53.29-.81.2-1.3-.55-1.79-1.29-.84-2.53-1.76-3.77-2.67-2.08-1.55-2.78-3.53-2.06-5.79.67-2.09,2.48-3.3,4.99-3.32h2.17ZM64.3,45.21c-.38-.99-1.2-1.11-2.13-1.14-2.51-.09-5.03.26-7.52-.21-.67-.65-.96-1.5-1.25-2.36-.6-1.81-.98-3.71-1.87-5.42-.2-.91-.85-1.25-1.69-1.2-.86.07-1.36.62-1.62,1.42-.64,1.99-1.35,3.96-1.92,5.97-.37,1.3-1.14,1.83-2.44,1.81-2.1-.03-4.2-.04-6.3,0-1.84.04-2.47,1.25-1.54,2.85.1.11.18.23.29.33,2.05,1.77,4.51,3.02,6.42,4.96-.21,2.58-1.41,4.88-2.07,7.34-.23.85-.58,1.67.27,2.38.5,1.05,1.28.73,1.98.33.84-.48,1.57-1.12,2.39-1.6,1.68-.98,2.87-2.79,4.99-3.03,1.85,1.29,3.71,2.59,5.56,3.89.95.67,1.87,1.56,3.07.42,1.22-.63.6-1.6.37-2.42-.5-1.76-1.08-3.5-1.68-5.23-.51-1.48-.22-2.53,1.15-3.48,1.65-1.15,3.46-2.1,4.82-3.65.88-.43,1.09-1.09.71-1.96h0Z"/>
    <path class="cls-1" d="M68.27,92.64c.51-.53.97-1.07,1.42-1.64,1.38-1.79,3.42-2.48,5.74-2.33,4.64.28,8.44-1.39,11.5-4.85.93-1.06,1.59-2.26,2.14-3.52,1.06-2.88,1.4-6.44,1.52-8.66-.2-.77-.17-1.45.05-2.09.21-.63.59-1.23,1.1-1.84.54-.64,1.23-1.1,1.91-1.56,7.23-4.91,8.5-14.59,2.7-21.11-2.04-2.3-2.6-4.74-1.4-7.61,1.06-2.54,1.25-5.22.64-7.88-1.32-5.88-5.04-9.48-10.88-10.86-2.73-.65-4.58-2.16-5.4-4.9-2.1-7.01-6.29-10.37-13.53-10.63-1.89-.07-3.86-.07-5.65.87-2.95,1.54-5.57.99-8.13-1.06-3.9-3.15-8.4-3.62-13.09-2.21-3.34,1-5.88,3.15-7.59,6.17-1.53,2.69-3.75,4.01-6.84,3.76-1.94-.16-3.8.23-5.6.85-4.93,1.66-9.55,6.83-9.08,14.49.46,2.75-.57,5.25-3.34,7.08-7.41,4.9-8.62,14.65-2.71,21.32,1.93,2.17,2.38,4.54,1.35,7.28-1.77,4.7-1.29,9.19,1.58,13.34.14.19.23.37.3.54.91,1.28,2.15,2.62,3.76,3.59.41.04.95.31,1.84.76,1.28.54,2.66.68,3.97,1.16,2.27.82,3.45,2.42,4.09,4.62,2.06,7.2,7.66,10.8,14.32,10.85.92,0,1.83-.19,2.77-.47.1-.06,6.36-3.86,10.06.18,2.46,1.96,5.27,3,8.39,3.02,3.1.18,5.43-1.42,5.43-1.42,2.75-1.44,5.28-3.8,6.66-5.22h0ZM91.49,63.1c-3.64,2.36-5.23,5.63-5.08,9.83.1,2.76,0,5.42-1.81,7.76-2.01,2.64-4.6,4.13-7.91,4.17-2.17.02-4.3,0-6.34.91-2.39,1.09-3.83,3.05-5.22,5.16-1.65,2.54-3.99,4.03-7.07,4.56-3.49.6-6.28-.74-8.85-2.77-1.48-1.17-3.07-1.6-4.92-1.8-2.89-.29-5.47.64-8.05,1.6-2.1.77-3.98.1-5.84-.61-1.08-.42-2.24-.89-2.97-1.94-1.48-1.32-2.48-2.94-3.03-4.84-.34-1.17-.66-2.34-1.39-3.36-.66-1.24-1.75-2.11-2.7-3.1-2.4-1.33-5.25-1.52-7.61-2.97-.52-.31-1.06-.56-1.4-1.1-3.45-3.17-4.41-7.09-2.77-11.54,1.12-3.06,1.12-6.05-.53-8.95-.33-.56-.65-1.13-.98-1.7-5.08-5.14-4.34-12.3,1.66-16.36,3.51-2.37,5.14-5.55,4.6-9.9-.8-6.44,4.39-12.01,10.87-11.77,4.59.18,8-1.58,10.37-5.56,3.29-5.54,9.9-6.79,15.17-2.96.77.53,1.55,1.05,2.32,1.58,3.02,1.54,6.07,1.56,9.16.2,3.96-1.74,7.65-1.29,11.05,1.4,1.75,1.22,2.62,3.03,3.32,4.95.28.75.44,1.54.66,2.31.93,2.03,2.51,3.52,4.21,4.9,3.04,1.1,6.48,1.3,8.8,3.99.1.12.18.23.28.35,2.8,2.82,3.06,6.35,2.13,9.83-.76,2.83-1.29,5.53-.54,8.4.44.89.89,1.78,1.32,2.67,5.47,4.39,5.07,12.74-.93,16.64h0Z"/>
  </g>
</svg>