<svg width="33" height="32" viewBox="0 0 33 32" fill="none" xmlns="http://www.w3.org/2000/svg">
<path d="M6.9635 8.701C9.21125 8.701 10.6877 7.62583 11.3929 5.4755C11.6794 4.59985 11.9218 3.71312 12.2744 2.87072C13.0236 0.975329 14.6433 -0.0444143 16.6817 -7.76137e-05C18.5548 0.0442591 20.1745 1.18593 20.8466 3.04807C21.3865 4.54443 21.8824 6.06296 22.3011 7.59258C22.5324 8.43498 22.9071 8.7675 23.7996 8.72316C25.287 8.64558 26.7855 8.68991 28.284 8.701C30.4877 8.72316 32.1625 9.92025 32.7795 11.8822C33.3966 13.8551 32.7465 15.8392 31.0276 17.136C29.8817 18.0006 28.7578 18.9095 27.5348 19.6522C26.5872 20.2285 26.5101 20.816 26.8847 21.7803C27.4136 23.1215 27.8102 24.5292 28.2179 25.9258C28.8019 27.9653 28.1738 29.9937 26.6313 31.1354C25.0667 32.2992 22.8299 32.2992 21.089 31.091C19.7779 30.1821 18.4887 29.2621 17.2436 28.2646C16.6817 27.8212 16.3291 27.8434 15.7892 28.2646C14.5772 29.2178 13.3101 30.1045 12.054 31.0023C10.2139 32.2992 8.0433 32.3324 6.40156 31.1132C4.81492 29.9272 4.21993 27.9209 4.87001 25.7706C5.29973 24.3408 5.74046 22.8998 6.24731 21.5032C6.52276 20.7495 6.43462 20.284 5.72944 19.8184C4.51742 19.0314 3.36049 18.1558 2.20357 17.2912C0.231279 15.8281 -0.418804 13.9549 0.253316 11.8267C0.881363 9.85375 2.56717 8.71208 4.9251 8.701C5.59722 8.701 6.26934 8.701 6.95248 8.701H6.9635ZM29.9037 12.7135C29.5511 11.7713 28.7799 11.6716 27.9094 11.6383C25.5625 11.5496 23.2046 11.8932 20.8687 11.4388C20.2406 10.8292 19.9652 10.0311 19.7007 9.21087C19.1388 7.50391 18.7862 5.71935 17.9488 4.10107C17.7615 3.24758 17.1555 2.91506 16.3622 2.98156C15.5578 3.03698 15.084 3.56903 14.8526 4.32275C14.2577 6.19597 13.5855 8.05811 13.0567 9.95351C12.7151 11.1838 11.9989 11.6826 10.7648 11.6605C8.80357 11.6272 6.83128 11.6161 4.87001 11.6605C3.14013 11.6937 2.55615 12.8354 3.4266 14.3428C3.51475 14.4426 3.6029 14.5645 3.70206 14.6532C5.61926 16.3269 7.9221 17.4907 9.71809 19.3196C9.51976 21.7581 8.39589 23.9196 7.77886 26.2362C7.55849 27.0342 7.23896 27.8212 8.03228 28.4862C8.49505 29.4727 9.23328 29.1735 9.88337 28.7966C10.6657 28.3532 11.3488 27.7436 12.1201 27.2892C13.6957 26.3692 14.8086 24.6622 16.8029 24.4294C18.5328 25.6487 20.2737 26.868 22.0036 28.0983C22.8961 28.7301 23.7555 29.5725 24.8794 28.4973C26.0142 27.8988 25.4413 26.9788 25.2319 26.214C24.7692 24.5514 24.2183 22.9109 23.6563 21.2815C23.1825 19.896 23.447 18.8984 24.7251 18.0006C26.2677 16.9254 27.9645 16.0165 29.2426 14.5645C30.058 14.1655 30.2563 13.5337 29.9037 12.7135Z" fill="#262626"/>
</svg>
