<?xml version="1.0" encoding="utf-8"?>
<!-- Generator: Adobe Illustrator 28.0.0, SVG Export Plug-In . SVG Version: 6.00 Build 0)  -->
<svg version="1.1" id="Layer_1" xmlns="http://www.w3.org/2000/svg" xmlns:xlink="http://www.w3.org/1999/xlink" x="0px" y="0px"
	 viewBox="0 0 2087.15 1170.9" style="enable-background:new 0 0 2087.15 1170.9;" xml:space="preserve">
<style type="text/css">
	.st0{fill:#F5FAFA;}
	.st1{fill:#F4F9F9;}
</style>
<g>
	<path class="st0" d="M1742.58,85.68c0.04-26.03,23.58-45.74,48.23-40.67c2.7,0.55,3.53-0.5,4.44-2.54
		c5.99-13.52,16.26-22.25,30.6-25.44c17.16-3.81,31.95,1.14,43.67,14.27c2.49,2.78,4.43,3.53,8.03,2.35
		c8.11-2.65,15.99,0.1,21.12,7.14c1.54,2.12,2.6,2.68,5.17,1.68c19.68-7.7,39.35,7.32,42.17,23.64c0.45,2.58,1.36,3.95,4.46,4.06
		c8.81,0.31,15.31,4.96,18.63,12.84c3.08,7.32,2.11,14.83-3.27,21.09c-6.08,7.08-13.96,8.6-22.65,6.07
		c-2.51-0.73-3.35-0.82-3.76,2.2c-1.56,11.72-7.9,19.86-19.18,23.84c-10.91,3.85-20.75,1.69-29-6.26c-3.12-3.02-4.6-2.64-7.3,0.43
		c-6.85,7.77-15.21,9.67-24.79,5.72c-3.11-1.28-5.01-0.74-6.87,1.65c-12.68,16.38-43.67,13.32-52.63-10.15
		c-0.93-2.43-1.58-3.77-4.94-2.9c-20.35,5.27-40.29-4.05-48.9-23.49C1743.58,96.15,1742.33,90.82,1742.58,85.68z"/>
	<path class="st0" d="M867.45,172.05c-20.3,0-40.6,0.02-60.9,0c-17.76-0.02-31.14-10.13-34.62-27.37
		c-3.59-17.75,7.15-34.51,24.64-39.25c2.41-0.65,2.86-1.35,3.07-3.76c1.62-18.79,18.58-28.1,35.11-19.22
		c3.03,1.63,3.47,0.12,4.53-1.88c9.74-18.4,33.55-24.53,50.36-12.64c10.9,7.71,16.12,18.45,14.8,32.01
		c-0.22,2.3-0.58,4.32,3.05,4.54c17.26,1.02,27.78,13.36,26.26,30.9c-0.24,2.71,0.51,3.56,2.7,4.59c6.28,2.94,9.82,8.15,9.94,15
		c0.11,6.38-2.59,11.69-8.27,15.24c-2.41,1.51-4.94,1.86-7.65,1.86C909.46,172.05,888.45,172.05,867.45,172.05z"/>
	<path class="st0" d="M1940.05,1018.06c-31.63,0-63.27-0.1-94.9,0.1c-4.91,0.03-7.5-1.72-9.61-6.01
		c-10.84-22,3.03-47.57,27.39-50.19c3.63-0.39,6.54-0.35,6.12-6.17c-0.68-9.43,8.56-17.74,18.6-17.57c4.14,0.07,5.61-1.34,6.86-5.1
		c8.81-26.59,43.17-36.04,64.68-18.02c2.83,2.37,5.52,4.87,7.53,7.86c1.88,2.8,2.91,2.48,5.19,0.39c9.3-8.58,21.56-10.04,32.76-4.24
		c5.73,2.97,9.82,7.66,11.94,13.54c1.48,4.11,3.87,5.68,7.81,6.12c13.91,1.56,23.94,9.04,31.31,20.61
		c9.9,15.52,6.41,39.16-7.03,51.82c-5.39,5.07-10.89,7.09-18.24,7C2000.32,1017.86,1970.18,1018.06,1940.05,1018.06z"/>
	<path class="st0" d="M402.57,577.87c0.01-12.29,9.09-23.71,21.23-26.34c3.04-0.66,4.53-1.83,5.31-5.08
		c2.31-9.55,12.54-14.26,21.31-10.04c2.04,0.98,3.03,0.59,4.52-0.97c12.55-13.18,29.28-15.36,44.54-5.56
		c4.67,3,8.54,7.25,10.58,12.54c1.3,3.38,2.83,4.8,6.72,4.82c11.18,0.05,22.21,11.35,24.29,22.23c2.39,12.51-5.6,28.16-19.06,31.68
		c-1.55,0.41-2.26,1.63-2.75,3.09c-3.19,9.52-11.53,13.77-20.8,10.31c-2.38-0.89-3.29,0.25-4.51,1.58
		c-7.19,7.89-16.03,11.42-26.61,9.4c-11.14-2.12-18.43-8.93-22.08-19.57c-0.78-2.29-1.35-3-3.92-1.96
		c-11.25,4.54-21.66,2.61-30.42-5.63C405.19,592.99,402.56,585.85,402.57,577.87z"/>
	<path class="st0" d="M668.7,1025.12c21.29,0.06,39.86,13.99,46.09,34.68c0.89,2.94,1.74,4.59,5.52,3.27
		c17.69-6.17,40.62,1.07,50.71,20.28c2.09,3.99,4.51,4.78,8.56,4.75c14.55-0.12,26.16,11.08,26.75,25.47
		c0.78,19.12-19.37,35-38.75,25.44c-3.55-1.75-5.78-1.31-8.88,0.98c-14.78,10.95-35.31,10.88-50.78-0.09
		c-2.66-1.89-4.16-1.78-6.27,0.45c-7.36,7.78-16.27,8.4-25.7,4.79c-2.95-1.13-4.51-0.85-6.83,1.43
		c-14.97,14.71-37.58,9.72-44.87-9.86c-1.54-4.12-3.5-5.7-8.21-5.78c-17.81-0.28-30.68-21.37-23.64-37.77
		c4.65-10.83,12.71-16.83,24.28-17.93c3.19-0.3,3.74-1.6,3.84-4.37C621.36,1047.47,641.41,1025.07,668.7,1025.12z"/>
	<path class="st0" d="M1274.95,904.97c-23.95,0-47.91-0.08-71.86,0.05c-5.4,0.03-10.77,0.45-15.79-2.07
		c-13.06-6.54-14.71-24.07-3.11-32.93c1.45-1.1,2.6-2.7,4.56-2.97c3.29-0.46,3.68-2.35,2.95-5.2c-2.65-10.45,1.07-18.79,9.17-25.25
		c6.92-5.51,14.87-6.47,23.22-3.75c1.63,0.53,2.65,0.41,3.8-0.98c8.42-10.17,25.95-7.39,29.75,6.57c0.56,2.04,1.26,2.83,3.78,2.49
		c6.24-0.82,11.59,3.18,12.91,9.47c0.51,2.43,1.02,3.21,3.49,2.02c15.17-7.31,31.08,1.37,36.27,15.42c0.9,2.42,1.28,2.25,3,0.83
		c5.4-4.46,11.54-5.52,17.84-2.41c6,2.96,9.67,7.89,9.66,14.86c0,2.48,0.91,3.08,3.24,3.13c5.84,0.12,10.95,4.91,10.53,10.12
		c-0.46,5.77-3.96,10.69-10.81,10.65C1323.35,904.89,1299.15,904.97,1274.95,904.97z"/>
	<path class="st0" d="M183.25,948.55c-1.52,3.78,1.53,4.95,4.7,6.47c7.88,3.79,10.38,11.2,6.79,19.23
		c-3.01,6.74-11.5,9.68-18.91,6.5c-1.6-0.69-2.79-1.59-3.52,1.16c-4.78,18.13-26.1,26.28-42.45,14.79
		c-1.73-1.22-2.57-1.23-3.96,0.41c-13.04,15.3-36.24,12.51-45.54-5.52c-1.07-2.08-2.02-3.06-4.49-3.14
		c-4.47-0.14-8.65-1.64-11.87-4.89c-1.84-1.86-3.44-2.15-5.75-0.85c-12.06,6.82-26.49-0.79-30.81-11.98
		c-4.4-11.39,1.8-24.62,14.03-29.27c3.9-1.48,6.63-4.66,8.86-8.22c3.89-6.22,10.76-11.46,19.89-7.58c2.51,1.07,3.86,0.67,5.56-1.29
		c9.01-10.35,22.69-12.86,34.57-6.13c2.49,1.41,3.57,0.77,5.09-0.97c6.91-7.91,15.92-10.97,25.88-8.91
		c10.41,2.16,17.9,8.57,20.65,19.38c0.69,2.7,2.18,3.23,4.72,3.25C176.59,931.09,183.32,938.06,183.25,948.55z"/>
	<path class="st0" d="M1123.49,464.12c-19.65,0-39.3-0.08-58.95,0.07c-3.87,0.03-6.05-1.3-7.66-4.86
		c-5.7-12.63-3.76-26.73,5.29-36.19c9.59-10.03,23.55-13.01,36.64-7.16c3.93,1.76,5.05,0.21,6.42-2.7
		c4.82-10.23,13.34-15.43,24.17-16.97c3-0.43,3.79-1.36,4-4.24c1.45-19.35,11.36-33.32,28.86-40.94c17.04-7.41,33.86-5.67,49.02,5.7
		c10.4,7.8,17.05,18.18,18.64,31.19c0.67,5.46,2.96,7.43,8.25,8.3c14.72,2.43,25.43,14.01,28.74,30.13
		c2.47,12.03-4.03,27.13-14.66,34.41c-2.31,1.59-4.66,2.32-7.44,2.29c-8.99-0.08-17.99,0.15-26.98-0.04
		c-15.82-0.35-31.59,0.84-47.4,0.89c-15.65,0.05-31.31,0.01-46.96,0.01C1123.49,464.05,1123.49,464.08,1123.49,464.12z"/>
	<path class="st0" d="M1708.16,554.53c-32.14,0-64.29-0.19-96.43,0.09c-13.89,0.12-25.21-10.4-28.41-22.36
		c-3.64-13.6,4.08-29.76,16.31-35.2c2.61-1.16,5.53-1.92,8.37-2.18c4.74-0.43,5.22-3.17,5.21-7.12
		c-0.04-14.88,13.83-25.09,28.29-20.8c2.9,0.86,3.79,0.96,4.42-2.48c6.44-35.3,44.87-53,75.6-34.48
		c12.37,7.46,20.54,18.72,22.72,33.47c0.8,5.44,1.59,7.92,9,7.92c17.31,0.01,31.13,9.77,36.35,27.76c1.43,4.94,2.94,5.38,7.12,3.68
		c14.68-5.97,33.85,5.65,34.75,23.82c0.8,16.27-12.32,27.96-25.12,27.91c-32.72-0.14-65.45-0.05-98.17-0.05
		C1708.16,554.52,1708.16,554.53,1708.16,554.53z"/>
	<path class="st1" d="M182.7,240.84c6.32-2.03,12.56-3.73,19.38-1.75c10.89,3.16,19.19,13.33,19.41,24.47
		c0.23,11.51-7.53,21.81-18.68,25.39c-3.38,1.08-6.68,1.5-10.16,1.5c-47.43-0.02-94.86,0-142.3-0.02
		c-13.76-0.01-22.56-7.08-24.42-20.24c-1.74-12.35,9.44-25.32,23.66-23.39c4.24,0.57,6.19-0.08,7.55-4.36
		c3.25-10.21,12.78-16.94,23.61-16.86c3.99,0.03,5.11-1,5.47-5.21c2.01-23.45,28.52-37.44,49.18-24.33
		c7.19,4.56,11.8,10.91,14.16,19.02c0.47,1.61,0.42,3.65,3.43,2c8.07-4.43,16.04-3.66,23.04,2.28c6.33,5.36,8.76,12.33,6.69,20.59
		C182.65,240.22,182.7,240.53,182.7,240.84c-0.05,0.1-0.1,0.2-0.15,0.31C182.6,241.04,182.65,240.94,182.7,240.84z"/>
</g>
</svg>
