<?xml version="1.0" encoding="UTF-8"?>
<svg id="Layer_1" data-name="Layer 1" xmlns="http://www.w3.org/2000/svg" viewBox="0 0 1512 974">
  <defs>
    <style>
      .cls-1 {
        fill: #e36e51;
      }

      .cls-1, .cls-2, .cls-3, .cls-4, .cls-5 {
        stroke-width: 0px;
      }

      .cls-2 {
        fill: #e792ba;
      }

      .cls-3 {
        fill: #6969a8;
      }

      .cls-4 {
        fill: #f4df8d;
      }

      .cls-5 {
        fill: #75b8b6;
      }
    </style>
  </defs>
  <path class="cls-5" d="M543.28,931.81c2.23-16.02,14.4-28.51,24.94-40.78,11.86-13.8,22.37-28.75,31.33-44.59,11.6-20.49,35.1-51.46,63.29-41.34,11.09,3.98,19.38,13.37,25.7,23.31,6.33,9.94,11.23,20.8,18.34,30.19,10.26,13.54,24.57,23.33,36.78,35.13,23.08,22.3,36.26,70.46,3.96,92.09-15.24,10.21-35.17,8.23-53.5,7.57-20.62-.74-40.66,1.41-61.05,4.09-13.84,1.82-29.82,3.71-42.92-2.54-21.44-10.23-50.4-37.82-46.88-63.13h.01Z"/>
  <path class="cls-3" d="M333.17,822.85c6.61,13.59,14.03,26.78,22.22,39.49,9.36,14.52,19.82,28.6,25.71,44.84,5.89,16.24,6.53,35.52-3.21,49.78-5.49,8.04-13.78,13.79-22.53,18.05-9.96,4.85-22.03,7.9-31.9,2.87-4.56-2.32-8.17-6.16-11.17-10.3-11.44-15.8-14.71-35.85-19.14-54.85-4.43-19-11.21-38.97-26.89-50.57-11.9-8.81-27.11-11.42-41.64-14.27-19.83-3.89-39.49-8.68-58.85-14.5-13.75-4.13-27.8-9.05-38.27-18.87-12.28-11.51-18.22-29.4-15.27-45.97,2.01-11.3,8.11-21.78,16.71-29.35,10.48-9.23,21.94-9.76,35.2-11.93,23.6-3.85,47.76-4.29,71.48-1.24,21.44,2.76,52.13,6.21,65.88,24.64,7.76,10.41,11.67,23.1,16.09,35.31,4.54,12.56,9.74,24.87,15.58,36.88h0Z"/>
  <path class="cls-5" d="M1386.05,901.69c-3.5,7.74-3.25,16.73.29,24.42,3.84,8.35,10.79,14.92,18.04,20.36,7.82,5.87,16.42,10.69,24.75,15.79l27,16.53,54,33.05c4.54,2.78,9.07,5.56,13.61,8.33,3.71,2.27,7.54,4.59,11.72,5.9,9.48,2.99,18.43-.26,25.84-6.43,12.92-10.75,22.55-26.19,27.89-42.01,2.72-8.06,4.86-16.89,4.83-25.44-.02-4.96-.9-9.79-3.44-14.11-2.53-4.3-6.06-7.76-9.92-10.87-7.89-6.36-16.37-12.07-24.56-18.04-19.03-13.88-33.92-25.26-55.71-34.58-3.56-1.52-7.2-3.06-11.06-3.45-15.97-1.61-36.62,3.51-53.32,3.94-18.7.49-41.71,8.51-49.95,26.62h-.01Z"/>
  <path class="cls-4" d="M597.51,654.5c0-1.26.01-2.52.05-3.79.36-12.26,2.76-24.47,2.12-36.69-1.02-19.6-11.57-31.63-27.6-38.09-17.02-6.85-36.08-3.98-53.63,1.53-7.29,2.29-14.6,5.09-20.72,10.09-8.96,7.32-14.48,18.57-21.41,28.24-18.67,26.08-52.09,22.08-77.54,33.99-14.71,6.89-27.22,18.7-37.96,31.86-6.85,8.39-13.18,17.56-16.78,28.13-3.45,10.12-4.27,21.1-3.93,31.86.59,19.23,4.86,38.52,14.02,54.73,13.52,23.92,34.47,29.53,54.95,42.53,21.82,13.85,46.84,21.25,71.98,22.81,27.86,1.73,57.19-3.62,80.01-21.83,9.56-7.63,23.4-20.82,27.1-33.19,8.44-28.19,16.98-57.13,16.04-86.7-.7-22-6.66-43.52-6.72-65.49h.02Z"/>
  <path class="cls-2" d="M1140.52,986.3c7.27-12.41,19.8-20.65,31.88-28.44,14.38-9.27,28.75-18.54,43.13-27.82,15.46-9.97,31.45-20.15,49.57-23.33,28.04-4.92,57.03,8.3,76.88,28.7,19.86,20.4,31.84,47.15,40.96,74.12,3.64,10.77,6.83,22.87,2.04,33.18-4.65,10.02-15.73,15.54-26.57,17.69-24.78,4.93-50.09-3.78-75.34-4.68-36.91-1.32-76.6,13.55-109.25-3.72-23.54-12.45-50.25-36.83-33.31-65.71h.01Z"/>
  <path class="cls-2" d="M726.68,758.95c22.03,2.74,44.89,2.09,65.55,10.38,7.27,2.92,14.59,7.41,17.68,14.71,4.56,10.8-1.7,23.02-1.11,34.74.59,11.65,7.97,21.9,16.42,29.84,10.62,9.97,25.22,17.82,39.13,14.01,9.85-2.7,17.53-10.97,21.69-20.42,4.16-9.46,5.2-20.03,5.32-30.4.23-19.81-2.79-39.96-11.29-57.84-5.74-12.07-13.85-22.88-19.41-35.04-6.39-13.97-9.31-29.53-17.17-42.71-10.85-18.21-31.15-30.25-52.05-30.89-10.66-.32-21.2,2.11-31.85,2.65-11.6.58-23.19-1.09-34.72-2.54-10.88-1.37-22.24-2.5-32.52,1.32-19.38,7.19-38.58,38.61-35.77,59.53.81,6.02,3.9,11.45,6.98,16.67,13.45,22.84,38.13,32.9,63.11,36.02v-.03Z"/>
  <path class="cls-2" d="M59.21,1078.99c-10.4-6.42-20.1-14.07-29.67-21.71-12.71-10.15-25.86-21.09-31.75-36.25-11.92-30.67,1.23-86.62,23.06-110.51,14.18-15.52,43.65-26.28,63.38-32.79,23.12-7.63,48.32-9.1,72.09-3.69,37.87,8.63,71.42,34.59,89.27,69.09,6.23,12.05,10.67,25.34,10.47,38.9-.26,17.69-8.36,34.4-18.44,48.94-17.68,25.5-42.41,46.5-71.43,57.5s-62.35,11.49-90.79-.92c-5.61-2.45-10.98-5.35-16.18-8.57h-.01Z"/>
  <path class="cls-1" d="M1532.96,748.44c-5.26-22.54-23.26-28.2-48.26-32.72-24.56-4.44-47.5-17.53-63.56-36.57-16.78-19.89-25.27-47.62-49.78-60.12-11.97-6.11-25.82-7.65-39.12-7.31-13.69.34-27.76,3.12-39.61,10.27-12.32,7.43-18.98,19.44-23.28,32.73-4.93,15.24-9.39,30.64-14.06,45.96-4.7,15.41-9.4,30.83-14.09,46.24-4.17,13.69-10.21,28.39-8.24,42.96,3.5,25.81,28.37,43.17,53,45.93,29.47,3.3,57.2-9.19,83.82-20.05,14.61-5.96,29.4-11.31,45.06-13.68,14.97-2.26,30.13-2.65,45.19-4.07,16.8-1.59,74.84-11.38,74.5-35.47-.08-5.33-.61-10-1.57-14.11h0Z"/>
  <path class="cls-1" d="M421.81,917.96c-2.62,5.62-3.66,11.98-4.55,18.18-2.56,17.82-4.42,35.74-5.58,53.71-.77,11.82-1.21,23.84,1.5,35.38,2.71,11.53,8.98,22.68,19.04,28.93,11.71,7.26,26.91,6.85,39.89,2.23,46.02-16.41,61.85-71.04,35.33-111.37-9.71-14.77-20.04-30.11-35.56-38.55-15.53-8.44-37.84-7.24-47.75,7.39-.89,1.31-1.65,2.69-2.32,4.11h0Z"/>
  <path class="cls-3" d="M1188.54,755.4c-1.56-3.64-3.41-7.37-5.58-11.23-12.31-21.93-34.63-36.7-58.09-45.77s-48.48-13.19-72.95-19.02c-10.41-2.48-20.88-5.3-31.58-5.22-22.38.17-43.4,13.5-56.29,31.8-12.89,18.3-18.38,40.99-19.29,63.36-.81,20.07,2.16,41.07,13.43,57.7,6.03,8.9,14.14,16.14,22.16,23.29,12.51,11.14,25.01,22.27,37.52,33.41,6.75,6.01,13.6,12.09,21.66,16.17,26.46,13.4,66.66,2.58,87.52-16,5-4.45,10.27-8.55,15.65-12.53,10.33-7.65,20.95-15.19,29.2-25.16,7.03-8.49,12.44-18.18,16.15-28.56,8.44-23.63,9.38-41.44.48-62.22v-.02Z"/>
  <path class="cls-3" d="M80.53,663.65c-1.56-3.64-3.41-7.37-5.58-11.23-12.31-21.93-34.63-36.7-58.09-45.77-23.46-9.07-48.48-13.19-72.95-19.02-10.41-2.48-20.88-5.3-31.58-5.22-22.38.17-43.4,13.5-56.29,31.8s-18.38,40.99-19.29,63.36c-.81,20.07,2.16,41.07,13.43,57.7,6.03,8.9,14.14,16.14,22.16,23.29,12.51,11.14,25.01,22.27,37.52,33.41,6.75,6.01,13.6,12.09,21.66,16.17,26.46,13.4,66.66,2.58,87.52-16,5-4.45,10.27-8.55,15.65-12.53,10.33-7.65,20.95-15.19,29.2-25.16,7.03-8.49,12.44-18.18,16.15-28.56,8.44-23.63,9.38-41.44.48-62.22v-.02Z"/>
  <path class="cls-4" d="M1048.47,962.91c-14.64-18.25-36.6-26-57.61-34.35-11.1-4.41-21.53-9.81-31.93-15.68-10.6-5.98-21.27-11.63-33.07-14.84-40.16-10.93-89.61,13.16-100.95,54.4-6.74,24.52,8.55,45.81,27.04,60.32,37.01,29.04,67.04,19.52,106.65,28.81,36.9,8.66,74.18,49.25,105.97-.05,11.79-18.28-3.82-63.3-16.12-78.62h.02Z"/>
  <path class="cls-4" d="M1707.31,637.21c-14.64-18.25-36.6-26-57.61-34.35-11.1-4.41-21.53-9.81-31.93-15.68-10.6-5.98-21.27-11.63-33.07-14.84-40.16-10.93-89.61,13.16-100.95,54.4-6.74,24.52,8.55,45.81,27.04,60.32,37.01,29.04,67.04,19.52,106.65,28.81,36.9,8.66,74.18,49.25,105.97-.05,11.79-18.28-3.82-63.3-16.12-78.62h.02Z"/>
  <path class="cls-5" d="M309.24,590.08c-14.64-18.25-36.6-26-57.61-34.35-11.1-4.41-21.53-9.81-31.93-15.68-10.6-5.98-21.27-11.63-33.07-14.84-40.16-10.93-89.61,13.16-100.95,54.4-6.74,24.52,8.55,45.81,27.04,60.32,37.01,29.04,67.04,19.52,106.65,28.81,36.9,8.66,74.18,49.25,105.97-.05,11.79-18.28-3.82-63.3-16.12-78.62h.02Z"/>
</svg>