<?xml version="1.0" encoding="utf-8"?>
<!-- Generator: Adobe Illustrator 24.3.0, SVG Export Plug-In . SVG Version: 6.00 Build 0)  -->
<svg version="1.1" id="Capa_1" xmlns="http://www.w3.org/2000/svg" xmlns:xlink="http://www.w3.org/1999/xlink" x="0px" y="0px"
	 viewBox="0 0 1000 1000" style="enable-background:new 0 0 1000 1000;" xml:space="preserve">
<style type="text/css">
	.st0{opacity:0.2;}
	.st1{fill:#D38531;}
	.st2{opacity:0.3;}
	.st3{fill:#F6B63E;}
	.st4{fill:#633D00;}
	.st5{fill:#4F2F00;}
	.st6{opacity:0.2;fill:#FFFFFF;}
	.st7{fill:#0067B1;}
	.st8{fill:#0066A3;}
	.st9{fill:#008ED2;}
	.st10{fill:#EE8D38;}
	.st11{fill:url(#SVGID_1_);}
	.st12{fill:#965B1E;}
	.st13{fill:#C3C5CA;}
	.st14{fill-rule:evenodd;clip-rule:evenodd;fill:#D38531;}
	.st15{fill-rule:evenodd;clip-rule:evenodd;fill:#EA8DB9;}
	.st16{fill-rule:evenodd;clip-rule:evenodd;fill:#E670A7;}
	.st17{fill-rule:evenodd;clip-rule:evenodd;fill:#F6B63E;}
	.st18{fill-rule:evenodd;clip-rule:evenodd;fill:#643305;}
	.st19{fill-rule:evenodd;clip-rule:evenodd;fill:#B8A483;}
	.st20{fill-rule:evenodd;clip-rule:evenodd;fill:#E3433B;}
	.st21{opacity:0.84;fill:#4B494B;}
	.st22{fill:#FFFFFF;}
	.st23{fill-rule:evenodd;clip-rule:evenodd;fill:#FDECC5;}
	.st24{fill:#BC5F8D;}
	.st25{fill-rule:evenodd;clip-rule:evenodd;fill:#8A5519;}
	.st26{fill:#4E4C4E;}
	.st27{fill:#B1A389;}
	.st28{fill-rule:evenodd;clip-rule:evenodd;fill:#FFFFFF;}
	.st29{fill-rule:evenodd;clip-rule:evenodd;fill:#00B1E6;}
	.st30{fill-rule:evenodd;clip-rule:evenodd;}
	.st31{fill-rule:evenodd;clip-rule:evenodd;fill:none;}
	.st32{fill:#643305;}
</style>
<g>
	<g>
		<path class="st0" d="M567.74,718.11c-8.41,0-16.65,0.21-24.65,0.62c-3.96-2.14-8-4.26-12.38-6.1
			c-45.69-19.28-84.96-26.23-135.16-21.19c-22.83,2.29-34.39,4.01-55.93,8.61c-13.26,2.83-72.67,16.44-41.59,28.36
			c10.64,4.08,5.93,12.08,17.21,16.09c11.21,3.99,33.57,13.22,45.89,12.91c22.69-0.58,48.2-24.95,71.71-19
			c2.45,0.62,5.35,1.57,8.34,2.78c-8.44,5.16-13.17,10.92-13.17,17c0,22.13,62.56,40.07,139.74,40.07s139.74-17.94,139.74-40.07
			C707.48,736.05,644.91,718.11,567.74,718.11z"/>
		<g>
			<path class="st1" d="M512.81,524.87c-2.53,8.08-0.12,17.57,4.57,23.79c4.69,6.23,11.29,9.67,17.93,11.8
				c15.98,5.14,33.36,3.54,48.73-4.5c17.33-9.07,33.06-20.85,51.73-21.96c11.39-0.68,22.56-0.13,30.17,10.38
				c2.4,3.32,4.47,7.15,5.37,11.51c2.91,14.12-6.94,29.02-3.93,43.1c2.64,12.37,14.91,18.35,24.81,14.89s17.42-13.88,22.58-25.09
				c5.91-12.82,9.52-27.6,8.63-42.25s-6.69-29.05-16.48-36.94c-6.85-5.52-15.14-7.6-23.3-8.36c-46.62-4.31-91.65,31.14-138.31,27.31
				c-7.48-0.61-15.69-2.85-19.92-10.55c-0.83-1.51-1.56-3.28-2.92-3.98c-1.26-0.65-2.71-0.18-3.97,0.51
				c-4.82,2.62-8.47,8.45-9.36,14.92c-0.89,6.48,1.01,13.4,4.87,17.74"/>
			<path class="st2" d="M549.59,528.82c2.39,6.69,4.31,13.56,5.7,20.53c0.58,2.9,0.42,9.8,1.89,14.01c4.14-0.2,8.28-0.82,12.35-1.84
				c4.6-7.13,7.57-18.87,8.78-22.13c1.84-4.97,3.62-9.96,5.34-14.96C572.36,527.33,561.02,529.18,549.59,528.82z"/>
			<path class="st3" d="M385.18,399.52c-0.26-0.32-0.51-0.63-0.77-0.94l0,0c-0.12-0.15-0.25-0.3-0.37-0.45
				c-0.01-0.01-0.02-0.02-0.02-0.03c0,0,0,0,0,0c-1.09-1.32-2.17-2.64-3.26-3.95c-1.17-1.43-2.34-2.86-3.5-4.31
				c-1.32-1.65-2.63-3.32-3.9-5.02c-2.02-2.72-3.95-5.52-5.81-8.36c-0.41-0.63-0.83-1.26-1.22-1.9
				c-25.35,7.11-51.01,12.27-77.38,13.69c-1.7-2.92-3.91-5.39-6.26-7.84c-2.5-2.62-4.24-3.81-6.85-4.61
				c-4.17-1.28-8.1-1.66-11.19-5.34c-5.32-6.34-13.47-17.79-23.47-14.7c-3.51,1.09-6.12,3.88-7.32,6.26
				c-5.5-2.53-12.26-5.02-17.59-7.12c-6.78-2.67-11.66-3.96-12.93-4.21c-3.93-0.76-9.15,0.95-11.86,5.34
				c-6.57,10.66,4.23,16.5,4.44,16.67c-3.83-0.12-17.8,0.74-21.04,8.93c-4.47,11.3,3.79,19.12,15.84,16.72
				c0.12,0.02,0.17,0.04,0.15,0.07c0,0,0,0,0,0c-2.55,1.35-7.15,6.19-4.45,12.74c2,4.85,4.93,5.65,7.72,6.03
				c5.24,0.71,10.59-4.75,13.84-4.66c4.33,0.12,8.43,1.79,12.66,2.67c0.02,0,0.03,0,0.05,0c1.73,3.27,7.06,8.89,10.19,10.87
				c0.69,0.43,1.38,0.84,2.08,1.23c2.36,1.55,5.04,2.85,8.04,3.59c0.93,0.23,1.86,0.44,2.78,0.64c2.8,0.68,5.63,1.09,8.43,1.24
				c3.66,0.25,7.32,0.07,11.12-0.69c10.67-1.9,20.13-7.19,25.61-14.04c0-0.01,0.01-0.02,0.01-0.02c19.01-0.87,37.97-3.63,56.49-7.69
				C358.84,407.37,372.1,403.74,385.18,399.52z M320.29,387.77c-0.13,0.02-0.3,0.05-0.48,0.07c0.25-0.04,0.49-0.08,0.74-0.12
				C320.46,387.74,320.36,387.76,320.29,387.77z"/>
			<path class="st1" d="M385.18,399.52c-0.26-0.32-0.51-0.63-0.77-0.94l0,0c-0.12-0.15-0.25-0.3-0.37-0.45
				c-0.01-0.01-0.02-0.02-0.02-0.03c0,0,0,0,0,0c-1.09-1.32-2.17-2.64-3.26-3.95c-1.17-1.43-2.34-2.86-3.5-4.31
				c-1.32-1.65-2.63-3.32-3.9-5.02c-2.02-2.72-3.95-5.52-5.81-8.36c-0.41-0.63-0.83-1.26-1.22-1.9
				c-25.35,7.11-51.01,12.27-77.38,13.69c-1.7-2.92-3.91-5.39-6.26-7.84c-2.5-2.62-4.24-3.81-6.85-4.61
				c-4.17-1.28-8.1-1.66-11.19-5.34c-5.32-6.34-13.47-17.79-23.47-14.7c-3.51,1.09-6.12,3.88-7.32,6.26
				c-5.5-2.53-12.26-5.02-17.59-7.12c-6.78-2.67-11.66-3.96-12.93-4.21c-3.93-0.76-9.15,0.95-11.86,5.34
				c-6.57,10.66,4.23,16.5,4.44,16.67c-3.83-0.12-17.8,0.74-21.04,8.93c-4.47,11.3,3.79,19.12,15.84,16.72
				c0.12,0.02,0.17,0.04,0.15,0.07c0,0,0,0,0,0c-2.55,1.35-7.15,6.19-4.45,12.74c2,4.85,4.93,5.65,7.72,6.03
				c5.24,0.71,10.59-4.75,13.84-4.66c4.33,0.12,8.43,1.79,12.66,2.67c0.02,0,0.03,0,0.05,0c1.73,3.27,7.06,8.89,10.19,10.87
				c0.69,0.43,1.38,0.84,2.08,1.23c2.36,1.55,5.04,2.85,8.04,3.59c0.93,0.23,1.86,0.44,2.78,0.64c2.8,0.68,5.63,1.09,8.43,1.24
				c3.66,0.25,7.32,0.07,11.12-0.69c10.67-1.9,20.13-7.19,25.61-14.04c0-0.01,0.01-0.02,0.01-0.02c19.01-0.87,37.97-3.63,56.49-7.69
				C358.84,407.37,372.1,403.74,385.18,399.52z M320.29,387.77c-0.13,0.02-0.3,0.05-0.48,0.07c0.25-0.04,0.49-0.08,0.74-0.12
				C320.46,387.74,320.36,387.76,320.29,387.77z"/>
			<path class="st2" d="M383.01,396.88c-0.75-0.91-1.5-1.82-2.25-2.73c-1.17-1.43-2.34-2.86-3.5-4.31c-1.32-1.65-2.63-3.32-3.9-5.02
				c-2.02-2.72-3.95-5.52-5.81-8.36c-0.41-0.63-0.83-1.26-1.22-1.9c-5.27,1.48-10.56,2.87-15.87,4.16
				c-1.07,9.96,0.43,20.18,4.3,29.41c8.45-2.06,16.83-4.39,25.14-6.95C381.02,399.81,382.06,398.38,383.01,396.88z"/>
			<g>
				<path class="st3" d="M655.11,746.6c-1.13-6.9-2.91-13.78-6.16-20.01c-3.24-6.18-8-12.08-14.59-14.83
					c-3.45-1.44-7.38-1.61-10.99-2.47c-8.56-2.04-16.94-4.8-25.07-8.18c-2.68-1.11-5.35-2.3-8.01-3.53
					c-8.68-10.01-16.85-27.92-19.58-38.32c-1.81-6.88-1.81-23.91-2.39-31.02c0,0-35.82-14.98-59.69,6.64
					c-0.03-0.11-0.04-0.11-0.03,0.01l0.19,1.45c-0.28,0.98,0.18,2.64,0.23,3.51c0.1,2.07,0.19,4.08,0.4,6.13
					c0.27,2.68,0.77,5.27,1.31,7.85c0.64,6.68,1.18,13.2,1.35,16.76c0.29,6.15,0.42,12.38-0.24,18.52
					c-0.38,3.61-0.87,7.59-2.6,10.89c-4.39,6.48-8.6,13.14-11.93,20.14c-2.38,5.03-4.23,10.39-6.1,15.62
					c-2.29,6.41-4.67,13.11-5.4,19.92c-0.45,4.26-0.08,7.71,2.67,11.08c2.02,2.48,4.49,4.59,7.38,6.01
					c10.79,5.27,24.15,4.11,35.82,2.7c1.6,1.73,3.48,3.17,5.66,4.19c3.62,1.68,6.91,3.51,10.85,4.51c6,1.53,12.27,2.01,18.45,1.86
					c12.67-0.3,25.36-2.65,37.5-6.26c4.33-1.28,8.67-2.68,12.82-4.5c3.35-1.46,5.96-2.99,7.52-6.52c0.69-1.55,1.07-3.22,1.22-4.93
					c10.07,0.91,22.52,0.05,28.71-8.71C656.43,752.24,655.69,750.19,655.11,746.6z M588.18,698.9c-0.02-0.01-0.03-0.03-0.05-0.03
					c0.04,0.02,0.08,0.04,0.11,0.06C588.22,698.92,588.19,698.91,588.18,698.9z M567.93,631.51c-0.05-0.21-0.09-0.41-0.14-0.59
					c0.07,0.02,0.13,0.04,0.19,0.06C567.96,631.14,567.94,631.33,567.93,631.51z M513.06,696.82L513.06,696.82
					c0.25,0.53-1.68,4.01-3.55,6.77C510.75,701.17,511.95,698.89,513.06,696.82z"/>
				<path class="st2" d="M568.31,628.22c0,0-2.39-0.99-6.32-2.1c-15.49,0.88-30.97,2.08-46.41,3.6c-2.4,1.42-4.73,3.12-6.96,5.14
					c-0.03-0.11-0.04-0.11-0.03,0.01l0.19,1.45c-0.28,0.98,0.18,2.64,0.23,3.51c0.1,2.07,0.19,4.08,0.4,6.13
					c0.02,0.19,0.05,0.37,0.07,0.56c3.74,2.24,9.21,3.56,12.97,4.8c12,3.96,24.74,5.68,37.35,4.99c3.4-0.19,6.82-0.55,10.12-1.37
					C568.88,646.83,568.79,634.11,568.31,628.22z M567.93,631.51c-0.05-0.21-0.09-0.41-0.14-0.59c0.07,0.02,0.13,0.04,0.19,0.06
					C567.96,631.14,567.94,631.33,567.93,631.51z"/>
				<path class="st1" d="M488.32,703.88c-9.48-16.59-17.65-56.78-19.39-79.79l-0.28-4.61c-41.63-9.52-62.4,5.02-62.4,5.02
					c7.48,27.49,5.38,41.44,3.77,46.9c-0.07,0-0.14,0-0.2,0c-0.98,0.58-2.11,0.84-3.57,0.89c-9.36,0.25-18.71,0.77-28.06,1.27
					c-4.34,0.23-8.2,1.76-11.49,4.36c-0.76,1.1-1.52,2.2-2.29,3.3c-0.06,0.04-0.12,0.07-0.2,0.12c0.73-1.06,1.46-2.12,2.19-3.17
					c-0.23,0.19-0.47,0.37-0.7,0.58c-2.58,2.32-5.46,3.94-8.75,5.05c-4.65,1.58-8.62,4.28-12.38,7.28
					c-6.18,4.92-9.14,11.57-10.73,18.94c-0.22,1.01-0.38,2.03-0.55,3.05c-0.21,1.28-0.29,2.52-0.26,3.74c0,0.01,0,0.03-0.01,0.04
					c-0.01,0.22,0.01,0.44,0.05,0.68c0.21,3.03,1.22,5.89,3.19,8.61c3.27,4.51,7.02,8.34,12.35,10.51
					c5.12,2.1,10.23,4.19,15.31,6.38c2.05,0.88,3.98,2.01,5.95,3.07c5.28,2.81,10.19,2.21,15.45-0.57
					c10.49-5.53,21.22-10.63,31.89-15.84c1.13-0.55,2.49-0.8,3.76-0.91c6.4-0.54,12.75-0.25,19.1,0.85
					c10.59,1.85,21.22,3.51,31.86,5.04c2.27,0.34,4.72,0.01,7.02-0.39c2.81-0.48,5.08-2.13,6.29-4.62
					c1.82-3.72,3.61-7.49,4.95-11.39C491.93,713.29,490.8,708.2,488.32,703.88z M469.73,640.44c0.06,0.61,0.12,1.22,0.19,1.85
					C469.85,641.72,469.79,641.1,469.73,640.44z"/>
				<path class="st2" d="M468.93,624.09l-0.28-4.61c-41.63-9.52-62.4,5.02-62.4,5.02c0.98,3.62,1.8,7,2.48,10.16
					c21.6,3.62,42.35,11.55,63.77,15.91C470.75,640.87,469.5,631.57,468.93,624.09z M469.91,642.29c-0.06-0.57-0.13-1.19-0.19-1.85
					C469.79,641.04,469.85,641.66,469.91,642.29z"/>
				<g>
					<path class="st4" d="M599.11,614.06c-2.96-4.49-8.81-10.92-11.73-15.32c0,0-0.91,1.49-3.99,3.97
						c-5.91-11.7-11.71-25.82-16-37.91c-3.19-8.97-6.23-18.02-8.91-27.16c-0.08,0.13-0.17,0.27-0.25,0.4
						c-0.07,0.12-0.16,0.21-0.24,0.32l-0.01-0.16c0.14-0.23,0.33-0.42,0.46-0.66c-0.22-0.76-0.45-1.51-0.67-2.27
						c-0.03,0-0.05,0-0.08,0.01l-3.46-11.4c0,0-16.07,2.18-37.46,3.73c8.87-0.06,18.53-0.13,29.05-0.19
						c-10.63,2.88-31.63,8.49-33.63,8.39c-2.7-0.14-38.71-2.56-43.71-3.64c-5-1.08-40.88-4.45-44.79-7.15
						c-1.73-1.19-4.33-2.33-6.73-3.23c2.33,0.47,4.73,1.85,4.73,1.85c4.75,2.07,12.14,3.17,24.15,3.72
						c-8.73-1.12-16.49-2.83-22.51-5.36c-11.78-7.32-13.87-3.64-13.87-3.64c-0.79,3.23-0.87,6.53-0.52,9.78l0.25,10.03L408,545.7
						c0,0-6.48,28.46-6.75,28.87c-0.26,0.4-4.98,20.77-4.98,20.77l-0.44,6.28c-2.78-1.56-3.97-2.59-3.97-2.59v4.38
						c-0.03,2.16,0.08,4.38,0.37,6.72c0.5,3.89,1.6,6.99,4.92,9.43c4.51,3.31,9.98,5.45,15.38,7.05
						c12.75,3.76,26.29,5.16,39.58,5.52c9.11,0.25,21.19,1.09,28.85-4.63c1.75-1.32,1.06-5.2,0.49-7.48
						c-0.44-1.76-0.76-3.32-0.98-4.73c-0.02,0-0.02,0-0.03,0c-0.74-5.66,0.06-8.94,0.92-13.38c0.51,3.81,0.69,7.75,1.26,11.31
						c0.13,0.76,0.24,1.53,0.36,2.3c0.05-0.01,0.1-0.02,0.15-0.02c0.6,4.32,1.04,8.68,1.16,13.03c0.02,0.52,0.85,0.96,1.23,1.13
						c26.15,11.17,55.55,14.47,82.57,4.32c11.07-4.17,22.69-10.36,31-19.01C599.35,614.69,599.29,614.34,599.11,614.06z"/>
					<path class="st2" d="M457.79,547.14c23.17,7.94,48.17,12.85,72.15,7.92c9.38-1.93,18.92-5.68,24.82-13.22
						c0.48-0.62,0.95-1.27,1.16-2.03c0.29-1.04,0.07-2.16-0.15-3.22c-0.95-4.53-1.9-9.07-2.85-13.6
						c-6.84,2.45-14.21,2.99-21.47,3.24c-22.46,0.77-44.89-1.07-67.28-2.53c-11.2-0.73-22.41-1.37-33.63-1.54
						c-3.13-0.05-8.65-1.49-9.55,2.46c-0.69,3.03,2.77,6.15,4.83,7.67C435.12,539.16,446.96,543.43,457.79,547.14z"/>
					<path class="st5" d="M480.47,615.27c-0.02,0-0.02,0-0.03,0c-0.36-2.73-0.35-4.9-0.16-6.92c-1.4-9.1-2.98-18.44-7.86-26.23
						c-3.5-5.59-8.49-10.06-13.48-14.37c-17.63-15.24-36.38-29.94-49.56-49.02c-0.7,3.11-0.77,6.27-0.44,9.39l0.25,10.03L408,545.7
						c0,0-6.48,28.46-6.75,28.87c-0.26,0.4-4.98,20.77-4.98,20.77l-0.44,6.28c-2.78-1.56-3.97-2.59-3.97-2.59v4.38
						c-0.03,2.16,0.08,4.38,0.37,6.72c0.5,3.89,1.6,6.99,4.92,9.43c4.51,3.31,9.98,5.45,15.38,7.05
						c12.75,3.76,26.29,5.16,39.58,5.52c9.11,0.25,21.19,1.09,28.85-4.63c1.75-1.32,1.06-5.2,0.49-7.48
						C481.01,618.25,480.7,616.68,480.47,615.27z"/>
					<path class="st6" d="M516.79,527.6c-33.55,0.24-55.88,0.43-70.93-0.26C467.42,530.1,494.89,529.18,516.79,527.6z"/>
				</g>
			</g>
			<g>
				<path class="st7" d="M496.74,379.07c-0.18,0.06-0.36,0.08-0.54,0.13l0,0L496.74,379.07z"/>
			</g>
			<g>
				<path d="M526.34,417.03c0.24-0.07,0.41-0.21,0.4-0.47c0-0.22-0.35-0.14-0.42,0c0.03,0.01,0.05,0.02,0.08,0.03
					C525.89,416.52,525.84,417.18,526.34,417.03L526.34,417.03z"/>
			</g>
			<g>
				<path d="M530.19,414.55c0.66,0,1.64-0.5,1.74-1.22c0.12-0.81-0.86-0.95-1.43-0.95c-0.66,0-1.64,0.5-1.74,1.22
					C528.65,414.41,529.62,414.55,530.19,414.55L530.19,414.55z"/>
			</g>
			<g>
				<path d="M528.79,414.63c0.27,0,0.68-0.41,0.24-0.41C528.76,414.21,528.35,414.63,528.79,414.63L528.79,414.63z"/>
			</g>
			<g>
				<path d="M530.33,413.36c0.21,0,0.29-0.27,0.03-0.27C530.15,413.09,530.07,413.36,530.33,413.36L530.33,413.36z"/>
			</g>
			<g>
				<path d="M530.04,413.53c0.71,0,1.75-1.09,0.62-1.09C529.94,412.44,528.9,413.53,530.04,413.53L530.04,413.53z"/>
			</g>
			<g>
				<path d="M531.33,413.01c0.5-0.68,0.98-1.44,1.16-2.28c0.04-0.18-0.08-0.43-0.25-0.51c-0.54-0.28-1.21-0.21-1.63,0.28
					c-0.25,0.29-0.3,0.7-0.41,1.05c-0.12,0.38-0.29,0.74-0.48,1.09C529.27,413.5,530.95,413.54,531.33,413.01L531.33,413.01z"/>
			</g>
			<g>
				<path d="M528.4,415.88c1.14-0.43,1.88-1.37,2.55-2.35c0.15-0.22,0.03-0.52-0.17-0.65c-0.67-0.41-1.56,0.02-1.85,0.69
					c-0.3,0.71-0.76,1.37-1.21,1.99C527.46,415.97,528.24,415.94,528.4,415.88L528.4,415.88z"/>
			</g>
			<g>
				<path d="M532.05,412.37c0.02-0.07,0.03-0.15,0.05-0.22c0.15-0.69-1.15-0.49-1.45-0.34c-0.1,0.05-0.21,0.1-0.31,0.15
					c-0.52,0.25-1.18,1.02-0.24,1.24C530.69,413.35,531.89,413.09,532.05,412.37L532.05,412.37z"/>
			</g>
			<g>
				<path d="M530.11,413.49c0.61,0,1.73-0.92,0.63-0.92C530.14,412.57,529.02,413.49,530.11,413.49L530.11,413.49z"/>
			</g>
			<path class="st8" d="M408.71,369.25c1.52-7.48,6.2-12.86,12.19-17.68c2.61-2.1,5.35-4.23,8.39-5.8c-0.29,0.1-0.58,0.21-0.86,0.33
				c-7.84-0.42-15.19-1.2-25.64,3.28c-8.41,2.94-13.97,6.16-20.21,8.09c-6.9,2.14-20.68,3.63-21.02,3.68
				c-14.76,2.55-2.75,25.19,2.23,32.1c3.41,4.73,7.59,9.69,13.05,12.44c3.52,1.78,16.04-0.99,19.81-1.41
				c2.16-0.24,10.16-2.75,14.94-5.83C409.55,388.76,406.72,379.09,408.71,369.25z"/>
			<path class="st9" d="M573.19,390.46c-0.26-0.35-0.52-0.75-0.78-1.16c-0.56-0.21-1.1-0.42-1.61-0.59
				c-6.44-2.2-11.56-6.56-16.22-11.39c-5.02-5.2-9.71-10.9-16.02-14.61c-3.1-1.82-6.37-2.97-9.73-3.76
				c-9.15-1.36-18.53-1.05-24.87-0.48c-0.62-0.64-1.19-1.3-1.7-1.99c-29.25-16.29-59.93-13.87-71.83-12.06
				c-0.4,0.12-0.8,0.24-1.19,0.37c-4.63,1.58-8.46,4.72-12.11,7.88c-5.95,5.15-10.11,11.11-11.01,19.09
				c-1.01,8.91,1.24,17.65,2.83,26.43c0.09-0.07,0.19-0.13,0.28-0.2c2.68,13.9,5.55,30.72,5.55,42.07c0,45.89-5.97,75.74-5.18,76.72
				c1.29,1.58,4.35,6.09,5.95,7.43c3.69,3.07,7.96,5.53,12.49,7.52c10.9,4.78,23.02,7.25,35.02,8.7c24.22,2.93,50.25,2.7,74.12-2.25
				c12.26-2.54,13.83-3.83,21.55-12.97c2.91-3.45,5.72-7.75,6.29-12.11c0.14-1.07-2.28-2.13-3.05-2.71
				c-1.67-1.28-3.31-2.58-4.87-3.95c-1.1-0.98-5.57-4.06-8.74-6.6c-0.09-0.18-0.17-0.37-0.26-0.55c2.36-3.59,1.95-6.3,1.95-6.3
				c-1.44-1.96-2.91-4.26-4.38-7c-3.04-5.69-6.13-16.42-7.32-21.7l-0.41-2.06c0,0-1.51-10.54-2.78-23.42
				c4.2,4.83,14.56,7.31,19.28,6.71c13.44-1.73,24.29-8.62,27.57-17.41c2.15-5.76,2.4-14.31,0.35-19.99
				C579.99,401.61,577.15,395.83,573.19,390.46z M505.06,359.56c-0.08-0.07-0.15-0.15-0.22-0.22c0,0,0,0,0,0
				c0.14,0.01,0.28,0.02,0.42,0.03C505.2,359.44,505.13,359.5,505.06,359.56z M566.92,439.39c-1.23,0.5-2.52,0.91-3.85,1.26
				c4.82-1.49,8.25-3.81,12.15-7.27c0.45-0.4,0.86-0.8,1.25-1.21C574.18,435.23,571.01,437.73,566.92,439.39z M580.77,420.58
				c-0.03-1.87-0.17-3.69-0.17-5.57c0-2.32-0.74-3.79-1.3-6.01c-0.09-0.35-0.14-0.72-0.17-1.09
				C580.6,412.21,581.14,416.53,580.77,420.58z"/>
			<path class="st9" d="M558.98,514.29c-0.03,0.13-0.07,0.26-0.1,0.39c-0.01-0.17-0.02-0.35-0.03-0.52
				C558.89,514.2,558.94,514.25,558.98,514.29z"/>
			<path class="st1" d="M644.71,428.27c-6.49-12.48-21.39-22.3-35.72-21.27c-2.52,0.18-3.94,3.4-6.25,4.36
				c-5.91,2.48-10.51,3.2-16.35,0.69c-7.03-3.02-13.71-9.55-20.87-12.44c-9.19-3.71-18.04-0.93-21.66,7.08
				c-2.13,4.73-0.92,11.48,0.77,16.16c1.39,3.84,39.75,50.11,64.51,51.18c12.64,0.55,24.8-6.42,33.01-15.49
				C650.8,449.02,650.53,439.44,644.71,428.27z M609.07,410.53c3.26-1.12,5.64-0.09,7.93,1.59c-2.4-0.58-4.88-0.99-7.42-1.15
				c-0.64,0-1.23,0.02-1.79,0.06C608.22,410.85,608.65,410.67,609.07,410.53z"/>
			<g>
				<path class="st10" d="M568.05,447.47C568.05,447.46,568.05,447.46,568.05,447.47L568.05,447.47z"/>
			</g>
			<path class="st6" d="M548.99,403.66"/>
			<g>
				<linearGradient id="SVGID_1_" gradientUnits="userSpaceOnUse" x1="560.6924" y1="395.1" x2="560.7132" y2="395.018">
					<stop  offset="0" style="stop-color:#0065AF"/>
					<stop  offset="1" style="stop-color:#47BBEA"/>
				</linearGradient>
				<path class="st11" d="M560.68,395.09c0.04,0,0.15-0.07,0.05-0.07C560.69,395.03,560.58,395.09,560.68,395.09L560.68,395.09z"/>
			</g>
			<g>
				<path d="M217.05,379.78c0.44,0,0.58-0.56,0.07-0.56C216.68,379.21,216.53,379.78,217.05,379.78L217.05,379.78z"/>
			</g>
			<g>
				<path d="M213.39,395.7c0.05,0,0.15-0.08,0.05-0.08C213.39,395.62,213.29,395.7,213.39,395.7L213.39,395.7z"/>
			</g>
			<g>
				<path class="st2" d="M702.44,324.31c-0.19-0.27-0.36-0.56-0.54-0.84c-0.55,0.83-1.09,1.69-1.63,2.57L702.44,324.31z"/>
			</g>
			<path class="st3" d="M715.66,420.59c-3.76-6.72-13.62-9.62-20.62-10.55c-5.62-0.74-22-2.77-25.87-3.66
				c2.17-6.37,8.57-12.03,10.94-15.22c3.21-4.34,4.8-9.86,5.62-15.13c0.86-5.54-0.93-11.86-4.91-15.79
				c-4.18-4.12-10.26-1.83-14.47,0.82c-2.15,1.35-4.03,3.12-5.76,5.08c-3.28,3.39-5.98,7.55-8.92,11.01
				c-1.94,2.28-3.95,4.45-6.06,6.46c-5.11,4.72-10.85,8.51-17.76,10.69c-6.33,1.99-12.59,4.53-18.14,8.2
				c-2.04,2.16-3.65,4.85-4.84,7.52c-2.45,5.52-1.27,12.83-6.16,17.12c-3.97,3.47-9.17,5.27-13.35,8.38
				c-2.03,2.63-4.28,4.96-5.89,7.63c-1.5,4.12-1.17,8.46-1.28,12.87c2.18,6.24,7.76,11.49,12.34,15.69
				c11.48,10.5,26.88,19.77,42.46,23.96c9.53,2.56,17.11,5.02,22.92-4.25c3.75-5.99,2.53-10.74-2.46-16.41
				c-2.81-3.19-8.01-7.03-10.81-10.22c-0.13-0.15-0.25-0.27-0.38-0.41c0.31,0.28,0.62,0.55,0.96,0.81
				c5.59,4.34,11.62,8.02,18.47,9.98c8.99,2.58,21.52,3.52,29.73-1.87c7.45-4.9,12.31-14.46,6.19-22.41
				c-1.73-2.26-4.27-3.9-7.01-5.21c-0.43-0.24-0.87-0.47-1.31-0.7c0.42,0.07,0.83,0.13,1.25,0.19c2.37,0.41,4.76,0.76,7.33,0.63
				c5.06-0.26,9.72-1.81,13.86-4.65C718.56,436.45,719.49,427.42,715.66,420.59z M638.6,460.81c0.84,0.82,1.62,1.64,2.42,2.43
				C640.06,462.45,639.34,462.02,638.6,460.81z"/>
			<path class="st1" d="M657.39,417.57c-5.91,6.57-9.5,10.27-10.79,10.53s7.96-4.37,10.53-6.16c2.57-1.8,30.57,13.61,30.57,13.61
				l-26.71-16.18c0,0-0.51-7.71-1.03-9.25C659.44,408.58,659.7,415,657.39,417.57z"/>
			<path class="st12" d="M389.33,673.58c-0.57-0.19-1.14-0.36-1.71-0.52c-3.14,0.16-6.29,0.33-9.43,0.5
				c-4.34,0.23-8.2,1.76-11.49,4.36c-0.76,1.1-1.52,2.2-2.29,3.3c-0.06,0.04-0.12,0.07-0.2,0.12c0.73-1.06,1.46-2.12,2.19-3.17
				c-0.23,0.19-0.47,0.37-0.7,0.58c-2.58,2.32-5.46,3.94-8.75,5.05c-4.65,1.58-8.62,4.28-12.38,7.28
				c-6.18,4.92-9.14,11.57-10.73,18.94c-0.22,1.01-0.38,2.03-0.55,3.05c-0.21,1.28-0.29,2.52-0.26,3.74c0,0.01,0,0.03-0.01,0.04
				c-0.01,0.22,0.01,0.44,0.05,0.68c0.21,3.03,1.22,5.89,3.19,8.61c3.27,4.51,7.02,8.34,12.35,10.51c2.29,0.94,4.57,1.88,6.86,2.82
				c-2.08-4.15-6.17-7.77-8.24-12.08c-2.3-4.79-3.48-10.32-2.19-15.48c1.07-4.3,3.75-8.03,6.8-11.24
				c5.78-6.06,13.14-10.6,21.15-13.06c1.59-0.49,3.36-1.01,4.21-2.44c0.67-1.14,0.57-2.55,0.9-3.83c0.96-3.68,5.15-5.4,8.88-6.17
				C387.99,674.97,389.2,674.58,389.33,673.58z"/>
			<path class="st1" d="M536.14,777.45c-3.34-7.45-7.71-21.06-4.88-36.73c2.83-15.67,4.37-18.49,4.37-18.49s-8.22,11.05-9.76,28.77
				c-1.56,17.92,3.08,24.4,3.08,24.4l2.72,0.03l5.66,4.19L536.14,777.45z"/>
			<path class="st1" d="M622.71,770.51c1.54-4.88,2.83-11.05,0.26-20.04c-2.57-8.99-15.93-25.94-20.55-29.03
				c-4.62-3.08,14.9,6.42,20.04,15.93c5.41,10.01,6.68,26.46,6.68,26.46h-2.57L622.71,770.51z"/>
			<path class="st1" d="M435.41,377.85c3.04,4.58,7.92,7.73,13.15,9.43c5.23,1.71,10.8,2.07,16.3,1.94c2.59-0.06,5.2-0.23,7.69-0.92
				c3.68-1.02,6.96-3.12,10.03-5.4c11.2-8.33,20.46-19.39,32.87-25.76c2.78-1.43,5.88-2.77,7.41-5.5c1.91-3.41,0.53-7.93-2.25-10.69
				s-6.64-4.09-10.41-5.12c-13.51-3.67-27.72-4.33-41.68-3.17c-9.84,0.82-25.27,2.75-31.25,11.97
				C431.43,353.68,429.3,368.65,435.41,377.85z"/>
			<path class="st13" d="M519.65,357.7c-7.26,0.54-14.43,2.37-21.72,2.31c-13.44-0.12-25.84-6.66-38.62-10.81
				c-24.01-7.8-51.92-6.72-72.67,7.64c8.09,4.99,14.86,12.09,19.46,20.4c-0.24-4.82,0.5-9.69,2.16-14.22
				c8.6,5.46,17.19,10.91,25.79,16.37c-0.94-4.81-1.88-9.62-2.82-14.43c11.42,5.73,23.24,10.66,35.35,14.75
				c9.06,3.06,18.44,5.68,28,5.48c9.56-0.2,19.41-3.55,25.69-10.76c4.03-4.63,7.21-11.14,13.28-12.06c1.26-0.19,2.49-0.08,3.7,0.18
				C531.71,359.9,525.74,358.21,519.65,357.7z"/>
		</g>
		<g>
			<path class="st14" d="M531.85,159.87c1.9-1.45,3.78-2.93,5.95-4.08c6.93-3.65,17.58-10.02,28.53,2.3
				c8.56,9.63,6.75,44.45,1.11,62.5c-1.17,3.75-2.59,7.45-4.77,10.75c-0.55,0.83-1.23,1.69-2.34,1.89
				c-1.73,0.32-3.46-1.07-4.74-2.33c-8.98-8.89-16.72-18.64-23.31-28.83c-3.27-5.06-6.26-10.23-9-15.47
				c-1.37-2.62-2.67-5.27-3.92-7.93c-0.87-1.86-3.45-5.59-2.97-7.47c0.53-2.11,5.13-3.92,6.94-5.16
				C526.23,164.05,529.07,161.99,531.85,159.87z"/>
			<path class="st15" d="M570.87,167.98c-0.81-0.65-1.69-1.23-2.65-1.72c-1.38-0.7-2.9-1.18-4.45-1.19
				c-4.37-0.02-7.95,3.71-9.59,7.76c-1.64,4.05-1.88,8.51-2.93,12.75c-1.79,7.2-5.83,11.76-10.43,17.24
				c-2.16,2.58-1.43,6.54,0,10.52c4.53,5.89,9.48,11.56,14.9,16.92c1.28,1.26,3,2.65,4.74,2.33c1.11-0.2,1.79-1.06,2.34-1.89
				c2.18-3.31,3.6-7,4.77-10.75C571.87,206.17,573.94,182.64,570.87,167.98z"/>
			<path class="st16" d="M555.9,169.71c-0.69,0.97-1.28,2.03-1.71,3.11c-1.64,4.05-1.88,8.51-2.93,12.75
				c-1.79,7.2-5.83,11.76-10.43,17.24c-2.16,2.58-1.43,6.54,0,10.52c1.29,1.68,2.62,3.33,3.98,4.97c3.03-2.63,6.56-6.81,10.57-12.86
				C564.83,191.13,560.6,177.76,555.9,169.71z"/>
			<path class="st14" d="M354.78,221.17c-3.5-15.53-6.73-31.95-1.19-48.49c1.05-3.13,6.55-15.99,18.88-18.27
				c17.98-2.91,26.16,12.88,36.83,18.4c0.59,0.31,1.19,0.63,1.57,1.14c0.34,0.47,0.47,1.06,0.58,1.64
				c1.06,5.14,2.04,10.44,0.98,15.93c-0.82,4.28-2.85,8.48-5.06,12.54c-5.96,10.95-13.39,21.35-20.79,31.7
				c-2.45,3.43-4.95,6.93-8.19,9.83c-2.29,2.05-6.44,5.59-9.58,5.03c-3.14-0.55-5.1-4.67-6.43-6.98c-1.87-3.23-3.28-6.73-4.43-10.32
				C356.67,229.36,355.7,225.27,354.78,221.17z"/>
			<path class="st15" d="M400.72,215.22c-0.6-1.02-1.29-1.96-2.07-2.78c-2.78-2.92-6.44-4.79-9.14-7.97
				c-3.29-3.86-5.86-8.34-7.48-13.15c-1.55-4.6-2.26-9.48-4.3-13.88c-2.04-4.4-5.88-8.43-10.71-8.82
				c-4.05-0.32-7.86,1.95-10.91,4.63c-1.37,1.2-2.62,2.5-3.79,3.86c-3.67,15.03-0.74,29.91,2.45,44.05
				c0.92,4.1,1.89,8.19,3.17,12.16c1.16,3.59,2.56,7.09,4.43,10.32c1.34,2.31,3.29,6.42,6.43,6.97c3.14,0.55,7.29-2.98,9.58-5.03
				c3.24-2.9,5.74-6.4,8.19-9.83C391.43,228.98,396.28,222.18,400.72,215.22z"/>
			<path class="st16" d="M398.65,212.45c-2.78-2.92-6.44-4.79-9.14-7.97c-3.29-3.86-5.86-8.34-7.48-13.15
				c-1.55-4.6-2.26-9.48-4.3-13.88c-1.72-3.72-4.73-7.16-8.54-8.38c-1.87,1.15-2,5.9-2.3,7.81c-1.95,12.5-0.64,25.48,3.66,37.37
				c2.38,6.59,5.68,12.86,9.85,18.5c0.89,1.21,1.97,2.48,3.46,2.7c1.13,0.16,2.24-0.32,3.24-0.86c0.18-0.1,0.36-0.21,0.54-0.32
				c4.49-6.29,8.96-12.6,13.08-19.05C400.12,214.2,399.43,213.27,398.65,212.45z"/>
			<path class="st17" d="M566.28,327.92c0.43,0.81,0.97,1.55,1.55,2.25c1.85-2.28,9.02-9.85,10.8-12.36
				c23.48-33.08,11.67-54.9,6.08-61.42c-3.08-3.6-7.03-6.33-10.65-9.4c-15.73-13.37-24.73-32.83-32.86-51.8
				c-4.55-10.61-9.31-21.74-18.32-28.96c-3.82-3.06-8.28-5.31-11.83-8.68c-3.55-3.37-6.13-8.44-4.7-13.12
				c-2.7,3.81-4.41,8.33-4.91,12.98c-7.22-2.13-13.46-7.37-16.82-14.1c-1.59,3.44-2.41,7.24-2.36,11.03
				c-7.29-4.47-16.29-6.05-24.66-4.34c4.31,2.96,7.44,7.61,8.55,12.72c-11.41,0.99-22.8-8-24.48-19.33
				c-1.36,4.58-1.82,9.43-1.36,14.19c-6.2-3.59-13.76-4.77-20.76-3.26c7.84-0.25,15.41,5.73,16.99,13.41
				c-9.71-6.32-18.92-15.15-31.34-13.41c4.4,6.55,5.84,12.04,3.08,21.72c-3.49,12.21-18.85,46.99-30.04,59.38
				c-12.07,13.37-26.5,25.49-33.36,42.15c-8.53,20.74-1.26,46.84,16.77,60.18c-0.64-2.17-0.65-4.51-0.05-6.69
				c12.35,7.69,24.07,16.41,34.98,26.04c1-3.94,1.39-8.02,1.15-12.08c4.61,4.11,10.15,7.17,16.09,8.86
				c-1.1-0.31-4.37-15.04-4.45-16.75c-0.21-4.79,6.81-5.03,10.45-5.33c44.54-3.72,89.07-7.45,133.61-11.17
				c0.25,7.52-2.15,15.1-6.7,21.09C554.34,339,561.18,334.17,566.28,327.92z"/>
			<path class="st14" d="M501.45,157.4c-0.45-0.13-0.9-0.28-1.35-0.44c1.42,2.04,4.53,3.09,6.7,3.89
				c5.71,2.13,11.27,4.64,16.64,7.52c-0.13-0.68-0.27-1.36-0.41-2.04c-0.05-0.04-0.09-0.08-0.14-0.12
				c-3.82-3.06-8.28-5.31-11.83-8.68c-3.55-3.37-6.13-8.44-4.7-13.12C503.66,148.24,501.95,152.76,501.45,157.4z"/>
			<path class="st14" d="M578.63,317.81c3.59-5.06,6.35-9.86,8.44-14.38c1.19-6.4,1.06-13.15-0.95-19.34
				c-0.77-2.37-2.46-8.02-5.27-8.57c-2.62-0.51-7.39,3.48-9.44,4.84c-3.07,2.03-6.01,4.3-8.46,7.04
				c-5.95,6.66-8.58,15.54-11.95,23.81c-1.35,3.3-2.84,6.62-4.26,9.97c2.23-0.19,4.47-0.37,6.7-0.56c0.25,7.52-2.15,15.1-6.7,21.09
				c7.61-2.71,14.44-7.53,19.55-13.78c0.43,0.81,0.97,1.55,1.55,2.25C569.68,327.89,576.85,320.32,578.63,317.81z"/>
			<path class="st18" d="M587.79,280.67c-0.32-0.7-1.4-0.73-1.97-0.22c-0.57,0.51-0.74,1.34-0.76,2.1
				c-0.03,1.17,0.21,2.38,0.94,3.29s2.02,1.42,3.11,1.02c1.1-0.4,1.74-1.62,1.76-2.79c0.02-1.14-0.48-2.29-1.33-3.05
				c-0.85-0.76-2.05-1.13-3.18-0.98"/>
			<path class="st18" d="M582.15,287.44c-0.54-0.18-1.15-0.27-1.65,0c-0.3,0.17-0.52,0.45-0.73,0.72c-1.56,2-3.11,4.01-4.67,6.01
				c-0.45,0.58-0.92,1.22-0.94,1.95c-0.06,2.38,4.02,4.66,5.96,5.18c2.01,0.54,3.88,0.15,5.07-1.65
				C587.58,296.05,586.61,288.96,582.15,287.44z"/>
			<path class="st18" d="M567.98,307.52c-1.15-1.03-2.92-1.15-4.37-0.62c-1.45,0.53-2.64,1.6-3.67,2.74
				c-2.69,2.99-4.57,6.61-6.95,9.86c-0.46,0.63-0.94,1.24-1.43,1.84c0.36-0.03,0.72-0.06,1.08-0.09c0.27,7.86-2.26,15.78-7.03,22.05
				c7.75-2.74,14.73-7.58,20.03-13.84c0.58-4.94,1.55-9.83,2.91-14.61C569.26,312.35,569.92,309.25,567.98,307.52z"/>
			<path class="st14" d="M418.95,331.85c-2.37-7.8-5.34-15.41-8.88-22.75c-2.95-6.12-6.38-12.15-11.39-16.74
				c-2.33-2.14-4.99-3.89-7.37-5.98c-2.4-2.11-4.17-5.65-6.72-7.42c-5.64-3.93-9.78,5.45-12.29,9.46
				c-3.84,6.13-7.55,12.44-9.76,19.33c-2.21,6.89-2.82,14.49-0.47,21.33c0.37,1.07,0.8,2.1,1.29,3.1
				c11.7,7.42,22.82,15.75,33.21,24.91c1-3.94,1.39-8.02,1.15-12.08c4.61,4.11,10.15,7.17,16.09,8.86
				c-1.1-0.31-4.37-15.04-4.45-16.75C409.18,332.69,415.17,332.15,418.95,331.85z"/>
			<path class="st18" d="M354.06,304.74c-0.78,1.41-1.39,2.98-1.3,4.59c0.1,1.61,1.04,3.25,2.57,3.76c1.44,0.49,3.11-0.07,4.52,0.5
				c0.42,0.17,0.79,0.43,1.19,0.61c1.27,0.59,2.84,0.42,4-0.36c4.35-2.93,0.59-6.06-1.88-8.35
				C360.11,302.66,356.85,299.69,354.06,304.74z"/>
			<path class="st18" d="M373.44,320.62c-0.26,0.09-0.49,0.25-0.7,0.43c-2.12,1.84-1.53,7.45,2.04,6.21
				C378.04,326.12,376.59,319.5,373.44,320.62z"/>
			<path class="st19" d="M540.39,338.66c-6.75,4.73-14.69,8-20.14,14.17c-2.2,2.49-3.91,5.37-6.1,7.85
				c-6.22,7.06-15.91,10.36-25.33,10.54c-9.41,0.18-18.65-2.45-27.51-5.64c-17.87-6.44-34.78-15.22-51.63-23.97
				c-3.7-1.92-7.85-4.48-8.29-8.63c11.87-4.58,23.81-8.97,35.82-13.18c13.1-4.59,26.35-8.98,40.03-11.32
				c16.76-2.87,33.88-2.61,50.89-2.35c6.17,0.1,12.38,0.2,18.43,1.4c3.07,0.61,6.14,1.54,8.88,3.1c2.75,1.56,4.54,2.77,3.16,5.88
				c-2.49,5.63-6,10.82-10.24,15.28C545.95,334.33,543.27,336.64,540.39,338.66z"/>
			<path class="st20" d="M456.78,331.79c3.34,3.05,7.01,5.49,11.02,7.59c3.95,2.06,8.07,3.85,12.24,5.41
				c4.63,1.72,9.65,3.15,14.63,2.28c8.66-1.51,15.45-9.71,20.42-16.37c2.74-3.68,5.15-7.57,7.77-11.32
				c1.53-2.18,3.64-4.16,5.32-6.32c-1.09-0.43-2.18-0.83-3.28-1.16c-3.22-0.97-6.62-1.17-9.98-1.36
				c-6.52-0.37-13.08-0.74-19.54,0.19c-5.61,0.81-11.02,2.59-16.36,4.49c-4.34,1.54-8.69,3.18-12.6,5.61
				c-4.28,2.66-8.03,6.23-12.55,8.38C454.87,330.03,455.83,330.93,456.78,331.79z"/>
			<path class="st21" d="M518.26,319.44c-0.21-0.19-0.48-0.27-0.74-0.36c-3.31-1.04-6.74-1.71-10.21-1.99
				c-2.07-0.17-4.15-0.2-6.23-0.13c-1.21,0.04-2.47,0.13-3.55,0.68c-1.06,0.54-4.82,0.56-4.84,1.7c7.67,1.72,17.89,7.39,17.54,14.96
				c0.85-0.59,1.98-2.04,2.41-2.52c0.92-1,1.76-2.08,2.51-3.21c1.46-2.2,2.58-4.61,3.31-7.14
				C518.66,320.76,518.79,319.92,518.26,319.44z"/>
			<path class="st22" d="M510.71,314.45c-3.45-3-8.06-5.21-12.46-6.11c-4.58-0.94-9.48-0.43-13.43,1.88
				c-2.14,1.25-3.94,2.99-5.81,4.6c-3.48,3-7.32,5.67-10.13,9.31c2.04,1.05,4.08,2.09,6.12,3.14c0.28,0.15,0.57,0.29,0.89,0.35
				c0.83,0.14,1.59-0.43,2.06-1.1c0.47-0.67,0.75-1.47,1.23-2.13c1.66-2.25,4.97-2.18,7.8-2.43c5.39-0.48,10.35-2.84,15.61-4.01
				c0.5-0.11,1.03-0.21,1.52-0.06c0.98,0.3,1.45,1.41,2.22,2.1C509.52,322.84,514.36,317.63,510.71,314.45z"/>
			<path class="st22" d="M524.97,324.72c2.1-1.34,5.42-3.08,7.66-4.16c-4.13-0.56-15.16-0.9-15.16-0.9s-2.57,5.91-3.08,6.16
				c-0.51,0.26-2.57-1.8-4.37-0.9c-1.8,0.9,0.26,5.39-2.83,9.76c-3.08,4.37-15.16,8.73-21.19,7.96c-6.04-0.77-6.55-6.55-7.71-7.83
				c-1.16-1.28-5.14,1.03-5.91,1.03c-0.77,0-2.05-1.28-2.57-1.93c-0.51-0.64-3.08-2.31-5.91-5.78c0,0-5.3,0.34-9.07,0.57
				c-0.79,0.42-1.59,0.81-2.43,1.14c-0.5,0.19-1.07,0.42-1.26,0.92c-0.29,0.75,0.45,1.48,1.1,1.96c6.23,4.51,12.46,9.01,18.69,13.52
				c5.08,3.68,12.56,7.03,18.83,6.98c5.38-0.04,11.78-3.2,15.71-6.89c3.92-3.69,6.51-7.81,10.15-11.77
				C519.22,330.65,520.51,327.58,524.97,324.72z"/>
			<path class="st23" d="M484.73,269.48c-3.6-1.03-33.22-9.7-64.48-8.73c-27.57,0.86-44.01,8.39-48.12,32.71
				c-3.57,21.13,17.38,41.06,48.98,42.47c31.6,1.41,66.19-15.07,70.17-18.79c3.98-3.72,4.62-5.01,4.62-5.01s10.79,10.27,44.95,8.35
				s44.57-26.2,43.15-39.82c-1.41-13.61-12.97-27.87-36.86-26.97c-23.89,0.9-45.98,15.03-45.98,15.03L484.73,269.48z"/>
			<path class="st15" d="M512.22,269.31c-3.55-1.63-8.73-2.35-10.12-2.21c-0.33,0.08-7.25,0.49-7.58,0.52
				c-5.11,0.66-5.16,0.5-8.8,1.35c-3.02,0.57-8,2.12-7.64,2.23c-1.6,0.98-2.83,1.67-3.95,2.47c-2.14,1.54-2.87,3.56-1.99,5.95
				c1.15,3.12,3.13,5.68,6.72,6.68c3.58,0.99,7.26,1.7,11.3,2.64c0.45,0.93,1.09,2.21,1.67,3.51c0.74,1.68,2.1,2.52,4.04,2.75
				c3.94,0.44,6.99-0.8,8.22-4.22c1.36-3.8,3.43-6.51,7.8-7.73c1.36-0.36,2.67-1.53,3.52-2.63
				C518.91,276.24,517.55,271.76,512.22,269.31z"/>
			<path class="st24" d="M506.29,284.07c0.47-1.43,1.33-2.87,2.73-3.44c0.47-0.19,1.09-0.23,1.4,0.18c0.27,0.37,0.12,0.9-0.1,1.31
				c-1.25,2.33-4.36,3.48-5.18,6C505.67,286.82,505.85,285.4,506.29,284.07z"/>
			<path class="st24" d="M489.76,285.42c-0.76-1.07-1.97-1.71-3.34-1.83c-0.54-0.05-1.21,0.03-1.65,0.56
				c-0.26,0.31-0.38,0.71-0.46,1.09c-0.05,0.25-0.1,0.52-0.03,0.73c0.11,0.36,0.48,0.48,0.82,0.58c1.55,0.47,3.01,1.14,4.33,2.01
				c0.4,0.26,0.8,0.57,0.97,1.06c0.02,0.07,0.05,0.11,0.12,0.12C490.96,288.18,490.49,286.44,489.76,285.42z"/>
			<g>
				<path class="st25" d="M457,165.69c-7.49-1.59-19.87-1.77-30.62,6.64c-12.47,9.75-13.99,21.52-12.4,40.67
					c0.12,1.41,5.45-46.51,44.64-36.57c0.92,0.24,1.55,0.2,1.97,0.24C460.12,175.55,458.06,168.33,457,165.69z"/>
				<polygon class="st25" points="462.59,177.22 458.73,165.86 463.74,166.68 465.59,178.72 				"/>
				<path class="st25" d="M467.84,179.11c0.1-0.59-1.12-12.07-1.49-12.1c-0.36-0.04,2.97,1.15,3.09,1.52
					c0.12,0.35,0.02,12.02,0.02,12.02L467.84,179.11z"/>
			</g>
			<g>
				<path class="st25" d="M500.57,164.15c6.96-1.48,18.48-1.65,28.48,6.17c11.6,9.06,13.01,20.01,11.53,37.83
					c-0.11,1.31-5.07-43.26-41.52-34.01c-0.86,0.22-1.44,0.19-1.83,0.22C497.67,173.32,499.58,166.61,500.57,164.15z"/>
				<polygon class="st25" points="495.37,174.88 498.96,164.32 494.31,165.08 492.58,176.27 				"/>
				<path class="st25" d="M490.49,176.64c-0.09-0.54,1.04-11.22,1.39-11.26c0.33-0.03-2.76,1.07-2.87,1.41
					c-0.11,0.33-0.02,11.18-0.02,11.18L490.49,176.64z"/>
			</g>
			<g>
				<path class="st26" d="M384.02,281.43l-0.27,0.17c1.17-0.18,1.62,0.83,1.81,1.94c-43.45-7.25-68.07,17.95-73.47,22.43
					c4.73-3.64,37.46-27.42,73.47-18.4c-0.26,1.08-0.87,1.96-2.17,2.66c2.98,1.37,5.14-2.34,5.52-4.73
					C389.35,282.78,387.19,279.82,384.02,281.43z"/>
				<g>
					<path class="st26" d="M387.08,299.33l-0.23,0.18c1.06-0.32,1.6,0.46,1.9,1.35c-41.03,0.07-54.84,18.39-59.29,22.86
						c3.93-3.68,25.41-21.96,59.78-19.52c-0.11,0.93-0.56,1.74-1.68,2.51c2.92,0.71,4.47-2.65,4.53-4.69
						C392.17,299.7,389.82,297.56,387.08,299.33z"/>
				</g>
				<path class="st26" d="M392.79,316.79l-0.19,0.2c0.94-0.42,1.55,0.25,1.97,1.06c-37.98,4.75-42.04,20.02-45.5,24.74
					c3.09-3.91,14.26-20.02,46.45-21.64c0.04,0.89-0.26,1.71-1.19,2.56c2.81,0.34,3.74-3.01,3.5-4.93
					C397.56,316.56,395.06,314.81,392.79,316.79z"/>
				<path class="st27" d="M398.93,317.74c1.33,2-0.42,4.76-2,6.24c1.56,1.59,3.79-0.71,4.21-2.39c0.37-1.5-0.37-3.82-2.2-3.77"/>
				<path class="st27" d="M390.02,284.78c1.34,2-0.42,4.76-2,6.24c1.56,1.59,3.79-0.71,4.21-2.39c0.37-1.5-0.37-3.82-2.2-3.77"/>
				<path class="st27" d="M393.33,301.41c1.34,2-0.42,4.76-2,6.24c1.56,1.59,3.79-0.71,4.21-2.38c0.37-1.5-0.37-3.82-2.2-3.77"/>
			</g>
			<g>
				<path class="st26" d="M576.1,266.3l0.17,0.1c-0.67,0.03-0.76,0.98-0.69,1.96c22.59-13.28,39.86,4.36,43.49,7.32
					c-3.13-2.35-24.61-17.45-42.87-3.86c0.3,0.89,0.77,1.54,1.59,1.93c-1.42,1.66-3.16-1.17-3.73-3.16
					C573.4,268.33,574.12,265.44,576.1,266.3z"/>
				<g>
					<path class="st26" d="M577.16,282.16l0.15,0.12c-0.63-0.1-0.8,0.65-0.83,1.47c22.38-6.6,32.71,6.88,35.82,9.99
						c-2.7-2.52-17.21-14.72-35.58-7.04c0.2,0.78,0.57,1.4,1.3,1.88c-1.49,1.09-2.84-1.55-3.19-3.29
						C574.44,283.31,575.4,281.08,577.16,282.16z"/>
				</g>
				<path class="st26" d="M576.71,298.07l0.13,0.14c-0.58-0.21-0.81,0.47-0.91,1.23c21.44-2.09,25.98,10.35,28.59,13.84
					c-2.28-2.86-10.83-14.87-28.63-11.03c0.11,0.77,0.4,1.42,1.04,2c-1.48,0.75-2.5-1.97-2.66-3.67
					C574.08,298.65,575.17,296.74,576.71,298.07z"/>
				<path class="st27" d="M573.51,299.88c-0.42,1.93,0.96,4.02,2.05,5.03c-0.61,1.61-2.18,0-2.66-1.37
					c-0.43-1.23-0.38-3.34,0.63-3.59"/>
				<path class="st27" d="M573.34,270.15c-0.42,1.93,0.95,4.02,2.04,5.03c-0.61,1.61-2.18,0-2.66-1.36
					c-0.43-1.23-0.38-3.34,0.63-3.59"/>
				<path class="st27" d="M574.07,284.95c-0.42,1.93,0.95,4.02,2.04,5.03c-0.61,1.62-2.18,0.01-2.66-1.36
					c-0.43-1.23-0.38-3.34,0.63-3.59"/>
			</g>
			<g>
				<path class="st14" d="M474.69,261.44C474.69,261.44,474.69,261.44,474.69,261.44c11.81-67.42-12.91-75.85-28.95-73
					c-33.06,5.88-20.25,60.14-18.59,66.3c-2.94,0.78-6.57,1.89-7.76,3.19c1.4-0.13,2.37-0.18,3.33-0.29
					c3.55-0.4,7.08-0.9,10.63-1.21c10.04-0.9,19.85-0.14,29.29,3c4.14,1.38,8.31,2.67,12.49,3.96c0.53,0.16,1.14,0.08,1.71,0.1
					c0.09-0.23,0.18-0.47,0.27-0.69C476.09,262.23,475.74,262.03,474.69,261.44z"/>
				<path class="st28" d="M471.62,259.21c0,0-8.57-4.63-18.23-5.35c-9.66-0.71-21.33-0.53-21.33-0.53s-12.54-50.76,20.96-49.2
					C479.83,205.38,471.62,259.21,471.62,259.21z"/>
				<path class="st29" d="M454.27,216.63c-23.67-1.05-20.29,27.14-18.48,36.68c4.22,0,11.33,0.09,17.61,0.55
					c7.51,0.55,14.33,3.47,17.01,4.74C471.48,249.26,473.69,217.5,454.27,216.63z"/>
				<path class="st30" d="M457.59,231.94c-7.35,0-13.31,6.35-13.31,14.17c0,2.71,0.73,5.23,1.96,7.38c2.37,0.08,4.82,0.2,7.15,0.38
					c4.9,0.36,9.5,1.73,12.86,2.99c2.84-2.6,4.64-6.44,4.64-10.74C470.89,238.28,464.94,231.94,457.59,231.94z"/>
				<ellipse class="st28" cx="463.35" cy="247.78" rx="5.95" ry="5.82"/>
				<ellipse class="st28" cx="450.98" cy="241.83" rx="3.28" ry="3.21"/>
			</g>
			<g>
				<path class="st14" d="M540.79,245.49c-0.53-7.43-0.83-14.58-1.61-21.67c-0.84-7.65-5.93-39.31-29.63-35.03
					c-22.09,3.99-9.29,46.37-5.71,56.24c1.51,4.18,3.07,8.33,4.67,12.61c-1.06,0.83-2.04,1.54-2.94,2.33
					c-0.83,0.71-1.27,1.72-0.39,2.5c0.45,0.42,1.53,0.47,2.17,0.22c1-0.39,1.81-1.22,2.74-1.78c3.65-2.16,7.18-4.59,11-6.34
					c7.41-3.43,26.86-8.18,26.84-8.52C545.44,245.87,542.95,245.66,540.79,245.49z"/>
				<path class="st28" d="M511.55,255.11c0,0,3.46-2.32,10.57-4.99s14.58-4.46,14.58-4.46s-1.02-48.01-20.42-45.28
					C488.4,204.31,511.55,255.11,511.55,255.11z"/>
				<path class="st29" d="M513.36,254.05c1.7-0.93,4.6-2.37,8.76-3.93c7.11-2.67,14.58-4.46,14.58-4.46s-0.06-2.64-0.39-6.64
					c-1.47-11.24-5.72-29-17.92-27.5C495.73,214.32,509.91,246.83,513.36,254.05z"/>
				<path class="st30" d="M536.16,240.14c0-6.99-5.18-12.66-11.58-12.66c-6.39,0-11.58,5.67-11.58,12.66
					c0,4.84,2.48,9.04,6.13,11.17c0.91-0.38,1.9-0.78,2.98-1.19c4.9-1.84,9.97-3.26,12.65-3.97
					C535.65,244.37,536.16,242.32,536.16,240.14z"/>
				<ellipse class="st28" cx="529.18" cy="240.49" rx="4.51" ry="4.41"/>
				<ellipse class="st28" cx="518.86" cy="236.08" rx="2.39" ry="2.41"/>
			</g>
			<path class="st14" d="M457.61,150c4.31,2.96,7.44,7.61,8.55,12.72c-0.51,0.04-1.01,0.06-1.52,0.07c3.51,0.89,7.72,0.7,11.05,0.24
				c2.35-0.33,4.77-0.98,6.52-2.59c-0.3-2.22-0.59-4.44-0.89-6.66C474.2,149.74,465.62,148.36,457.61,150z"/>
			<path class="st18" d="M357.09,269.19c-0.02,1.68,0.33,3.62,1.78,4.47c1.45,0.85,3.34,0.21,4.64-0.85
				c1.75-1.43,2.85-3.49,3.74-5.57c0.34-0.8,0.67-1.63,1.25-2.28c0.44-0.49,1.01-0.85,1.54-1.25c1.3-1,2.36-2.31,3.06-3.79
				c0.7-1.46,1.01-3.29,0.12-4.63c-0.39-0.59-0.98-1.02-1.6-1.35C363.14,249.5,357.17,262.73,357.09,269.19z"/>
			<path class="st18" d="M378.38,255.69c-0.86,1.2-1.94,2.34-2.27,3.78s0.54,3.3,2.02,3.29c0.59,0,1.15-0.3,1.65-0.61
				c1.81-1.13,3.38-2.64,4.6-4.39c1.04-1.5,1.85-3.32,1.55-5.13c-0.29-1.81-2.03-3.45-3.82-3.09
				C379.04,250.16,379.84,253.66,378.38,255.69z"/>
			<path class="st18" d="M400.04,195.88c1.21,1.47,2.98,2.61,4.88,2.58c2.02-0.03,3.81-1.34,5.11-2.88
				c2.19-2.6,6.16-11.95,0.83-13.17C404.69,180.99,401.85,191.84,400.04,195.88z"/>
			<path class="st18" d="M388.41,170.92c-1.27-1.55-2.63-3.03-4.08-4.4c-0.31-0.29-0.7-0.6-1.1-0.47c-0.36,0.11-0.53,0.51-0.63,0.87
				c-0.8,2.79-0.28,5.93,1.38,8.31c0.61,0.88,1.4,1.68,2.39,2.11c0.99,0.43,2.2,0.42,3.08-0.19c1.01-0.7,1.4-2.02,1.36-3.24
				c-0.06-2.02-1.15-3.98-2.83-5.1c-0.15-0.12-0.39,0.13-0.27,0.27"/>
			<path class="st18" d="M391.99,164.24c-0.77,0.18-1.42,0.8-1.63,1.57c-0.05,0.16-0.07,0.34-0.03,0.5c0.05,0.22,0.21,0.4,0.36,0.57
				c0.86,1.05,1.23,2.42,1.93,3.58c0.7,1.17,1.98,2.21,3.31,1.89c0.99-0.24,1.7-1.21,1.83-2.23s-0.22-2.04-0.75-2.91
				c-1.07-1.78-3.03-3.12-5.09-3c-0.36,0.02-0.83,0.25-0.72,0.59"/>
			
				<ellipse transform="matrix(0.9151 -0.4032 0.4032 0.9151 -62.761 218.1995)" class="st18" cx="486.78" cy="258.14" rx="3.85" ry="6.04"/>
			
				<ellipse transform="matrix(0.4032 -0.9151 0.9151 0.4032 68.1484 600.7065)" class="st18" cx="494.64" cy="248.1" rx="4.11" ry="2.62"/>
			<path class="st18" d="M486.4,239.76c-0.47-0.94-1.26-1.95-2.31-1.84c-0.77,0.08-1.36,0.81-1.49,1.57s0.1,1.55,0.42,2.26
				c0.34,0.74,0.77,1.44,1.29,2.07c0.76,0.92,2.46,1.94,3.32,0.47C488.27,243.19,486.88,240.72,486.4,239.76z"/>
			<g>
				<path class="st18" d="M383.34,328.8c-0.56-0.15-1.17-0.23-1.68,0.03c-0.49,0.25-0.8,0.77-1.07,1.25
					c-1.38,2.44-2.77,4.87-4.15,7.31c-0.37,0.65-0.75,1.32-0.82,2.07c-0.05,0.56,0.07,1.1,0.27,1.62
					c7.23,5.34,14.2,11.04,20.87,17.1c0.9-3.66,1.31-7.44,1.21-11.21c-2-4.24-4.4-8.29-7.18-12.04
					C388.83,332.29,386.48,329.64,383.34,328.8z"/>
				<path class="st18" d="M403.31,349.19c-0.45-1.14-1.3-2.14-2.45-2.54l-0.04,0.84C401.63,348.08,402.46,348.66,403.31,349.19z"/>
			</g>
			<path class="st31" d="M415.78,370.17c0.06-0.11,0.12-0.23,0.17-0.34"/>
			<path class="st18" d="M548.61,234.42c-0.21,0.99,0.17,2.03,0.82,2.81c0.65,0.77,1.53,1.31,2.43,1.76
				c1.78,0.88,4.95,2.33,6.87,1.19c1.98-1.18,1.58-3.25,0.24-4.65C557.06,233.51,549.69,229.37,548.61,234.42z"/>
			<path class="st18" d="M552.13,227.91c0.49-0.25,0.69-0.83,0.83-1.36c0.14-0.51,0.27-1.05,0.21-1.58
				c-0.06-0.53-0.33-1.07-0.82-1.3c-0.62-0.29-1.39,0.01-1.83,0.54c-0.44,0.53-0.62,1.22-0.75,1.89c-0.1,0.48-0.16,1.03,0.14,1.42
				c0.23,0.29,0.6,0.42,0.97,0.48c0.65,0.11,1.33,0.06,1.96-0.15"/>
			<path class="st18" d="M551.31,164.65c0.11-0.98,0.06-2-0.36-2.89c-0.41-0.89-1.24-1.63-2.21-1.75c-1.58-0.19-2.86,1.15-4.03,2.22
				c-1.15,1.05-2.45,1.92-3.85,2.59c-2.39,1.15-5.34,1.96-6.36,4.4c-0.61,1.47-0.32,3.16,0.19,4.67c1.12,3.3,6.78,10.04,9.84,4.96
				c1.21-2.01,1.91-4.25,3.21-6.26C549.32,170.15,550.99,167.61,551.31,164.65z"/>
			<path class="st18" d="M553.48,153.72c-1.08-0.68-2.32-1.1-3.58-1.24c-0.6-0.06-1.24-0.06-1.79,0.18
				c-0.56,0.24-1.03,0.76-1.06,1.37c-0.03,0.57,0.33,1.11,0.8,1.44c0.46,0.33,1.02,0.51,1.57,0.67c0.78,0.23,1.55,0.47,2.33,0.7
				c0.91,0.27,1.89,0.55,2.8,0.26c0.91-0.29,1.61-1.4,1.13-2.22c-0.18-0.31-0.49-0.51-0.79-0.7c-1.26-0.76-2.66-1.3-4.11-1.57"/>
			<path class="st32" d="M483.84,192.21c-0.66,1.34-1.24,2.8-1.08,4.28c0.17,1.48,1.32,2.95,2.81,2.98
				c1.85,0.04,3.01-1.88,4.15-3.33c0.88-1.11,1.96-2.07,3.18-2.8c1.3-0.78,2.82-1.38,3.63-2.67c1.18-1.88,0.28-4.41-1.12-6.14
				c-0.61-0.76-1.37-1.47-2.32-1.7C489,181.85,485.2,189.46,483.84,192.21z"/>
			<path class="st32" d="M472.53,196.78c0.24,0.29,0.48,0.58,0.79,0.8c0.87,0.64,2.18,0.58,2.98-0.14c0.8-0.72,1-2.03,0.45-2.95
				c-0.22-0.37-0.54-0.68-0.71-1.07c-0.15-0.34-0.18-0.73-0.33-1.07c-0.32-0.69-1.16-1.04-1.91-0.93c-0.75,0.12-1.39,0.63-1.8,1.27
				c-1.01,1.58-0.53,3.93,1.02,4.98"/>
		</g>
	</g>
	<path class="st1" d="M654.56,477.42c-0.26-1.03-23.12-20.29-23.12-20.29l-12.33,2.05c0,0,9.76-2.57,12.84-8.22
		c3.08-5.65,3.85-7.45,3.85-7.45l-1.8,10.27l15.16,15.67L654.56,477.42z"/>
</g>
</svg>
