<?xml version="1.0" encoding="utf-8"?>
<!-- Generator: Adobe Illustrator 28.1.0, SVG Export Plug-In . SVG Version: 6.00 Build 0)  -->
<svg version="1.1" id="Layer_1" xmlns="http://www.w3.org/2000/svg" xmlns:xlink="http://www.w3.org/1999/xlink" x="0px" y="0px"
	 viewBox="0 0 296.75 370.96" style="enable-background:new 0 0 296.75 370.96;" xml:space="preserve">
<style type="text/css">
	.st0{opacity:0.2;}
	.st1{fill:#802122;}
	.st2{fill:#F5B0B3;}
	.st3{fill:#F18F92;}
	.st4{fill:#FFFFFF;}
	.st5{fill:#E1E1E1;}
	.st6{opacity:0.5;}
	.st7{fill:#E9AACD;}
	.st8{fill:#992269;}
	.st9{fill:#2D4154;}
	.st10{fill:#F9B621;}
	.st11{fill:#F18B29;}
	.st12{fill:#A35017;}
	.st13{fill:#EA575A;}
	.st14{fill:#D83839;}
</style>
<g>
	<g class="st0">
		<g>
			<path class="st1" d="M208.93,343.58c-0.3,11.88-37.98,20.55-84.16,19.37s-83.36-11.78-83.05-23.66
				c0.3-11.88,37.98-20.55,84.16-19.37C172.05,321.11,209.24,331.7,208.93,343.58"/>
		</g>
	</g>
	<g>
		<g>
			<path class="st2" d="M113.38,314.6c0,0-0.29-42.91,3.41-52.05c3.7-9.14-2.63-15.9-2.63-15.9l-9.24,4.5c0,0-8.17,48.56-3.49,65.7
				C104.49,328.08,113.38,314.6,113.38,314.6"/>
		</g>
		<g>
			<path class="st2" d="M116.79,262.55c-0.75,1.86-1.34,5.11-1.79,9.11c-1.8,15.69-1.62,42.95-1.62,42.95s-8.89,13.48-11.96,2.25
				c-2.87-10.53-0.9-32.93,1.06-48.63c1.22-9.85,2.44-17.07,2.44-17.07l9.24-4.5C114.16,246.65,120.49,253.41,116.79,262.55"/>
		</g>
		<g>
			<path class="st2" d="M116.79,262.55c-0.75,1.86-1.34,5.11-1.79,9.11c-1.4,12.22-1.6,31.46-1.62,39.37c-0.01,2.25,0,3.58,0,3.58
				s-8.89,13.48-11.96,2.25c-0.83-3.04-1.26-7.08-1.39-11.65c-0.34-11.26,1.06-25.81,2.45-36.98c1.22-9.85,2.44-17.07,2.44-17.07
				l9.24-4.5C114.16,246.65,120.49,253.41,116.79,262.55"/>
		</g>
		<g>
			<path class="st3" d="M113.38,314.6c0,0-8.89,13.48-11.96,2.25c-0.83-3.04-1.26-7.08-1.39-11.65c3.18-0.19,7.64,0,7.6,2.51
				c-0.05,2.7,0.71,4.37,5.75,3.31C113.37,313.27,113.38,314.6,113.38,314.6"/>
		</g>
		<g>
			<path class="st3" d="M116.79,262.55c-0.75,1.86-1.34,5.11-1.79,9.11c-4.69-2.13-9.37-3.01-12.52-3.44
				c1.22-9.85,2.44-17.07,2.44-17.07l9.24-4.5C114.16,246.65,120.49,253.41,116.79,262.55"/>
		</g>
		<g>
			<path class="st1" d="M104.51,323.18c-2.32-0.37-3.99-2.33-4.94-5.83c-4.73-17.35,3.11-64.53,3.45-66.53
				c0.1-0.61,0.5-1.14,1.05-1.41l9.24-4.5c0.76-0.37,1.67-0.2,2.24,0.41c0.29,0.31,7.12,7.77,3.01,17.93
				c-2.91,7.2-3.35,39.49-3.27,51.32c0,0.38-0.11,0.75-0.32,1.07c-0.88,1.33-5.32,7.69-9.86,7.58
				C104.92,323.23,104.71,323.21,104.51,323.18z M115.01,261.83c2.41-5.95-0.01-10.71-1.41-12.77l-6.95,3.38
				c-1.11,6.92-7.53,48.68-3.37,63.9c0.49,1.8,1.18,2.94,1.84,3.04c1.55,0.25,4.55-2.83,6.34-5.37
				C111.44,308.54,111.42,270.72,115.01,261.83z"/>
		</g>
		<g>
			<path class="st4" d="M95.07,315.22c0.95-1.47-2.77-6.3-0.43-8.36c2.63-2.32,9-1.19,9.49,1c0.9,4.1-1.86,8.66-2.21,8.74
				C101.56,316.68,94.12,316.69,95.07,315.22"/>
		</g>
		<g>
			<path class="st4" d="M104.26,310.48c-0.3,3.21-2.07,6.06-2.35,6.12c-0.35,0.07-7.79,0.09-6.84-1.39c0.61-0.95-0.7-3.26-1.1-5.34
				c-0.23-1.17-0.17-2.28,0.67-3.02c2.63-2.32,9-1.19,9.49,1.01C104.31,308.73,104.34,309.62,104.26,310.48"/>
		</g>
		<g>
			<path class="st5" d="M104.26,310.48c-0.3,3.21-2.07,6.06-2.35,6.12c-0.35,0.07-7.79,0.09-6.84-1.39c0.61-0.95-0.7-3.26-1.1-5.34
				C95.46,311.29,99.38,314.12,104.26,310.48"/>
		</g>
		<g>
			<path class="st1" d="M93.92,316.46c-0.39-0.57-0.42-1.28-0.07-1.9c0.01-0.36-0.31-1.33-0.53-1.98c-0.7-2.09-1.67-4.94,0.4-6.77
				c2.11-1.86,5.87-1.96,8.5-1.11c1.82,0.6,2.97,1.61,3.25,2.85c0.95,4.3-1.72,10.05-3.26,10.39c-0.02,0.01-1.13,0.08-2.53,0.04
				C97.55,317.94,94.73,317.63,93.92,316.46z M96.23,315.96C96.23,315.96,96.23,315.96,96.23,315.96
				C96.23,315.96,96.23,315.96,96.23,315.96z M102.77,308.17c-0.07-0.17-0.63-0.65-1.9-0.97c-2.06-0.51-4.3-0.22-5.33,0.69
				c-0.69,0.61-0.1,2.39,0.39,3.81c0.38,1.14,0.75,2.24,0.66,3.19c1.17,0.26,3.5,0.37,4.65,0.36
				C101.91,314.17,103.38,310.95,102.77,308.17z"/>
		</g>
		<g>
			<path class="st4" d="M156.33,326.34c0,0-8.25,4.41-10.39,11.94c-0.54,1.9-0.67,4.57-0.23,6.27c0,0,3.26,6,15.99,5.52
				c11.37-0.43,13.45-6.47,13.45-6.47s0.83-3.2,0.03-6.49c-0.82-3.36-3.46-7.05-7.67-10.49
				C165.31,324.82,156.33,326.34,156.33,326.34"/>
		</g>
		<g>
			<path class="st5" d="M175.16,343.6c0,0-2.08,6.04-13.46,6.47c-12.73,0.47-15.99-5.52-15.99-5.52c-0.3-1.14-0.34-2.73-0.16-4.23
				c0.04,0.55,0.11,1.07,0.23,1.51c0,0,3.26,6,15.99,5.52c11.38-0.43,13.46-6.47,13.46-6.47s0.17-0.63,0.28-1.63
				C175.66,341.66,175.16,343.6,175.16,343.6"/>
		</g>
		<g>
			<path class="st1" d="M144.02,345.47l-0.11-0.2l-0.06-0.22c-0.52-1.97-0.42-4.97,0.24-7.28c2.34-8.22,10.97-12.91,11.33-13.11
				l0.28-0.15l0.31-0.05c2.96-0.5,10.12-1.44,12.73,0.69c4.5,3.68,7.37,7.66,8.31,11.52c0.91,3.72,0,7.28-0.04,7.43l-0.04,0.14
				c-0.1,0.3-2.65,7.29-15.2,7.76c-0.84,0.03-1.65,0.04-2.42,0.02C147.55,351.7,144.17,345.74,144.02,345.47z M173.32,337.57
				c-0.73-3-3.23-6.35-7.01-9.45c-0.84-0.63-5.23-0.59-9.33,0.06c-1.34,0.78-7.49,4.66-9.19,10.63c-0.44,1.53-0.55,3.64-0.28,4.98
				c0.66,0.91,4.05,4.74,14.13,4.36c9.27-0.35,11.45-4.59,11.69-5.12C173.43,342.52,173.92,340.03,173.32,337.57z"/>
		</g>
		<g>
			<polyline class="st2" points="161.96,275.04 167.56,325.07 156.35,325.56 149.95,267.55 			"/>
		</g>
		<g>
			<polygon class="st2" points="167.56,325.07 156.35,325.56 154.92,312.62 149.95,267.55 161.96,275.03 166,311.11 			"/>
		</g>
		<g>
			<path class="st3" d="M167.56,325.07l-11.21,0.49l-1.43-12.94c3.2-1.26,7.46-2.19,11.08-1.51L167.56,325.07z"/>
		</g>
		<g>
			<path class="st1" d="M156.3,327.48c0.04,0,0.09,0,0.13,0l11.21-0.49c0.53-0.02,1.03-0.27,1.38-0.67c0.35-0.4,0.51-0.93,0.45-1.46
				l-5.6-50.04l-3.82,0.43l5.37,47.99l-7.36,0.32l-6.2-56.22l-3.82,0.42l6.4,58.01C154.55,326.73,155.35,327.46,156.3,327.48z"/>
		</g>
		<g>
			<polygon class="st2" points="41.27,137.34 71.46,179.27 78.03,168.09 58.06,135.12 59.84,124.04 50,124.37 			"/>
		</g>
		<g>
			<polygon class="st2" points="78.03,168.09 74,174.95 71.46,179.27 41.27,137.34 50,124.37 59.84,124.04 58.06,135.12 
				58.64,136.09 			"/>
		</g>
		<g>
			<path class="st3" d="M74,174.95l-2.54,4.32l-30.19-41.93L50,124.37l9.84-0.33l-1.79,11.08l0.59,0.97
				c-2.05,1.54-6.97,6.1-3.85,12.83C57.6,154.97,69.07,169.03,74,174.95"/>
		</g>
		<g>
			<path class="st1" d="M69.9,180.39l-30.19-41.93c-0.47-0.65-0.48-1.53-0.03-2.2l8.73-12.97c0.34-0.51,0.91-0.83,1.53-0.85
				l9.84-0.33c0.57-0.02,1.13,0.22,1.51,0.65c0.38,0.43,0.55,1.01,0.46,1.58l-1.67,10.38l19.61,32.37c0.37,0.6,0.37,1.36,0.01,1.97
				l-6.57,11.18c-0.33,0.56-0.92,0.91-1.57,0.94c-0.05,0-0.09,0-0.14,0C70.82,181.18,70.26,180.88,69.9,180.39z M56.42,136.11
				c-0.24-0.39-0.33-0.85-0.25-1.3l1.41-8.78l-6.53,0.22l-7.43,11.04l27.69,38.46l4.5-7.65L56.42,136.11z"/>
		</g>
		<g>
			<path class="st2" d="M77.49,169.05c0,0-13.09-2.44-19.94,17.36c-4.86,14.04,1.76,21.14,1.76,21.14s-9.84,11.35-3.2,26.14
				c7.69,17.13,23.61,10.01,23.61,10.01s1.84,10.5,13.71,14.8c9.57,3.46,16.73-0.53,16.73-0.53s2.1,7.07,10.69,8.11
				c7.5,0.91,10.64-3.16,10.64-3.16s3.95,14.82,24.22,18.12c17.3,2.82,22.97-5.06,22.97-5.06s9.3,11.25,26.26,6.09
				c13.97-4.25,15.63-15.74,15.63-15.74s12.64,3.63,19.98-5.54c10.19-12.71,2.04-25.71,2.04-25.71s9.99-8.46,8.21-27.56
				c-1.35-14.55-11.07-16.09-11.07-16.09s2.28-10.4-3.63-18.11c-5.68-7.41-14.17-6.56-14.17-6.56s-0.73-12.99-13.39-19.19
				c-14.35-7.03-26.16-0.67-26.16-0.67s-2.95-4.78-11.81-6.03c-8.08-1.14-15.66,3.42-15.66,3.42s-0.27-13.82-21.4-14.61
				c-20.76-0.78-24.72,10.32-24.72,10.32s-12.04-3.56-23.48,6.89C74.43,156.84,77.49,169.05,77.49,169.05"/>
		</g>
		<g>
			<path class="st2" d="M242.61,235.08c0,0,8.14,13.01-2.04,25.72c-7.35,9.16-19.98,5.54-19.98,5.54s-1.66,11.49-15.63,15.74
				c-16.96,5.16-26.26-6.09-26.26-6.09s-5.67,7.88-22.97,5.06c-20.28-3.3-24.22-18.12-24.22-18.12s-3.13,4.07-10.64,3.16
				c-8.59-1.04-10.69-8.11-10.69-8.11s-7.16,3.99-16.73,0.53c-11.87-4.29-13.71-14.8-13.71-14.8s-15.93,7.12-23.61-10.01
				c-3.05-6.79-2.62-12.85-1.27-17.42c1.59-5.39,4.47-8.72,4.47-8.72s-6.63-7.1-1.77-21.14c6.85-19.8,19.94-17.36,19.94-17.36
				s-3.06-12.21,7.84-22.16c11.44-10.45,23.48-6.89,23.48-6.89s3.96-11.09,24.72-10.32c21.13,0.79,21.4,14.62,21.4,14.62
				s7.58-4.57,15.66-3.42c8.86,1.25,11.81,6.03,11.81,6.03s11.81-6.36,26.16,0.67c12.66,6.21,13.39,19.19,13.39,19.19
				s8.49-0.85,14.16,6.56c5.91,7.71,3.63,18.11,3.63,18.11s9.72,1.55,11.07,16.1c0.54,5.84-0.01,10.67-1.05,14.59
				C247.43,231,242.61,235.08,242.61,235.08"/>
		</g>
		<g>
			<path class="st2" d="M242.61,235.08c0,0,8.14,13.01-2.04,25.72c-7.35,9.16-19.98,5.54-19.98,5.54s-1.66,11.49-15.63,15.74
				c-16.96,5.16-26.26-6.09-26.26-6.09s-5.67,7.88-22.97,5.06c-20.28-3.3-24.22-18.12-24.22-18.12s-3.13,4.07-10.64,3.16
				c-8.59-1.04-10.69-8.11-10.69-8.11s-7.16,3.99-16.73,0.53c-11.87-4.29-13.71-14.8-13.71-14.8s-15.93,7.12-23.61-10.01
				c-3.05-6.79-2.62-12.85-1.27-17.42c0.95-3.21,2.35-5.68,3.33-7.16c0.67-1.01,1.15-1.56,1.15-1.56s-6.63-7.1-1.77-21.14
				c1.56-4.51,3.44-7.86,5.43-10.36c0,0,0-0.01,0-0.01c6.71-8.45,14.51-6.99,14.51-6.99s-3.06-12.21,7.84-22.16
				c11.44-10.45,23.48-6.89,23.48-6.89s3.96-11.09,24.72-10.32c21.13,0.79,21.4,14.62,21.4,14.62s7.58-4.57,15.66-3.42
				c8.86,1.25,11.81,6.03,11.81,6.03s11.81-6.36,26.16,0.67c12.66,6.21,13.39,19.19,13.39,19.19s8.49-0.85,14.16,6.56
				c5.91,7.71,3.63,18.11,3.63,18.11s9.72,1.55,11.07,16.1c0.54,5.84-0.01,10.67-1.05,14.59C247.43,231,242.61,235.08,242.61,235.08
				"/>
		</g>
		<g>
			<path class="st2" d="M242.61,235.08c0,0,8.14,13.01-2.04,25.72c-7.35,9.16-19.98,5.54-19.98,5.54s-1.66,11.49-15.63,15.74
				c-16.96,5.16-26.26-6.09-26.26-6.09s-5.67,7.88-22.97,5.06c-20.28-3.3-24.22-18.12-24.22-18.12s-3.13,4.07-10.64,3.16
				c-8.59-1.04-10.69-8.11-10.69-8.11s-7.16,3.99-16.73,0.53c-11.87-4.29-13.71-14.8-13.71-14.8s-15.93,7.12-23.61-10.01
				c-3.05-6.79-2.62-12.85-1.27-17.42c0.95-3.21,2.35-5.68,3.33-7.16c0.67-1.01,1.15-1.56,1.15-1.56s-6.63-7.1-1.77-21.14
				c1.56-4.51,3.44-7.86,5.43-10.36c0,0,0-0.01,0-0.01c6.71-8.45,14.51-6.99,14.51-6.99s-3.06-12.21,7.84-22.16
				c11.44-10.45,23.48-6.89,23.48-6.89s3.96-11.09,24.72-10.32c21.13,0.79,21.4,14.62,21.4,14.62s7.58-4.57,15.66-3.42
				c8.86,1.25,11.81,6.03,11.81,6.03s11.81-6.36,26.16,0.67c7.31,3.58,10.64,9.42,12.15,13.72c1.11,3.15,1.24,5.47,1.24,5.47
				s4.15-0.42,8.59,1.87c1.91,0.98,3.86,2.46,5.57,4.68c5.91,7.71,3.63,18.11,3.63,18.11s9.72,1.55,11.07,16.1
				c0.54,5.84-0.01,10.67-1.05,14.59C247.43,231,242.61,235.08,242.61,235.08"/>
		</g>
		<g>
			<path class="st2" d="M242.61,235.08c0,0,8.14,13.01-2.04,25.72c-7.35,9.16-19.98,5.54-19.98,5.54s-1.66,11.49-15.63,15.74
				c-16.96,5.16-26.26-6.09-26.26-6.09s-5.67,7.88-22.97,5.06c-20.28-3.3-24.22-18.12-24.22-18.12s-3.13,4.07-10.64,3.16
				c-8.59-1.04-10.69-8.11-10.69-8.11s-7.16,3.99-16.73,0.53c-11.87-4.29-13.71-14.8-13.71-14.8s-15.93,7.12-23.61-10.01
				c-3.05-6.79-2.62-12.85-1.27-17.42c0.95-3.21,2.35-5.68,3.33-7.16c0.67-1.01,1.15-1.56,1.15-1.56s-6.63-7.1-1.77-21.14
				c1.56-4.51,3.44-7.86,5.43-10.36c0,0,0-0.01,0-0.01c6.71-8.45,14.51-6.99,14.51-6.99s-3.06-12.21,7.84-22.16
				c11.44-10.45,23.48-6.89,23.48-6.89s3.96-11.09,24.72-10.32c21.13,0.79,21.4,14.62,21.4,14.62s7.58-4.57,15.66-3.42
				c2.2,0.31,4.03,0.84,5.55,1.46c4.59,1.87,6.26,4.57,6.26,4.57s1.06-0.57,2.92-1.18c4.37-1.43,13.18-3.08,23.24,1.85
				c7.31,3.58,10.64,9.42,12.15,13.72c1.11,3.15,1.24,5.47,1.24,5.47s4.15-0.42,8.59,1.87c1.91,0.98,3.86,2.46,5.57,4.68
				c5.91,7.71,3.63,18.11,3.63,18.11s9.72,1.55,11.07,16.1c0.54,5.84-0.01,10.67-1.05,14.59C247.43,231,242.61,235.08,242.61,235.08
				"/>
		</g>
		<g class="st6">
			<g>
				<g>
					<path class="st4" d="M149.9,157.5c1.02-3.38,3.15-7.29,7.51-10.41c7.07-5.06,17.52-2,17.52-2S159.71,145.76,149.9,157.5"/>
				</g>
			</g>
		</g>
		<g class="st6">
			<g>
				<g>
					<path class="st4" d="M135.84,178.46c0.93-1.66,2.3-3.32,4.31-4.76c5.22-3.74,12.93-1.48,12.93-1.48
						S144.53,173.01,135.84,178.46"/>
				</g>
			</g>
		</g>
		<g>
			<path class="st3" d="M186.09,155.58c-8.34,1.53-10.97,3.07-16,8.24c0.84-6.36,5.41-8.06,8.49-10.93
				c3.05-2.84,0.18-7.46-2.45-10.57c4.59,1.87,6.26,4.57,6.26,4.57s1.06-0.57,2.92-1.18C188.19,149.72,190.37,154.79,186.09,155.58"
				/>
		</g>
		<g class="st6">
			<g>
				<g>
					<path class="st4" d="M114.39,137.42c2.86-2.42,8.32-5.13,18.4-4.87c0.21,0.01,0.42,0.01,0.63,0.02
						c10.27,0.38,14.87,4.05,16.93,7.2c-2.51-2-7.53-5.55-18.34-5.67C119.54,133.97,112.35,139.15,114.39,137.42"/>
				</g>
			</g>
		</g>
		<g>
			<path class="st3" d="M124.02,180.62c-0.85-2.4-4.86-24.84-4.86-24.84l12.27-13.86c0,0,5.48,4.51,11.39,0.53
				c-4.29,3.37-5.96,6.07-5.4,11.87c0.21,2.14,1.16,4.47,3.61,4.05c3.08-0.54,3.68-10.62,11.97-12.64
				c-3.79,3.24-8.37,14.54-2.54,18.43c6.28,4.2,16.56,0.7,16.84,1.53c0.26,0.78-5.29,1.7-6.24,5.21c-0.55,2.01-0.21,4.11-1.14,4.22
				c-2.28,0.27-1.83-4.81-13.97-7.27c-13.39,2.75-13.25,14.09-13.25,14.09L124.02,180.62z"/>
		</g>
		<g>
			<polyline class="st3" points="192.11,212.09 221.29,220.71 222.76,213.06 188.14,201.86 			"/>
		</g>
		<g>
			<path class="st3" d="M164.41,248.72l28.35,1.83c0,0,37.42-16.55,23-24.11c-9.66-5.07-22.46,9.23-11.89-10.22
				c8.73-16.07-45.48,11.64-45.48,11.64"/>
		</g>
		<g class="st6">
			<g>
				<g>
					<path class="st4" d="M245.21,206.2c-0.93-4.92-2.16-8.52-2.82-10.38c2.22,1.67,4.9,5.08,5.55,11.97
						c0.45,4.88,0.13,9.45-0.96,13.58C246.97,221.37,246.02,210.49,245.21,206.2"/>
				</g>
			</g>
		</g>
		<g>
			<path class="st3" d="M96.26,230.64c-1.01,2.98-24.45-6.47-25.22-8.15c-0.8-1.74,1.64-2.56,0.62-7.57
				c-1.02-5.02,25.99-8.16,25.99-8.16s4.12,6.15-2.53,13.15C93.02,222.12,97.68,226.47,96.26,230.64"/>
		</g>
		<g>
			<path class="st3" d="M78.82,204.59c-10.26-2.11-17.22,2.37-20.65,4.51c0.67-1.01,1.15-1.56,1.15-1.56s-6.63-7.1-1.77-21.14
				c1.56-4.51,3.44-7.86,5.43-10.36c-0.15,0.39-7.99,21.05,1.75,22.16C78.34,199.76,82.09,205.61,78.82,204.59"/>
		</g>
		<g>
			<path class="st3" d="M231.03,212.35c-3.31-6.24-10.41-8.79-10.41-8.79s-5.3-3.57-3.91-6.76c1.9-4.38,6.85,1.79,14.42-7.88
				c2.03,3.36-2.22,9.18-0.84,11c2.41,3.19,7.53-3.34,9.47-8.49c1.64,1.66,3.94,7.66-8,13.06
				C227.64,206.36,231.75,213.21,231.03,212.35"/>
		</g>
		<g>
			<path class="st3" d="M230.55,168.64c-7.73-0.12-10.27,10.16-11,9.3c1.16-4.7,2.08-10.93,1.17-16.65
				c1.11,3.15,1.24,5.47,1.24,5.47S226.11,166.35,230.55,168.64"/>
		</g>
		<g>
			<path class="st3" d="M242.61,235.08c0,0,8.14,13.01-2.04,25.72c-7.35,9.16-19.98,5.54-19.98,5.54s-1.66,11.49-15.63,15.74
				c-16.96,5.16-26.26-6.09-26.26-6.09s-5.67,7.88-22.97,5.06c-20.28-3.3-24.22-18.12-24.22-18.12s-3.13,4.07-10.64,3.16
				c-8.59-1.04-10.69-8.11-10.69-8.11s-7.16,3.99-16.73,0.53c-11.87-4.29-13.71-14.8-13.71-14.8s-15.93,7.12-23.61-10.01
				c-3.05-6.79-2.62-12.85-1.27-17.42c0,0-2.11,16.1,11.63,21.44c12.1,4.69,21.34-4.21,21.34-4.21s-0.34,17.03,8.72,18.59
				c13.04,2.24,14.07-16.32,17.87-17.06c3.81-0.74,1.57,19.96,8.61,19.42c7.04-0.53,10.62-9.35,10.62-9.35s22.05,1.49,33.34,11.57
				c3.19,2.85,8.09,4.24,8.09,4.24s5.03-3.66,22.01-4.91c16.98-1.26,19.97-2.18,19.79-7.77c3.45,5.47,14.77,12.41,15.8-5.34
				c10.24,7.52,4.97-8.7-2.44-10.88c-3.91-4.4,1.05-8.99,1.05-8.99l18.5-0.9C247.43,231,242.61,235.08,242.61,235.08"/>
		</g>
		<g>
			<path class="st1" d="M178.68,278.71c-2.84,2.41-9.81,6.42-23.27,4.23c-16.14-2.63-22.52-12.13-24.74-16.85
				c-1.98,1.24-5.25,2.48-10.04,1.9c-6.81-0.83-10.07-4.98-11.44-7.51c-2.94,1.07-9.01,2.49-16.4-0.18
				c-9.54-3.45-13.12-10.57-14.36-14.14c-4.94,1.39-17.41,3.14-24.06-11.69c-5.84-13.02,0.09-23.45,2.55-26.94
				c-1.84-2.83-5.2-10.13-1.18-21.76c5.52-15.94,14.96-18.49,19.52-18.73c-0.38-4.34,0.05-13.61,8.78-21.58
				c9.76-8.92,19.9-8.31,23.74-7.66c1.99-3.31,8.4-10.69,25.83-10.05c16.64,0.62,21.38,9.13,22.72,13.67
				c3.04-1.37,8.62-3.3,14.54-2.47c6.74,0.95,10.42,3.85,12.08,5.58c3.74-1.53,14.2-4.71,26.46,1.3
				c10.75,5.27,13.53,14.95,14.23,18.99c3.1,0.16,9.37,1.27,14,7.32c4.94,6.44,4.68,14.42,4.26,17.92
				c3.25,1.26,9.71,5.25,10.83,17.27c1.51,16.19-5.05,25.14-7.77,28.1c1.86,3.9,6.03,15.41-2.9,26.55c-6.33,7.9-15.97,7.3-20.07,6.6
				c-1.17,3.76-4.98,11.81-16.49,15.31c-3.69,1.12-7.04,1.52-10.04,1.44C186.89,285.14,181.2,281.01,178.68,278.71z M221.11,264.49
				c0.47,0.13,11.52,3.14,17.96-4.89c9.18-11.45,2.21-23.01,1.91-23.49c-0.51-0.81-0.34-1.87,0.39-2.49
				c0.09-0.08,9.21-8.02,7.54-25.91c-1.19-12.76-9.14-14.32-9.46-14.38c-0.52-0.08-0.98-0.38-1.28-0.81
				c-0.3-0.44-0.4-0.98-0.29-1.49c0.02-0.1,2-9.65-3.28-16.53c-4.93-6.42-12.15-5.84-12.45-5.82c-0.52,0.05-1.04-0.11-1.43-0.45
				c-0.4-0.34-0.64-0.83-0.67-1.35c-0.03-0.49-0.87-11.97-12.32-17.58c-13.23-6.48-23.96-0.94-24.41-0.7
				c-0.88,0.47-1.99,0.17-2.53-0.66c-0.11-0.17-2.72-4.06-10.46-5.16c-7.28-1.03-14.34,3.13-14.4,3.17
				c-0.58,0.35-1.31,0.36-1.91,0.04c-0.6-0.33-0.98-0.95-1-1.63c-0.02-0.49-0.62-12.04-19.55-12.75c-18.9-0.73-22.7,8.66-22.84,9.04
				c-0.34,0.96-1.37,1.48-2.35,1.2c-0.11-0.03-11.12-3.14-21.64,6.47c-9.87,9.01-7.38,19.83-7.27,20.29l0,0
				c0.15,0.63-0.02,1.29-0.46,1.76c-0.44,0.48-1.1,0.7-1.74,0.59c-0.47-0.08-11.61-1.76-17.79,16.1
				c-4.38,12.66,1.13,18.95,1.35,19.2c0.67,0.72,0.69,1.82,0.05,2.57c-0.37,0.43-8.94,10.65-2.9,24.1
				c6.79,15.13,20.5,9.3,21.08,9.04c0.54-0.24,1.16-0.22,1.68,0.06c0.52,0.28,0.89,0.78,0.99,1.36c0.02,0.09,1.77,9.45,12.47,13.32
				c8.56,3.1,14.88-0.26,15.14-0.4c0.5-0.28,1.11-0.31,1.65-0.1c0.54,0.21,0.95,0.67,1.12,1.22c0.08,0.24,1.92,5.89,9.09,6.77
				c6.21,0.76,8.79-2.31,8.88-2.42c0.44-0.58,1.18-0.85,1.89-0.71c0.71,0.14,1.29,0.68,1.48,1.38c0.15,0.56,3.97,13.68,22.68,16.72
				c15.73,2.56,20.91-4.02,21.11-4.29c0.35-0.48,0.9-0.77,1.49-0.79c0.59-0.03,1.16,0.23,1.54,0.69c0.35,0.42,8.76,10.19,24.23,5.48
				c12.55-3.82,14.23-13.76,14.29-14.18c0.08-0.55,0.39-1.03,0.86-1.34c0.33-0.21,0.71-0.32,1.1-0.31
				C220.79,264.42,220.95,264.45,221.11,264.49z"/>
		</g>
		<g>
			<path class="st2" d="M59.31,207.55c1.91-1.93,10.3-9.26,20.2-2.51"/>
		</g>
		<g>
			<path class="st1" d="M58.22,206.47c1.53-1.35,3.19-2.41,4.98-3.25c1.79-0.84,3.71-1.4,5.66-1.57c1.95-0.17,3.92,0.06,5.73,0.68
				c1.82,0.6,3.45,1.58,4.92,2.72c-1.61-0.92-3.33-1.65-5.11-1.97c-1.78-0.35-3.59-0.3-5.3,0.1c-1.71,0.39-3.33,1.12-4.79,2.07
				c-1.46,0.95-2.81,2.11-3.9,3.39L58.22,206.47z"/>
		</g>
		<g>
			<path class="st2" d="M71.85,213.45c0,0,7.72,8.75,18.08,6.14c11.46-2.89,8.85-17.97,5.26-22.32L71.85,213.45z"/>
		</g>
		<g>
			<path class="st3" d="M85.71,217.17c-3.83-0.1-7.07-1.9-9.17-3.44c0,0,14.38,4.69,18.7-4.27c-0.09,0.77-0.25,1.52-0.48,2.23
				c-0.89,2.71-2.7,4.38-5.54,5.1C88.06,217.06,86.88,217.2,85.71,217.17L85.71,217.17z"/>
		</g>
		<g>
			<path class="st1" d="M71.27,213.43c1.59,1.18,3.25,2.17,4.95,3.01c1.71,0.82,3.47,1.46,5.25,1.82c1.78,0.36,3.58,0.46,5.33,0.24
				c0.44-0.04,0.87-0.13,1.31-0.21c0.43-0.11,0.87-0.19,1.28-0.32c0.82-0.25,1.61-0.58,2.32-1c0.72-0.42,1.36-0.94,1.92-1.54
				c0.56-0.6,1.04-1.3,1.44-2.05c0.78-1.52,1.24-3.27,1.41-5.09c0.18-1.82,0.11-3.71-0.17-5.58c-0.3-1.86-0.74-3.75-1.7-5.47
				c0.74,0.66,1.34,1.49,1.84,2.36c0.51,0.87,0.92,1.8,1.27,2.75c0.68,1.91,1.07,3.94,1.11,6.02c0.03,2.07-0.28,4.23-1.18,6.24
				c-0.88,2.01-2.43,3.83-4.37,4.97c-0.96,0.59-2,1.01-3.04,1.31c-0.53,0.15-1.05,0.25-1.57,0.36c-0.53,0.07-1.06,0.16-1.59,0.19
				c-2.13,0.17-4.28-0.13-6.27-0.79c-1.99-0.65-3.82-1.66-5.43-2.89c-0.8-0.62-1.56-1.29-2.25-2.01c-0.34-0.37-0.68-0.74-0.99-1.12
				C71.84,214.25,71.53,213.86,71.27,213.43"/>
		</g>
		<g>
			<path class="st2" d="M70.35,223.35c2.51-3.53,8.02-6.2,14.72-4.13c7.4,2.29,11.31,9.34,11.79,14.28L70.35,223.35z"/>
		</g>
		<g class="st6">
			<g>
				<g>
					<path class="st4" d="M75.95,222.39c0.86-0.43,2.92-1.04,4.78-0.99c1.14,0.03,2.31,0.23,3.48,0.59
						c3.84,1.19,6.44,3.89,7.99,6.62C92.21,228.61,86.92,222.07,75.95,222.39"/>
				</g>
			</g>
		</g>
		<g class="st6">
			<g>
				<g>
					<path class="st4" d="M56.98,221.46c-0.11-2.05,1.18-7.21,2.94-10.04c2.81-4.52,6.31-6.5,9.55-7.21
						C66.03,206,62.75,208.62,56.98,221.46"/>
				</g>
			</g>
		</g>
		<g>
			<path class="st1" d="M70.35,223.35c0.32-0.69,0.74-1.35,1.24-1.94c0.5-0.6,1.07-1.15,1.7-1.64c1.26-0.97,2.73-1.69,4.3-2.11
				c1.57-0.43,3.22-0.55,4.85-0.42c1.63,0.14,3.21,0.52,4.74,1.13c1.52,0.62,2.94,1.48,4.18,2.53c1.25,1.05,2.32,2.29,3.18,3.63
				c0.86,1.35,1.52,2.81,1.94,4.33c0.41,1.52,0.6,3.1,0.38,4.63c-1.03-2.87-2.55-5.33-4.38-7.44c-1.84-2.1-4.02-3.79-6.49-4.89
				c-1.23-0.56-2.55-0.96-3.89-1.19c-1.34-0.24-2.71-0.29-4.08-0.15C75.29,220.14,72.55,221.26,70.35,223.35"/>
		</g>
		<g>
			<path class="st1" d="M79.06,242.31c0.02,0,0.08-0.02,0.13-0.04c0.05-0.02,0.11-0.04,0.16-0.06c0.11-0.04,0.22-0.09,0.33-0.15
				c0.23-0.1,0.45-0.22,0.68-0.34c0.45-0.25,0.89-0.51,1.32-0.81c0.86-0.59,1.69-1.27,2.43-2.03c0.74-0.77,1.46-1.59,2.06-2.51
				c0.33-0.44,0.59-0.93,0.88-1.4c0.28-0.48,0.51-0.98,0.77-1.48c-0.14,0.54-0.25,1.09-0.41,1.63c-0.18,0.53-0.33,1.09-0.55,1.61
				c-0.4,1.07-0.93,2.09-1.53,3.09c-0.6,1-1.32,1.93-2.12,2.82c-0.4,0.44-0.83,0.86-1.28,1.27c-0.23,0.2-0.46,0.4-0.71,0.59
				c-0.12,0.1-0.25,0.19-0.38,0.29c-0.07,0.05-0.13,0.09-0.2,0.14c-0.07,0.05-0.13,0.09-0.24,0.15L79.06,242.31z"/>
		</g>
		<g>
			<path class="st1" d="M129.7,263.62l3.58-1.39l-1.79,0.69l1.79-0.68c-0.01-0.02-0.8-2.19-0.62-5.52l-3.83-0.21
				C128.6,260.72,129.66,263.5,129.7,263.62z"/>
		</g>
		<g>
			<path class="st1" d="M109.22,256.75c0.07-0.02,0.21-0.09,0.32-0.15c0.12-0.06,0.24-0.13,0.35-0.2c0.24-0.14,0.47-0.28,0.71-0.44
				c0.47-0.31,0.93-0.65,1.38-1.01c0.45-0.36,0.89-0.74,1.31-1.15c0.43-0.4,0.83-0.83,1.24-1.28c-0.18,0.57-0.37,1.14-0.6,1.7
				c-0.22,0.57-0.48,1.12-0.75,1.68c-0.28,0.55-0.58,1.1-0.91,1.64c-0.16,0.27-0.34,0.54-0.53,0.8c-0.09,0.13-0.19,0.26-0.29,0.4
				c-0.11,0.14-0.19,0.25-0.35,0.42L109.22,256.75z"/>
		</g>
		<g>
			<path class="st2" d="M206.07,268.04c-7.05-2.25-20.87-22.51-5.06-36.96c12.62-11.54,36.49-0.69,30.78,17.65L206.07,268.04z"/>
		</g>
		<g>
			<path class="st2" d="M231.79,248.73l-7.16,5.37l-18.56,13.94c-5.05-1.62-13.59-12.49-12.19-23.84c0.55-4.48,2.65-9.04,7.12-13.13
				C213.63,219.54,237.5,230.39,231.79,248.73"/>
		</g>
		<g>
			<path class="st3" d="M224.63,254.1l-18.56,13.94c-5.05-1.62-13.59-12.49-12.19-23.84c1.83,1.53,3.83,3.72,5.1,6.63
				c0.67,1.52,1.74,12.32,12.76,10c10.81-2.27,0.36-17.94,1.96-18.02C216.79,242.65,218,252.76,224.63,254.1"/>
		</g>
		<g class="st6">
			<g>
				<g>
					<path class="st4" d="M205.22,235.98c-8.12,5.42-8.83,9.81-8.11,6.77c0.74-3.12,2.46-6.42,5.86-9.53
						c2.93-2.68,6.86-4.1,11.06-3.99c5.38,0.14,10.5,2.69,13.35,6.67C229.67,239.08,218,227.45,205.22,235.98"/>
				</g>
			</g>
		</g>
		<g>
			<path class="st1" d="M206.07,268.04c-0.93-0.22-1.8-0.68-2.62-1.18c-0.82-0.52-1.58-1.12-2.3-1.77c-1.45-1.29-2.7-2.79-3.83-4.38
				c-1.13-1.59-2.06-3.32-2.83-5.13c-0.77-1.81-1.35-3.72-1.68-5.68c-0.34-1.97-0.41-3.99-0.19-6.01c0.22-2.01,0.74-4,1.55-5.87
				c0.8-1.87,1.88-3.62,3.14-5.19c0.63-0.79,1.32-1.53,2.03-2.24c0.7-0.7,1.49-1.4,2.32-2c1.66-1.22,3.53-2.18,5.49-2.8
				c1.96-0.62,4.01-0.95,6.06-0.96c4.09-0.04,8.14,1.11,11.58,3.24c1.72,1.07,3.28,2.4,4.58,3.95c1.3,1.55,2.33,3.33,2.97,5.23
				c0.65,1.9,0.89,3.91,0.79,5.86c-0.12,1.96-0.6,3.86-1.34,5.62c0.18-0.94,0.33-1.88,0.4-2.81c0.08-0.94,0.08-1.87,0-2.8
				c-0.14-1.85-0.61-3.63-1.37-5.27c-1.52-3.28-4.2-5.87-7.32-7.57c-3.13-1.71-6.71-2.54-10.23-2.46c-3.52,0.09-6.99,1.17-9.8,3.22
				c-1.39,1.01-2.7,2.3-3.85,3.65c-1.14,1.37-2.13,2.85-2.87,4.46c-1.52,3.19-2.05,6.83-1.66,10.42c0.19,1.8,0.59,3.59,1.17,5.33
				c0.58,1.75,1.36,3.43,2.25,5.06c0.91,1.62,1.98,3.16,3.21,4.57c0.61,0.71,1.28,1.37,2,1.97
				C204.42,267.12,205.19,267.67,206.07,268.04"/>
		</g>
		<g>
			<path class="st2" d="M134.15,206.08c1.38-12.21-6.73-14.88-14.5-7.33"/>
		</g>
		<g>
			<path class="st1" d="M134.15,206.08c-0.23-1.05-0.38-2.06-0.61-3.03c-0.22-0.97-0.46-1.91-0.78-2.77
				c-0.63-1.73-1.59-3.16-2.88-3.77c-1.27-0.66-2.99-0.62-4.76-0.11c-1.79,0.49-3.55,1.42-5.47,2.36c0.5-0.95,1.16-1.8,1.91-2.58
				c0.75-0.78,1.63-1.46,2.62-2.01c0.99-0.55,2.12-0.94,3.35-1.07c0.15-0.02,0.31-0.03,0.46-0.04c0.16,0,0.31,0,0.47,0.01
				c0.31,0,0.63,0.05,0.95,0.08c0.63,0.12,1.27,0.31,1.86,0.61c0.59,0.29,1.12,0.7,1.59,1.14c0.44,0.47,0.86,0.96,1.15,1.5
				c0.62,1.07,0.95,2.21,1.1,3.33C135.38,201.97,135,204.13,134.15,206.08"/>
		</g>
		<g>
			<path class="st1" d="M155.77,145.58c-1.72,1.13-3.24,2.54-4.45,4.2c-1.21,1.65-2.12,3.54-2.75,5.53
				c-0.62,1.99-0.97,4.09-1.09,6.21c-0.06,1.06-0.06,2.13-0.01,3.19c0.03,0.53,0.07,1.06,0.12,1.59c0.03,0.26,0.06,0.52,0.09,0.78
				c0.03,0.25,0.08,0.53,0.12,0.74l-0.01,0.57c-0.02,0.72-0.62,1.29-1.33,1.27c-0.01,0-0.03,0-0.03,0c-0.06,0-0.2,0.01-0.3,0.01
				l-0.34,0.03c-0.23,0.02-0.47,0.06-0.7,0.09c-0.47,0.07-0.95,0.17-1.41,0.29c-0.94,0.24-1.86,0.55-2.74,0.96
				c-1.77,0.8-3.38,1.97-4.67,3.46c-1.29,1.5-2.23,3.32-2.81,5.28c-0.58,1.96-0.82,4.04-0.82,6.13c-0.25-2.07-0.27-4.2,0.07-6.3
				c0.35-2.1,1.1-4.19,2.33-6.03c1.22-1.84,2.89-3.4,4.8-4.57c0.95-0.59,1.96-1.08,3.01-1.49c0.52-0.2,1.06-0.38,1.6-0.54
				c0.27-0.08,0.55-0.15,0.83-0.22l0.43-0.09c0.15-0.03,0.27-0.05,0.48-0.08l-1.38,1.83c-0.07-0.35-0.1-0.62-0.15-0.92
				c-0.04-0.3-0.07-0.59-0.11-0.88c-0.06-0.59-0.1-1.17-0.13-1.75c-0.06-1.17-0.05-2.34,0.01-3.51c0.13-2.34,0.51-4.69,1.23-6.96
				c0.71-2.27,1.77-4.47,3.2-6.42c1.43-1.96,3.23-3.64,5.25-4.96L155.77,145.58z"/>
		</g>
		<g>
			<path class="st2" d="M144.38,141.94c-1.63-0.04-8.13,3.83-7.65,13.59"/>
		</g>
		<g>
			<path class="st1" d="M144.38,141.94c-0.7,0.11-1.29,0.51-1.85,0.9c-0.54,0.43-1.05,0.88-1.49,1.41
				c-0.89,1.03-1.57,2.21-2.05,3.45c-0.26,0.61-0.41,1.26-0.58,1.89c-0.1,0.66-0.25,1.29-0.27,1.95c-0.14,1.3-0.01,2.62,0.13,3.91
				l-3.07,0.15c0.1-1.51,0.24-3.02,0.67-4.47c0.17-0.73,0.46-1.44,0.72-2.14c0.32-0.68,0.63-1.36,1.04-1.99
				c0.78-1.27,1.76-2.4,2.9-3.31c0.56-0.47,1.19-0.85,1.82-1.19C142.98,142.22,143.67,141.93,144.38,141.94"/>
		</g>
		<g>
			<path class="st2" d="M170.29,163.82c0,0,3.34-6.6,12-8.05c8.1-1.35,14.5,3.8,16.03,7.03L170.29,163.82z"/>
		</g>
		<g class="st6">
			<g>
				<g>
					<path class="st4" d="M177.32,160.66c1.42-0.89,3.22-1.66,5.45-2.03c0.83-0.14,1.68-0.2,2.51-0.18
						c2.36,0.06,4.45,0.76,6.14,1.69c0,0-3.49-0.81-7.26-0.56C181.22,159.78,177.32,160.66,177.32,160.66"/>
				</g>
			</g>
		</g>
		<g>
			<path class="st1" d="M170.29,163.82c0.17-0.71,0.46-1.37,0.8-2.02c0.34-0.65,0.74-1.26,1.19-1.85c0.9-1.17,2-2.21,3.23-3.07
				c1.24-0.85,2.61-1.54,4.04-2.01c0.72-0.23,1.45-0.43,2.19-0.56c0.74-0.15,1.51-0.23,2.27-0.26c3.06-0.14,6.14,0.66,8.7,2.2
				c1.28,0.76,2.45,1.71,3.43,2.8c0.49,0.55,0.94,1.13,1.32,1.76c0.38,0.62,0.69,1.29,0.86,1.99c-0.89-1.11-1.97-1.95-3.1-2.69
				c-1.12-0.73-2.32-1.33-3.53-1.81c-2.44-0.94-5-1.38-7.52-1.2c-1.25,0.07-2.52,0.33-3.76,0.64c-0.61,0.18-1.23,0.36-1.83,0.58
				c-0.6,0.23-1.2,0.47-1.78,0.75C174.47,160.21,172.28,161.77,170.29,163.82"/>
		</g>
		<g>
			<path class="st7" d="M182.4,146.9c0,0,3.13,4.42,1.79,8.72"/>
		</g>
		<g>
			<path class="st1" d="M186.03,156.19c1.6-5.15-1.91-10.19-2.06-10.41l-3.13,2.22l1.57-1.11l-1.57,1.11
				c0.03,0.04,2.56,3.73,1.53,7.05L186.03,156.19z"/>
		</g>
		<g>
			<path class="st2" d="M185.04,172.12c-0.73,3.92,6.46,11.84,15.43,10.73c13.13-1.63,10.91-15.58,10.07-16.64L185.04,172.12z"/>
		</g>
		<g>
			<path class="st3" d="M198.48,180.05c-4.04-0.1-7.35-2.39-9.11-4.5c-0.38-0.45-0.29-1.19,0.41-0.8
				c13.01,7.32,18.54-2.82,18.26-1.57c-0.22,0.98-0.57,1.98-1.12,2.9c-1.33,2.21-3.56,3.48-6.8,3.88
				C199.57,180.04,199.02,180.07,198.48,180.05L198.48,180.05z"/>
		</g>
		<g>
			<path class="st1" d="M185.04,172.12c-0.03,0.92,0.31,1.75,0.72,2.51c0.43,0.76,0.97,1.45,1.56,2.08c1.19,1.26,2.6,2.29,4.1,3.1
				c1.5,0.8,3.11,1.35,4.74,1.61c1.64,0.26,3.27,0.22,4.89-0.12c1.62-0.32,3.15-0.88,4.43-1.76c1.29-0.87,2.27-2.07,3.03-3.44
				c0.75-1.38,1.27-2.96,1.61-4.64c0.18-0.84,0.3-1.7,0.39-2.58c0.05-0.44,0.08-0.88,0.09-1.33c0.01-0.45,0.05-0.9-0.07-1.35
				c0.19,0.15,0.31,0.37,0.44,0.57c0.13,0.21,0.23,0.42,0.32,0.64c0.19,0.44,0.35,0.89,0.48,1.35c0.26,0.92,0.4,1.87,0.45,2.84
				c0.09,1.93-0.22,3.94-1.06,5.8c-0.42,0.93-0.98,1.81-1.66,2.6c-0.68,0.79-1.48,1.48-2.34,2.05c-0.86,0.57-1.79,1.02-2.74,1.36
				c-0.95,0.35-1.92,0.57-2.89,0.72c-1.93,0.31-3.99,0.24-5.89-0.24c-1.91-0.47-3.7-1.31-5.27-2.41c-1.57-1.1-2.94-2.47-3.98-4.06
				c-0.52-0.79-0.95-1.65-1.23-2.55C184.89,174,184.76,173,185.04,172.12"/>
		</g>
		<g>
			<path class="st8" d="M109.2,148.58c-0.05-0.19-0.02-0.13,0.06-0.1l0.29,0.18c0.23,0.13,0.49,0.28,0.77,0.41
				c0.56,0.26,1.16,0.49,1.77,0.68c1.22,0.38,2.5,0.59,3.74,0.55c1.05-0.02,2-0.5,2.95-1.38c0.47-0.45,0.91-0.98,1.33-1.57
				c0.21-0.3,0.43-0.6,0.62-0.93c0.2-0.32,0.4-0.65,0.56-1.02c0.28,0.79,0.27,1.63,0.18,2.45c-0.1,0.83-0.34,1.65-0.75,2.45
				c-0.41,0.79-0.99,1.55-1.78,2.13c-0.78,0.6-1.75,0.98-2.72,1.15c-1.77,0.32-3.56,0.15-5.22-0.37c-0.83-0.26-1.63-0.61-2.39-1.09
				c-0.38-0.24-0.76-0.5-1.12-0.83c-0.18-0.17-0.37-0.34-0.56-0.58c-0.19-0.24-0.4-0.48-0.59-1.02L109.2,148.58z"/>
		</g>
		<g>
			<path class="st7" d="M221.95,166.76c0,0,0.07,5.5-2.41,11.18"/>
		</g>
		<g>
			<path class="st1" d="M223.49,166.74c-0.06,0.58-0.16,1.04-0.25,1.55c-0.1,0.5-0.21,0.99-0.34,1.47
				c-0.25,0.97-0.53,1.92-0.87,2.86c-0.33,0.93-0.7,1.85-1.12,2.74c-0.4,0.89-0.88,1.75-1.37,2.58c0.25-0.94,0.48-1.87,0.63-2.81
				c0.17-0.94,0.28-1.88,0.35-2.83c0.07-0.94,0.1-1.88,0.08-2.81c-0.01-0.47-0.03-0.93-0.06-1.39c-0.03-0.45-0.07-0.94-0.14-1.32
				L223.49,166.74z"/>
		</g>
		<g>
			<path class="st1" d="M241.25,191.79c-0.12,0.32-0.22,0.55-0.34,0.8c-0.11,0.25-0.24,0.49-0.36,0.72
				c-0.25,0.47-0.52,0.93-0.8,1.38c-0.56,0.89-1.19,1.73-1.88,2.51c-0.33,0.4-0.71,0.76-1.06,1.13c-0.38,0.35-0.74,0.71-1.15,1.02
				c-0.77,0.66-1.63,1.2-2.49,1.71c0.7-0.71,1.37-1.43,1.93-2.24c0.3-0.38,0.54-0.81,0.81-1.21c0.24-0.42,0.49-0.83,0.69-1.27
				c0.43-0.85,0.79-1.74,1.07-2.63c0.14-0.45,0.27-0.9,0.37-1.35c0.05-0.23,0.1-0.45,0.14-0.67c0.04-0.21,0.08-0.46,0.09-0.62
				L241.25,191.79z"/>
		</g>
		<g>
			<path class="st2" d="M217.81,202.99c0,0,10.15,0.76,13.71,10.57"/>
		</g>
		<g>
			<path class="st1" d="M217.92,201.46c0.28,0.04,0.46,0.08,0.67,0.13c0.21,0.05,0.41,0.1,0.61,0.15c0.4,0.11,0.79,0.23,1.18,0.37
				c0.77,0.27,1.53,0.58,2.25,0.94c1.46,0.71,2.81,1.61,4.01,2.66c0.6,0.53,1.15,1.1,1.67,1.7c0.51,0.61,0.97,1.25,1.38,1.91
				c0.81,1.34,1.41,2.77,1.82,4.24c-0.64-1.38-1.46-2.67-2.44-3.79c-0.49-0.56-1.02-1.08-1.58-1.55c-0.57-0.47-1.16-0.9-1.77-1.28
				c-1.24-0.76-2.57-1.34-3.94-1.75c-0.69-0.2-1.38-0.36-2.08-0.48c-0.35-0.06-0.7-0.1-1.04-0.14c-0.17-0.02-0.35-0.03-0.51-0.04
				c-0.16-0.01-0.36-0.02-0.46-0.01L217.92,201.46z"/>
		</g>
		<g>
			<path class="st2" d="M230.97,187.88c1.64,6.27-8.92,24.04-29.61,9.86c0,0,3.48-10.81,13.9-12.92
				C224.8,182.88,230.97,187.88,230.97,187.88"/>
		</g>
		<g>
			<path class="st3" d="M215.6,200.19c-3.26-0.08-6.82-1.28-10.61-3.56c18.95,5.4,22.78-5.81,23.23-7.1
				c-0.08,1.43-0.81,3.75-2.55,5.94C224.23,197.29,221,200.33,215.6,200.19"/>
		</g>
		<g>
			<path class="st1" d="M230.97,187.88c0.33,0.78,0.42,1.65,0.41,2.51c-0.01,0.86-0.14,1.73-0.35,2.57
				c-0.2,0.85-0.51,1.66-0.85,2.47c-0.37,0.79-0.78,1.57-1.28,2.3c-0.97,1.47-2.2,2.79-3.64,3.9c-1.44,1.09-3.09,1.94-4.85,2.46
				c-0.44,0.11-0.88,0.26-1.33,0.34c-0.45,0.08-0.9,0.18-1.35,0.23c-0.45,0.04-0.91,0.09-1.37,0.13l-1.37,0
				c-1.82-0.07-3.6-0.4-5.31-0.91c-3.39-1.07-6.49-2.77-9.21-4.86l1.74-2.53c2.75,1.65,5.57,3.09,8.5,4.02
				c1.47,0.42,2.96,0.76,4.45,0.87c1.49,0.11,2.99,0.03,4.43-0.31c2.89-0.65,5.59-2.26,7.67-4.59c1.04-1.15,1.96-2.46,2.63-3.91
				c0.35-0.72,0.63-1.47,0.83-2.25C230.93,189.53,231.05,188.71,230.97,187.88"/>
		</g>
		<g>
			<path class="st9" d="M199.37,197.68L247,224.98c0,0-1.19,11.34-3.79,10.64c-2.23-0.6-0.58-6.45-0.58-6.45l-41.64-17.59
				L199.37,197.68z"/>
		</g>
		<g>
			<path class="st2" d="M219.48,220.83l42.46-12.74c0,0,0.05-4.98,1.69-9.93c2.01-6.07-4.27-8.99-2.21-12.85
				c2.49-4.68,13.85-2.38,12.87,8.75c-0.98,11.13,17.8,15.55,12.64,21.72c-3.44,4.11-13.32,6.92-20.75,4.1L230.23,232l-4.76-4.95
				L219.48,220.83z"/>
		</g>
		<g>
			<path class="st2" d="M219.48,220.83l42.46-12.74c0,0,0.05-4.98,1.69-9.93c2.01-6.07-4.27-8.99-2.21-12.85
				c2.49-4.68,13.85-2.38,12.87,8.75c-0.98,11.13,17.8,15.55,12.64,21.72c-3.44,4.11-13.32,6.92-20.75,4.1L230.23,232l-4.76-4.95
				L219.48,220.83z"/>
		</g>
		<g>
			<path class="st2" d="M286.93,215.76c-3.44,4.12-13.32,6.92-20.75,4.1l-34.53,11.65l-1.42,0.48l-4.76-4.95l-5.99-6.22l42.46-12.74
				c0,0,0.05-4.98,1.69-9.93c0.17-0.52,0.28-1.01,0.35-1.48c0.2-1.55-0.13-2.88-0.64-4.09c-1.16-2.75-3.22-4.82-1.91-7.28
				c2.13-4,10.72-2.91,12.58,4.44c0.32,1.25,0.44,2.69,0.3,4.31C273.31,205.18,292.09,209.59,286.93,215.76"/>
		</g>
		<g class="st6">
			<g>
				<g>
					<path class="st4" d="M274.27,194.33c-0.04-0.82-0.16-1.58-0.33-2.29c-1.85-7.34-9.62-8.45-11.22-4.58
						c-0.39,0.95-0.58,1.85-0.6,2.73c-0.9-1.68-1.61-3.2-0.7-4.89c2.13-4,10.72-2.91,12.58,4.44c0.32,1.25,0.44,2.69,0.3,4.31
						C274.29,194.14,274.28,194.24,274.27,194.33"/>
				</g>
			</g>
		</g>
		<g class="st6">
			<g>
				<g>
					<path class="st4" d="M274.28,195.55c-0.03-0.4-0.03-0.8-0.01-1.22C274.3,194.73,274.3,195.13,274.28,195.55"/>
				</g>
			</g>
		</g>
		<g>
			<path class="st3" d="M286.93,215.76c-3.44,4.12-13.32,6.92-20.75,4.1l-34.53,11.65c-0.9-0.12-1.34-0.59-0.28-1.85
				c2.62-3.08,30.91-11.29,32.13-12.71c1.21-1.42,0.45-5.34,0.45-5.34s4.81,3.39,6.67-0.01c0.58-1.05-1.57-4.18-2.96-8.14
				c-1.15-3.27-0.14-5.12-3.69-6.79c0.2-1.55-0.13-2.88-0.64-4.09c2.89,0.78,9.32,2.21,10.66-2.85c0.32,1.25,0.44,2.69,0.3,4.31
				C273.31,205.18,292.09,209.59,286.93,215.76"/>
		</g>
		<g>
			<path class="st1" d="M219.48,220.83c3.42-1.44,6.88-2.76,10.36-4.05l2.61-0.96l2.61-0.93c1.74-0.63,3.49-1.22,5.24-1.83
				c3.49-1.21,7.01-2.35,10.54-3.45c3.53-1.08,7.08-2.12,10.67-3l-1.1,1.46l0,0c0.03-1.08,0.11-2.06,0.22-3.08
				c0.11-1.01,0.26-2.02,0.45-3.02c0.19-1,0.41-2,0.7-2.99c0.07-0.25,0.14-0.49,0.22-0.74l0.12-0.37l0.1-0.33
				c0.13-0.38,0.2-0.77,0.25-1.15c0.08-0.77,0.01-1.52-0.22-2.3c-0.23-0.77-0.61-1.56-1.06-2.39c-0.44-0.84-0.98-1.72-1.38-2.87
				c-0.2-0.57-0.34-1.24-0.33-1.95c0-0.71,0.19-1.44,0.48-2.05c0.28-0.62,0.71-1.19,1.2-1.65c0.5-0.46,1.07-0.82,1.65-1.08
				c1.18-0.52,2.41-0.66,3.58-0.6c2.36,0.14,4.57,1.18,6.23,2.79c1.67,1.62,2.69,3.8,3.06,5.99c0.19,1.09,0.24,2.19,0.19,3.27
				l-0.05,0.77c-0.02,0.21-0.02,0.41-0.02,0.62c0,0.41,0.03,0.82,0.1,1.22c0.26,1.61,1.07,3.15,2.18,4.55
				c1.11,1.41,2.49,2.68,3.94,3.93c1.46,1.25,3.01,2.44,4.53,3.89c0.75,0.73,1.51,1.52,2.14,2.62c0.31,0.55,0.57,1.2,0.66,1.95
				c0.09,0.74-0.03,1.55-0.31,2.2c-0.27,0.66-0.67,1.21-1.07,1.65c-0.38,0.45-0.8,0.83-1.23,1.19c-0.86,0.71-1.78,1.29-2.72,1.78
				c-1.89,0.98-3.88,1.65-5.92,2.08c-2.04,0.43-4.12,0.63-6.22,0.54c-2.09-0.09-4.21-0.45-6.23-1.22l0,0l1.04,0.02
				c-2.94,1.18-5.95,2.14-8.98,3.05c-3.04,0.89-6.07,1.78-9.12,2.64c-3.04,0.88-6.1,1.7-9.15,2.55c-1.53,0.43-3.05,0.84-4.59,1.24
				c-1.53,0.41-3.06,0.81-4.6,1.2c1.46-0.62,2.92-1.23,4.39-1.83c1.46-0.61,2.93-1.21,4.4-1.79c2.94-1.18,5.87-2.37,8.82-3.52
				c2.95-1.16,5.9-2.3,8.85-3.43c2.96-1.11,5.94-2.17,8.99-3.02l0.14-0.04c0.31-0.09,0.62-0.06,0.9,0.06l0,0
				c3.32,1.24,7.14,1.29,10.72,0.54c1.79-0.38,3.55-0.98,5.13-1.8c0.79-0.42,1.53-0.89,2.19-1.43c0.32-0.27,0.63-0.55,0.88-0.85
				c0.26-0.29,0.43-0.55,0.53-0.8c0.11-0.24,0.12-0.44,0.1-0.67c-0.03-0.23-0.12-0.51-0.29-0.81c-0.35-0.61-0.94-1.27-1.59-1.9
				c-1.32-1.26-2.88-2.47-4.39-3.76c-1.52-1.3-3.04-2.69-4.36-4.36c-0.66-0.84-1.26-1.75-1.75-2.74c-0.49-1-0.86-2.08-1.04-3.21
				c-0.1-0.56-0.14-1.13-0.14-1.7c0-0.29,0.01-0.57,0.03-0.85l0.05-0.7c0.04-0.88,0-1.75-0.14-2.58c-0.28-1.67-1.02-3.19-2.18-4.32
				c-1.14-1.12-2.71-1.83-4.27-1.92c-0.77-0.04-1.54,0.07-2.16,0.34c-0.62,0.28-1.08,0.69-1.32,1.22c-0.13,0.27-0.18,0.51-0.19,0.78
				c0,0.27,0.05,0.57,0.17,0.93c0.24,0.71,0.71,1.52,1.18,2.41c0.48,0.89,0.97,1.87,1.3,2.98c0.16,0.55,0.28,1.13,0.34,1.73
				c0.06,0.59,0.04,1.19-0.02,1.79c-0.08,0.59-0.19,1.17-0.37,1.71l-0.22,0.7c-0.07,0.22-0.14,0.44-0.2,0.67
				c-0.26,0.89-0.46,1.81-0.64,2.73c-0.17,0.92-0.31,1.85-0.42,2.79c-0.1,0.92-0.18,1.9-0.2,2.77v0c0.03,0.64-0.36,1.2-0.94,1.4
				l-0.16,0.06c-3.48,1.24-7.02,2.33-10.56,3.37c-3.55,1.03-7.11,2.01-10.69,2.93c-1.79,0.46-3.58,0.93-5.38,1.36l-2.7,0.66
				l-2.7,0.63C226.75,219.34,223.13,220.15,219.48,220.83"/>
		</g>
		<g>
			<path class="st2" d="M284.51,217.83c9.37-6.55,4.94-12.64,3.57-13.73c0.44-1.8,1.01-4.84-3.26-6.66
				c0.08-0.66,0.33-4.82-4.77-4.97c-1.14-0.03-4.31,0.22-6.52,1.92c-0.94,0.72-3.37,3.54-3.64,6.35c-0.2,2.03,1.01,3.3,2.52,3.96
				c-0.42,2.4-0.15,4.92,3.2,6.23c0.24,2.79,2.42,5.29,6.6,3.79c0.69-0.25,1.45-0.61,2.25-1.1"/>
		</g>
		<g>
			<path class="st2" d="M288.82,213.7c-0.91,1.32-2.29,2.71-4.31,4.13l-0.06-4.21c-0.8,0.49-1.55,0.85-2.25,1.1
				c-4.18,1.5-6.36-0.99-6.6-3.79c-3.35-1.31-3.62-3.84-3.2-6.23c-1.51-0.66-2.72-1.93-2.52-3.96c0.21-2.09,1.6-4.19,2.69-5.42
				c0.37-0.43,0.71-0.75,0.95-0.93c2.21-1.7,5.38-1.95,6.52-1.92c5.11,0.15,4.85,4.31,4.77,4.97c4.27,1.83,3.7,4.87,3.26,6.67
				C289.15,204.95,292.11,208.88,288.82,213.7"/>
		</g>
		<g class="st6">
			<g>
				<g>
					<path class="st4" d="M288.82,213.7c-0.91,1.32-2.29,2.71-4.31,4.13l0-0.17c0.95-0.85,1.62-1.73,2.23-2.49
						c3.87-4.77,0.87-9.15-0.98-10.38c0.77-1.82,0.78-4.83-3.29-6.3c0.29-0.79,0.6-4.42-4.51-4.56c-0.91-0.03-3.12,0.13-5.1,1.07
						c0.25-0.27,0.48-0.48,0.66-0.61c2.21-1.7,5.38-1.95,6.52-1.92c5.11,0.15,4.85,4.31,4.77,4.97c4.27,1.83,3.7,4.87,3.26,6.67
						C289.15,204.95,292.11,208.88,288.82,213.7"/>
				</g>
			</g>
		</g>
		<g>
			<path class="st3" d="M288.82,213.7c-0.91,1.32-2.29,2.71-4.31,4.13l-0.06-4.21c-0.8,0.49-1.55,0.85-2.25,1.1
				c-4.18,1.5-6.36-0.99-6.6-3.79c-3.35-1.31-3.62-3.84-3.2-6.23c-1.51-0.66-2.72-1.93-2.52-3.96c0.21-2.09,1.6-4.19,2.69-5.42
				c0.57,1.98,1.76,4.35,4.23,4.47c0,0-1.64,5.18,3.24,5.95c0,0-0.93,6.09,3.34,4.85C287.22,209.45,288.45,209.57,288.82,213.7"/>
		</g>
		<g>
			<path class="st1" d="M283.63,216.57c1.06-0.74,2.05-1.56,2.89-2.47c0.84-0.9,1.52-1.9,1.91-2.95c0.39-1.04,0.47-2.13,0.22-3.18
				c-0.13-0.52-0.33-1.03-0.61-1.51c-0.13-0.24-0.29-0.46-0.45-0.67c-0.16-0.2-0.35-0.4-0.46-0.5l-0.02-0.02
				c-0.47-0.39-0.65-1-0.51-1.55c0.16-0.63,0.26-1.18,0.25-1.68c0-0.5-0.09-0.94-0.28-1.32c-0.19-0.38-0.49-0.74-0.9-1.06
				c-0.4-0.32-0.9-0.59-1.44-0.83l-0.01,0c-0.64-0.28-0.99-0.94-0.92-1.59c0.02-0.15,0.02-0.38,0.01-0.58
				c-0.01-0.2-0.04-0.41-0.08-0.6c-0.09-0.38-0.23-0.71-0.43-0.98c-0.38-0.53-1.04-0.87-1.93-1.01c-0.22-0.04-0.45-0.06-0.68-0.07
				c-0.12-0.01-0.23-0.01-0.34-0.01c-0.12,0-0.23,0-0.36,0.01c-0.49,0.02-1,0.08-1.49,0.17c-0.99,0.18-1.95,0.48-2.76,0.93
				c-0.2,0.11-0.4,0.23-0.58,0.36c-0.2,0.14-0.3,0.22-0.47,0.39c-0.33,0.32-0.67,0.71-0.97,1.11c-0.61,0.81-1.13,1.69-1.46,2.57
				c-0.7,1.92-0.36,2.99,1.27,3.74l0.01,0.01c0.65,0.3,1,1,0.89,1.67c-0.1,0.56-0.15,1.09-0.12,1.58c0.02,0.49,0.12,0.92,0.3,1.28
				c0.18,0.36,0.43,0.68,0.78,0.96c0.35,0.28,0.79,0.52,1.28,0.71l0.25,0.11c0.48,0.2,0.76,0.69,0.72,1.19
				c-0.06,0.73,0.05,1.48,0.37,2.12c0.32,0.64,0.87,1.15,1.63,1.42c0.76,0.28,1.68,0.29,2.6,0.14c0.92-0.15,1.84-0.46,2.73-0.85
				c-0.76,0.61-1.58,1.16-2.5,1.59c-0.92,0.42-1.96,0.72-3.11,0.64c-0.57-0.04-1.16-0.19-1.71-0.45c-0.55-0.26-1.05-0.64-1.47-1.09
				c-0.85-0.91-1.36-2.05-1.6-3.24l0.97,1.3c-0.71-0.28-1.42-0.64-2.08-1.17c-0.66-0.52-1.25-1.22-1.63-2.03
				c-0.39-0.8-0.56-1.66-0.6-2.46c-0.04-0.8,0.04-1.56,0.17-2.27v0l0.9,1.68c-0.65-0.29-1.3-0.68-1.87-1.22
				c-0.57-0.53-1.05-1.25-1.32-2.04c-0.27-0.79-0.32-1.62-0.23-2.35c0.08-0.72,0.27-1.39,0.5-2.02c0.47-1.26,1.13-2.35,1.89-3.36
				c0.39-0.5,0.79-0.98,1.28-1.46c0.24-0.23,0.57-0.52,0.85-0.7c0.28-0.21,0.58-0.38,0.87-0.54c1.19-0.65,2.44-1.02,3.69-1.26
				c0.63-0.11,1.25-0.19,1.9-0.22c0.16-0.01,0.33-0.01,0.5-0.01c0.18,0,0.35,0.01,0.51,0.02c0.33,0.02,0.67,0.05,1.02,0.11
				c0.69,0.12,1.4,0.31,2.09,0.68c0.69,0.36,1.33,0.89,1.81,1.54c0.49,0.65,0.79,1.39,0.95,2.12c0.08,0.37,0.13,0.73,0.16,1.09
				c0.02,0.37,0.02,0.71-0.03,1.13l-0.92-1.6c0.73,0.32,1.46,0.7,2.14,1.24c0.68,0.53,1.32,1.24,1.75,2.1
				c0.43,0.85,0.61,1.82,0.61,2.69c0,0.88-0.17,1.7-0.34,2.41l-0.53-1.57c0.42,0.35,0.69,0.66,0.96,1c0.26,0.34,0.5,0.68,0.7,1.04
				c0.41,0.72,0.73,1.5,0.93,2.32c0.4,1.64,0.26,3.42-0.32,4.96c-0.57,1.55-1.5,2.86-2.53,3.97c-1.04,1.12-2.19,2.07-3.39,2.9
				L283.63,216.57z"/>
		</g>
		<g>
			<path class="st9" d="M148.42,201.21c0.56-7.62-3.19-14.76-9.77-18.64c-9.47-5.57-21.71-2.4-27.28,7.06l6.2,3.66
				c3.56-6.05,11.38-8.07,17.43-4.51c4.21,2.47,6.6,7.04,6.24,11.9L148.42,201.21z"/>
		</g>
		<g>
			<path class="st2" d="M165.82,269.43c0,0-3.97-16.88,7-25.53c13.34-10.52,32.94,6.49,20.02,24.61L165.82,269.43z"/>
		</g>
		<g>
			<path class="st2" d="M192.84,268.51l-27.02,0.92c0,0-3.27-13.91,4.35-22.95c0.76-0.92,1.65-1.78,2.65-2.58
				c7.56-5.97,17.15-3.08,21.66,3.86C197.93,253.04,198.43,260.67,192.84,268.51"/>
		</g>
		<g class="st6">
			<g>
				<g>
					<path class="st4" d="M174.62,246.17c2.24-1.77,4.82-2.67,7.47-2.6c3.89,0.1,7.71,2.31,9.96,5.77c0.66,1.02,1.17,2.08,1.52,3.19
						c0,0-4.34-4.99-10.05-6.53C179.12,244.81,174.62,246.17,174.62,246.17"/>
				</g>
			</g>
		</g>
		<g>
			<path class="st3" d="M192.84,268.51l-27.02,0.92c0,0-3.27-13.91,4.35-22.95c0.86,2.14,1.85,5.51,1.22,8.51
				c-1.03,4.88,1.38,5.28,3.7,2.29c0.75,0.05,3.02,6.05,10.35,6.55c8.42,0.58,13.02-6.68,9.05-16.07
				C197.93,253.04,198.43,260.67,192.84,268.51"/>
		</g>
		<g>
			<path class="st1" d="M165.82,269.43c-0.98-2.99-1.38-6.17-1.4-9.36c0.01-3.19,0.53-6.45,1.77-9.52c0.62-1.53,1.43-3,2.43-4.35
				c1-1.35,2.18-2.57,3.5-3.62l1.03-0.75c0.35-0.24,0.73-0.45,1.09-0.67c0.19-0.11,0.36-0.23,0.56-0.32l0.58-0.27
				c0.39-0.18,0.78-0.37,1.19-0.5c0.41-0.13,0.81-0.3,1.23-0.4l1.27-0.3c0.43-0.07,0.86-0.12,1.29-0.17
				c0.43-0.06,0.87-0.04,1.3-0.06c1.73-0.01,3.46,0.27,5.09,0.83c0.4,0.15,0.81,0.28,1.2,0.46l1.16,0.55l1.11,0.65
				c0.36,0.23,0.7,0.49,1.05,0.73c1.37,1.02,2.56,2.24,3.56,3.6c1.01,1.35,1.78,2.88,2.31,4.47c0.52,1.59,0.84,3.25,0.86,4.9
				c0,1.65-0.18,3.29-0.6,4.86c-0.88,3.13-2.5,5.95-4.56,8.31c1.53-2.73,2.7-5.63,3.14-8.61c0.2-1.49,0.23-2.98,0.08-4.44
				c-0.18-1.46-0.56-2.87-1.12-4.21c-1.08-2.68-3.02-4.95-5.34-6.57c-2.33-1.63-5.13-2.5-7.9-2.47c-0.35,0.02-0.7,0-1.04,0.05
				l-1.03,0.13l-1.01,0.23c-0.34,0.08-0.66,0.21-0.99,0.32c-1.3,0.49-2.57,1.12-3.7,1.99c-2.31,1.7-4.17,4-5.47,6.63
				c-1.3,2.64-2.08,5.58-2.47,8.61c-0.2,1.51-0.31,3.05-0.33,4.6c-0.02,0.77-0.01,1.55,0.02,2.33
				C165.69,267.87,165.74,268.65,165.82,269.43"/>
		</g>
		<g>
			<path class="st2" d="M168.1,253.26c-1.32,6.54-6.93,12.25-16.5,11.91l-5.35-13.41l-5.63-14.11c0,0,12.81-8.02,23.31,1.98
				C167.72,243.24,169.06,248.48,168.1,253.26"/>
		</g>
		<g class="st6">
			<g>
				<g>
					<path class="st4" d="M146.59,238.26c1.57-0.45,3.46-0.8,5.48-0.75c3.7,0.1,7.02,1.52,9.86,4.22c2.05,1.95,3.27,4.57,3.52,7.38
						c0.1,1.17,0.04,2.38-0.2,3.58C163.93,239.64,151.16,237.52,146.59,238.26"/>
				</g>
			</g>
		</g>
		<g>
			<path class="st3" d="M168.1,253.26c-1.32,6.54-6.93,12.25-16.5,11.91l-5.35-13.41l4.16-1.98c0,0,1.69,7.95,9.34,8.15
				C164.21,258.04,166.74,255.5,168.1,253.26"/>
		</g>
		<g>
			<path class="st1" d="M140.62,237.65c1.04-0.8,2.19-1.46,3.39-2.02c1.19-0.58,2.46-1.01,3.76-1.37c2.6-0.67,5.39-0.87,8.13-0.35
				c2.73,0.52,5.37,1.71,7.56,3.43l0.42,0.32l0.4,0.34c0.26,0.23,0.53,0.44,0.79,0.69l0.76,0.76l0.7,0.82
				c0.9,1.12,1.63,2.37,2.18,3.7c2.24,5.29,1.33,11.75-2.33,16.1c-0.9,1.09-1.96,2.03-3.11,2.82c-1.16,0.78-2.43,1.36-3.73,1.78
				c-2.61,0.83-5.35,0.93-7.93,0.51c0.65-0.11,1.3-0.13,1.93-0.27l0.95-0.17c0.31-0.07,0.62-0.15,0.93-0.23l0.46-0.11l0.45-0.14
				c0.3-0.1,0.6-0.18,0.9-0.29l0.87-0.35c0.29-0.11,0.56-0.27,0.84-0.4l0.42-0.2l0.4-0.23c0.26-0.16,0.54-0.3,0.78-0.48
				c0.25-0.17,0.51-0.34,0.75-0.52l0.7-0.57c0.92-0.78,1.71-1.68,2.39-2.65c1.36-1.95,2.17-4.23,2.42-6.56
				c0.13-1.17,0.1-2.34-0.04-3.5c-0.15-1.16-0.47-2.29-0.9-3.36c-0.44-1.08-1.02-2.09-1.71-3.02l-0.55-0.68l-0.6-0.64
				c-0.2-0.21-0.43-0.41-0.65-0.62l-0.33-0.31l-0.35-0.29c-1.84-1.56-3.98-2.72-6.31-3.37c-2.33-0.66-4.84-0.81-7.34-0.52
				c-1.26,0.13-2.5,0.39-3.74,0.71C143.05,236.72,141.82,237.13,140.62,237.65"/>
		</g>
		<g>
			<path class="st2" d="M111.62,203.64c-1.5,14.91,10.52,19.71,21.8,12.78"/>
		</g>
		<g>
			<path class="st1" d="M123,220.99c3.55,0.09,7.42-1.03,11.17-3.34l-1.51-2.45c-5.33,3.28-11.05,3.81-14.92,1.38
				c-3.63-2.27-5.29-6.82-4.69-12.79l-2.87-0.29c-0.72,7.12,1.42,12.63,6.02,15.52C118.21,220.27,120.52,220.93,123,220.99z"/>
		</g>
		<g>
			<path class="st10" d="M46.02,97.83c0,0,0.65-9.49-3.43-10.47c-20.65-4.98-15.7-25.34-11.22-35.9c0.81-1.9,2.94-2.85,4.89-2.18
				l7.46,2.56c3.68,1.26,5.99,4.92,5.54,8.78l-0.92,7.96l17.72-9.09c6.01-2.48,4.06-5.95,0.04-7.33l-31.9-10.94
				c-2.91-1-6.12,0.35-7.43,3.13c-3.94,8.31-10.25,24.54-4.18,36.89C28.47,93.2,46.02,97.83,46.02,97.83"/>
		</g>
		<g>
			<path class="st10" d="M66.07,59.5l-17.72,9.09l0.93-7.96c0.45-3.87-1.85-7.52-5.54-8.79l-7.46-2.56
				c-1.95-0.67-4.09,0.28-4.89,2.17c-3.28,7.72-6.81,20.68-0.39,29.04c2.36,3.07,6.06,5.52,11.61,6.86
				c4.08,0.98,3.43,10.47,3.43,10.47S28.47,93.2,22.59,81.25c-1.52-3.09-2.26-6.41-2.46-9.8l0-0.02
				c-0.6-10.16,3.69-20.84,6.64-27.07c1.32-2.78,4.52-4.13,7.43-3.13l31.9,10.94C70.12,53.54,72.08,57.02,66.07,59.5"/>
		</g>
		<g>
			<path class="st10" d="M66.07,59.5l-17.72,9.09l0.72-6.16l0.21-1.8c0.45-3.87-1.85-7.52-5.54-8.79l-7.46-2.56
				c-1.95-0.67-4.09,0.28-4.89,2.17c-2.81,6.62-5.81,17.1-2.56,25.22c0.54,1.35,1.25,2.63,2.16,3.82c2.36,3.07,6.06,5.52,11.61,6.86
				c4.08,0.98,3.43,10.47,3.43,10.47S28.47,93.2,22.59,81.25c-1.52-3.09-2.26-6.41-2.46-9.8l0-0.02
				c-0.6-10.16,3.69-20.84,6.64-27.07c1.32-2.78,4.52-4.13,7.43-3.13l31.9,10.94C70.12,53.54,72.08,57.02,66.07,59.5"/>
		</g>
		<g>
			<path class="st11" d="M49.27,60.63c0.45-3.87-1.85-7.52-5.54-8.79l-7.46-2.56c-1.95-0.67-4.09,0.28-4.89,2.17
				c-2.81,6.62-5.81,17.1-2.56,25.22c0,0-6.04-3.54-3.75-13.96c2.31-10.55,4.08-18.44,10.39-16.6c5.91,1.73,14.23,6.59,16.7,3.25
				c2.48-3.34,4.63,10.63,4.63,10.63l-7.73,2.44L49.27,60.63z"/>
		</g>
		<g>
			<path class="st11" d="M46.02,97.83c0,0-17.55-4.63-23.43-16.57c-1.52-3.09-2.26-6.41-2.46-9.8c0.88,6.11,5.31,14.11,10.86,9.04
				c2.36,3.07,6.06,5.52,11.61,6.86C46.68,88.34,46.02,97.83,46.02,97.83"/>
		</g>
		<g>
			<path class="st12" d="M45.53,99.69c-0.75-0.2-18.47-5-24.66-17.58c-5.93-12.07-1.01-27.63,4.17-38.56
				c1.74-3.67,5.94-5.44,9.79-4.13l31.9,10.94c3.11,1.06,5,3.05,5.07,5.32c0.05,1.58-0.77,3.83-4.93,5.56l-20.85,10.7l1.34-11.53
				c0.34-2.94-1.45-5.78-4.25-6.75l-7.46-2.56c-0.99-0.34-2.09,0.15-2.5,1.11c-2,4.72-6.21,16.59-2.02,24.9
				c2.09,4.15,6.1,6.97,11.92,8.38c5.38,1.3,5.02,10.62,4.89,12.47l-0.16,2.32L45.53,99.69z M36.89,47.46l7.46,2.56
				c4.5,1.55,7.37,6.1,6.82,10.82l-0.51,4.39l14.52-7.45l0.15-0.07c2.16-0.89,2.63-1.71,2.62-1.93c-0.01-0.34-0.75-1.21-2.48-1.81
				l-31.9-10.94c-2-0.68-4.18,0.24-5.08,2.14c-4.81,10.17-9.45,24.53-4.19,35.22c4.17,8.47,14.97,13.1,19.8,14.8
				c-0.14-2.81-0.79-5.7-1.97-5.98c-6.97-1.68-11.83-5.18-14.45-10.39c-4.73-9.4-0.83-21.66,1.92-28.13
				c0.96-2.25,3.2-3.62,5.54-3.56C35.74,47.17,36.32,47.27,36.89,47.46z"/>
		</g>
		<g>
			<path class="st10" d="M72.86,111.34c0,0,7.24-6.17,10.46-3.48c16.3,13.62,29.72-2.47,35.54-12.35c1.05-1.78,0.54-4.06-1.16-5.22
				l-6.5-4.47c-3.21-2.21-7.52-1.88-10.36,0.78l-5.85,5.48l-3.24-19.64c-1.59-6.3,2.37-6.8,5.87-4.39l27.78,19.11
				c2.54,1.75,3.36,5.12,1.91,7.83c-4.34,8.11-13.64,22.84-27.18,25.31C87.02,122.68,72.86,111.34,72.86,111.34"/>
		</g>
		<g>
			<path class="st10" d="M127.31,94.99c-1.9,3.55-4.75,8.36-8.49,12.86c0,0-0.01,0.01-0.01,0.01c-4.8,5.78-11.07,11.04-18.68,12.43
				c-13.1,2.39-27.27-8.95-27.27-8.95s7.24-6.17,10.46-3.48c3.92,3.28,7.68,4.84,11.2,5.17l0.01,0
				c11.11,1.05,19.92-10.03,24.34-17.53c1.04-1.77,0.54-4.06-1.16-5.22l-6.5-4.47c-3.21-2.2-7.52-1.88-10.36,0.78l-5.85,5.48
				l-3.23-19.65c-1.59-6.3,2.37-6.8,5.87-4.39l27.78,19.11C127.94,88.9,128.76,92.27,127.31,94.99"/>
		</g>
		<g>
			<path class="st10" d="M127.31,94.99c-1.9,3.55-4.75,8.36-8.49,12.86c0,0-0.01,0.01-0.01,0.01c-4.8,5.78-11.07,11.04-18.68,12.43
				c-13.1,2.39-27.27-8.95-27.27-8.95s7.24-6.17,10.46-3.48c3.92,3.28,7.68,4.84,11.2,5.17l0.01,0
				c11.11,1.05,19.92-10.03,24.34-17.53c1.04-1.77,0.54-4.06-1.16-5.22l-6.5-4.47c-3.21-2.2-7.52-1.88-10.36,0.78l-5.85,5.48
				l-3.23-19.65c-1.59-6.3,2.37-6.8,5.87-4.39l13.67,9.41l14.11,9.71C127.94,88.9,128.76,92.27,127.31,94.99"/>
		</g>
		<g>
			<path class="st11" d="M118.86,95.51c1.04-1.77,0.54-4.06-1.16-5.22l-6.5-4.47c-3.21-2.2-7.52-1.88-10.36,0.78l-5.85,5.48
				l-3.23-19.65c-1.59-6.3,2.37-6.8,5.87-4.39l13.67,9.41c-0.62,1.31-1.04,2.69-0.69,3.6C112.05,84.8,124.73,90.23,118.86,95.51"/>
		</g>
		<g>
			<path class="st11" d="M118.81,107.86c-4.8,5.78-11.07,11.04-18.68,12.43c-13.1,2.39-27.27-8.95-27.27-8.95s7.24-6.17,10.46-3.48
				c3.92,3.28,7.68,4.84,11.2,5.17l0.01,0C100.1,115,109.77,116.4,118.81,107.86"/>
		</g>
		<g>
			<path class="st12" d="M71.66,112.84l-1.82-1.45l1.77-1.51c1.42-1.21,8.69-7.04,12.93-3.49c4.59,3.84,9.25,5.38,13.83,4.59
				c9.18-1.59,16.23-12.03,18.83-16.45c0.53-0.9,0.27-2.07-0.59-2.66l-6.5-4.47c-2.45-1.68-5.79-1.43-7.96,0.6l-8.47,7.94
				l-3.81-23.11c-1.08-4.37,0.24-6.36,1.54-7.27c1.87-1.3,4.59-0.96,7.3,0.9l27.78,19.11c3.35,2.31,4.43,6.74,2.51,10.32
				c-5.71,10.66-15.3,23.88-28.53,26.29c-1.59,0.29-3.19,0.4-4.77,0.36C83.53,122.23,72.2,113.27,71.66,112.84z M93.6,68.71
				c-0.18,0.12-0.56,0.99,0.01,3.25l2.68,16.26l3.23-3.02c3.47-3.25,8.84-3.66,12.76-0.96l6.5,4.47c2.52,1.73,3.28,5.15,1.73,7.78
				c-3.57,6.06-11.11,16.49-21.48,18.28c-5.75,0.99-11.45-0.83-16.94-5.43c-0.93-0.78-3.64,0.42-5.99,1.98
				c4.24,2.87,14.37,8.79,23.68,7.09c11.73-2.14,20.52-14.41,25.83-24.33c0.99-1.85,0.43-4.15-1.3-5.34L96.54,69.62
				c-1.07-0.74-1.96-0.99-2.48-1C93.84,68.62,93.69,68.65,93.6,68.71z"/>
		</g>
		<g>
			<path class="st10" d="M51.44,129.47l-6.34,12.58c5.8,5.83,9.08,13.7,8.65,14.56c-0.57,1.13-3.51,0.8-17.41-6.2
				c-13.9-7-15.92-9.17-15.35-10.3c0.43-0.86,8.72-2.91,16.86-1.72l6.34-12.58c2.02-4.01,2-8.75-0.05-12.75l-4.76-9.26
				c-4.4-8.56-4.44-18.7-0.11-27.3l15.37-30.49c0,0,10.63-1.95,30.31,7.96c19.68,9.91,24.44,19.61,24.44,19.61l-15.37,30.49
				c-4.33,8.59-12.51,14.6-22.01,16.16l-10.28,1.69C57.29,122.65,53.47,125.46,51.44,129.47"/>
		</g>
		<g>
			<path class="st10" d="M109.39,73.59l-15.37,30.49c-4.33,8.59-12.52,14.6-22.01,16.16l-10.28,1.68
				c-4.44,0.73-8.26,3.53-10.28,7.55l-5.36,10.62l-0.98,1.95c5.8,5.83,9.09,13.7,8.65,14.56c-0.57,1.13-3.51,0.8-17.41-6.2
				c-13.91-7-15.92-9.17-15.35-10.3c0.14-0.28,1.1-0.68,2.6-1.05c2.85-0.71,7.66-1.33,12.62-0.86c0.54,0.05,1.08,0.12,1.62,0.2
				l0.25-0.5l6.09-12.07c2.02-4.01,2-8.75-0.05-12.75l-4.76-9.26c-4.4-8.56-4.44-18.7-0.11-27.3l15.37-30.49
				c0,0,10.63-1.95,30.31,7.96C104.63,63.9,109.39,73.59,109.39,73.59"/>
		</g>
		<g class="st6">
			<g>
				<g>
					<path class="st4" d="M53.27,107.14c-16.38-4.83-14.56-21.47-10.76-29L56.95,49.5c0.25,0,0.52,0,0.82,0.01
						c2.7,0.07,7.5,0.61,14.26,2.92C73.31,52.86,38.47,93.77,53.27,107.14"/>
				</g>
			</g>
		</g>
		<g class="st6">
			<g>
				<g>
					<path class="st4" d="M27.13,139.21c0,0,7.2,4.87,8.39,3.34c0.57-0.74-2.58-4.19-2.58-4.19L27.13,139.21z"/>
				</g>
			</g>
		</g>
		<g>
			<path class="st11" d="M53.75,156.61c-0.57,1.13-3.51,0.8-17.41-6.2c-13.91-7-15.92-9.17-15.35-10.3c0.14-0.28,1.1-0.68,2.6-1.05
				c0.84,0.74,3.8,3.2,8.48,5.72c4.65,2.51,13.44,6.81,12.22,2.2c-0.53-1.99-2.98-5.03-6.91-7.78c-0.63-0.44-1.01-0.77-1.16-1.01
				c0.54,0.05,1.08,0.12,1.62,0.2l0.25-0.5c1.93,0.36,5.01,1.26,7.99,2.2l-0.98,1.95C50.9,147.88,54.19,155.75,53.75,156.61"/>
		</g>
		<g>
			<path class="st11" d="M109.39,73.59l-15.37,30.49c-4.33,8.59-12.52,14.6-22.01,16.16l-10.28,1.68
				c-4.44,0.73-8.26,3.53-10.28,7.55l-6.34,12.58l-7.26-3.65l6.34-12.58c2.02-4.01,2-8.75-0.05-12.75l-4.76-9.26
				c-1.03-2-1.82-4.08-2.37-6.21l0,0c0,0,12.33,20.22,35.1,10.09c15.67-6.97,27.4-44.64,28.38-43.84
				C107.36,69.47,109.39,73.59,109.39,73.59"/>
		</g>
		<g>
			<path class="st10" d="M109.39,73.59l-15.37,30.49c-4.33,8.59-12.52,14.6-22.01,16.16l-10.28,1.68
				c-4.44,0.73-8.26,3.53-10.28,7.55l-6.34,12.58l-1.24-0.63l5.66-14.63c2.02-4.01,5.84-6.82,10.28-7.55l10.28-1.68
				c9.5-1.56,17.68-7.56,22.01-16.16l15.37-30.49c0,0-0.09-0.18-0.29-0.52C108.79,72.39,109.39,73.59,109.39,73.59"/>
		</g>
		<g>
			<path class="st12" d="M49.46,158.39c-2.87-0.92-7.44-2.97-13.98-6.26c-14.17-7.13-15.81-9.16-16.34-10.76
				c-0.24-0.73-0.19-1.46,0.14-2.12c0.24-0.48,0.88-1.75,6.97-2.66c2.09-0.31,6.07-0.73,10.5-0.26l5.73-11.37
				c1.74-3.45,1.72-7.56-0.04-11l-4.76-9.26c-4.67-9.07-4.71-19.93-0.12-29.04l15.8-31.34l0.94-0.17
				c0.46-0.08,11.49-1.95,31.52,8.13c20.02,10.08,25.09,20.06,25.3,20.48l0.42,0.86l-15.8,31.34c-4.59,9.11-13.35,15.53-23.42,17.19
				l-10.28,1.69c-3.82,0.63-7.14,3.06-8.88,6.51l-5.73,11.37c3.01,3.28,5.04,6.72,6.03,8.59c2.89,5.43,2.25,6.71,2.01,7.18
				c-0.63,1.24-1.79,1.58-2.98,1.55C51.33,158.99,50.16,158.61,49.46,158.39z M49.73,128.6c2.29-4.54,6.66-7.75,11.68-8.57
				l10.28-1.69c8.86-1.45,16.57-7.11,20.61-15.13l14.9-29.55c-1.59-2.42-7.54-10.13-23.11-17.97c-15.58-7.85-25.33-8.04-28.21-7.87
				l-14.9,29.55c-4.04,8.02-4,17.57,0.1,25.55l4.76,9.26c2.33,4.53,2.35,9.94,0.06,14.49l-6.96,13.81l-1.37-0.2
				c-5.79-0.84-11.3,0.02-13.89,0.72c1.44,1.14,4.97,3.37,13.52,7.68c8.56,4.31,12.45,5.81,14.23,6.29
				c-0.98-2.49-3.56-7.44-7.68-11.58l-0.98-0.98L49.73,128.6L49.73,128.6z"/>
		</g>
		<g>
			<path class="st4" d="M69.28,66.2c4.59,1.11,9.18,1.15,13.81,0.2c0.06,0.49-0.27,0.83-0.46,1.19
				c-4.68,9.31-9.33,18.63-14.09,27.89c-1.14,2.21-0.93,4.25,1.54,5.02c0.28,0.09,0.84,0.22,0.57,0.69c-0.26,0.45-0.63,0-0.89-0.13
				c-4.52-2.26-9.03-4.53-13.53-6.81c-0.27-0.14-0.86-0.17-0.66-0.62c0.26-0.6,0.68-0.07,0.98,0.06c1.76,0.74,2.58,0.51,3.45-1.21
				c3.69-7.27,7.36-14.56,11.02-21.85c0.93-1.86,0.6-2.74-1.24-3.77C69.58,66.75,69.25,66.73,69.28,66.2"/>
		</g>
		<g>
			<path class="st2" d="M56.58,137.62c10.81-6.67,9.23-16.36,3.64-18.67c-4.55-1.88-12.77,0.27-12.31,6.04
				c0.33,4.12,6.47,3.07,6.47,3.07s-3.8,4.49-3.64,7.64c0,0,0.13,2.46,2.03,2.87C54.4,138.92,56.58,137.62,56.58,137.62"/>
		</g>
		<g>
			<path class="st2" d="M61.75,133.21c-1.25,1.53-2.95,3.03-5.17,4.4c0,0-2.18,1.3-3.8,0.95c-1.91-0.41-2.03-2.87-2.03-2.87
				c-0.16-3.15,3.64-7.64,3.64-7.64s-6.15,1.05-6.48-3.06c-0.27-3.42,2.5-5.57,5.75-6.36c2.24-0.54,4.7-0.45,6.56,0.32
				C64.66,120.78,66.57,127.28,61.75,133.21"/>
		</g>
		<g>
			<path class="st2" d="M61.75,133.21c-1.25,1.53-2.95,3.03-5.17,4.4c0,0-2.18,1.3-3.8,0.95c-1.91-0.41-2.03-2.87-2.03-2.87
				c-0.16-3.15,3.64-7.64,3.64-7.64s-6.15,1.05-6.48-3.06c-0.27-3.42,2.5-5.57,5.75-6.36c2.24-0.54,4.7-0.45,6.56,0.32
				C64.66,120.78,66.57,127.28,61.75,133.21"/>
		</g>
		<g class="st6">
			<g>
				<g>
					<path class="st4" d="M61.75,133.21c-0.57,0.71-1.25,1.41-2.02,2.09c0.07-0.08,0.13-0.16,0.19-0.23
						c4.83-5.94,2.91-12.43-1.53-14.27c-1.86-0.77-4.32-0.86-6.56-0.32c-1.17,0.29-2.27,0.74-3.2,1.37c1-1.63,2.91-2.71,5.02-3.23
						c2.24-0.54,4.7-0.45,6.56,0.32C64.66,120.78,66.57,127.28,61.75,133.21"/>
				</g>
			</g>
		</g>
		<g>
			<path class="st3" d="M61.75,133.21c-1.25,1.53-2.95,3.03-5.17,4.4c0,0-2.18,1.3-3.8,0.95c-1.91-0.41-2.03-2.87-2.03-2.87
				c-0.16-3.15,3.64-7.64,3.64-7.64s-6.15,1.05-6.48-3.06c-0.27-3.42,2.5-5.57,5.75-6.36c-1.12,1.74-2.58,4.72-0.85,6.46
				c1.66,1.66,4.61,0.3,5.87-0.58c-0.11,4.38-5.12,5.01-4.29,8.57C54.93,135.39,59.11,135.03,61.75,133.21"/>
		</g>
		<g>
			<path class="st1" d="M56.58,137.62c1.42-1.47,2.77-2.89,3.84-4.44c1.08-1.54,1.91-3.16,2.31-4.83c0.42-1.66,0.34-3.37-0.28-4.82
				c-0.62-1.44-1.75-2.55-3.14-3c-1.45-0.49-3.25-0.51-4.89-0.16c-1.63,0.35-3.18,1.11-4.01,2.17c-0.41,0.52-0.65,1.1-0.7,1.75
				c-0.01,0.16-0.02,0.33-0.02,0.5c0.01,0.16,0.02,0.28,0.04,0.39c0.05,0.23,0.12,0.37,0.25,0.52c0.24,0.3,0.88,0.61,1.66,0.74
				c0.39,0.07,0.8,0.11,1.23,0.13c0.21,0.01,0.43,0.01,0.64,0c0.2-0.01,0.45-0.02,0.6-0.03l0.31-0.02c0.81-0.06,1.52,0.55,1.58,1.36
				c0.03,0.45-0.15,0.88-0.45,1.17c-0.49,0.4-1.02,0.9-1.51,1.38c-0.49,0.49-0.96,1.01-1.4,1.55c-0.44,0.54-0.84,1.11-1.18,1.72
				c-0.34,0.61-0.62,1.27-0.72,1.99c-0.16-0.71-0.13-1.49-0.01-2.23c0.12-0.75,0.32-1.49,0.56-2.21c0.24-0.72,0.53-1.43,0.85-2.12
				c0.32-0.7,0.65-1.36,1.07-2.07l1.43,2.51c-0.34,0.07-0.59,0.11-0.88,0.14c-0.28,0.03-0.56,0.06-0.84,0.07
				c-0.57,0.03-1.14,0.02-1.74-0.05c-0.6-0.07-1.21-0.19-1.85-0.43c-0.63-0.23-1.29-0.61-1.85-1.17c-0.57-0.56-0.99-1.31-1.18-2.05
				c-0.1-0.37-0.16-0.74-0.19-1.08c-0.03-0.32-0.03-0.65-0.01-0.98c0.07-1.33,0.59-2.69,1.4-3.73c0.8-1.06,1.82-1.83,2.88-2.39
				c1.06-0.56,2.17-0.93,3.29-1.16c1.12-0.23,2.26-0.32,3.41-0.27c1.15,0.06,2.31,0.25,3.46,0.68c0.58,0.22,1.15,0.52,1.68,0.85
				c0.52,0.35,1.01,0.75,1.44,1.2c0.87,0.9,1.5,1.98,1.92,3.1c0.82,2.27,0.75,4.74,0.02,6.88c-0.72,2.15-2.06,3.97-3.65,5.37
				C60.36,135.96,58.52,136.98,56.58,137.62"/>
		</g>
		<g>
			<path class="st2" d="M38.97,115.72c-0.48-3.84,6.92-9.63,12.14-3.01c2.56,3.24,3.01,8.13-1.68,7.29c0.41,0.59,1.73,3.5-0.09,5.48
				c-1.51,1.64-4.27,0.76-4.27,0.76s3.91,2.64,1.52,6.19c-1.72,2.56-6.19,0.91-6.19,0.91l-1.22,2.43c-4.53-1.2-8.4-7.67-3.18-11.76
				C34.16,119.43,36.19,116.38,38.97,115.72"/>
		</g>
		<g>
			<path class="st2" d="M49.42,120.01c0.41,0.58,1.73,3.5-0.09,5.47c-1.47,1.59-4.1,0.81-4.27,0.76c0.14,0.09,2.3,1.63,2.28,3.88
				c0,0.71-0.21,1.48-0.77,2.31c-1.72,2.56-6.19,0.91-6.19,0.91l-1.22,2.43c-2.91-0.77-5.55-3.72-5.68-6.81
				c-0.07-1.72,0.63-3.48,2.5-4.95c-1.83-4.59,0.2-7.63,2.98-8.29c-0.48-3.84,6.92-9.63,12.14-3.01
				C53.66,115.95,54.12,120.84,49.42,120.01"/>
		</g>
		<g>
			<path class="st2" d="M49.42,120.01c0.41,0.58,1.73,3.5-0.09,5.47c-0.22,0.23-0.46,0.42-0.71,0.55c-1.02,0.57-2.26,0.47-2.97,0.34
				c-0.32-0.06-0.54-0.12-0.58-0.13c0.14,0.09,2.3,1.63,2.28,3.88c0,0.71-0.21,1.48-0.77,2.31c-1.72,2.56-6.19,0.91-6.19,0.91
				l-1.22,2.43c-2.91-0.77-5.55-3.72-5.68-6.81c-0.07-1.72,0.63-3.48,2.5-4.95c-0.07-0.17-0.13-0.34-0.19-0.51
				c-0.34-0.99-0.5-1.91-0.51-2.73c-0.03-2.77,1.61-4.57,3.67-5.05c-0.48-3.84,6.92-9.63,12.14-3.01
				C53.66,115.95,54.12,120.84,49.42,120.01"/>
		</g>
		<g>
			<path class="st2" d="M51.24,120c-0.42,0.1-0.92,0.13-1.5,0.04c-0.1-0.01-0.21-0.03-0.31-0.04c0.41,0.58,1.73,3.5-0.09,5.47
				c-0.22,0.23-0.46,0.42-0.71,0.55c-1.02,0.57-2.26,0.47-2.97,0.34c-0.32-0.06-0.54-0.12-0.58-0.13c0.14,0.09,2.3,1.63,2.28,3.88
				c0,0.71-0.21,1.48-0.77,2.31c-1.72,2.56-6.19,0.91-6.19,0.91l-1.22,2.43c-2.91-0.77-5.55-3.72-5.68-6.81
				c-0.07-1.72,0.63-3.48,2.5-4.94c-0.07-0.17-0.13-0.34-0.19-0.51c-0.34-0.99-0.5-1.91-0.51-2.73c-0.03-2.64,1.46-4.4,3.39-4.98
				c0.09-0.03,0.19-0.05,0.28-0.08c-0.08-0.68,0.08-1.42,0.43-2.15c1.65-3.36,7.41-6.31,11.71-0.87
				C53.27,115.45,53.93,119.37,51.24,120"/>
		</g>
		<g>
			<path class="st3" d="M51.24,120c-0.42,0.1-0.92,0.13-1.5,0.04c-1.68-1.44-5.38-4.01-11.06-4.25c0.09-0.03,0.19-0.05,0.28-0.08
				c-0.08-0.68,0.08-1.42,0.43-2.15c2.24-0.1,5.59,0.06,7.72,1.57C49.38,116.75,50.64,118.79,51.24,120"/>
		</g>
		<g>
			<path class="st3" d="M48.62,126.03c-1.02,0.57-2.26,0.47-2.97,0.34c-2.69-1.66-6.91-3-9.85-2.87c-0.34-0.99,0.21-0.84,0.21-1.67
				C38.57,120.37,45.75,120.39,48.62,126.03"/>
		</g>
		<g>
			<path class="st3" d="M47.35,130.12c0,0.71-0.21,1.48-0.77,2.31c-1.72,2.56-6.19,0.91-6.19,0.91l-1.22,2.43
				c-2.91-0.77-5.55-3.72-5.68-6.81c1.02-1.03,2.76-2.04,4.84-0.25C41.26,131.23,45.66,132.95,47.35,130.12"/>
		</g>
		<g>
			<path class="st1" d="M38.68,137.63c-3.39-0.9-6.25-3.92-6.95-7.33c-0.52-2.51,0.22-4.95,2.04-6.86
				c-0.81-2.86-0.25-4.93,0.42-6.22c0.65-1.26,1.69-2.26,2.95-2.87c0.47-2.38,2.51-4.78,5.21-5.91c3.69-1.55,7.53-0.4,10.27,3.07
				c1.85,2.34,3.16,6,1.67,8.5c-0.34,0.57-1,1.35-2.18,1.75c0.27,1.6,0.06,3.49-1.35,5.02c-0.55,0.6-1.2,0.99-1.88,1.24
				c0.62,1.6,0.63,3.51-0.69,5.47c-1.58,2.36-4.52,2.52-6.77,2.1l-0.52,1.03c-0.34,0.67-1.03,1.07-1.76,1.06
				C38.97,137.69,38.82,137.67,38.68,137.63z M41.06,131.54c0.81,0.3,3.26,0.82,3.93-0.18c1.2-1.78-0.48-3.16-1.01-3.53
				c-0.79-0.53-1.06-1.56-0.65-2.41c0.41-0.86,1.39-1.29,2.3-1.01c0.34,0.1,1.74,0.37,2.29-0.23c1.01-1.09-0.07-3.06-0.07-3.07
				c-0.44-0.64-0.46-1.48-0.05-2.13c0.42-0.66,1.19-0.99,1.95-0.86c0.74,0.13,1.16,0.04,1.22-0.07c0.28-0.46,0.04-2.34-1.38-4.14
				c-2.12-2.69-4.31-2.52-5.78-1.91c-1.96,0.82-3.06,2.62-2.95,3.5c0.12,0.97-0.51,1.88-1.47,2.11c-0.8,0.19-1.44,0.69-1.82,1.4
				c-0.56,1.07-0.49,2.6,0.18,4.3c0.32,0.79,0.07,1.7-0.6,2.22c-1.43,1.12-2,2.47-1.68,4c0.3,1.47,1.42,2.92,2.78,3.77l0.41-0.82
				c0.34-0.68,1.04-1.07,1.76-1.06C40.65,131.43,40.86,131.46,41.06,131.54z"/>
		</g>
		<g>
			<path class="st13" d="M156.49,320.05c0,0-12.93,6.91-10.62,18.21c0,0,3.21,6.26,15.99,5.52c11.65-0.68,13.32-6.67,13.32-6.67
				s0.82-9.97-7.5-16.77C165.47,318.53,156.49,320.05,156.49,320.05"/>
		</g>
		<g>
			<path class="st14" d="M175.19,337.11c0,0-0.04,0.13-0.13,0.34c-0.31-3.39-1.7-9.6-7.44-14.3c-2.21-1.81-11.19-0.29-11.19-0.29
				s-9.61,5.13-10.78,13.79c-0.85-10.35,10.85-16.6,10.85-16.6s8.98-1.52,11.19,0.29C176.01,327.15,175.19,337.11,175.19,337.11"/>
		</g>
		<g>
			<path class="st14" d="M175.19,337.11c0,0-1.68,5.99-13.33,6.67c-12.78,0.75-15.99-5.52-15.99-5.52c-0.36-1.78-0.35-3.45-0.07-5
				c0.04,0.34,0.1,0.68,0.17,1.03c0,0,3.21,6.26,15.99,5.52c9.35-0.54,12.27-4.51,13.07-6.05
				C175.3,335.78,175.19,337.11,175.19,337.11"/>
		</g>
		<g>
			<path class="st1" d="M144.16,339.14l-0.12-0.23l-0.05-0.26c-2.56-12.56,11.02-19.98,11.6-20.29l0.28-0.15l0.31-0.05
				c2.96-0.5,10.12-1.44,12.73,0.69c9,7.36,8.24,17.97,8.2,18.42l-0.02,0.18l-0.05,0.18c-0.08,0.3-2.19,7.32-15.06,8.07
				c-1.07,0.06-2.08,0.08-3.03,0.05C147.54,345.46,144.3,339.42,144.16,339.14z M166.47,321.83c-0.84-0.63-5.22-0.59-9.33,0.06
				c-1.68,0.99-10.98,6.92-9.45,15.66c0.66,0.96,4.02,4.89,14.06,4.31c9.05-0.53,11.19-4.35,11.53-5.13
				C173.33,335.3,173.26,327.38,166.47,321.83z"/>
		</g>
		<g>
			<path class="st4" d="M156.84,323.93c0,0,4.12,2.38,9.89-0.01c0,0,2.7-6.5-0.03-7.9c-2.73-1.4-10.16-1.3-11.2,1.82
				C154.72,320.19,156.84,323.93,156.84,323.93"/>
		</g>
		<g>
			<path class="st4" d="M167.51,319.59c-0.23,2.12-1.15,4.32-1.15,4.32c-5.77,2.39-9.89,0-9.89,0s-1.12-1.97-1.43-3.95
				c-0.12-0.75-0.12-1.49,0.09-2.13c1.04-3.12,8.47-3.21,11.2-1.82C167.48,316.6,167.67,318.07,167.51,319.59"/>
		</g>
		<g>
			<path class="st5" d="M167.51,319.59c-0.23,2.12-1.15,4.32-1.15,4.32c-5.77,2.39-9.89,0-9.89,0s-1.12-1.97-1.43-3.95
				c1.02,0.73,2.99,1.74,6.14,1.82C164.08,321.87,166.22,320.64,167.51,319.59"/>
		</g>
		<g>
			<path class="st1" d="M155.78,325.12l-0.32-0.19l-0.19-0.33c-0.25-0.44-2.4-4.36-1.45-7.2c0.28-0.84,1.02-2,2.94-2.79
				c3.13-1.28,7.97-0.96,10.2,0.18c3.68,1.88,1.21,8.38,0.67,9.66l-0.22,0.53l-0.53,0.22c-2.27,0.94-4.31,1.21-6.01,1.16
				C157.84,326.28,155.91,325.19,155.78,325.12z M165.71,317.25c-1.62-0.83-5.59-1.03-7.9-0.08c-0.43,0.18-1.18,0.55-1.36,1.11
				c-0.39,1.16,0.37,3.29,1.04,4.6c0.95,0.42,3.88,1.41,7.82-0.03C166.17,320.48,166.54,317.67,165.71,317.25z"/>
		</g>
		<g>
			<path class="st1" d="M47.9,121.17l3.05-2.34c-5.09-6.64-12.13-5.05-12.43-4.98l0.89,3.74l-0.45-1.87l0.43,1.87
				C39.6,117.55,44.36,116.56,47.9,121.17z"/>
		</g>
		<g>
			<path class="st1" d="M43.87,127.75l2.38-3.01c-0.21-0.17-5.31-4.15-10.79-2.57l1.06,3.69C40.09,124.83,43.83,127.72,43.87,127.75
				z"/>
		</g>
		<g>
			<path class="st4" d="M76.49,324.89c0,0-2.97,9.03,2.26,10.92c5.23,1.89,29.7,2.41,34.82-1.32c2.83-2.06,0.69-6.58,0.69-6.58
				L76.49,324.89z"/>
		</g>
		<g>
			<path class="st5" d="M113.56,334.49c-5.12,3.73-29.59,3.22-34.82,1.33c-3.08-1.12-3.31-4.71-2.99-7.47
				c0.17,2.03,0.95,3.95,3.06,4.72c5.23,1.89,29.7,2.41,34.82-1.33c0.66-0.48,1.05-1.1,1.26-1.77
				C115.17,331.44,115.14,333.35,113.56,334.49"/>
		</g>
		<g>
			<path class="st1" d="M78.09,337.62c-5.51-2-4.75-9.32-3.43-13.33l0.47-1.43l40.37,3.22l0.48,1c1.05,2.21,1.95,6.59-1.29,8.96
				c-3.59,2.62-13.94,3.36-22.87,3.13C85.71,339.02,80.25,338.4,78.09,337.62z M77.95,326.94c-0.46,2.2-0.94,6.21,1.45,7.07
				c5.12,1.85,28.85,1.98,33.03-1.07c0.93-0.68,0.71-2.2,0.43-3.21L77.95,326.94z"/>
		</g>
		<g>
			<path class="st13" d="M113.38,314.6c1.09,0.14,2.44,12.69,0.24,14.27c-1.86,2.4-28.78,4.52-36.66,0.01
				c-3.18-2.17-2.5-11.15,5.38-14.1c6.64-2.48,15.96-0.35,18.44,0.01C104.13,315.29,109.71,316,113.38,314.6"/>
		</g>
		<g class="st6">
			<g>
				<g>
					<path class="st4" d="M114.39,317.78c-0.18-0.6-0.37-0.97-0.55-0.99c-3.67,1.4-9.25,0.68-12.59,0.2
						c-2.48-0.37-11.8-2.49-18.45-0.01c-5.28,1.97-7.32,6.65-7.15,10.18c-1.4-3.44,0.21-9.94,6.69-12.36
						c6.64-2.48,15.96-0.35,18.44,0.01c3.35,0.49,8.93,1.21,12.6-0.2C113.73,314.65,114.11,315.96,114.39,317.78"/>
				</g>
			</g>
		</g>
		<g>
			<path class="st14" d="M113.62,328.87c-1.86,2.4-28.78,4.52-36.66,0.01c-1.51-1.03-2.15-3.58-1.57-6.31
				c0.24,1.3,0.81,2.35,1.65,2.93c7.88,4.51,34.79,2.39,36.66-0.01c0.59-0.42,0.93-1.64,1.08-3.19
				C114.88,325.29,114.6,328.17,113.62,328.87"/>
		</g>
		<g>
			<path class="st1" d="M76.01,330.55l-0.13-0.08c-1.95-1.33-2.92-4.11-2.54-7.25c0.44-3.61,2.85-8.19,8.33-10.23
				c6.32-2.36,14.68-0.9,18.25-0.28c0.47,0.08,0.85,0.15,1.14,0.19c2.47,0.36,8.25,1.21,11.63-0.09l0.45-0.17l0.48,0.06
				c1.61,0.21,2.05,1.97,2.26,2.81c0.37,1.47,2.12,12.2-1.01,14.81c-2.61,2.39-13.8,2.95-17.27,3.07c-1.46,0.05-3.58,0.09-5.97,0.03
				C86.33,333.28,79.68,332.65,76.01,330.55z M112.27,327.48l0.12-0.09c0.82-1.38,0.49-7.67-0.09-10.47
				c-3.55,0.79-7.9,0.35-11.79-0.22c-0.32-0.05-0.74-0.12-1.25-0.21c-3.26-0.57-10.91-1.9-16.25,0.09c-4.86,1.82-5.71,5.89-5.86,7.1
				c-0.22,1.78,0.25,3.13,0.84,3.58c7.06,3.92,31.2,2.13,34.21,0.31L112.27,327.48z M112.27,327.52 M112.36,327.45
				C112.36,327.45,112.36,327.45,112.36,327.45L112.36,327.45z"/>
		</g>
		<g>
			<path class="st4" d="M89.57,313.6c4.84,2.41,3.43,5.35,6.89,6.15c1.05,0.24,1.66-0.07,2.5-0.39c1.36,0.34,2.39,0.4,2.95-0.18
				c1.43-1.49-1.1-4.23-1.7-4.64c-0.35-0.24-2.36-1.75-4.83-1C93.31,312.74,91.03,312.87,89.57,313.6"/>
		</g>
		<g>
			<path class="st5" d="M101.92,319.18c-0.56,0.58-1.6,0.52-2.96,0.18c-0.84,0.33-1.45,0.64-2.5,0.39c-3.46-0.8-2.05-3.74-6.89-6.15
				c0.56-0.28,1.23-0.47,1.98-0.55c3.94,2.44,2.43,4.29,5.47,5c1.05,0.24,1.66-0.07,2.5-0.39c1.23,0.31,2.19,0.39,2.77-0.03
				C102.42,318.19,102.34,318.74,101.92,319.18"/>
		</g>
		<g>
			<path class="st1" d="M96.21,320.83c-2.13-0.49-2.86-1.7-3.56-2.87c-0.67-1.12-1.37-2.27-3.58-3.37l-1.98-0.99l1.98-0.99
				c1.76-0.88,4.22-0.96,6.36-0.22c1.32-0.31,3.22-0.29,5.36,1.21l0.05,0.03c0.51,0.35,2.39,2.21,2.59,4.13
				c0.09,0.85-0.16,1.6-0.72,2.19c-0.93,0.97-2.34,0.87-3.67,0.57c-0.58,0.23-1.18,0.45-1.96,0.43
				C96.82,320.94,96.53,320.91,96.21,320.83z M99.23,318.29c1.58,0.39,1.87,0.15,1.89,0.13c0.07-0.07,0.14-0.17,0.12-0.42
				c-0.09-0.93-1.28-2.28-1.64-2.54l-0.06-0.04c-1.63-1.14-2.98-1.07-3.83-0.81l-0.37,0.11l-0.36-0.14
				c-0.9-0.35-1.81-0.49-2.63-0.48c1.14,0.97,1.72,1.94,2.19,2.72c0.61,1.02,0.95,1.58,2.17,1.86c0.62,0.14,0.95,0.01,1.61-0.25
				l0.57-0.22L99.23,318.29z"/>
		</g>
		<g>
			<path class="st1" d="M216.34,247.44c1.08,1.25,1.94,2.7,2.68,4.2c0.74,1.51,1.32,3.09,1.8,4.71c0.2,0.82,0.44,1.64,0.59,2.47
				c0.08,0.42,0.17,0.83,0.24,1.25l0.17,1.27l0.08,0.64l0.05,0.64l0.1,1.28c0.04,0.85,0.04,1.71,0.06,2.57l-3.06-0.26
				c0.1-0.78,0.23-1.57,0.31-2.36l0.09-1.19l0.05-0.6l0.01-0.6l0.02-1.2c0-0.4-0.03-0.8-0.04-1.2c-0.01-0.8-0.12-1.6-0.19-2.4
				c-0.21-1.59-0.53-3.18-1.01-4.74C217.81,250.37,217.21,248.84,216.34,247.44"/>
		</g>
		<g>
			<path class="st1" d="M175.07,260.9c-0.03,1.32,0.1,2.64,0.32,3.92c0.21,1.29,0.54,2.54,0.96,3.76c0.19,0.61,0.45,1.2,0.69,1.78
				c0.28,0.57,0.53,1.15,0.85,1.69c0.58,1.11,1.33,2.11,2.08,3.08l-2.56,1.71c-0.65-1.27-1.24-2.54-1.65-3.88
				c-0.23-0.66-0.38-1.34-0.56-2c-0.13-0.68-0.28-1.35-0.36-2.03c-0.19-1.35-0.27-2.71-0.23-4.05
				C174.65,263.53,174.79,262.2,175.07,260.9"/>
		</g>
		<g>
			<path class="st1" d="M271.04,203.97c0.18-0.27,0.34-0.47,0.52-0.7c0.17-0.22,0.35-0.43,0.53-0.64c0.36-0.42,0.73-0.82,1.13-1.2
				c0.4-0.38,0.81-0.75,1.26-1.09c0.44-0.34,0.92-0.65,1.43-0.91c1.04-0.54,2.12-0.74,3.16-0.86c1.05-0.11,2.08-0.13,3.11-0.09
				c-1,0.22-1.99,0.48-2.93,0.83c-0.94,0.35-1.83,0.79-2.49,1.39c-0.34,0.3-0.65,0.64-0.94,1.01c-0.29,0.36-0.56,0.76-0.81,1.16
				c-0.25,0.4-0.48,0.83-0.69,1.25c-0.11,0.21-0.21,0.43-0.3,0.64c-0.09,0.21-0.19,0.45-0.25,0.62L271.04,203.97z"/>
		</g>
		<g>
			<path class="st1" d="M274.13,210.46c0.49-1.09,1.17-1.99,1.91-2.75c0.75-0.76,1.58-1.39,2.46-1.92c0.42-0.26,0.95-0.52,1.45-0.67
				c0.5-0.15,1-0.25,1.49-0.31c0.99-0.12,1.96-0.14,2.93-0.06c-0.94,0.18-1.86,0.46-2.72,0.82c-0.43,0.18-0.84,0.39-1.21,0.63
				c-0.38,0.24-0.65,0.5-0.98,0.83c-0.62,0.64-1.17,1.36-1.59,2.1c-0.42,0.74-0.71,1.52-0.82,2.25L274.13,210.46z"/>
		</g>
		<g>
			<path class="st2" d="M117.3,228.07c-3.48,3.6-7.43,20.75,7.36,27.16c14.55,6.31,24.52-3.96,25.75-5.45L117.3,228.07z"/>
		</g>
		<g>
			<path class="st3" d="M145.72,250.18c-2.47,1.91-7.24,3.43-12.2,3.3c-10.17-0.26-17.79-7.89-16.29-17.68
				C121.19,255.48,145.72,250.18,145.72,250.18"/>
		</g>
		<g>
			<path class="st1" d="M117.3,228.07c-0.39,0.5-0.66,1.07-0.91,1.64c-0.25,0.57-0.43,1.16-0.61,1.75
				c-0.34,1.19-0.55,2.41-0.68,3.62c-0.12,1.22-0.16,2.44-0.09,3.64c0.07,1.2,0.23,2.39,0.5,3.55c0.55,2.3,1.51,4.46,2.93,6.24
				c1.39,1.81,3.21,3.21,5.23,4.31c0.5,0.28,1.03,0.52,1.55,0.76c0.54,0.23,1.09,0.46,1.63,0.67c1.1,0.42,2.22,0.76,3.36,1.04
				c0.57,0.11,1.15,0.24,1.73,0.31c0.58,0.1,1.16,0.15,1.75,0.2c1.17,0.09,2.35,0.03,3.53-0.09c2.36-0.25,4.7-0.92,6.93-1.93
				c1.12-0.5,2.2-1.09,3.25-1.76c1.05-0.67,2.07-1.4,3.01-2.24c-0.71,1.05-1.57,2.01-2.5,2.89c-0.93,0.89-1.95,1.69-3.03,2.41
				c-1.08,0.73-2.24,1.35-3.45,1.88c-1.21,0.53-2.48,0.93-3.78,1.23c-2.61,0.59-5.36,0.66-8.03,0.24c-1.33-0.23-2.65-0.52-3.92-0.97
				c-0.32-0.1-0.63-0.23-0.94-0.35c-0.31-0.13-0.62-0.24-0.93-0.38c-0.62-0.27-1.23-0.58-1.83-0.91c-2.39-1.34-4.51-3.26-6.04-5.56
				c-1.52-2.31-2.44-4.96-2.74-7.61c-0.17-1.33-0.19-2.66-0.09-3.97c0.1-1.31,0.31-2.61,0.64-3.86c0.32-1.26,0.76-2.48,1.32-3.65
				C115.65,230.04,116.33,228.9,117.3,228.07"/>
		</g>
		<g>
			<path class="st1" d="M129.31,214.39c0.75-0.55,1.73-0.72,2.69-0.52c0.49,0.09,0.96,0.32,1.4,0.62c0.21,0.16,0.41,0.35,0.59,0.55
				c0.16,0.22,0.35,0.43,0.45,0.67c0.51,0.97,0.53,2.06,0.28,2.95c-0.07,0.22-0.15,0.44-0.24,0.65c-0.1,0.2-0.22,0.4-0.34,0.59
				c-0.12,0.19-0.26,0.37-0.42,0.53c-0.16,0.16-0.32,0.32-0.5,0.46c-0.18-0.92-0.18-1.7-0.31-2.39c-0.11-0.69-0.27-1.25-0.51-1.7
				c-0.23-0.46-0.56-0.85-1.08-1.25C130.8,215.15,130.14,214.8,129.31,214.39"/>
		</g>
		<g>
			<path class="st1" d="M108.45,206.88c-0.21-0.92,0.07-1.87,0.58-2.66c0.52-0.78,1.32-1.46,2.38-1.74c0.52-0.13,1.1-0.15,1.65-0.02
				c0.55,0.13,1.05,0.4,1.43,0.75c0.76,0.7,1.11,1.61,1.1,2.54c-0.82-0.45-1.48-0.85-2.07-1.01c-0.59-0.17-1.02-0.14-1.53-0.02
				c-0.5,0.12-1.07,0.39-1.65,0.76C109.75,205.84,109.15,206.28,108.45,206.88"/>
		</g>
		<g>
			<path class="st7" d="M146.3,168.11c0,0,5.23,0.45,9.19,3.36"/>
		</g>
		<g>
			<path class="st1" d="M146.43,166.58c0.5,0.12,0.89,0.24,1.32,0.38c0.42,0.14,0.83,0.29,1.24,0.45c0.81,0.32,1.6,0.69,2.37,1.09
				c0.77,0.4,1.5,0.86,2.19,1.35c0.7,0.48,1.34,1.05,1.94,1.63c-0.75-0.37-1.5-0.7-2.28-0.94c-0.78-0.25-1.56-0.45-2.36-0.58
				c-0.79-0.14-1.59-0.24-2.38-0.3c-0.4-0.02-0.79-0.04-1.18-0.05c-0.38,0-0.8,0-1.12,0.03L146.43,166.58z"/>
		</g>
		<g>
			<path class="st2" d="M90.99,152.22c-1.48,7.17,11.29,22.75,33.71,16.46c19.67-5.52,11.99-23.99,6.19-27.08"/>
		</g>
		<g>
			<path class="st1" d="M90.99,152.22c-0.07,0.82,0.01,1.63,0.22,2.41c0.19,0.78,0.49,1.52,0.84,2.23c0.72,1.42,1.65,2.72,2.73,3.88
				c2.13,2.34,4.79,4.14,7.62,5.45c2.85,1.3,5.91,2.06,9.02,2.34c3.11,0.27,6.26,0.08,9.36-0.51c1.54-0.29,3.11-0.66,4.58-1.13
				c1.48-0.46,2.91-1.05,4.23-1.78c1.33-0.73,2.52-1.64,3.54-2.7c1.01-1.07,1.81-2.32,2.35-3.69c1.08-2.76,1.08-5.99,0.26-9.02
				c-0.39-1.53-0.99-3.01-1.77-4.41c-0.39-0.7-0.83-1.37-1.34-2c-0.5-0.63-1.07-1.21-1.75-1.68c0.77,0.31,1.45,0.81,2.09,1.35
				c0.63,0.56,1.2,1.18,1.72,1.85c1.04,1.33,1.86,2.83,2.5,4.41c0.62,1.59,1.03,3.28,1.17,5.03c0.13,1.74-0.03,3.55-0.58,5.27
				c-0.53,1.72-1.44,3.34-2.62,4.71c-1.17,1.38-2.6,2.51-4.1,3.42c-1.52,0.91-3.13,1.6-4.77,2.15c-0.82,0.27-1.64,0.5-2.46,0.71
				c-0.83,0.2-1.65,0.4-2.49,0.55c-3.35,0.62-6.81,0.79-10.23,0.37c-3.41-0.41-6.76-1.44-9.78-3.08c-3.02-1.64-5.69-3.9-7.7-6.65
				c-0.98-1.39-1.83-2.88-2.35-4.5c-0.26-0.81-0.45-1.64-0.52-2.48C90.69,153.86,90.74,153.01,90.99,152.22"/>
		</g>
		<g>
			<path class="st2" d="M108.81,139.99c0,0,8.51,2.84,8.89,11.37"/>
		</g>
		<g>
			<path class="st8" d="M109.29,138.54c0.22,0.09,0.36,0.17,0.53,0.25c0.16,0.08,0.32,0.17,0.47,0.26c0.31,0.17,0.6,0.36,0.89,0.55
				c0.58,0.38,1.13,0.8,1.66,1.24c1.05,0.89,1.99,1.9,2.75,3.02c0.77,1.12,1.35,2.36,1.7,3.63c0.36,1.28,0.47,2.59,0.4,3.87
				c-0.19-1.27-0.56-2.49-1.12-3.59c-0.56-1.11-1.3-2.09-2.16-2.93c-0.86-0.84-1.85-1.54-2.89-2.11c-0.52-0.29-1.06-0.54-1.6-0.76
				c-0.27-0.11-0.55-0.21-0.82-0.3c-0.14-0.05-0.27-0.09-0.41-0.13c-0.13-0.04-0.29-0.08-0.36-0.09L109.29,138.54z"/>
		</g>
		<g>
			<path class="st1" d="M98.14,319.39l1.66-0.05c-0.12-4.38-4.92-6.78-5.12-6.88l-0.73,1.49C93.98,313.98,98.05,316.01,98.14,319.39
				z"/>
		</g>
		<g>
			<path class="st4" d="M154.25,325.14c1.4-1.57,4.92-1.82,7.62-1.65c3.46,0.22,5.61,1.65,6.36,2.48c0.57,0.62,0.41,1.6-0.33,1.88
				c0,0,1.8,1.28,0.8,2.64c-1.32,1.8-3.8,0.36-7.97,0.2c-2.05-0.08-6.83,0.98-7.92-0.82c-0.74-1.22,0.88-2.47,0.88-2.47
				S153.28,326.22,154.25,325.14"/>
		</g>
		<g>
			<path class="st5" d="M168.7,330.49c-1.32,1.8-3.8,0.36-7.96,0.21c-2.05-0.07-6.83,0.98-7.92-0.82c-0.34-0.56-0.18-1.13,0.1-1.58
				c1.18,1.68,5.85,0.66,7.87,0.74c4.17,0.15,6.64,1.6,7.96-0.21c0-0.01,0.01-0.01,0.02-0.02
				C169.03,329.27,169.15,329.87,168.7,330.49"/>
		</g>
		<g>
			<path class="st1" d="M164.23,332.21c-1.03-0.17-2.2-0.36-3.54-0.41c-0.48-0.02-1.19,0.04-1.94,0.1
				c-2.55,0.21-5.73,0.46-6.89-1.45c-0.72-1.2-0.23-2.53,0.64-3.45c-0.04-0.74,0.14-1.72,0.92-2.6h0c1.89-2.11,6.14-2.17,8.51-2.01
				c3.54,0.23,6.04,1.67,7.1,2.83c0.54,0.59,0.75,1.39,0.57,2.14c-0.04,0.17-0.1,0.33-0.17,0.48c0.28,0.37,0.54,0.85,0.63,1.39
				c0.11,0.67-0.06,1.33-0.48,1.91c-0.8,1.09-1.85,1.38-3.06,1.34C165.81,332.47,165.04,332.34,164.23,332.21z M167.41,326.71
				c-0.59-0.64-2.52-1.92-5.61-2.12c-3.2-0.21-5.84,0.3-6.73,1.28l0,0c-0.5,0.56-0.35,1.13-0.34,1.17l0.26,0.75l-0.63,0.49
				c-0.2,0.16-0.77,0.76-0.61,1.03c0.45,0.74,3.4,0.5,4.82,0.39c0.82-0.07,1.6-0.13,2.2-0.11c1.49,0.05,2.78,0.27,3.82,0.44
				c2.03,0.33,2.78,0.4,3.21-0.19c0.32-0.43-0.55-1.09-0.55-1.09l-1.67-1.19l1.87-0.72C167.46,326.8,167.45,326.76,167.41,326.71z"
				/>
		</g>
		<g>
			<path class="st4" d="M153.69,327.4c0.34-0.43,8.11-2.41,14.2,0.44"/>
		</g>
		<g>
			<path class="st1" d="M167.54,328.6l0.7-1.5c-6.17-2.88-14.42-1.19-15.2-0.21l1.29,1.03c-0.08,0.1-0.15,0.14-0.15,0.14
				C154.98,327.62,161.98,326,167.54,328.6z"/>
		</g>
		<g>
			<path class="st10" d="M64.75,34.41c0,0-2.56-21.23,1.86-26.5C69.86,13.91,64.75,34.41,64.75,34.41"/>
		</g>
		<g>
			<path class="st10" d="M89.8,40c0,0,6.58-20.35,12.81-23.28C103.04,23.53,89.8,40,89.8,40"/>
		</g>
		<g>
			<path class="st10" d="M103.23,44.58c0,0,18.92-10,25.42-7.77C124.22,42,103.23,44.58,103.23,44.58"/>
		</g>
		<g>
			<path class="st10" d="M110.18,63.1c0,0,21.4-0.21,26.15,4.76C130.01,70.44,110.18,63.1,110.18,63.1"/>
		</g>
		<g>
			<path class="st10" d="M49.44,37.63c0,0-15.76-14.47-15.83-21.34C39.98,18.73,49.44,37.63,49.44,37.63"/>
		</g>
		<g>
			<path class="st1" d="M58.44,124.96c0.06,0.22,0.02,0.48-0.06,0.72c-0.08,0.24-0.2,0.46-0.33,0.67c-0.26,0.42-0.58,0.8-0.91,1.16
				c-0.33,0.36-0.68,0.7-1.04,1.02c-0.37,0.33-0.72,0.63-1.15,0.95l-1.14-2.86c0.38-0.02,0.83-0.08,1.25-0.15
				c0.42-0.07,0.85-0.16,1.26-0.26c0.41-0.11,0.82-0.24,1.2-0.42C57.89,125.61,58.28,125.39,58.44,124.96"/>
		</g>
		<g>
			<path class="st1" d="M37.15,130.34c0.68,0.38,1.38,0.69,2.09,0.99c0.35,0.15,0.71,0.29,1.06,0.43c0.35,0.14,0.72,0.28,1.06,0.4
				l-1.95,2.38c-0.22-0.35-0.42-0.69-0.62-1.03c-0.2-0.34-0.4-0.69-0.59-1.04C37.83,131.77,37.45,131.06,37.15,130.34"/>
		</g>
		<g>
			<path class="st1" d="M282.44,212.84c0.82-0.22,1.54-0.38,2.17-0.69c0.32-0.15,0.59-0.35,0.85-0.59c0.27-0.24,0.46-0.56,0.73-0.91
				c0.05,0.42,0,0.88-0.24,1.27c-0.23,0.39-0.58,0.73-0.99,0.92c-0.41,0.2-0.85,0.29-1.28,0.29
				C283.25,213.12,282.82,213.05,282.44,212.84"/>
		</g>
		<g>
			<path class="st4" d="M111.08,323.03c-0.05,1.8-1.55,3.23-3.35,3.18c-1.8-0.05-3.23-1.54-3.18-3.35c0.05-1.8,1.54-3.22,3.35-3.18
				C109.71,319.73,111.13,321.23,111.08,323.03"/>
		</g>
		<g class="st6">
			<g>
				<g>
					<path class="st4" d="M152.78,334.98c0.29-0.65,2.94-0.41,6.12-0.33c3.75,0.09,7.66-0.5,7.64,0.59
						c-0.02,1.09-3.33,2.57-8.16,2.23C152.58,337.05,152.59,335.43,152.78,334.98"/>
				</g>
			</g>
		</g>
		<g>
			<path class="st2" d="M203.78,207c-2.46,18.11-19.19,32.41-37.36,31.94c-18.17-0.47-30.9-15.52-28.44-33.63
				c2.46-18.11,19.19-32.41,37.36-31.94C193.51,173.84,206.25,188.89,203.78,207"/>
		</g>
		<g>
			<path class="st2" d="M132.58,171.58c-2.71,16.47-18.33,29.85-34.88,29.9c-16.55,0.05-27.76-13.26-25.05-29.73
				c2.71-16.47,18.33-29.85,34.88-29.9C124.08,141.81,135.29,155.12,132.58,171.58"/>
		</g>
		<g>
			<path class="st1" d="M76.93,193.83c-5.06-5.95-7.09-13.87-5.7-22.31c2.82-17.1,19.1-31.06,36.29-31.11
				c8.39-0.02,15.77,3.21,20.78,9.1c5.06,5.95,7.09,13.88,5.7,22.31l0,0c-2.82,17.1-19.1,31.06-36.29,31.11
				c-0.31,0-0.61,0-0.92-0.01C88.78,202.71,81.76,199.5,76.93,193.83z M131.16,171.35c1.25-7.58-0.54-14.68-5.05-19.97
				c-4.45-5.23-11.05-8.11-18.58-8.08c-15.85,0.05-30.86,12.92-33.46,28.69c-1.25,7.58,0.54,14.68,5.05,19.97
				c4.45,5.23,11.05,8.1,18.58,8.08C113.55,200,128.56,187.12,131.16,171.35L131.16,171.35z"/>
		</g>
		<g>
			<path class="st2" d="M132.58,171.58c-0.37,2.28-1,4.51-1.84,6.64c-5.22,13.28-18.78,23.22-33.03,23.26c-0.09,0-0.19,0-0.28,0
				c-6.65-0.04-12.43-2.25-16.76-5.94c-1.8-1.54-3.36-3.34-4.62-5.35c-3.19-5.07-4.53-11.47-3.39-18.43
				c0.17-1.03,0.39-2.04,0.66-3.04c4.01-15.04,18.7-26.82,34.22-26.86c1.56,0,3.08,0.11,4.54,0.34c7.51,1.16,13.57,5.25,17.2,11.09
				c1.29,2.08,2.27,4.37,2.9,6.84C133.07,163.65,133.25,167.52,132.58,171.58"/>
		</g>
		<g>
			<path class="st1" d="M79.73,196.63c-1.92-1.64-3.57-3.55-4.91-5.68c-3.52-5.59-4.76-12.31-3.59-19.43
				c0.17-1.04,0.4-2.11,0.69-3.18c4.23-15.88,19.54-27.88,35.61-27.93c1.62,0,3.22,0.12,4.77,0.35c7.78,1.2,14.25,5.38,18.2,11.75
				c1.38,2.21,2.41,4.65,3.07,7.25c0.97,3.83,1.12,7.89,0.43,12.05l0,0c-0.38,2.34-1.03,4.68-1.92,6.93
				c-5.58,14.19-19.71,24.13-34.35,24.17c-0.11,0-0.23,0-0.31,0c-0.22,0-0.43,0-0.65-0.01C90.24,202.74,84.36,200.58,79.73,196.63z
				 M97.7,200.04c13.29-0.04,26.62-9.44,31.7-22.35c0.82-2.07,1.41-4.2,1.76-6.35c0,0,0,0,0,0c0.62-3.77,0.49-7.43-0.38-10.87
				c-0.59-2.31-1.51-4.48-2.73-6.44c-3.51-5.65-9.26-9.35-16.2-10.42c-1.4-0.22-2.85-0.33-4.32-0.32
				c-14.81,0.04-28.93,11.13-32.83,25.79c-0.26,0.97-0.47,1.95-0.63,2.9c-1.06,6.41,0.04,12.44,3.18,17.43
				c1.19,1.89,2.65,3.58,4.34,5.02c4.26,3.63,9.73,5.57,15.87,5.6C97.54,200.04,97.61,200.04,97.7,200.04z"/>
		</g>
		<g>
			<path class="st2" d="M203.79,207c-0.42,3.11-1.27,6.11-2.47,8.94c-5.47,12.9-18.35,22.32-32.46,22.97
				c-0.81,0.04-1.62,0.04-2.44,0.02c-8.8-0.23-16.33-3.88-21.47-9.64c-1.87-2.09-3.42-4.46-4.6-7.05c-2.29-5-3.21-10.79-2.37-16.94
				c0.11-0.78,0.24-1.56,0.4-2.33c3.51-16.99,19.57-30.06,36.96-29.62c1.61,0.04,3.18,0.2,4.7,0.46c6.69,1.16,12.41,4.38,16.6,8.99
				c1.83,2.02,3.36,4.29,4.55,6.78C203.64,194.7,204.65,200.66,203.79,207"/>
		</g>
		<g>
			<path class="st1" d="M170.77,206.95c-3.48,5.68-9.98,8.03-14.52,5.26c-4.54-2.78-5.4-9.63-1.92-15.31
				c3.48-5.68,9.98-8.03,14.52-5.26C173.39,194.42,174.25,201.27,170.77,206.95"/>
		</g>
		<g>
			<path class="st4" d="M165.6,200.77c-1.33,2.17-3.82,3.07-5.56,2.01c-1.74-1.06-2.07-3.69-0.74-5.86
				c1.33-2.17,3.82-3.07,5.56-2.01C166.61,195.98,166.94,198.6,165.6,200.77"/>
		</g>
		<g class="st6">
			<g>
				<g>
					<path class="st4" d="M196.64,182.82l-56.29,39.44c-2.29-5-3.21-10.79-2.37-16.94c0.11-0.78,0.24-1.56,0.4-2.33l41.66-29.15
						C186.73,174.99,192.46,178.21,196.64,182.82"/>
				</g>
			</g>
		</g>
		<g class="st6">
			<g>
				<g>
					<path class="st4" d="M203.79,207c-0.42,3.11-1.27,6.11-2.47,8.94l-32.46,22.97c-0.81,0.04-1.62,0.04-2.44,0.02
						c-8.8-0.23-16.33-3.88-21.47-9.64l56.24-39.7C203.64,194.7,204.65,200.66,203.79,207"/>
				</g>
			</g>
		</g>
		<g>
			<path class="st9" d="M141.96,230.98c-6.03-7.1-8.63-16.37-7.3-26.12c2.68-19.72,20.98-35.36,40.78-34.85
				c9.73,0.25,18.39,4.27,24.38,11.33c6.03,7.1,8.63,16.37,7.3,26.12l0,0c-2.68,19.72-20.97,35.36-40.78,34.85
				C156.61,242.06,147.95,238.03,141.96,230.98z M200.45,206.55c1.06-7.83-0.98-15.23-5.76-20.86c-4.74-5.58-11.65-8.76-19.44-8.96
				c-16.48-0.42-31.71,12.6-33.95,29.03c-1.06,7.83,0.98,15.23,5.76,20.86c4.74,5.58,11.65,8.76,19.44,8.96
				C182.99,236.01,198.22,222.98,200.45,206.55L200.45,206.55z"/>
		</g>
		<g>
			<path class="st1" d="M114.73,180.06c-3.32,5.42-9.52,7.66-13.85,5.02c-4.33-2.65-5.15-9.19-1.83-14.61
				c3.32-5.42,9.52-7.66,13.85-5.02C117.23,168.1,118.05,174.65,114.73,180.06"/>
		</g>
		<g>
			<path class="st4" d="M109.81,174.17c-1.27,2.07-3.64,2.93-5.3,1.92c-1.66-1.01-1.97-3.52-0.7-5.59c1.27-2.07,3.64-2.93,5.3-1.92
				C110.77,169.59,111.08,172.1,109.81,174.17"/>
		</g>
		<g class="st6">
			<g>
				<g>
					<path class="st4" d="M129.28,153.28l-53.24,36.91c-3.19-5.07-4.53-11.47-3.39-18.43c0.17-1.03,0.39-2.04,0.66-3.04l38.76-26.52
						C119.59,143.35,125.65,147.44,129.28,153.28"/>
				</g>
			</g>
		</g>
		<g class="st6">
			<g>
				<g>
					<path class="st4" d="M132.58,171.58c-0.37,2.28-1,4.51-1.84,6.64l-33.31,23.26c-6.65-0.04-12.43-2.25-16.76-5.94l51.51-35.42
						C133.07,163.65,133.25,167.52,132.58,171.58"/>
				</g>
			</g>
		</g>
		<g>
			<path class="st9" d="M75.47,195.07c-5.44-6.39-7.61-14.87-6.13-23.87c2.96-17.99,20.09-32.66,38.18-32.72
				c8.96-0.03,16.86,3.44,22.24,9.77c5.44,6.39,7.61,14.87,6.13,23.87c0,0,0,0,0,0c-2.96,17.99-20.09,32.66-38.18,32.72
				c-0.33,0-0.65,0-0.97-0.01C88.18,204.61,80.65,201.17,75.47,195.07z M129.27,171.04c1.16-7.02-0.48-13.56-4.62-18.41
				c-4.08-4.8-10.16-7.43-17.11-7.41c-14.95,0.04-29.12,12.19-31.57,27.09c-1.16,7.02,0.48,13.56,4.62,18.41
				c4.08,4.8,10.16,7.43,17.11,7.41C112.65,198.08,126.81,185.93,129.27,171.04L129.27,171.04z"/>
		</g>
	</g>
</g>
</svg>
