<?xml version="1.0" encoding="UTF-8"?>
<svg id="Layer_1" data-name="Layer 1" xmlns="http://www.w3.org/2000/svg" xmlns:xlink="http://www.w3.org/1999/xlink" viewBox="0 0 75.43 96.59">
  <defs>
    <style>
      .cls-1 {
        clip-path: url(#clippath);
      }

      .cls-2, .cls-3 {
        fill: #c5f3ff;
      }

      .cls-4 {
        opacity: .2;
      }

      .cls-5 {
        opacity: .5;
      }

      .cls-6 {
        fill: #f9d3b7;
      }

      .cls-6, .cls-7, .cls-3, .cls-8, .cls-9, .cls-10, .cls-11, .cls-12, .cls-13, .cls-14 {
        stroke-width: 0px;
      }

      .cls-7 {
        fill: #512717;
      }

      .cls-8 {
        fill: #ff9343;
      }

      .cls-9 {
        fill: #ff8080;
      }

      .cls-10 {
        fill: #fec267;
      }

      .cls-11 {
        fill: #f37e80;
      }

      .cls-12 {
        fill: #fff;
      }

      .cls-13 {
        fill: #fff3e9;
      }

      .cls-14 {
        fill: #ffad40;
      }
    </style>
    <clipPath id="clippath">
      <circle class="cls-3" cx="41.62" cy="33.81" r="33.81"/>
    </clipPath>
  </defs>
  <g>
    <circle class="cls-2" cx="41.62" cy="33.81" r="33.81"/>
    <g class="cls-1">
      <g>
        <g>
          <path class="cls-10" d="M15.57,40.48s10.59,8.46,24.91,11.04c2.44.44-2.54,5-8.68,6.99-6.86.98-23.03-2.32-23.03-2.32"/>
          <path class="cls-10" d="M34.2,57.58c-.77.35-1.58.66-2.41.93-6.86.98-23.03-2.32-23.03-2.32l4.92-11.36,1.89-4.35s10.59,8.46,24.91,11.04c2.11.38-1.33,3.84-6.27,6.06Z"/>
          <path class="cls-14" d="M34.2,57.58c-.77.35-1.58.66-2.41.93-6.86.98-23.03-2.32-23.03-2.32l4.92-11.36,1.89-4.35s3.04,2.43,8.08,5.09c4.35,2.3,10.19,4.76,16.83,5.96.32.06.52.19.59.38.43,1.04-2.68,3.8-6.86,5.68Z"/>
          <path class="cls-8" d="M34.2,57.58c-.77.35-1.58.66-2.41.93-6.86.98-23.03-2.32-23.03-2.32l4.92-11.36h3.82c1.18,4.94-3.56,13.86,13.03,11.02,2.83-.48,3.05.49,3.68,1.73Z"/>
          <path class="cls-8" d="M41.07,51.9c-3.73.42-8.69.69-8.74.67-4.51-2.09-7.13-4.87-8.69-7.01,4.35,2.3,10.19,4.76,16.83,5.96.32.06.52.19.59.38Z"/>
          <path class="cls-7" d="M28.7,59.14c-7.61,0-19.45-2.4-20.02-2.51-.24-.05-.4-.29-.35-.53.05-.24.29-.4.53-.35.16.03,16.11,3.27,22.84,2.32,5.3-1.73,9.02-5.08,8.96-5.98,0-.08-.19-.12-.26-.13-14.27-2.58-25-11.05-25.11-11.13-.19-.15-.22-.44-.07-.63.15-.19.44-.22.63-.07.11.08,10.67,8.42,24.71,10.95.85.15.98.72,1,.95.12,1.83-4.73,5.31-9.62,6.9l-.07.02c-.92.13-1.99.19-3.16.19ZM31.8,58.51h0,0Z"/>
        </g>
        <g>
          <path class="cls-14" d="M49,58.69s7.72,7.02,8.1,11.64c-.64.8-1.21,1.84-.85,2.83.25.69,1,.86,1.79.92-.64,1.74-.04,2.95.73,3.4.92.54,2.42.36,3.22-.57,1.25-.03,2.22-.33,2.82-.99,1.21-1.33,1.33-4.11.81-6.97-1.89-9.89-12.48-16.7-16.43-17.61l-6.55-1.09"/>
          <path class="cls-14" d="M64.81,75.92c-.6.66-1.57.96-2.82.99-.79.93-2.3,1.11-3.22.57-.77-.45-1.37-1.66-.73-3.4-.79-.06-1.54-.24-1.79-.92-.33-.91.13-1.87.71-2.65.05-.06.09-.12.14-.18-.38-4.62-8.1-11.64-8.1-11.64l-6.37-8.44,6.55,1.09c3.95.91,14.54,7.72,16.43,17.61,0,.02,0,.05.01.08.5,2.84.38,5.57-.83,6.9Z"/>
          <g>
            <path class="cls-8" d="M65.7,74.03c-.17.77-.47,1.42-.89,1.89-.6.66-1.57.96-2.82.99-.79.93-2.3,1.11-3.22.57-.77-.45-1.37-1.66-.73-3.4-.79-.06-1.54-.24-1.79-.92-.36-.98.21-2.03.85-2.83-.29-3.52-4.83-8.42-6.99-10.57.04-2.2,1.39-3.3,1.39-3.3,2.76,6.11,6.7,8.32,6.98,13.54-1.2.4-2.2,1.71-1.67,2.53.42.65,1.19.12,2.01.3.82.18.74,1.6.67,2.44-.01.17-.44-.16-.42,0,.04.45.24.78.7.86,1.25.21,2.02-.69,2.02-.69,0,0,1.76.84,3.91-1.42Z"/>
            <path class="cls-6" d="M65.7,74.03c-.17.77-.47,1.42-.89,1.89-.6.66-1.57.96-2.82.99-.79.93-2.3,1.11-3.22.57-.77-.45-1.37-1.66-.73-3.4-.79-.06-1.54-.24-1.79-.92-.33-.91.13-1.87.71-2.65.49-.18,1-.36,1.52-.52h0c-1.2.4-2.2,1.72-1.67,2.54.42.65,1.19.12,2.01.3.82.18.74,1.6.67,2.44-.01.17-.44-.16-.42,0,.04.45.24.78.7.86,1.25.21,2.02-.69,2.02-.69,0,0,1.76.84,3.91-1.42Z"/>
            <path class="cls-8" d="M53.09,53.05c-1.25.24-2.6.49-3.2.6-.06.01-2.14.49-4.05.85l-3.2-4.24,6.55,1.09c.97.22,2.35.81,3.9,1.71Z"/>
          </g>
          <path class="cls-13" d="M64.81,75.92c-.6.66-1.57.96-2.82.99-.79.93-2.3,1.11-3.22.57-.77-.45-1.37-1.66-.73-3.4-.79-.06-1.54-.24-1.79-.92-.33-.91.13-1.87.71-2.65,2.9-1.1,6.58-1.79,8.67-1.49.5,2.84.38,5.57-.83,6.9Z"/>
          <path class="cls-6" d="M65.7,74.03c-.17.77-.47,1.42-.89,1.89-.6.66-1.57.96-2.82.99-.79.93-2.3,1.11-3.22.57-.77-.45-1.37-1.66-.73-3.4-.79-.06-1.54-.24-1.79-.92-.33-.91.13-1.87.71-2.65.49-.18,1-.36,1.52-.52h0c-1.2.4-2.2,1.72-1.67,2.54.42.65,1.19.12,2.01.3.82.18.74,1.6.67,2.44-.01.17-.44-.16-.42,0,.04.45.24.78.7.86,1.25.21,2.02-.69,2.02-.69,0,0,1.76.84,3.91-1.42Z"/>
          <path class="cls-7" d="M59.98,78.23c-.53,0-1.04-.13-1.44-.36-.88-.52-1.51-1.74-1.09-3.4-.59-.1-1.33-.37-1.62-1.15-.34-.93-.07-1.97.81-3.12-.54-4.4-7.87-11.1-7.94-11.17-.18-.17-.2-.45-.03-.63.17-.18.45-.2.63-.03.32.29,7.86,7.19,8.25,11.93v.18s-.1.14-.1.14c-.76.94-1.02,1.74-.78,2.39.14.38.55.56,1.4.63l.59.05-.2.55c-.54,1.44-.12,2.48.53,2.86.71.41,1.97.32,2.65-.47l.13-.15h.2c1.2-.04,2.02-.31,2.5-.85.99-1.09,1.25-3.55.7-6.59-1.88-9.79-12.38-16.38-16.08-17.25l-6.54-1.09c-.24-.04-.41-.27-.37-.52.04-.24.27-.41.52-.37l6.58,1.09c1.97.46,5.69,2.38,9.19,5.54,2.87,2.6,6.52,6.86,7.58,12.42.36,1.98.71,5.57-.92,7.36-.63.7-1.6,1.07-2.95,1.13-.6.6-1.42.87-2.21.87Z"/>
          <path class="cls-7" d="M59.5,75.28c-.2-.44-.41-.98-.82-1.23-.06-.03-.09,0-.1.01-.01.03-.11.14-.18.3l-.71-.55c.34-.35.94-.63,1.34-.2.4.47.43,1.09.47,1.67h0Z"/>
        </g>
        <g>
          <path class="cls-14" d="M40.17,78.83c-3.25,2.06-3.21,8.56-4.1,12.93-.29,1.43-.68,2.63-1.32,3.38-.8.94-1.84,1-2.8,1h-5.81c-2.27,0-3.03-1.25-3.12-2.41-.03-.39.01-.77.1-1.09.32-1.16,1.34-1.84,2.39-2.1-.95-7.4,1.14-18.82,2.24-21.94l12.42,10.22Z"/>
          <path class="cls-8" d="M40.17,78.83c-4.31,2.73-2.84,13.27-5.42,16.31-.8.94-1.84,1-2.8,1h-5.81c-2.27,0-3.03-1.25-3.12-2.41h0c.85.76,2.74.58,5.15.58,5.72,0,3.54-2.76,1.2-3.61,0,0,4.14-.06,4.91-2.69.99-3.4-1.03-4.86-3.06-7.01-1.8-1.91-3.95-4.38-4.72-7.15.43-2.35.89-4.24,1.25-5.25l12.42,10.22Z"/>
          <path class="cls-13" d="M36.06,91.76c-.29,1.43-.68,2.63-1.32,3.38-.8.94-1.84,1-2.8,1h-5.81c-3.04,0-3.37-2.25-3.02-3.5.32-1.16,1.34-1.84,2.39-2.1,0-.01,0-.02,0-.03,1.38-.15,3.34-.13,5.65.59,2.2.69,3.82.89,4.91.66Z"/>
          <path class="cls-6" d="M36.06,91.76c-.29,1.43-.68,2.63-1.32,3.38-.8.94-1.84,1-2.8,1h-5.81c-2.27,0-3.03-1.25-3.12-2.41h0c.85.76,2.74.58,5.15.58,5.72,0,3.54-2.76,1.2-3.61,0,0,.06,0,.17,0,.52.1,1.05.23,1.62.41,2.2.69,3.82.89,4.91.66Z"/>
          <path class="cls-7" d="M31.95,96.59h-5.81c-1.7,0-2.56-.67-2.99-1.23-.68-.9-.69-2.05-.47-2.84.3-1.08,1.14-1.9,2.33-2.3-.85-7.5,1.24-18.74,2.3-21.76.08-.23.34-.36.57-.27.23.08.36.34.27.57-1.06,3.02-3.16,14.37-2.21,21.73.03.23-.12.44-.34.49-.51.13-1.72.55-2.07,1.79-.15.55-.16,1.42.32,2.06.44.58,1.2.87,2.27.87h5.81c.95,0,1.79-.06,2.45-.84,1.02-1.19,1.37-3.8,1.75-6.56.53-3.83,1.12-8.16,3.77-9.84.21-.13.49-.07.62.14.13.21.07.49-.14.62-2.29,1.46-2.86,5.57-3.36,9.21-.4,2.89-.77,5.62-1.96,7.02-.91,1.07-2.05,1.16-3.14,1.16Z"/>
          <path class="cls-7" d="M30.52,91c-.82-.18-1.66-.27-2.5-.27-.82,0-1.66.07-2.44.25-.58.13-.79-.71-.22-.87,1.77-.11,3.53.23,5.17.89h0Z"/>
          <path class="cls-7" d="M28.28,92.1c-.44.65-.55,1.47-.35,2.22.18.62.63,1.33,1.29,1.38,0,0-.2.87-.2.87-1.78-.61-1.93-3.24-.75-4.47h0Z"/>
          <path class="cls-7" d="M25.62,92.1c-1.06.87-.64,3.25.67,3.61,0,0-.31.84-.31.84-1.59-.7-1.83-3.57-.36-4.46h0Z"/>
        </g>
        <g>
          <path class="cls-14" d="M41.06,78.83c3.25,2.06,3.21,8.56,4.1,12.93.29,1.43.68,2.63,1.32,3.38.8.94,1.84,1,2.8,1h5.81c2.27,0,3.03-1.25,3.12-2.41.03-.39-.01-.77-.1-1.09-.32-1.16-1.34-1.84-2.39-2.1.95-7.4-1.14-18.82-2.24-21.94l-12.42,10.22Z"/>
          <path class="cls-8" d="M41.06,78.83c4.31,2.73,2.84,13.27,5.42,16.31.8.94,1.84,1,2.8,1h5.81c2.27,0,3.03-1.25,3.12-2.41h0c-.85.76-2.74.58-5.15.58-5.72,0-3.54-2.76-1.2-3.61,0,0-4.14-.06-4.91-2.69-.99-3.4,1.03-4.86,3.06-7.01,1.8-1.91,3.95-4.38,4.72-7.15-.43-2.35-.89-4.24-1.25-5.25l-12.42,10.22Z"/>
          <path class="cls-13" d="M45.16,91.76c.29,1.43.68,2.63,1.32,3.38.8.94,1.84,1,2.8,1h5.81c3.04,0,3.37-2.25,3.02-3.5-.32-1.16-1.34-1.84-2.39-2.1,0-.01,0-.02,0-.03-1.38-.15-3.34-.13-5.65.59-2.2.69-3.82.89-4.91.66Z"/>
          <path class="cls-6" d="M45.16,91.76c.29,1.43.68,2.63,1.32,3.38.8.94,1.84,1,2.8,1h5.81c2.27,0,3.03-1.25,3.12-2.41h0c-.85.76-2.74.58-5.15.58-5.72,0-3.54-2.76-1.2-3.61,0,0-.06,0-.17,0-.52.1-1.05.23-1.62.41-2.2.69-3.82.89-4.91.66Z"/>
          <path class="cls-7" d="M55.09,96.59h-5.81c-1.09,0-2.23-.09-3.14-1.16-1.19-1.39-1.56-4.13-1.96-7.02-.5-3.63-1.07-7.75-3.36-9.21-.21-.13-.27-.41-.14-.62.13-.21.41-.27.62-.14,2.65,1.68,3.24,6.01,3.77,9.84.38,2.76.74,5.36,1.75,6.56.66.78,1.5.84,2.45.84h5.81c1.07,0,1.83-.29,2.27-.87.48-.64.47-1.51.32-2.06-.34-1.23-1.56-1.66-2.07-1.79-.22-.05-.37-.27-.34-.49.95-7.36-1.15-18.71-2.21-21.73-.08-.23.04-.49.27-.57.23-.08.49.04.57.27,1.07,3.02,3.15,14.26,2.3,21.76,1.19.4,2.03,1.23,2.33,2.3.22.79.21,1.94-.47,2.84-.42.56-1.29,1.23-2.99,1.23Z"/>
          <path class="cls-7" d="M50.71,91c1.61-.66,3.33-.97,5.08-.91.59.05.54.92-.05.9-.82-.18-1.68-.27-2.53-.26-.84,0-1.68.09-2.5.27h0Z"/>
          <path class="cls-7" d="M52.95,92.1c1.18,1.23,1.03,3.86-.75,4.47,0,0-.2-.87-.2-.87.66-.04,1.11-.76,1.29-1.38.2-.75.09-1.57-.35-2.22h0Z"/>
          <path class="cls-7" d="M55.61,92.1c1.47.88,1.23,3.75-.36,4.46,0,0-.31-.84-.31-.84,1.31-.37,1.73-2.74.67-3.61h0Z"/>
        </g>
        <g>
          <path class="cls-8" d="M49.9,53.65c-2.72.43-5.59.59-8.56.43-3.17-.17-6.2-.69-9.01-1.5,1.74-1.89-2.84-5.77,8.33-5.77s7.74,4.94,9.24,6.85Z"/>
          <path class="cls-14" d="M52.62,77.11l-4.78,3.38c-1.42.94-3.86,1.87-7.18,1.87s-5.77-.93-7.18-1.87l-4.78-3.38c-5.16-6-.75-16.84,1.83-22.23,0,0,.64-1.05,1.81-2.31,1.74-1.89-2.84-5.77,8.33-5.77s7.74,4.94,9.24,6.85c.58.73.89,1.24.89,1.24,2.59,5.39,6.99,16.23,1.83,22.23Z"/>
          <path class="cls-8" d="M49.9,53.65c-2.72.43-5.59.59-8.56.43-3.17-.17-6.2-.69-9.01-1.5,1.74-1.89-2.84-5.77,8.33-5.77s7.74,4.94,9.24,6.85Z"/>
          <path class="cls-6" d="M48.38,53.86c-2.26.27-4.62.35-7.04.22-2.88-.16-5.64-.6-8.22-1.29.09-.82.05-1.6-.18-2.35,0,0,1.5-2.86,7.73-2.86s7.72,2.86,7.72,2.86c-.33,1.08-.28,2.19,0,3.42Z"/>
          <path class="cls-8" d="M54.72,72.74c-.04.21-.09.41-.15.62-.37,1.37-1,2.65-1.95,3.75l-4.78,3.38c-1.42.94-3.86,1.87-7.18,1.87s-5.77-.93-7.18-1.87l-4.78-3.38c-.95-1.11-1.58-2.38-1.95-3.75-.06-.2-.1-.41-.15-.62,1.86,1.67,5.84,3.82,14.06,3.82s12.21-2.15,14.06-3.82Z"/>
          <path class="cls-8" d="M50.38,75.18c-1.61,2.67-4.6,4.78-9.73,4.78s-8.12-2.11-9.73-4.78c2.28.8,5.43,1.39,9.73,1.39s7.44-.59,9.73-1.39Z"/>
          <path class="cls-13" d="M40.66,47.58c6.22,0,7.73,2.86,7.73,2.86-1.31,4.24,3.44,9.16,3.6,18.49.08,4.61-2.38,11.03-11.32,11.03s-11.4-6.43-11.32-11.03c.15-9.32,4.91-14.25,3.6-18.49,0,0,1.5-2.86,7.73-2.86Z"/>
          <path class="cls-6" d="M48.38,53.86c-2.26.27-4.62.35-7.04.22-2.88-.16-5.64-.6-8.22-1.29.09-.82.05-1.6-.18-2.35,0,0,1.5-2.86,7.73-2.86s7.72,2.86,7.72,2.86c-.33,1.08-.28,2.19,0,3.42Z"/>
          <path class="cls-6" d="M50.38,75.18c-1.61,2.67-4.6,4.78-9.73,4.78s-8.12-2.11-9.73-4.78c2.28.8,5.43,1.39,9.73,1.39s7.44-.59,9.73-1.39Z"/>
          <path class="cls-7" d="M28.69,77.12c-3.12-2.74-3.28-7.47-2.52-11.26.8-3.89,2.36-7.56,4.35-10.97-1.37,3.64-2.72,7.32-3.35,11.15-.65,3.76-.61,7.78,1.52,11.08h0Z"/>
          <path class="cls-7" d="M52.62,77.12c2.13-3.3,2.17-7.32,1.52-11.08-.64-3.83-1.98-7.51-3.35-11.15,1.99,3.41,3.55,7.08,4.35,10.97.76,3.79.6,8.52-2.52,11.26h0Z"/>
          <path class="cls-7" d="M47.84,80.49c-3.62,3.11-10.75,3.11-14.37,0,4.26,1.91,10.11,1.91,14.37,0h0Z"/>
        </g>
        <g>
          <path class="cls-13" d="M9.28,38.83c-1.09-2.92-1.83-9.57,3.01-10.3,1.76-.18,2.59.63,2.47,2.04-.15,1.81-1.22,4.55.25,6.57,2.79,3.86,3.57,5.98,2.08,11.2,0,0,.35,3.44-.62,5.75-1.03,2.48-4.44,4.94-11.44,3.46-2.19-.55-3.39-2.26-2.73-4.59-1.07-.74-2.77-3.35-.64-6.46-1.2-.89-2.13-4.05.33-6.1,2.07-1.72,7.3-1.57,7.3-1.57Z"/>
          <path class="cls-13" d="M9.28,38.83c-1.09-2.92-1.83-9.57,3.01-10.3,1.76-.18,2.59.63,2.47,2.04-.15,1.81-1.22,4.55.25,6.57,2.79,3.86,3.57,5.98,2.08,11.2,0,0,.35,3.44-.62,5.75-1.03,2.48-4.44,4.94-11.44,3.46-2.19-.55-3.39-2.26-2.73-4.59-1.07-.74-2.77-3.35-.64-6.46-1.2-.89-2.13-4.05.33-6.1,2.07-1.72,7.3-1.57,7.3-1.57Z"/>
          <path class="cls-13" d="M17.54,46.51s0,0,0,0c-.12.57-.27,1.17-.46,1.83,0,0,.35,3.44-.62,5.75-.81,1.93-3.05,3.85-7.31,3.9-1.21.02-2.58-.12-4.13-.44-2.19-.55-3.39-2.26-2.73-4.59-1.07-.74-2.77-3.35-.64-6.46-1.2-.89-2.13-4.05.33-6.1,2.07-1.72,7.3-1.57,7.3-1.57-1.09-2.92-1.83-9.57,3.01-10.3,1.76-.19,2.59.63,2.47,2.04-.15,1.81-1.22,4.55.25,6.57,2.44,3.37,3.35,5.42,2.53,9.37Z"/>
          <path class="cls-6" d="M10.73,47.02c-2.35.36-8.16-.05-9.07-2.29-.48-1.19,4.42,1.45,10.22-.02.95-.24.5,1.72-1.15,2.3Z"/>
          <path class="cls-6" d="M10.74,52.25c-4.26.98-8.71-.33-8.86-1.92-.09-.92,4.85,1.31,10.09-.46.53-.18,0,1.71-1.23,2.38Z"/>
          <path class="cls-6" d="M11.2,56.3c-2.74,1.52-7.78.04-7.92-1.38-.08-.82,4.34,1.18,9.02-.41.48-.16-.07,1.22-1.1,1.79Z"/>
          <path class="cls-6" d="M17.54,46.51s0,0,0,0c-.12.57-.27,1.17-.46,1.83,0,0,.35,3.44-.62,5.75-.81,1.93-3.05,3.85-7.31,3.9,5.55-.92,5.01-5.02,3.01-6.07,2-1.3,1.69-3.86.34-5.28,1.49-1.32,1.72-4.46-1.82-5.65,3.37.83,7.62-1,6.87,5.51Z"/>
          <path class="cls-7" d="M17.01,51.92c.22,4.35-3.56,6.41-7.44,6.58-.24,0-.8.01-1.03.02-.22,0-.8-.05-1.03-.05-.77-.07-1.6-.2-2.37-.34-2.62-.51-4.12-2.68-3.29-5.28,0,0,.18.49.18.49-1.1-.83-1.71-2.08-1.83-3.42-.08-.98.15-1.97.6-2.84.1-.24.35-.6.48-.83l.1.61c-1.1-.93-1.46-2.32-1.37-3.68.11-1.34.88-2.58,1.98-3.35,2.01-1.28,4.96-1.44,7.3-1.45,0,0-.43.6-.43.6-.53-1.39-.81-2.84-.88-4.32-.17-3.17.97-6.43,4.58-6.72.97-.07,2.16.3,2.56,1.31.35.81.17,1.63.04,2.42-.13.71-.27,1.39-.34,2.06-.1.99-.05,1.95.43,2.8.08.12.18.29.26.4.94,1.35,1.86,2.74,2.37,4.33.69,2.13.41,4.49-.63,6.46.28-5,.44-6.08-2.67-10.29-.06-.09-.19-.29-.25-.38-.17-.3-.31-.64-.42-.97-.54-1.88.08-3.77.28-5.61.11-1.22-.76-1.51-1.82-1.4-4.24.63-3.69,6.55-2.68,9.59,0,0,.22.61.22.61h-.65c-2.17,0-5.84.16-7.38,1.82-.54.59-.92,1.35-.98,2.16-.1,1,.24,2.25,1.01,2.88,0,0,.32.26.32.26l-.22.36c-.05.09-.28.44-.33.54-.15.31-.3.61-.41.95-.54,1.63.05,3.6,1.51,4.54,0,0-.07.31-.07.31-.52,2.08.6,3.6,2.66,3.98,3.65.74,8.38.75,10.63-2.74.45-.7.73-1.55,1-2.4h0Z"/>
          <path class="cls-7" d="M5.09,57.1c2.24.51,5.97.7,7.58-1.21.99-1.21.69-2.98-.68-3.75,0,0-.62-.37-.62-.37l.61-.39c.67-.44,1.14-1.3,1.16-2.11.05-1.06-.63-1.97-1.33-2.71,0,0,.44-.3.44-.3.85-.78,1.07-2.25.57-3.29-.62-1.24-1.98-1.8-3.26-2.21,2.46-.09,4.88,1.42,4.47,4.16-.16.84-.52,1.64-1.31,2.11,0,0,.1-.68.1-.68,1.4,1.49,1.71,3.65.28,5.24-.19.21-.4.4-.65.56v-.76c1.12.64,1.86,2,1.67,3.31-.65,4.04-6.17,4.01-9.26,3.29-.58-.16-.36-1.01.22-.87h0Z"/>
          <path class="cls-7" d="M5.67,46.79c1.61.15,6.18.45,7.08-1.08.26-.53,1.05-.17.82.38-1.17,2-5.97,1.09-7.89.7h0Z"/>
          <path class="cls-7" d="M5.67,52.42c2.11.16,5.31.13,6.84-1.51.4-.43,1.05.14.67.6-1.89,1.69-5.21,1.37-7.51.91h0Z"/>
        </g>
        <path class="cls-7" d="M58.49,70c-.66.33-1.27.81-1.61,1.46,0,0-.69-.57-.69-.57.64-.55,1.48-.83,2.3-.89h0Z"/>
        <g>
          <g>
            <path class="cls-14" d="M19.37,40.39c2.69,5.78,10.37,9.27,16.61,10.5,0,0,3.37.7,6.59.96,3.22.27,6.66.14,6.66.14,6.36-.18,14.51-2.35,18.12-7.61,2.44-3.55,2.85-7.19,2.04-10.69-.23-1-.56-1.98-.97-2.95-.28-3.42-1.28-9.37-3.93-13.93l-2.82-3.84c-3.23-3.45-8.06-6.08-15.29-6.68-7.23-.6-12.42,1.19-16.18,4.06l-3.42,3.32c-3.37,4.06-5.34,9.77-6.19,13.09-.57.89-1.06,1.8-1.45,2.75,0,0,0,.02-.01.03-1.37,3.3-1.57,6.95.25,10.85Z"/>
            <g>
              <path class="cls-14" d="M47.29,12.06l-9.63,3.16-13.03,4.28c-2.43-3.75-3.3-14.38-.44-17.9.86-1.06,2.07-1.48,3.68-.86,4.04,1.56,10.1,8.91,19.41,11.32Z"/>
              <g class="cls-5">
                <path class="cls-12" d="M47.29,12.06l-1.73.57c-8.49-2.75-14.13-9.42-17.95-10.89-1.61-.62-2.81-.21-3.68.86-.45.55-.81,1.29-1.09,2.14.29-1.28.73-2.37,1.35-3.13.86-1.06,2.07-1.48,3.68-.86,4.04,1.56,10.1,8.91,19.41,11.32Z"/>
              </g>
              <path class="cls-8" d="M37.66,15.22l-13.03,4.28c-2.43-3.75-3.3-14.38-.44-17.9.58-.17,1.28-.07,2.06.6,2,1.73,6.46,10.54,11.4,13.02Z"/>
              <path class="cls-7" d="M24.64,19.96c-.15,0-.3-.07-.38-.21-2.38-3.69-3.53-14.6-.41-18.43C24.9.01,26.35-.33,28.04.32c1.53.59,3.31,1.96,5.38,3.54,3.63,2.79,8.15,6.25,13.99,7.76.24.06.39.31.33.56-.06.24-.31.39-.56.33-6.02-1.55-10.62-5.08-14.31-7.92-2.01-1.54-3.74-2.87-5.15-3.42-1.32-.51-2.35-.27-3.16.72-2.64,3.25-1.99,13.57.47,17.36.14.21.08.49-.14.63-.08.05-.16.07-.25.07Z"/>
              <path class="cls-13" d="M25.24,17.62h0c.13.28.26.53.41.74l9.59-7.94c-5.01-3.92-8.28-7.58-9.38-7.17-.17.06-.36.26-.55.58-.5.86-.99,2.61-1.19,5.12-.24,3.02.21,6.67,1.12,8.68Z"/>
              <path class="cls-6" d="M25.24,17.62h0c.13.28.26.53.41.74l9.59-7.94c-5.01-3.92-8.28-7.58-9.38-7.17-.17.06-.36.26-.55.58.38.21.89.68,1.56,1.62,2.1,2.96,1.93,5.91.75,8.58-.34.77-1.43,2.31-2.38,3.59Z"/>
              <path class="cls-7" d="M25.65,18.82s-.04,0-.06,0c-.13-.02-.24-.09-.31-.19-1.33-1.94-1.86-6.46-1.6-9.71.26-3.34,1.06-5.73,2.03-6.09.91-.33,2.2.75,5.04,3.23,1.31,1.15,2.95,2.58,4.78,4.02.11.08.17.21.17.35,0,.14-.06.27-.17.36l-9.59,7.94c-.08.07-.19.1-.29.1ZM26.05,3.67s-.03,0-.03,0c-.27.11-1.15,1.64-1.44,5.3-.25,3.19.28,6.9,1.19,8.69l8.75-7.24c-1.67-1.33-3.16-2.63-4.38-3.7-1.13-.99-2.12-1.85-2.87-2.4-.81-.6-1.13-.66-1.22-.66Z"/>
              <path class="cls-7" d="M31,14.39c-.1,0-.2-.03-.28-.1-.79-.62-2.2-1.85-2.49-2.52,0,0,0,0,0,0-.32-.75-.16-1.27.03-1.57.29-.45.81-.69,1.31-.81-.25-.31-.48-.7-.49-1.14,0-.27.07-.67.47-1.04.48-.44,1.21-.52,2.19-.24.06.02.12.05.17.09.94.82,2.21,1.9,3.61,2.99.11.08.17.21.18.35,0,.14-.06.27-.17.36l-4.25,3.52c-.08.07-.19.1-.29.1ZM29.06,11.42c.12.28.88,1.08,1.93,1.93l3.53-2.92c-1.2-.95-2.28-1.88-3.12-2.6-.58-.16-1.02-.14-1.22.06-.17.16-.19.28-.18.36,0,.27.26.63.76,1.06.11.1.32.27.23.57-.05.17-.21.3-.39.32,0,0-.03,0-.06,0-.75.03-1.33.22-1.51.51-.11.17-.09.41.04.72Z"/>
            </g>
            <g>
              <path class="cls-14" d="M44.51,11.83l8.97,4.71,12.14,6.38c3.01-3.3,5.64-13.63,3.4-17.58-.68-1.19-1.8-1.8-3.48-1.45-4.25.87-11.44,7.12-21.02,7.94Z"/>
              <g class="cls-5">
                <path class="cls-12" d="M44.51,11.83l1.61.85c8.83-1.3,15.49-6.95,19.51-7.77,1.69-.34,2.81.26,3.48,1.45.35.62.59,1.4.72,2.29-.07-1.31-.33-2.46-.82-3.32-.68-1.19-1.8-1.8-3.48-1.45-4.25.87-11.44,7.12-21.02,7.94Z"/>
              </g>
              <path class="cls-8" d="M53.48,16.54l12.14,6.38c3.01-3.3,5.64-13.63,3.4-17.58-.55-.27-1.25-.28-2.13.25-2.26,1.37-8.12,9.32-13.4,10.95Z"/>
              <path class="cls-7" d="M65.62,23.38c-.11,0-.22-.04-.31-.12-.19-.17-.2-.46-.03-.64,3.05-3.34,5.41-13.4,3.34-17.04-.63-1.11-1.61-1.52-3-1.24-1.48.3-3.41,1.33-5.65,2.51-4.11,2.18-9.24,4.9-15.43,5.44-.25.02-.47-.16-.49-.41-.02-.25.16-.47.41-.49,6.01-.52,11.04-3.19,15.08-5.33,2.3-1.22,4.28-2.27,5.89-2.6,1.77-.36,3.14.22,3.97,1.68,2.44,4.3-.5,14.87-3.46,18.11-.09.1-.21.15-.34.15Z"/>
              <path class="cls-13" d="M65.33,20.96h0c-.17.26-.35.48-.53.67l-8.14-9.42c5.59-3.03,9.42-6.1,10.44-5.52.16.09.31.31.44.66.35.93.55,2.74.32,5.24-.27,3.01-1.31,6.54-2.54,8.37Z"/>
              <path class="cls-6" d="M65.33,20.96h0c-.17.26-.35.48-.53.67l-8.14-9.42c5.59-3.03,9.42-6.1,10.44-5.52.16.09.31.31.44.66-.41.14-.99.52-1.8,1.34-2.56,2.57-2.88,5.5-2.17,8.34.21.82,1.03,2.52,1.75,3.94Z"/>
              <path class="cls-7" d="M64.8,22.08s0,0-.01,0c-.13,0-.25-.06-.33-.16l-8.14-9.42c-.09-.1-.13-.24-.1-.38.02-.14.11-.25.23-.32,2.05-1.11,3.9-2.25,5.38-3.17,3.2-1.97,4.66-2.83,5.5-2.35.9.51,1.29,3,1,6.34-.29,3.25-1.56,7.62-3.19,9.31-.09.09-.2.14-.33.14ZM57.37,12.33l7.43,8.59c1.2-1.62,2.33-5.19,2.62-8.37.33-3.66-.29-5.31-.54-5.47,0,0-.24-.12-1.35.44-.83.42-1.94,1.1-3.23,1.89-1.38.85-3.06,1.89-4.93,2.92Z"/>
              <path class="cls-7" d="M60.26,16.84c-.13,0-.26-.05-.35-.16l-3.61-4.17c-.09-.1-.13-.24-.1-.38.02-.14.11-.25.23-.32,1.56-.85,2.99-1.7,4.06-2.35.06-.03.12-.06.18-.06,1.01-.12,1.73.08,2.12.6.33.44.35.84.3,1.11-.08.43-.37.78-.67,1.05.48.2.95.52,1.16,1.02.14.33.21.86-.23,1.55,0,0,0,0,0,0-.39.62-1.99,1.59-2.87,2.07-.07.04-.14.06-.22.06ZM57.37,12.33l3,3.47c1.18-.67,2.06-1.33,2.22-1.59.18-.29.24-.52.16-.7-.13-.31-.67-.6-1.4-.75-.03,0-.05-.01-.06-.01-.17-.05-.3-.2-.33-.38-.04-.3.19-.44.32-.52.56-.34.88-.65.93-.92.01-.08.02-.2-.12-.38-.17-.22-.59-.31-1.2-.26-.95.58-2.17,1.31-3.51,2.05ZM62.97,14.46h0,0Z"/>
            </g>
            <path class="cls-14" d="M35.98,50.9c-6.24-1.23-13.92-4.72-16.61-10.5-2.34-5.03-1.34-9.64,1.21-13.63.84-3.32,2.81-9.03,6.19-13.09l1.64-1.89,1.78-1.43c3.76-2.87,8.95-4.66,16.18-4.06,7.23.6,12.05,3.23,15.28,6.68l1.52,1.7,1.3,2.14c2.65,4.56,3.65,10.52,3.93,13.93,1.85,4.36,2.07,9.07-1.06,13.64-3.61,5.25-11.76,7.42-18.12,7.6,0,0-3.44.13-6.66-.14-3.22-.27-6.59-.96-6.59-.96Z"/>
            <path class="cls-13" d="M19.37,40.39c2.69,5.78,10.37,9.27,16.61,10.5,0,0,3.37.7,6.59.96,3.22.27,6.66.14,6.66.14,6.36-.18,14.51-2.35,18.12-7.61,2.44-3.55,2.85-7.19,2.04-10.69-2.38-2.34-6.57-3.7-10.45-1.91-1.86.86-4.51,1.42-6.19.82-2.49-.89-3.73-4.46-8.17-4.84-4.44-.37-6.26,2.95-8.86,3.41-1.76.31-4.28-.67-5.97-1.83-3.52-2.41-7.88-1.76-10.61.15,0,0,0,.02-.01.03-1.37,3.3-1.57,6.95.25,10.85Z"/>
            <path class="cls-6" d="M20.27,41.99c3.24,4.83,10.06,7.79,15.71,8.91,0,0,3.37.7,6.59.96,3.22.27,6.66.14,6.66.14,5.75-.16,12.97-1.95,16.96-6.18-4.68,2.3-10.34,3.37-15.17,3.51,0,0-4.25.16-8.23-.18-3.97-.33-8.14-1.19-8.14-1.19-4.74-.94-10.15-2.93-14.38-5.98Z"/>
            <path class="cls-7" d="M30.19,10.36c4.39-3.86,10.52-4.99,16.22-4.5,2.87.27,5.74.85,8.38,2.03,2.63,1.15,5.04,2.88,6.86,5.1-2.09-1.95-4.51-3.45-7.13-4.46-2.62-1-5.4-1.54-8.19-1.78-5.6-.51-11.4.4-16.14,3.61h0Z"/>
            <path class="cls-7" d="M38.04,51.27c-6.89-.49-15.35-3.79-18.84-10.12-2.1-3.98-2.11-8.55-.14-12.58.33-.71.72-1.4,1.13-2.06l-.06.14c.89-3.58,2.25-7.07,4.31-10.14.69-1.02,1.46-1.99,2.33-2.84-.67,1.02-1.29,2.06-1.85,3.13-1.66,3.21-2.94,6.6-3.89,10.08-.79,1.31-1.55,2.67-1.97,4.15-.89,2.84-.66,5.94.53,8.65,2.88,6.69,11.78,10.04,18.44,11.58h0Z"/>
            <path class="cls-7" d="M47.13,52.03c6.83-.41,16.16-2.24,20.11-8.36,1.63-2.48,2.37-5.5,1.96-8.45-.17-1.53-.7-2.99-1.25-4.42-.36-3.59-1.06-7.15-2.16-10.59-.38-1.15-.81-2.27-1.3-3.39.72.99,1.32,2.07,1.83,3.19,1.27,2.8,2,5.83,2.39,8.87.08.61.13,1.22.18,1.84l-.04-.14c.6,1.45,1.05,2.97,1.25,4.53.55,3.74-.66,7.66-3.08,10.54-4.66,5.3-13.13,7.02-19.88,6.39h0Z"/>
            <ellipse class="cls-9" cx="25.47" cy="32.73" rx="4.34" ry="6.07" transform="translate(-9.27 55.4) rotate(-85.23)"/>
            <ellipse class="cls-9" cx="62.6" cy="35.83" rx="4.34" ry="6.07" transform="translate(21.69 95.24) rotate(-85.23)"/>
          </g>
          <path class="cls-13" d="M57.79,17.52c-.14-1.23-1.98-5.52-4.5-4.13-.89.49-.97,2.2.11,2.65,1.57.65,1.95.49,4.39,1.48Z"/>
          <path class="cls-13" d="M33.25,15.42c.35-1.19,2.89-5.11,5.14-3.31.79.63.58,2.34-.56,2.6-1.66.38-2,.15-4.58.71Z"/>
          <g>
            <ellipse class="cls-7" cx="55.09" cy="27.22" rx="5.92" ry="5.13" transform="translate(23.35 79.83) rotate(-85.2)"/>
            <ellipse class="cls-12" cx="53.58" cy="27.61" rx="2.12" ry="1.67" transform="translate(21.58 78.69) rotate(-85.2)"/>
            <g class="cls-4">
              <ellipse class="cls-12" cx="57.4" cy="26.2" rx="1.43" ry=".93" transform="translate(26.48 81.2) rotate(-85.2)"/>
            </g>
          </g>
          <g>
            <ellipse class="cls-7" cx="34.31" cy="25.48" rx="5.92" ry="5.13" transform="translate(6.08 57.57) rotate(-85.26)"/>
            <ellipse class="cls-12" cx="35.73" cy="26.12" rx="2.12" ry="1.67" transform="translate(6.75 59.57) rotate(-85.26)"/>
            <g class="cls-4">
              <ellipse class="cls-12" cx="32.2" cy="24.1" rx="1.43" ry=".93" transform="translate(5.52 54.2) rotate(-85.26)"/>
            </g>
          </g>
          <g>
            <g>
              <path class="cls-7" d="M48.41,35.9c-.62,1.18-1.45,5.56-4.95,5.27-3.5-.29-3.6-4.75-4.01-6.02-.56-1.74,4.47-.94,4.59-.92h0c.1,0,5.22.04,4.37,1.67Z"/>
              <path class="cls-7" d="M48.41,35.9c-.34.66-.75,2.29-1.64,3.57-.72,1.03-1.75,1.83-3.31,1.7-1.56-.13-2.45-1.09-2.98-2.23-.67-1.41-.8-3.09-1.03-3.79-.56-1.74,4.47-.94,4.59-.92h0c.1,0,5.22.04,4.37,1.67Z"/>
              <path class="cls-7" d="M43.79,41.52c-.12,0-.24,0-.36-.02-3.12-.26-3.76-3.56-4.1-5.33-.07-.38-.14-.71-.2-.92-.15-.46,0-.77.16-.95.8-.94,3.83-.56,4.78-.41.72,0,3.98.09,4.64,1.19.12.2.22.54,0,.97,0,0,0,0,0,0-.1.2-.22.51-.35.87-.61,1.62-1.71,4.59-4.56,4.59ZM41.64,34.37c-.89,0-1.62.11-1.84.37-.05.05-.09.13-.03.31.08.25.15.6.23,1,.33,1.71.88,4.57,3.49,4.79,2.61.22,3.63-2.51,4.24-4.14.14-.38.27-.72.39-.95.08-.16.06-.25.02-.31-.35-.59-2.61-.86-4.1-.87-.01,0-.02,0-.03,0,0,0-.01,0-.02,0-.78-.12-1.62-.19-2.34-.19ZM48.41,35.9h0,0Z"/>
              <g>
                <path class="cls-11" d="M46.77,39.48c-.72,1.03-.67,3.79-3.46,3.56-2.79-.23-2.29-2.95-2.83-4.09.81-.81,1.99-1.13,3.21-.51,1.31-.41,2.42.1,3.08,1.04Z"/>
                <path class="cls-7" d="M43.64,43.38c-.12,0-.23,0-.36-.02-2.33-.19-2.63-1.95-2.85-3.23-.07-.41-.14-.8-.26-1.05-.06-.13-.03-.28.07-.38.97-.97,2.26-1.2,3.47-.63,1.3-.36,2.53.09,3.33,1.2.08.12.08.27,0,.39-.16.23-.29.6-.43.99-.4,1.16-.95,2.72-2.98,2.72ZM40.87,39.03c.1.29.16.63.22.99.21,1.24.43,2.52,2.24,2.67,1.81.15,2.23-1.07,2.65-2.26.12-.34.23-.67.38-.94-.65-.79-1.58-1.06-2.58-.74-.08.03-.18.02-.25-.02-.93-.48-1.88-.36-2.66.3Z"/>
              </g>
              <path class="cls-7" d="M44.37,38.3c-.49.09-.86,2.26-.86,2.26,0,0,0-2.2-.47-2.37h.67s.66.11.66.11Z"/>
            </g>
            <path class="cls-13" d="M50.43,33.84c-1.83,3.59-4.69,2.93-6.46,1.17-2.03,1.44-4.97,1.62-6.18-2.22,0,0,1.17-4.37,6.69-3.91,5.52.46,5.95,4.96,5.95,4.96Z"/>
            <path class="cls-6" d="M49.41,33.68c-.71,1.26-1.58,1.86-2.58,1.77-.71-.06-1.5-.47-2.16-1.13l-.59-.59-.68.48c-.76.54-1.61.82-2.32.76-1-.08-1.76-.81-2.25-2.18.98,1.61,4.59,1.49,4.38-1.2-.02-.22.81-.38,1.07-.36.26.02,1.05.31.99.53-.64,2.62,2.89,3.34,4.13,1.91Z"/>
            <path class="cls-7" d="M50.43,33.84c-1.13,3.33-4.34,3.9-6.78,1.49,0,0,.58.05.58.05-2.81,1.98-5.88.88-6.44-2.59.82,1.79,2.18,3.23,4.28,2.65.7-.18,1.36-.57,1.94-1.01,0,0,.27.27.27.27,2.26,2.18,4.45,1.66,6.14-.85h0Z"/>
            <g>
              <path class="cls-7" d="M47.58,29.87c-.46,1.01-1.66,1.67-2.5,2.03-.55.23-1.18.18-1.69-.14-.77-.49-1.84-1.34-2.12-2.42-.33-1.23,2.7-1.17,3.27-1.13.57.05,3.56.5,3.04,1.65Z"/>
              <g class="cls-5">
                <path class="cls-12" d="M45.8,28.93c-.28.4-1.34.3-1.34.3,0,0-1.06-.08-1.27-.52-.15-.32,1.1-.26,1.34-.24.24.02,1.48.17,1.28.46Z"/>
              </g>
            </g>
            <path class="cls-7" d="M45.33,31.79s-1.14.63-1.22,1.53c.07-.9-.94-1.71-.94-1.71l.53-1.5.61.85.74-.74.28,1.56Z"/>
          </g>
        </g>
      </g>
    </g>
  </g>
  <g>
    <path class="cls-13" d="M9.28,38.83c-1.09-2.92-1.83-9.57,3.01-10.3,1.76-.18,2.59.63,2.47,2.04-.15,1.81-1.22,4.55.25,6.57,2.79,3.86,3.57,5.98,2.08,11.2,0,0,.35,3.44-.62,5.75-1.03,2.48-4.44,4.94-11.44,3.46-2.19-.55-3.39-2.26-2.73-4.59-1.07-.74-2.77-3.35-.64-6.46-1.2-.89-2.13-4.05.33-6.1,2.07-1.72,7.3-1.57,7.3-1.57Z"/>
    <path class="cls-13" d="M9.28,38.83c-1.09-2.92-1.83-9.57,3.01-10.3,1.76-.18,2.59.63,2.47,2.04-.15,1.81-1.22,4.55.25,6.57,2.79,3.86,3.57,5.98,2.08,11.2,0,0,.35,3.44-.62,5.75-1.03,2.48-4.44,4.94-11.44,3.46-2.19-.55-3.39-2.26-2.73-4.59-1.07-.74-2.77-3.35-.64-6.46-1.2-.89-2.13-4.05.33-6.1,2.07-1.72,7.3-1.57,7.3-1.57Z"/>
    <path class="cls-13" d="M17.54,46.51s0,0,0,0c-.12.57-.27,1.17-.46,1.83,0,0,.35,3.44-.62,5.75-.81,1.93-3.05,3.85-7.31,3.9-1.21.02-2.58-.12-4.13-.44-2.19-.55-3.39-2.26-2.73-4.59-1.07-.74-2.77-3.35-.64-6.46-1.2-.89-2.13-4.05.33-6.1,2.07-1.72,7.3-1.57,7.3-1.57-1.09-2.92-1.83-9.57,3.01-10.3,1.76-.19,2.59.63,2.47,2.04-.15,1.81-1.22,4.55.25,6.57,2.44,3.37,3.35,5.42,2.53,9.37Z"/>
    <path class="cls-6" d="M10.73,47.02c-2.35.36-8.16-.05-9.07-2.29-.48-1.19,4.42,1.45,10.22-.02.95-.24.5,1.72-1.15,2.3Z"/>
    <path class="cls-6" d="M10.74,52.25c-4.26.98-8.71-.33-8.86-1.92-.09-.92,4.85,1.31,10.09-.46.53-.18,0,1.71-1.23,2.38Z"/>
    <path class="cls-6" d="M11.2,56.3c-2.74,1.52-7.78.04-7.92-1.38-.08-.82,4.34,1.18,9.02-.41.48-.16-.07,1.22-1.1,1.79Z"/>
    <path class="cls-6" d="M17.54,46.51s0,0,0,0c-.12.57-.27,1.17-.46,1.83,0,0,.35,3.44-.62,5.75-.81,1.93-3.05,3.85-7.31,3.9,5.55-.92,5.01-5.02,3.01-6.07,2-1.3,1.69-3.86.34-5.28,1.49-1.32,1.72-4.46-1.82-5.65,3.37.83,7.62-1,6.87,5.51Z"/>
    <path class="cls-7" d="M17.01,51.92c.22,4.35-3.56,6.41-7.44,6.58-.24,0-.8.01-1.03.02-.22,0-.8-.05-1.03-.05-.77-.07-1.6-.2-2.37-.34-2.62-.51-4.12-2.68-3.29-5.28,0,0,.18.49.18.49-1.1-.83-1.71-2.08-1.83-3.42-.08-.98.15-1.97.6-2.84.1-.24.35-.6.48-.83l.1.61c-1.1-.93-1.46-2.32-1.37-3.68.11-1.34.88-2.58,1.98-3.35,2.01-1.28,4.96-1.44,7.3-1.45,0,0-.43.6-.43.6-.53-1.39-.81-2.84-.88-4.32-.17-3.17.97-6.43,4.58-6.72.97-.07,2.16.3,2.56,1.31.35.81.17,1.63.04,2.42-.13.71-.27,1.39-.34,2.06-.1.99-.05,1.95.43,2.8.08.12.18.29.26.4.94,1.35,1.86,2.74,2.37,4.33.69,2.13.41,4.49-.63,6.46.28-5,.44-6.08-2.67-10.29-.06-.09-.19-.29-.25-.38-.17-.3-.31-.64-.42-.97-.54-1.88.08-3.77.28-5.61.11-1.22-.76-1.51-1.82-1.4-4.24.63-3.69,6.55-2.68,9.59,0,0,.22.61.22.61h-.65c-2.17,0-5.84.16-7.38,1.82-.54.59-.92,1.35-.98,2.16-.1,1,.24,2.25,1.01,2.88,0,0,.32.26.32.26l-.22.36c-.05.09-.28.44-.33.54-.15.31-.3.61-.41.95-.54,1.63.05,3.6,1.51,4.54,0,0-.07.31-.07.31-.52,2.08.6,3.6,2.66,3.98,3.65.74,8.38.75,10.63-2.74.45-.7.73-1.55,1-2.4h0Z"/>
    <path class="cls-7" d="M5.09,57.1c2.24.51,5.97.7,7.58-1.21.99-1.21.69-2.98-.68-3.75,0,0-.62-.37-.62-.37l.61-.39c.67-.44,1.14-1.3,1.16-2.11.05-1.06-.63-1.97-1.33-2.71,0,0,.44-.3.44-.3.85-.78,1.07-2.25.57-3.29-.62-1.24-1.98-1.8-3.26-2.21,2.46-.09,4.88,1.42,4.47,4.16-.16.84-.52,1.64-1.31,2.11,0,0,.1-.68.1-.68,1.4,1.49,1.71,3.65.28,5.24-.19.21-.4.4-.65.56v-.76c1.12.64,1.86,2,1.67,3.31-.65,4.04-6.17,4.01-9.26,3.29-.58-.16-.36-1.01.22-.87h0Z"/>
    <path class="cls-7" d="M5.67,46.79c1.61.15,6.18.45,7.08-1.08.26-.53,1.05-.17.82.38-1.17,2-5.97,1.09-7.89.7h0Z"/>
    <path class="cls-7" d="M5.67,52.42c2.11.16,5.31.13,6.84-1.51.4-.43,1.05.14.67.6-1.89,1.69-5.21,1.37-7.51.91h0Z"/>
  </g>
  <g>
    <g>
      <path class="cls-14" d="M19.37,40.39c2.69,5.78,10.37,9.27,16.61,10.5,0,0,3.37.7,6.59.96,3.22.27,6.66.14,6.66.14,6.36-.18,14.51-2.35,18.12-7.61,2.44-3.55,2.85-7.19,2.04-10.69-.23-1-.56-1.98-.97-2.95-.28-3.42-1.28-9.37-3.93-13.93l-2.82-3.84c-3.23-3.45-8.06-6.08-15.29-6.68-7.23-.6-12.42,1.19-16.18,4.06l-3.42,3.32c-3.37,4.06-5.34,9.77-6.19,13.09-.57.89-1.06,1.8-1.45,2.75,0,0,0,.02-.01.03-1.37,3.3-1.57,6.95.25,10.85Z"/>
      <g>
        <path class="cls-14" d="M47.29,12.06l-9.63,3.16-13.03,4.28c-2.43-3.75-3.3-14.38-.44-17.9.86-1.06,2.07-1.48,3.68-.86,4.04,1.56,10.1,8.91,19.41,11.32Z"/>
        <g class="cls-5">
          <path class="cls-12" d="M47.29,12.06l-1.73.57c-8.49-2.75-14.13-9.42-17.95-10.89-1.61-.62-2.81-.21-3.68.86-.45.55-.81,1.29-1.09,2.14.29-1.28.73-2.37,1.35-3.13.86-1.06,2.07-1.48,3.68-.86,4.04,1.56,10.1,8.91,19.41,11.32Z"/>
        </g>
        <path class="cls-8" d="M37.66,15.22l-13.03,4.28c-2.43-3.75-3.3-14.38-.44-17.9.58-.17,1.28-.07,2.06.6,2,1.73,6.46,10.54,11.4,13.02Z"/>
        <path class="cls-7" d="M24.64,19.96c-.15,0-.3-.07-.38-.21-2.38-3.69-3.53-14.6-.41-18.43C24.9.01,26.35-.33,28.04.32c1.53.59,3.31,1.96,5.38,3.54,3.63,2.79,8.15,6.25,13.99,7.76.24.06.39.31.33.56-.06.24-.31.39-.56.33-6.02-1.55-10.62-5.08-14.31-7.92-2.01-1.54-3.74-2.87-5.15-3.42-1.32-.51-2.35-.27-3.16.72-2.64,3.25-1.99,13.57.47,17.36.14.21.08.49-.14.63-.08.05-.16.07-.25.07Z"/>
        <path class="cls-13" d="M25.24,17.62h0c.13.28.26.53.41.74l9.59-7.94c-5.01-3.92-8.28-7.58-9.38-7.17-.17.06-.36.26-.55.58-.5.86-.99,2.61-1.19,5.12-.24,3.02.21,6.67,1.12,8.68Z"/>
        <path class="cls-6" d="M25.24,17.62h0c.13.28.26.53.41.74l9.59-7.94c-5.01-3.92-8.28-7.58-9.38-7.17-.17.06-.36.26-.55.58.38.21.89.68,1.56,1.62,2.1,2.96,1.93,5.91.75,8.58-.34.77-1.43,2.31-2.38,3.59Z"/>
        <path class="cls-7" d="M25.65,18.82s-.04,0-.06,0c-.13-.02-.24-.09-.31-.19-1.33-1.94-1.86-6.46-1.6-9.71.26-3.34,1.06-5.73,2.03-6.09.91-.33,2.2.75,5.04,3.23,1.31,1.15,2.95,2.58,4.78,4.02.11.08.17.21.17.35,0,.14-.06.27-.17.36l-9.59,7.94c-.08.07-.19.1-.29.1ZM26.05,3.67s-.03,0-.03,0c-.27.11-1.15,1.64-1.44,5.3-.25,3.19.28,6.9,1.19,8.69l8.75-7.24c-1.67-1.33-3.16-2.63-4.38-3.7-1.13-.99-2.12-1.85-2.87-2.4-.81-.6-1.13-.66-1.22-.66Z"/>
        <path class="cls-7" d="M31,14.39c-.1,0-.2-.03-.28-.1-.79-.62-2.2-1.85-2.49-2.52,0,0,0,0,0,0-.32-.75-.16-1.27.03-1.57.29-.45.81-.69,1.31-.81-.25-.31-.48-.7-.49-1.14,0-.27.07-.67.47-1.04.48-.44,1.21-.52,2.19-.24.06.02.12.05.17.09.94.82,2.21,1.9,3.61,2.99.11.08.17.21.18.35,0,.14-.06.27-.17.36l-4.25,3.52c-.08.07-.19.1-.29.1ZM29.06,11.42c.12.28.88,1.08,1.93,1.93l3.53-2.92c-1.2-.95-2.28-1.88-3.12-2.6-.58-.16-1.02-.14-1.22.06-.17.16-.19.28-.18.36,0,.27.26.63.76,1.06.11.1.32.27.23.57-.05.17-.21.3-.39.32,0,0-.03,0-.06,0-.75.03-1.33.22-1.51.51-.11.17-.09.41.04.72Z"/>
      </g>
      <g>
        <path class="cls-14" d="M44.51,11.83l8.97,4.71,12.14,6.38c3.01-3.3,5.64-13.63,3.4-17.58-.68-1.19-1.8-1.8-3.48-1.45-4.25.87-11.44,7.12-21.02,7.94Z"/>
        <g class="cls-5">
          <path class="cls-12" d="M44.51,11.83l1.61.85c8.83-1.3,15.49-6.95,19.51-7.77,1.69-.34,2.81.26,3.48,1.45.35.62.59,1.4.72,2.29-.07-1.31-.33-2.46-.82-3.32-.68-1.19-1.8-1.8-3.48-1.45-4.25.87-11.44,7.12-21.02,7.94Z"/>
        </g>
        <path class="cls-8" d="M53.48,16.54l12.14,6.38c3.01-3.3,5.64-13.63,3.4-17.58-.55-.27-1.25-.28-2.13.25-2.26,1.37-8.12,9.32-13.4,10.95Z"/>
        <path class="cls-7" d="M65.62,23.38c-.11,0-.22-.04-.31-.12-.19-.17-.2-.46-.03-.64,3.05-3.34,5.41-13.4,3.34-17.04-.63-1.11-1.61-1.52-3-1.24-1.48.3-3.41,1.33-5.65,2.51-4.11,2.18-9.24,4.9-15.43,5.44-.25.02-.47-.16-.49-.41-.02-.25.16-.47.41-.49,6.01-.52,11.04-3.19,15.08-5.33,2.3-1.22,4.28-2.27,5.89-2.6,1.77-.36,3.14.22,3.97,1.68,2.44,4.3-.5,14.87-3.46,18.11-.09.1-.21.15-.34.15Z"/>
        <path class="cls-13" d="M65.33,20.96h0c-.17.26-.35.48-.53.67l-8.14-9.42c5.59-3.03,9.42-6.1,10.44-5.52.16.09.31.31.44.66.35.93.55,2.74.32,5.24-.27,3.01-1.31,6.54-2.54,8.37Z"/>
        <path class="cls-6" d="M65.33,20.96h0c-.17.26-.35.48-.53.67l-8.14-9.42c5.59-3.03,9.42-6.1,10.44-5.52.16.09.31.31.44.66-.41.14-.99.52-1.8,1.34-2.56,2.57-2.88,5.5-2.17,8.34.21.82,1.03,2.52,1.75,3.94Z"/>
        <path class="cls-7" d="M64.8,22.08s0,0-.01,0c-.13,0-.25-.06-.33-.16l-8.14-9.42c-.09-.1-.13-.24-.1-.38.02-.14.11-.25.23-.32,2.05-1.11,3.9-2.25,5.38-3.17,3.2-1.97,4.66-2.83,5.5-2.35.9.51,1.29,3,1,6.34-.29,3.25-1.56,7.62-3.19,9.31-.09.09-.2.14-.33.14ZM57.37,12.33l7.43,8.59c1.2-1.62,2.33-5.19,2.62-8.37.33-3.66-.29-5.31-.54-5.47,0,0-.24-.12-1.35.44-.83.42-1.94,1.1-3.23,1.89-1.38.85-3.06,1.89-4.93,2.92Z"/>
        <path class="cls-7" d="M60.26,16.84c-.13,0-.26-.05-.35-.16l-3.61-4.17c-.09-.1-.13-.24-.1-.38.02-.14.11-.25.23-.32,1.56-.85,2.99-1.7,4.06-2.35.06-.03.12-.06.18-.06,1.01-.12,1.73.08,2.12.6.33.44.35.84.3,1.11-.08.43-.37.78-.67,1.05.48.2.95.52,1.16,1.02.14.33.21.86-.23,1.55,0,0,0,0,0,0-.39.62-1.99,1.59-2.87,2.07-.07.04-.14.06-.22.06ZM57.37,12.33l3,3.47c1.18-.67,2.06-1.33,2.22-1.59.18-.29.24-.52.16-.7-.13-.31-.67-.6-1.4-.75-.03,0-.05-.01-.06-.01-.17-.05-.3-.2-.33-.38-.04-.3.19-.44.32-.52.56-.34.88-.65.93-.92.01-.08.02-.2-.12-.38-.17-.22-.59-.31-1.2-.26-.95.58-2.17,1.31-3.51,2.05ZM62.97,14.46h0,0Z"/>
      </g>
      <path class="cls-14" d="M35.98,50.9c-6.24-1.23-13.92-4.72-16.61-10.5-2.34-5.03-1.34-9.64,1.21-13.63.84-3.32,2.81-9.03,6.19-13.09l1.64-1.89,1.78-1.43c3.76-2.87,8.95-4.66,16.18-4.06,7.23.6,12.05,3.23,15.28,6.68l1.52,1.7,1.3,2.14c2.65,4.56,3.65,10.52,3.93,13.93,1.85,4.36,2.07,9.07-1.06,13.64-3.61,5.25-11.76,7.42-18.12,7.6,0,0-3.44.13-6.66-.14-3.22-.27-6.59-.96-6.59-.96Z"/>
      <path class="cls-13" d="M19.37,40.39c2.69,5.78,10.37,9.27,16.61,10.5,0,0,3.37.7,6.59.96,3.22.27,6.66.14,6.66.14,6.36-.18,14.51-2.35,18.12-7.61,2.44-3.55,2.85-7.19,2.04-10.69-2.38-2.34-6.57-3.7-10.45-1.91-1.86.86-4.51,1.42-6.19.82-2.49-.89-3.73-4.46-8.17-4.84-4.44-.37-6.26,2.95-8.86,3.41-1.76.31-4.28-.67-5.97-1.83-3.52-2.41-7.88-1.76-10.61.15,0,0,0,.02-.01.03-1.37,3.3-1.57,6.95.25,10.85Z"/>
      <path class="cls-6" d="M20.27,41.99c3.24,4.83,10.06,7.79,15.71,8.91,0,0,3.37.7,6.59.96,3.22.27,6.66.14,6.66.14,5.75-.16,12.97-1.95,16.96-6.18-4.68,2.3-10.34,3.37-15.17,3.51,0,0-4.25.16-8.23-.18-3.97-.33-8.14-1.19-8.14-1.19-4.74-.94-10.15-2.93-14.38-5.98Z"/>
      <path class="cls-7" d="M30.19,10.36c4.39-3.86,10.52-4.99,16.22-4.5,2.87.27,5.74.85,8.38,2.03,2.63,1.15,5.04,2.88,6.86,5.1-2.09-1.95-4.51-3.45-7.13-4.46-2.62-1-5.4-1.54-8.19-1.78-5.6-.51-11.4.4-16.14,3.61h0Z"/>
      <path class="cls-7" d="M38.04,51.27c-6.89-.49-15.35-3.79-18.84-10.12-2.1-3.98-2.11-8.55-.14-12.58.33-.71.72-1.4,1.13-2.06l-.06.14c.89-3.58,2.25-7.07,4.31-10.14.69-1.02,1.46-1.99,2.33-2.84-.67,1.02-1.29,2.06-1.85,3.13-1.66,3.21-2.94,6.6-3.89,10.08-.79,1.31-1.55,2.67-1.97,4.15-.89,2.84-.66,5.94.53,8.65,2.88,6.69,11.78,10.04,18.44,11.58h0Z"/>
      <path class="cls-7" d="M47.13,52.03c6.83-.41,16.16-2.24,20.11-8.36,1.63-2.48,2.37-5.5,1.96-8.45-.17-1.53-.7-2.99-1.25-4.42-.36-3.59-1.06-7.15-2.16-10.59-.38-1.15-.81-2.27-1.3-3.39.72.99,1.32,2.07,1.83,3.19,1.27,2.8,2,5.83,2.39,8.87.08.61.13,1.22.18,1.84l-.04-.14c.6,1.45,1.05,2.97,1.25,4.53.55,3.74-.66,7.66-3.08,10.54-4.66,5.3-13.13,7.02-19.88,6.39h0Z"/>
      <ellipse class="cls-9" cx="25.47" cy="32.73" rx="4.34" ry="6.07" transform="translate(-9.27 55.4) rotate(-85.23)"/>
      <ellipse class="cls-9" cx="62.6" cy="35.83" rx="4.34" ry="6.07" transform="translate(21.69 95.24) rotate(-85.23)"/>
    </g>
    <path class="cls-13" d="M57.79,17.52c-.14-1.23-1.98-5.52-4.5-4.13-.89.49-.97,2.2.11,2.65,1.57.65,1.95.49,4.39,1.48Z"/>
    <path class="cls-13" d="M33.25,15.42c.35-1.19,2.89-5.11,5.14-3.31.79.63.58,2.34-.56,2.6-1.66.38-2,.15-4.58.71Z"/>
    <g>
      <ellipse class="cls-7" cx="55.09" cy="27.22" rx="5.92" ry="5.13" transform="translate(23.35 79.83) rotate(-85.2)"/>
      <ellipse class="cls-12" cx="53.58" cy="27.61" rx="2.12" ry="1.67" transform="translate(21.58 78.69) rotate(-85.2)"/>
      <g class="cls-4">
        <ellipse class="cls-12" cx="57.4" cy="26.2" rx="1.43" ry=".93" transform="translate(26.48 81.2) rotate(-85.2)"/>
      </g>
    </g>
    <g>
      <ellipse class="cls-7" cx="34.31" cy="25.48" rx="5.92" ry="5.13" transform="translate(6.08 57.57) rotate(-85.26)"/>
      <ellipse class="cls-12" cx="35.73" cy="26.12" rx="2.12" ry="1.67" transform="translate(6.75 59.57) rotate(-85.26)"/>
      <g class="cls-4">
        <ellipse class="cls-12" cx="32.2" cy="24.1" rx="1.43" ry=".93" transform="translate(5.52 54.2) rotate(-85.26)"/>
      </g>
    </g>
    <g>
      <g>
        <path class="cls-7" d="M48.41,35.9c-.62,1.18-1.45,5.56-4.95,5.27-3.5-.29-3.6-4.75-4.01-6.02-.56-1.74,4.47-.94,4.59-.92h0c.1,0,5.22.04,4.37,1.67Z"/>
        <path class="cls-7" d="M48.41,35.9c-.34.66-.75,2.29-1.64,3.57-.72,1.03-1.75,1.83-3.31,1.7-1.56-.13-2.45-1.09-2.98-2.23-.67-1.41-.8-3.09-1.03-3.79-.56-1.74,4.47-.94,4.59-.92h0c.1,0,5.22.04,4.37,1.67Z"/>
        <path class="cls-7" d="M43.79,41.52c-.12,0-.24,0-.36-.02-3.12-.26-3.76-3.56-4.1-5.33-.07-.38-.14-.71-.2-.92-.15-.46,0-.77.16-.95.8-.94,3.83-.56,4.78-.41.72,0,3.98.09,4.64,1.19.12.2.22.54,0,.97,0,0,0,0,0,0-.1.2-.22.51-.35.87-.61,1.62-1.71,4.59-4.56,4.59ZM41.64,34.37c-.89,0-1.62.11-1.84.37-.05.05-.09.13-.03.31.08.25.15.6.23,1,.33,1.71.88,4.57,3.49,4.79,2.61.22,3.63-2.51,4.24-4.14.14-.38.27-.72.39-.95.08-.16.06-.25.02-.31-.35-.59-2.61-.86-4.1-.87-.01,0-.02,0-.03,0,0,0-.01,0-.02,0-.78-.12-1.62-.19-2.34-.19ZM48.41,35.9h0,0Z"/>
        <g>
          <path class="cls-11" d="M46.77,39.48c-.72,1.03-.67,3.79-3.46,3.56-2.79-.23-2.29-2.95-2.83-4.09.81-.81,1.99-1.13,3.21-.51,1.31-.41,2.42.1,3.08,1.04Z"/>
          <path class="cls-7" d="M43.64,43.38c-.12,0-.23,0-.36-.02-2.33-.19-2.63-1.95-2.85-3.23-.07-.41-.14-.8-.26-1.05-.06-.13-.03-.28.07-.38.97-.97,2.26-1.2,3.47-.63,1.3-.36,2.53.09,3.33,1.2.08.12.08.27,0,.39-.16.23-.29.6-.43.99-.4,1.16-.95,2.72-2.98,2.72ZM40.87,39.03c.1.29.16.63.22.99.21,1.24.43,2.52,2.24,2.67,1.81.15,2.23-1.07,2.65-2.26.12-.34.23-.67.38-.94-.65-.79-1.58-1.06-2.58-.74-.08.03-.18.02-.25-.02-.93-.48-1.88-.36-2.66.3Z"/>
        </g>
        <path class="cls-7" d="M44.37,38.3c-.49.09-.86,2.26-.86,2.26,0,0,0-2.2-.47-2.37h.67s.66.11.66.11Z"/>
      </g>
      <path class="cls-13" d="M50.43,33.84c-1.83,3.59-4.69,2.93-6.46,1.17-2.03,1.44-4.97,1.62-6.18-2.22,0,0,1.17-4.37,6.69-3.91,5.52.46,5.95,4.96,5.95,4.96Z"/>
      <path class="cls-6" d="M49.41,33.68c-.71,1.26-1.58,1.86-2.58,1.77-.71-.06-1.5-.47-2.16-1.13l-.59-.59-.68.48c-.76.54-1.61.82-2.32.76-1-.08-1.76-.81-2.25-2.18.98,1.61,4.59,1.49,4.38-1.2-.02-.22.81-.38,1.07-.36.26.02,1.05.31.99.53-.64,2.62,2.89,3.34,4.13,1.91Z"/>
      <path class="cls-7" d="M50.43,33.84c-1.13,3.33-4.34,3.9-6.78,1.49,0,0,.58.05.58.05-2.81,1.98-5.88.88-6.44-2.59.82,1.79,2.18,3.23,4.28,2.65.7-.18,1.36-.57,1.94-1.01,0,0,.27.27.27.27,2.26,2.18,4.45,1.66,6.14-.85h0Z"/>
      <g>
        <path class="cls-7" d="M47.58,29.87c-.46,1.01-1.66,1.67-2.5,2.03-.55.23-1.18.18-1.69-.14-.77-.49-1.84-1.34-2.12-2.42-.33-1.23,2.7-1.17,3.27-1.13.57.05,3.56.5,3.04,1.65Z"/>
        <g class="cls-5">
          <path class="cls-12" d="M45.8,28.93c-.28.4-1.34.3-1.34.3,0,0-1.06-.08-1.27-.52-.15-.32,1.1-.26,1.34-.24.24.02,1.48.17,1.28.46Z"/>
        </g>
      </g>
      <path class="cls-7" d="M45.33,31.79s-1.14.63-1.22,1.53c.07-.9-.94-1.71-.94-1.71l.53-1.5.61.85.74-.74.28,1.56Z"/>
    </g>
  </g>
</svg>