<?xml version="1.0" encoding="utf-8"?>
<!-- Generator: Adobe Illustrator 28.1.0, SVG Export Plug-In . SVG Version: 6.00 Build 0)  -->
<svg version="1.1" id="Layer_1" xmlns="http://www.w3.org/2000/svg" xmlns:xlink="http://www.w3.org/1999/xlink" x="0px" y="0px"
	 viewBox="0 0 285.08 268.52" style="enable-background:new 0 0 285.08 268.52;" xml:space="preserve">
<style type="text/css">
	.st0{fill:#FABE67;}
	.st1{fill:#FFA940;}
	.st2{fill:#F47B38;}
	.st3{opacity:0.5;}
	.st4{fill:#FFFFFF;}
	.st5{fill:#E65A1B;}
	.st6{fill:#F5CFB3;}
	.st7{fill:#FFEFE5;}
	.st8{fill:#512717;}
	.st9{fill:#603D33;}
	.st10{fill:#543129;}
	.st11{fill:#8D4226;}
	.st12{fill:#A6512B;}
	.st13{fill:#8A381A;}
	.st14{opacity:0.2;}
</style>
<g>
	<g>
		<g>
			<path class="st0" d="M209.26,220.1c41.96,0,22.12,38.61,47.93,40.6c21.55,1.66,30.25-30.84,17.99-47.3
				c-20.28-27.23-63.83-7.22-90.13,6.7L209.26,220.1z"/>
		</g>
		<g>
			<path class="st1" d="M276.66,248.97c-3.95,7.35-10.63,12.41-19.47,11.73c-25.81-1.99-5.96-40.6-47.93-40.6h-24.21
				c17.09-9.04,41.44-20.65,61.98-20.21c11.08,0.23,21.05,3.97,28.15,13.52C282.41,223.11,282.35,238.39,276.66,248.97z"/>
		</g>
		<g>
			<path class="st2" d="M276.66,248.96c-3.95,7.35-10.63,12.41-19.47,11.73c-16.74-1.29-14.28-17.99-21.92-29.56
				c-4.14-6.27-11.25-11.04-26.01-11.04h-24.21c17.09-9.04,41.44-20.65,61.98-20.21c11.08,0.23,21.05,3.97,28.15,13.52
				c2.08,2.79,3.55,6.04,4.46,9.5C281.9,231.49,280.71,241.43,276.66,248.96z"/>
		</g>
		<g class="st3">
			<path class="st4" d="M276.66,248.97c-2.66,4.94-6.55,8.85-11.5,10.67c3.03-2.09,5.51-5.05,7.38-8.53
				c5.4-10.04,5.73-24.33-0.45-34.06c-0.1,0.23-0.23,0.45-0.39,0.64c-1.56,1.81-5.45,1-8.7-1.79c-3.24-2.8-4.61-6.53-3.05-8.34
				c0.35-0.4,0.81-0.67,1.35-0.83c-5.47-3.17-11.73-4.57-18.39-4.71c-18.63-0.39-40.42,9.13-57.07,17.66
				c17.04-8.97,40.97-20.23,61.19-19.8c11.08,0.23,21.05,3.97,28.15,13.52C282.41,223.11,282.35,238.39,276.66,248.97z"/>
		</g>
		<g>
			<path class="st5" d="M276.66,248.97c-3.95,7.35-10.63,12.41-19.47,11.73c-25.81-1.99-5.96-40.6-47.93-40.6h-24.21
				c17.09-9.04,41.44-20.65,61.98-20.21c-2.13,3.53-6.63,10.02-13.45,15.16c-3.97,2.98,8.01,6.12,12.45,21.22
				c4.15,14.14,7.95,16.43,14.79,18.16C264.41,255.33,271.11,254.17,276.66,248.97z"/>
		</g>
		<g>
			<path class="st6" d="M276.66,248.96c-3.95,7.35-10.63,12.41-19.47,11.73c-16.74-1.29-14.28-17.99-21.92-29.56
				c1.32-2.4,2.86-4.59,4.58-6.54c2.32,2.82,4.68,6.56,6.18,11.66c4.15,14.14,7.95,16.43,14.79,18.16
				C264.41,255.32,271.11,254.17,276.66,248.96z"/>
		</g>
		<g>
			<path class="st7" d="M276.66,248.96c-3.95,7.35-10.63,12.41-19.47,11.73c-16.74-1.29-14.28-17.99-21.92-29.56
				c9.57-17.51,31.34-23.87,44.38-8.24C281.9,231.49,280.71,241.43,276.66,248.96z"/>
		</g>
		<g>
			<path class="st6" d="M276.66,248.96c-3.95,7.35-10.63,12.41-19.47,11.73c-16.74-1.29-14.28-17.99-21.92-29.56
				c1.32-2.4,2.86-4.59,4.58-6.54c2.32,2.82,4.68,6.56,6.18,11.66c4.15,14.14,7.95,16.43,14.79,18.16
				C264.41,255.32,271.11,254.17,276.66,248.96z"/>
		</g>
		<g>
			<path class="st8" d="M258.73,263.2c-0.57,0-1.15-0.02-1.73-0.07c-12.89-0.99-15.88-10.12-18.78-18.95
				c-3.65-11.13-7.09-21.64-28.96-21.64h-24.21c-1.12,0-2.11-0.77-2.38-1.86c-0.27-1.09,0.24-2.23,1.23-2.75
				c30.09-15.92,72.49-33.86,93.24-6c7.44,10,8.1,26.54,1.52,38.47C274.14,258.61,266.94,263.2,258.73,263.2z M195.2,217.65h14.06
				c25.42,0,29.97,13.87,33.62,25.01c2.72,8.3,4.87,14.85,14.5,15.59c9.5,0.74,14.72-6.08,17-10.21
				c5.71-10.36,5.22-24.63-1.16-33.18C256.59,192.53,222.6,204.13,195.2,217.65z"/>
		</g>
		<g>
			<path class="st8" d="M259.03,243.71c1.37,6.15,1.78,13.29-2.54,18.5c0,0-3.3-3.62-3.3-3.62c0.92-0.61,1.79-1.49,2.53-2.56
				C258.02,252.44,258.84,247.94,259.03,243.71L259.03,243.71z"/>
		</g>
		<g>
			<path class="st8" d="M272.4,241.46c1.89,6.76,0.99,14.92-4.7,19.72c0,0-2.76-4.04-2.76-4.04c1.17-0.65,2.37-1.41,3.31-2.49
				C271.37,251.15,272.46,246.11,272.4,241.46L272.4,241.46z"/>
		</g>
	</g>
	<g>
		<g>
			<path class="st0" d="M75.82,220.1c-41.96,0-22.12,38.61-47.93,40.6C6.34,262.35-2.35,229.85,9.9,213.4
				c20.28-27.23,63.83-7.22,90.13,6.7L75.82,220.1z"/>
		</g>
		<g>
			<path class="st1" d="M8.42,248.97c3.95,7.35,10.63,12.41,19.47,11.73c25.81-1.99,5.96-40.6,47.93-40.6h24.21
				c-17.09-9.04-41.44-20.65-61.98-20.21c-11.08,0.23-21.05,3.97-28.15,13.52C2.68,223.11,2.74,238.39,8.42,248.97z"/>
		</g>
		<g>
			<path class="st2" d="M8.42,248.96c3.95,7.35,10.63,12.41,19.47,11.73c16.74-1.29,14.28-17.99,21.92-29.56
				c4.14-6.27,11.25-11.04,26.01-11.04h24.21c-17.09-9.04-41.44-20.65-61.98-20.21c-11.08,0.23-21.05,3.97-28.15,13.52
				c-2.08,2.79-3.55,6.04-4.46,9.5C3.18,231.49,4.37,241.43,8.42,248.96z"/>
		</g>
		<g class="st3">
			<path class="st4" d="M8.42,248.97c2.66,4.94,6.55,8.85,11.5,10.67c-3.03-2.09-5.51-5.05-7.38-8.53
				c-5.4-10.04-5.73-24.33,0.45-34.06c0.1,0.23,0.23,0.45,0.39,0.64c1.56,1.81,5.45,1,8.7-1.79c3.24-2.8,4.61-6.53,3.05-8.34
				c-0.35-0.4-0.81-0.67-1.35-0.83c5.47-3.17,11.73-4.57,18.39-4.71c18.63-0.39,40.42,9.13,57.07,17.66
				c-17.04-8.97-40.97-20.23-61.19-19.8c-11.08,0.23-21.05,3.97-28.15,13.52C2.68,223.11,2.74,238.39,8.42,248.97z"/>
		</g>
		<g>
			<path class="st5" d="M8.42,248.97c3.95,7.35,10.63,12.41,19.47,11.73c25.81-1.99,5.96-40.6,47.93-40.6h24.21
				c-17.09-9.04-41.44-20.65-61.98-20.21c2.13,3.53,6.63,10.02,13.45,15.16c3.97,2.98-8.01,6.12-12.45,21.22
				c-4.15,14.14-7.95,16.43-14.79,18.16C20.67,255.33,13.97,254.17,8.42,248.97z"/>
		</g>
		<g>
			<path class="st6" d="M8.42,248.96c3.95,7.35,10.63,12.41,19.47,11.73c16.74-1.29,14.28-17.99,21.92-29.56
				c-1.32-2.4-2.86-4.59-4.58-6.54c-2.32,2.82-4.68,6.56-6.18,11.66c-4.15,14.14-7.95,16.43-14.79,18.16
				C20.67,255.32,13.97,254.17,8.42,248.96z"/>
		</g>
		<g>
			<path class="st7" d="M8.42,248.96c3.95,7.35,10.63,12.41,19.47,11.73c16.74-1.29,14.28-17.99,21.92-29.56
				c-9.57-17.51-31.34-23.87-44.38-8.24C3.18,231.49,4.37,241.43,8.42,248.96z"/>
		</g>
		<g>
			<path class="st6" d="M8.42,248.96c3.95,7.35,10.63,12.41,19.47,11.73c16.74-1.29,14.28-17.99,21.92-29.56
				c-1.32-2.4-2.86-4.59-4.58-6.54c-2.32,2.82-4.68,6.56-6.18,11.66c-4.15,14.14-7.95,16.43-14.79,18.16
				C20.67,255.32,13.97,254.17,8.42,248.96z"/>
		</g>
		<g>
			<path class="st8" d="M26.36,263.2c-8.21,0-15.41-4.59-19.93-12.79c-6.58-11.93-5.93-28.47,1.52-38.47
				c20.75-27.87,63.15-9.92,93.24,6c0.99,0.53,1.5,1.66,1.23,2.75c-0.27,1.09-1.25,1.86-2.38,1.86H75.82
				c-21.87,0-25.32,10.51-28.96,21.64c-2.89,8.83-5.88,17.96-18.78,18.95C27.5,263.18,26.93,263.2,26.36,263.2z M39.21,202.3
				c-10.92,0-20.57,3.46-27.34,12.56c-6.37,8.56-6.87,22.82-1.16,33.18c2.28,4.13,7.5,10.94,17,10.21
				c9.63-0.74,11.78-7.3,14.5-15.59c3.65-11.14,8.19-25.01,33.62-25.01h14.06C73.65,209.64,55.09,202.3,39.21,202.3z"/>
		</g>
		<g>
			<path class="st8" d="M26.05,243.71c0.19,4.24,1.01,8.74,3.3,12.31c0.74,1.08,1.61,1.96,2.53,2.56l-3.3,3.62
				C24.27,257,24.68,249.85,26.05,243.71L26.05,243.71z"/>
		</g>
		<g>
			<path class="st8" d="M12.68,241.46c-0.07,4.65,1.03,9.69,4.15,13.18c0.95,1.09,2.14,1.85,3.31,2.49l-2.76,4.04
				C11.69,256.38,10.79,248.22,12.68,241.46L12.68,241.46z"/>
		</g>
	</g>
	<g>
		<g>
			<g>
				<g>
					<path class="st7" d="M126.32,47.01c-27.48-22.09-66-46.54-78.79-37.29c-12.36,8.94-14.82,53.67-6.5,78
						c-7.19,3.87-7.67,11.28-6.63,11.32c11.1,0.42,16.08,3.24,19.53,6.55L126.32,47.01z"/>
				</g>
				<g>
					<path class="st7" d="M126.31,47.01l-5.4,4.37L53.94,105.6c-3.45-3.31-8.42-6.13-19.53-6.55c-0.36-0.01-0.54-0.92-0.32-2.27
						c0.42-2.51,2.26-6.53,6.94-9.05c-0.22-0.64-0.43-1.29-0.63-1.96c-0.38-1.22-0.72-2.48-1.04-3.79
						c-6.23-25.05-3.27-63.99,8.17-72.26C60.32,0.47,98.84,24.92,126.31,47.01z"/>
				</g>
				<g>
					<path class="st6" d="M120.91,51.38L53.94,105.6c-3.45-3.31-8.42-6.13-19.53-6.55c-0.36-0.01-0.54-0.92-0.32-2.27
						c4.12-0.01,7.61,0.28,10.12-1.65c2.94-2.26-0.24-6.2-3.81-9.36c-0.38-1.22-0.72-2.48-1.04-3.79c1.79-0.05,3.36-0.73,3.51-2.91
						c0.34-5.21-7.57-51.31,7.4-61.4C61.04,10.4,99.93,36.28,120.91,51.38z"/>
				</g>
				<g>
					<path class="st8" d="M53.94,108.05c-0.61,0-1.23-0.23-1.7-0.68c-2.78-2.67-7.09-5.46-17.93-5.87
						c-0.97-0.04-2.25-0.68-2.64-2.38c-0.58-2.5,0.86-8.55,6.44-12.46C30.3,61.31,32.88,17.3,46.1,7.74
						C63.77-5.05,117.3,36.62,127.85,45.1c0.58,0.46,0.91,1.16,0.91,1.9c0,0.74-0.33,1.44-0.91,1.91L55.48,107.5
						C55.03,107.87,54.48,108.05,53.94,108.05z M36.6,96.71c9.29,0.64,14.16,3.06,17.41,5.68l68.4-55.37
						C87.91,19.71,57.91,5.23,48.97,11.7c-10.8,7.82-14,50.7-5.61,75.23c0.39,1.13-0.1,2.38-1.16,2.95
						C38.55,91.84,37.06,94.89,36.6,96.71z"/>
				</g>
				<g>
					<path class="st9" d="M55.61,91.31c0,0-9.48-19.08-8.24-47.1c0.45-10.15,3.68-20.62,8.58-21.06
						C62.92,22.5,86.9,39.33,96.5,57.92c3.42,6.63-22.05,20.61-22.05,20.61L55.61,91.31z"/>
				</g>
				<g>
					<path class="st9" d="M74.45,78.52L55.61,91.31c0,0-4.86-9.77-7.17-25.6c-0.92-6.29-1.43-13.53-1.08-21.5
						c0.2-4.4,0.92-8.86,2.07-12.54c1.5-4.8,3.74-8.27,6.51-8.53C62.92,22.5,86.9,39.33,96.5,57.92
						C99.92,64.55,74.45,78.52,74.45,78.52z"/>
				</g>
				<g>
					<path class="st10" d="M74.45,78.52L55.61,91.31c0,0-4.86-9.77-7.17-25.6c2.6,0.07,5.9-0.68,8.22-4.18
						c7.17-10.79,6.61-37.75-7.23-29.86c1.5-4.8,3.74-8.27,6.51-8.53C62.92,22.5,86.9,39.33,96.5,57.92
						C99.92,64.55,74.45,78.52,74.45,78.52z"/>
				</g>
				<g>
					<path class="st8" d="M55.61,93.76c-0.21,0-0.42-0.03-0.62-0.08c-0.68-0.18-1.26-0.65-1.57-1.28c-0.4-0.8-9.75-19.97-8.5-48.3
						c0.37-8.36,3.06-22.69,10.8-23.39c0.17-0.02,0.35-0.02,0.53-0.02c8.8,0,32.83,17.55,42.42,36.11
						c2.78,5.39-4.65,11.65-10.48,15.89c-5.65,4.11-11.59,7.44-12.47,7.93L56.98,93.34C56.57,93.61,56.09,93.76,55.61,93.76z
						 M56.43,25.57c-0.09,0-0.18,0-0.26,0.01c-2.32,0.21-5.86,7.44-6.36,18.73c-0.94,21.18,4.46,37.27,6.87,43.31L73.07,76.5
						c0.06-0.04,0.13-0.08,0.2-0.12c0.06-0.03,6.33-3.49,12.08-7.67c8.28-6.03,9.28-9.07,8.98-9.66
						C85.1,41.19,62.31,25.57,56.43,25.57z"/>
				</g>
				<g>
					<path class="st8" d="M55.61,93.76c-0.21,0-0.42-0.03-0.62-0.08c-0.68-0.18-1.26-0.65-1.57-1.28c-0.4-0.8-9.75-19.98-8.5-48.3
						c0.37-8.36,3.06-22.69,10.8-23.39c5.48-0.5,15.62,6.15,22.64,12c4.58,3.83,11.15,10,16.46,17.72c1.44,2.08,2.74,4.23,3.85,6.37
						c2.78,5.39-4.65,11.65-10.48,15.89c-5.65,4.11-11.59,7.44-12.47,7.93L56.98,93.34C56.57,93.61,56.09,93.76,55.61,93.76z
						 M56.38,25.57c-0.08,0-0.15,0-0.21,0.01c-2.32,0.21-5.86,7.44-6.36,18.73c-0.94,21.17,4.46,37.26,6.87,43.31L73.07,76.5
						c0.06-0.04,0.13-0.08,0.2-0.12c0.06-0.03,6.33-3.49,12.08-7.67c8.28-6.03,9.28-9.07,8.98-9.66c-1.01-1.96-2.2-3.92-3.53-5.84
						c-5.01-7.27-11.23-13.11-15.57-16.74C66.09,28.85,58.85,25.57,56.38,25.57z"/>
				</g>
				<g>
					<path class="st7" d="M92.8,51.81c-4.22,2.77-9.15,6.13-11.35,8.07c-4.21,3.71-16.37,0.69-17.88-4.56
						c-2.17-7.51,7.29-8.55,7.29-8.55s-6.72-5.42-2.73-10.51c1.9-2.44,5.21-2.53,8.65-1.68C82.56,39.41,88.38,45.38,92.8,51.81z"/>
				</g>
				<g>
					<path class="st7" d="M92.8,51.81c-4.22,2.77-9.15,6.13-11.35,8.07c-4.21,3.71-16.37,0.69-17.88-4.56
						c-0.17-0.58-0.26-1.12-0.3-1.62v-0.01c-0.26-3.43,2.23-5.19,4.43-6.08c1.67-0.67,3.17-0.84,3.17-0.84S69.19,45.4,68,43.4
						c-1.17-1.99-1.84-4.61,0.14-7.15c0.83-1.07,1.94-1.69,3.22-1.97c1.61-0.36,3.51-0.18,5.43,0.3
						C82.56,39.41,88.38,45.38,92.8,51.81z"/>
				</g>
				<g>
					<path class="st6" d="M92.8,51.81c-4.22,2.77-9.15,6.13-11.35,8.07c-4.21,3.71-16.37,0.69-17.88-4.56
						c-0.17-0.58-0.26-1.12-0.3-1.62c1.47,1.67,3.75,3.43,6.09,1.9c5.17-3.4,0.35-6.82-1.66-7.99c1.67-0.67,3.17-0.84,3.17-0.84
						S69.19,45.4,68,43.4c2.42,0.6,7.8,1.47,8.93-2.19c1.18-3.8-3.95-6.26-5.57-6.93c1.61-0.36,3.51-0.18,5.43,0.3
						C82.56,39.41,88.38,45.38,92.8,51.81z"/>
				</g>
				<g>
					<path class="st8" d="M75.88,63.35c-1.95,0-3.92-0.33-5.56-0.81c-4.49-1.31-7.67-3.82-8.5-6.71c-0.9-3.12-0.07-5.3,0.78-6.58
						c1.21-1.81,3.11-2.87,4.77-3.49c-2.13-2.78-3.64-6.84-0.67-10.63c1.47-1.89,4.49-3.83,10.54-2.33
						c0.27,0.07,0.52,0.19,0.73,0.37c4.55,3.8,11.07,9.94,16.35,17.59c0.28,0.41,0.39,0.91,0.29,1.39
						c-0.09,0.48-0.38,0.91-0.79,1.18c-5.58,3.67-9.43,6.4-11.14,7.91C80.94,62.79,78.42,63.35,75.88,63.35z M73.23,35.93
						c-1.66,0-2.88,0.49-3.64,1.46c-2.82,3.6,2.22,7.78,2.44,7.96c0.57,0.47,0.81,1.24,0.6,1.95c-0.21,0.71-0.82,1.23-1.56,1.31
						c-1.09,0.13-4.2,0.86-5.43,2.71c-0.62,0.93-0.71,2.07-0.3,3.51c0.46,1.6,2.87,3.29,6,4.2c3.62,1.06,7.36,0.84,8.89-0.51
						c1.69-1.49,5.03-3.9,9.96-7.18c-4.7-6.43-10.23-11.65-14.27-15.05C74.93,36.04,74.03,35.93,73.23,35.93z"/>
				</g>
			</g>
			<g>
				<polygon class="st8" points="71.36,45 79.75,49.21 70.39,48.54 71.36,45 				"/>
			</g>
		</g>
		<g>
			<g>
				<g>
					<path class="st7" d="M159,47.01c27.48-22.09,66-46.54,78.79-37.29c12.36,8.94,14.82,53.67,6.5,78
						c7.19,3.87,7.67,11.28,6.63,11.32c-11.1,0.42-16.08,3.24-19.53,6.55L159,47.01z"/>
				</g>
				<g>
					<path class="st7" d="M159,47.01l5.4,4.37l66.97,54.22c3.45-3.31,8.42-6.13,19.53-6.55c0.36-0.01,0.54-0.92,0.32-2.27
						c-0.42-2.51-2.26-6.53-6.94-9.05c0.22-0.64,0.43-1.29,0.63-1.96c0.38-1.22,0.72-2.48,1.04-3.79
						c6.23-25.05,3.27-63.99-8.17-72.26C225,0.47,186.48,24.92,159,47.01z"/>
				</g>
				<g>
					<path class="st6" d="M164.4,51.38l66.97,54.22c3.45-3.31,8.42-6.13,19.53-6.55c0.36-0.01,0.54-0.92,0.32-2.27
						c-4.12-0.01-7.61,0.28-10.12-1.65c-2.94-2.26,0.24-6.2,3.81-9.36c0.38-1.22,0.72-2.48,1.04-3.79
						c-1.79-0.05-3.36-0.73-3.51-2.91c-0.34-5.21,7.57-51.31-7.4-61.4C224.27,10.4,185.39,36.28,164.4,51.38z"/>
				</g>
				<g>
					<path class="st8" d="M231.37,108.05c-0.54,0-1.09-0.18-1.54-0.55l-72.38-58.59c-0.58-0.47-0.91-1.17-0.91-1.91
						c0-0.74,0.34-1.44,0.91-1.9c10.55-8.48,64.08-50.16,81.76-37.37c13.22,9.56,15.8,53.58,7.98,78.92
						c5.58,3.92,7.02,9.97,6.44,12.46c-0.39,1.69-1.67,2.34-2.64,2.38c-10.84,0.41-15.14,3.2-17.93,5.87
						C232.6,107.82,231.99,108.05,231.37,108.05z M162.91,47.02l68.4,55.37c3.25-2.62,8.12-5.04,17.41-5.68
						c-0.46-1.82-1.95-4.87-5.6-6.83c-1.06-0.57-1.54-1.82-1.16-2.95c8.39-24.53,5.18-67.41-5.62-75.23
						C227.4,5.23,197.41,19.71,162.91,47.02z"/>
				</g>
				<g>
					<path class="st9" d="M229.71,91.31c0,0,9.48-19.08,8.24-47.1c-0.45-10.15-3.68-20.62-8.58-21.06
						c-6.98-0.64-30.95,16.18-40.55,34.77c-3.42,6.63,22.05,20.61,22.05,20.61L229.71,91.31z"/>
				</g>
				<g>
					<path class="st9" d="M210.87,78.52l18.84,12.79c0,0,4.86-9.77,7.17-25.6c0.92-6.29,1.43-13.53,1.08-21.5
						c-0.2-4.4-0.92-8.86-2.07-12.54c-1.5-4.8-3.74-8.27-6.51-8.53c-6.98-0.64-30.95,16.18-40.56,34.78
						C185.39,64.55,210.87,78.52,210.87,78.52z"/>
				</g>
				<g>
					<path class="st10" d="M210.87,78.52l18.84,12.79c0,0,4.86-9.77,7.17-25.6c-2.6,0.07-5.9-0.68-8.22-4.18
						c-7.17-10.79-6.61-37.75,7.23-29.86c-1.5-4.8-3.74-8.27-6.51-8.53c-6.98-0.64-30.95,16.18-40.56,34.78
						C185.39,64.55,210.87,78.52,210.87,78.52z"/>
				</g>
				<g>
					<path class="st8" d="M229.71,93.76c-0.49,0-0.97-0.14-1.37-0.42l-18.75-12.72c-0.88-0.49-6.81-3.81-12.47-7.93
						c-5.83-4.24-13.26-10.51-10.48-15.89c9.79-18.95,34.6-36.84,42.95-36.09c7.74,0.71,10.43,15.04,10.8,23.39
						c1.25,28.33-8.1,47.5-8.5,48.3c-0.31,0.63-0.89,1.1-1.57,1.28C230.13,93.73,229.92,93.76,229.71,93.76z M228.89,25.57
						c-5.88,0-28.68,15.62-37.89,33.47c-0.3,0.59,0.69,3.63,8.97,9.66c5.75,4.19,12.02,7.64,12.08,7.67
						c0.07,0.04,0.13,0.08,0.2,0.12l16.39,11.12c2.41-6.04,7.81-22.13,6.87-43.31c-0.5-11.29-4.04-18.52-6.36-18.73
						C229.07,25.57,228.98,25.57,228.89,25.57z"/>
				</g>
				<g>
					<path class="st8" d="M229.71,93.76c-0.49,0-0.97-0.14-1.37-0.42l-18.75-12.72c-0.88-0.49-6.81-3.81-12.47-7.93
						c-5.83-4.24-13.26-10.5-10.48-15.89c1.11-2.15,2.41-4.3,3.86-6.38c5.31-7.71,11.88-13.89,16.46-17.71
						c7.02-5.85,17.16-12.5,22.64-12c7.74,0.7,10.43,15.03,10.8,23.39c1.25,28.33-8.1,47.5-8.5,48.3c-0.31,0.63-0.89,1.1-1.57,1.28
						C230.13,93.73,229.92,93.76,229.71,93.76z M228.94,25.57c-2.48,0-9.71,3.28-18.84,10.89c-4.34,3.63-10.57,9.47-15.57,16.73
						c-1.33,1.92-2.52,3.88-3.54,5.85c-0.3,0.59,0.69,3.63,8.98,9.66c5.75,4.19,12.02,7.64,12.08,7.67c0.07,0.04,0.13,0.08,0.2,0.12
						l16.39,11.12c2.41-6.04,7.81-22.13,6.87-43.31c-0.5-11.29-4.04-18.52-6.35-18.73C229.08,25.58,229.01,25.57,228.94,25.57z"/>
				</g>
				<g>
					<path class="st7" d="M192.51,51.81c4.22,2.77,9.15,6.13,11.35,8.07c4.21,3.71,16.37,0.69,17.88-4.56
						c2.17-7.51-7.29-8.55-7.29-8.55s6.72-5.42,2.73-10.51c-1.9-2.44-5.21-2.53-8.65-1.68C202.75,39.41,196.94,45.38,192.51,51.81z"
						/>
				</g>
				<g>
					<path class="st7" d="M192.51,51.81c4.22,2.77,9.15,6.13,11.35,8.07c4.21,3.71,16.37,0.69,17.88-4.56
						c0.17-0.58,0.26-1.12,0.3-1.62v-0.01c0.26-3.43-2.23-5.19-4.43-6.08c-1.67-0.67-3.17-0.84-3.17-0.84s1.69-1.37,2.87-3.36
						c1.17-1.99,1.84-4.61-0.14-7.15c-0.83-1.07-1.94-1.69-3.22-1.97c-1.61-0.36-3.51-0.18-5.43,0.3
						C202.75,39.41,196.94,45.38,192.51,51.81z"/>
				</g>
				<g>
					<path class="st6" d="M192.51,51.81c4.22,2.77,9.15,6.13,11.35,8.07c4.21,3.71,16.37,0.69,17.88-4.56
						c0.17-0.58,0.26-1.12,0.3-1.62c-1.47,1.67-3.75,3.43-6.09,1.9c-5.17-3.4-0.35-6.82,1.66-7.99c-1.67-0.67-3.17-0.84-3.17-0.84
						s1.69-1.37,2.87-3.36c-2.42,0.6-7.8,1.47-8.93-2.19c-1.18-3.8,3.95-6.26,5.57-6.93c-1.61-0.36-3.51-0.18-5.43,0.3
						C202.75,39.41,196.94,45.38,192.51,51.81z"/>
				</g>
				<g>
					<path class="st8" d="M209.43,63.35c-2.54,0-5.05-0.56-6.79-2.1c-1.71-1.51-5.56-4.24-11.14-7.91c-0.41-0.27-0.7-0.7-0.79-1.18
						c-0.1-0.48,0.01-0.99,0.29-1.39c5.28-7.66,11.8-13.79,16.35-17.59c0.21-0.18,0.46-0.31,0.73-0.37
						c6.04-1.5,9.06,0.44,10.54,2.33c2.96,3.79,1.45,7.85-0.67,10.63c1.66,0.62,3.56,1.68,4.77,3.49c0.85,1.28,1.68,3.45,0.78,6.58
						c-0.83,2.89-4.01,5.4-8.5,6.71C213.35,63.02,211.38,63.35,209.43,63.35z M195.11,51.32c4.93,3.28,8.28,5.69,9.97,7.18
						c1.53,1.35,5.27,1.57,8.9,0.51c3.13-0.91,5.54-2.6,6-4.2c0.42-1.44,0.32-2.59-0.3-3.52c-1.24-1.85-4.41-2.59-5.43-2.7
						c-0.74-0.08-1.35-0.6-1.56-1.31c-0.21-0.71,0.03-1.48,0.61-1.94c0.21-0.17,5.25-4.35,2.44-7.95c-1.12-1.44-3.26-1.82-6.35-1.12
						C205.34,39.67,199.81,44.89,195.11,51.32z"/>
				</g>
			</g>
			<g>
				<polygon class="st8" points="214.93,48.54 205.56,49.21 213.96,45 214.93,48.54 				"/>
			</g>
		</g>
		<g>
			<path class="st2" d="M142.66,35.66c25.38,0,80.85,6.73,100.34,68.54c2.78,8.87,6.42,30.38,20.66,45.52
				c1.49,1.59,2.24,7.83-9.54,9.16c3.37,6.59,8.93,25.73,5.72,33.01c-1.72,3.91-7.28,3.57-10.02,0.74
				c1.29,11.26-2.7,28.95-9.85,28.95c-3.99,0-9.66-3.62-15.37-2.27c-6.46,1.52-38.1,16.62-81.95,16.62s-75.48-15.1-81.95-16.62
				c-5.72-1.35-11.39,2.27-15.37,2.27c-7.15,0-11.14-17.69-9.85-28.95c-2.74,2.83-8.3,3.17-10.02-0.74
				c-3.21-7.28,2.36-26.41,5.72-33.01c-11.77-1.33-11.03-7.57-9.54-9.16c14.24-15.14,17.87-36.64,20.66-45.52
				C61.81,42.39,117.28,35.66,142.66,35.66z"/>
		</g>
		<g>
			<path class="st2" d="M142.66,35.66c25.38,0,80.85,6.73,100.34,68.54c2.78,8.87,6.42,30.38,20.66,45.52
				c1.49,1.59,2.24,7.83-9.54,9.16c3.37,6.59,8.93,25.73,5.72,33.01c-1.72,3.91-7.28,3.57-10.02,0.74
				c1.29,11.26-2.7,28.95-9.85,28.95c-3.99,0-9.66-3.62-15.37-2.27c-6.46,1.52-38.1,16.62-81.95,16.62s-75.48-15.1-81.95-16.62
				c-5.72-1.35-11.39,2.27-15.37,2.27c-7.15,0-11.14-17.69-9.85-28.95c-2.74,2.83-8.3,3.17-10.02-0.74
				c-3.21-7.28,2.36-26.41,5.72-33.01c-11.77-1.33-11.03-7.57-9.54-9.16c14.24-15.14,17.87-36.64,20.66-45.52
				C61.81,42.39,117.28,35.66,142.66,35.66z"/>
		</g>
		<g>
			<path class="st2" d="M254.13,158.88c3.37,6.59,8.93,25.72,5.72,33.01c-1.72,3.91-7.28,3.57-10.02,0.74
				c1.29,11.26-2.7,28.95-9.85,28.95c-3.99,0-9.66-3.62-15.38-2.28c-4.16,0.98-18.77,7.59-40.36,12.18
				c-11.92,2.53-25.98,4.45-41.59,4.45s-29.66-1.91-41.59-4.45c-21.59-4.58-36.2-11.2-40.36-12.18c-5.72-1.34-11.38,2.28-15.37,2.28
				c-7.15,0-11.14-17.7-9.85-28.95c-2.74,2.83-8.3,3.17-10.02-0.74c-3.21-7.28,2.36-26.41,5.73-33.01
				c-11.77-1.34-11.03-7.58-9.54-9.16c14.24-15.14,17.88-36.64,20.66-45.52c19.49-61.81,74.97-68.54,100.34-68.54
				S223.51,42.39,243,104.2c2.79,8.87,6.41,30.38,20.66,45.52C265.16,151.3,265.9,157.54,254.13,158.88z"/>
		</g>
		<g class="st3">
			<path class="st4" d="M246.68,117.44c-1.88-1.94-3.18-3.73-3.68-5.35c-19.49-61.81-74.97-68.54-100.34-68.54
				s-80.85,6.73-100.34,68.54c-0.44,1.39-1.71,3.11-3.6,5.08c1.57-5.32,2.64-9.91,3.6-12.97c19.49-61.81,74.97-68.54,100.34-68.54
				S223.51,42.39,243,104.2C243.98,107.32,245.07,112.01,246.68,117.44z"/>
		</g>
		<g>
			<path class="st2" d="M259.85,191.89c-1.73,3.91-7.28,3.57-10.02,0.74c1.29,11.26-2.71,28.95-9.85,28.95
				c-3.99,0-9.66-3.62-15.38-2.27c-6.46,1.52-38.1,16.62-81.95,16.62c-43.84,0-75.49-15.1-81.95-16.62
				c-5.72-1.35-11.39,2.27-15.38,2.27c-7.15,0-11.14-17.7-9.84-28.95c-2.75,2.83-8.3,3.17-10.02-0.74
				c-1.55-3.51-1.06-9.79,0.25-16.08c-0.05,0.4-1.49,13.6,4.31,13.22c4.54-0.3,9.12-4.54,9.12-4.54s23.79,40.53,103.51,40.53
				s103.5-40.53,103.5-40.53s4.59,4.23,9.12,4.54c5.89,0.39,4.31-13.22,4.31-13.22h0.01C260.9,182.09,261.4,188.37,259.85,191.89z"
				/>
		</g>
		<g>
			<path class="st5" d="M259.85,191.89c-1.73,3.91-7.28,3.57-10.02,0.74c1.29,11.26-2.71,28.95-9.85,28.95
				c-3.99,0-9.66-3.62-15.38-2.27c-6.46,1.52-38.1,16.62-81.95,16.62c-43.84,0-75.49-15.1-81.95-16.62
				c-5.72-1.35-11.39,2.27-15.38,2.27c-7.15,0-11.14-17.7-9.84-28.95c-2.75,2.83-8.3,3.17-10.02-0.74
				c-1.55-3.51-1.06-9.79,0.25-16.08c-0.05,0.4-1.49,13.6,4.31,13.22c4.54-0.3,9.12-4.54,9.12-4.54s23.79,40.53,103.51,40.53
				s103.5-40.53,103.5-40.53s4.59,4.23,9.12,4.54c5.89,0.39,4.31-13.22,4.31-13.22h0.01C260.9,182.09,261.4,188.37,259.85,191.89z"
				/>
		</g>
		<g>
			<path class="st11" d="M118.12,234.37c-1.39-0.17-2.76-0.36-4.1-0.56c-0.59-0.09-1.16-0.17-1.74-0.26
				c-0.58-0.09-1.15-0.18-1.72-0.28c-1.67-0.28-3.3-0.57-4.91-0.87c-0.59-0.11-1.16-0.22-1.74-0.34c-0.54-0.11-1.07-0.22-1.6-0.32
				c-0.41-0.09-0.82-0.17-1.22-0.26c-8.58-4.21-15.84-10.26-21.31-17.23c5.67,2.26,12.05,4.31,19.18,6
				C103.89,226.28,110.95,230.71,118.12,234.37z"/>
		</g>
		<g>
			<path class="st11" d="M205.49,214.28c-5.48,6.96-12.75,13.01-21.34,17.22c-0.01,0-0.01,0.01-0.01,0.01
				c-1.57,0.34-3.19,0.66-4.84,0.96c-1.48,0.28-2.99,0.55-4.53,0.8c-0.57,0.09-1.14,0.19-1.72,0.28c-1.73,0.27-3.5,0.52-5.3,0.75
				c-0.2,0.03-0.41,0.05-0.62,0.07c7.17-3.65,14.23-8.08,19.18-14.1C193.45,218.58,199.82,216.53,205.49,214.28z"/>
		</g>
		<g>
			<path class="st6" d="M232.69,198.75c-6.18,10.83-16.49,20.66-29.76,27.9c-0.68,0.21-1.37,0.42-2.08,0.63
				c-0.57,0.17-1.14,0.33-1.72,0.5c-0.48,0.14-0.98,0.28-1.47,0.42c-0.77,0.22-1.55,0.43-2.36,0.65c-0.12,0.03-0.24,0.07-0.36,0.09
				c-0.92,0.25-1.86,0.49-2.82,0.73c-0.12,0.03-0.25,0.06-0.37,0.09c-0.81,0.2-1.63,0.4-2.46,0.6c-0.03,0.01-0.07,0.01-0.1,0.02
				c-0.49,0.11-1,0.24-1.5,0.35c-0.5,0.11-1.02,0.23-1.53,0.34c-0.66,0.15-1.33,0.3-2.01,0.44c-1.57,0.34-3.19,0.66-4.84,0.96
				c-1.48,0.28-2.99,0.55-4.53,0.8c-0.57,0.09-1.14,0.19-1.72,0.28c-1.73,0.27-3.5,0.52-5.3,0.75c-1.8,0.23-3.63,0.44-5.49,0.63
				c-0.59,0.06-1.18,0.11-1.77,0.17c-0.66,0.06-1.33,0.12-1.99,0.17c-0.52,0.05-1.06,0.09-1.59,0.12c-0.17,0.02-0.34,0.03-0.52,0.04
				c-1.86,0.13-3.75,0.24-5.67,0.32c-0.03,0.01-0.07,0.01-0.1,0.01c-0.63,0.02-1.26,0.05-1.89,0.07c-0.67,0.02-1.33,0.03-2.01,0.05
				c-0.67,0.02-1.35,0.03-2.03,0.03c-0.68,0-1.36,0.01-2.05,0.01c-0.69,0-1.37-0.01-2.05-0.01c-0.68-0.01-1.35-0.01-2.03-0.03
				c-0.67-0.02-1.35-0.03-2.01-0.05c-0.67-0.02-1.33-0.05-1.99-0.07c-2.47-0.11-4.91-0.26-7.29-0.44c-0.79-0.06-1.59-0.13-2.37-0.2
				c-0.63-0.06-1.25-0.12-1.88-0.18c-0.77-0.07-1.55-0.15-2.31-0.25c-2.29-0.26-4.54-0.55-6.73-0.87c-0.59-0.09-1.16-0.17-1.74-0.26
				c-0.58-0.09-1.15-0.18-1.72-0.28c-1.67-0.28-3.3-0.57-4.91-0.87c-0.59-0.11-1.16-0.22-1.74-0.34c-0.54-0.11-1.07-0.22-1.6-0.32
				c-1.06-0.22-2.1-0.44-3.13-0.67c-1.03-0.23-2.04-0.46-3.03-0.69c-0.05-0.01-0.1-0.02-0.15-0.03c-0.44-0.11-0.89-0.22-1.33-0.32
				c-0.79-0.19-1.56-0.38-2.32-0.58c-0.66-0.17-1.31-0.34-1.95-0.51c-0.46-0.12-0.92-0.25-1.37-0.37c-0.91-0.25-1.8-0.49-2.66-0.74
				c-0.63-0.18-1.26-0.36-1.87-0.55c-0.7-0.21-1.39-0.41-2.07-0.62c-13.26-7.23-23.57-17.04-29.75-27.87
				c14.51,11.66,42.2,26.23,89.99,26.23C190.49,225.01,218.19,210.42,232.69,198.75z"/>
		</g>
		<g>
			<path class="st7" d="M83.91,88.94c1.65-6.24,14.41-26.98,26.33-17.9c4.2,3.2,3.31,12.1-2.58,13.59
				C99.08,86.81,97.25,85.69,83.91,88.94z"/>
		</g>
		<g>
			<path class="st7" d="M201.49,88.94c-1.65-6.24-14.41-26.98-26.33-17.9c-4.2,3.2-3.31,12.1,2.58,13.59
				C186.32,86.81,188.15,85.69,201.49,88.94z"/>
		</g>
		<g>
			<path class="st7" d="M202.92,226.65c-5.44,1.66-11.74,3.37-18.78,4.86c-5.28,1.12-10.97,2.12-17.02,2.88
				c-7.61,0.96-15.8,1.55-24.46,1.55c-8.68,0-16.89-0.59-24.51-1.55c-6.07-0.77-11.77-1.76-17.04-2.89
				c-7.01-1.49-13.27-3.19-18.69-4.84c-27.02-14.72-41.74-40.18-34.4-63.03c6.57-20.48,24.26-25.52,36.35-5.31
				c0.01,0.01,0.01,0.03,0.02,0.04c0.59,0.98,1.15,2.01,1.71,3.1c0.96,1.88,12.04,5.81,16.01,5.36c0.6-0.07,1.2-0.18,1.82-0.34
				c0.32-0.08,0.65-0.17,0.98-0.28c10.32-3.19,23.33-16.47,37.76-16.47c14.41,0,27.39,13.23,37.7,16.45
				c0.35,0.11,0.69,0.2,1.04,0.29c0.62,0.15,1.22,0.27,1.82,0.34c3.96,0.45,15.05-3.48,16.01-5.36c0.56-1.1,1.12-2.13,1.71-3.1
				c0.01-0.01,0.01-0.01,0.01-0.02c12.09-20.23,29.78-15.19,36.36,5.29C244.66,186.47,229.93,211.93,202.92,226.65z"/>
		</g>
		<g>
			<path class="st7" d="M202.92,226.65c-5.44,1.66-11.74,3.37-18.78,4.86c-5.28,1.12-10.97,2.12-17.02,2.88
				c-7.61,0.96-15.8,1.55-24.46,1.55c-8.68,0-16.89-0.59-24.51-1.55c-6.07-0.77-11.77-1.76-17.04-2.89
				c-7.01-1.49-13.27-3.19-18.69-4.84c-27.02-14.72-41.74-40.18-34.4-63.03c6.57-20.48,24.26-25.52,36.35-5.31
				c0.01,0.01,0.01,0.03,0.02,0.04c0.59,0.98,1.15,2.01,1.71,3.1c0.96,1.88,12.04,5.81,16.01,5.36c0.6-0.07,1.2-0.18,1.82-0.34
				c0.32-0.08,0.65-0.17,0.98-0.28c10.32-3.19,23.33-16.47,37.76-16.47c14.41,0,27.39,13.23,37.7,16.45
				c0.35,0.11,0.69,0.2,1.04,0.29c0.62,0.15,1.22,0.27,1.82,0.34c3.96,0.45,15.05-3.48,16.01-5.36c0.56-1.1,1.12-2.13,1.71-3.1
				c0.01-0.01,0.01-0.01,0.01-0.02c12.09-20.23,29.78-15.19,36.36,5.29C244.66,186.47,229.93,211.93,202.92,226.65z"/>
		</g>
		<g>
			<path class="st7" d="M202.92,226.65c-5.44,1.66-11.74,3.37-18.78,4.86c-5.04,1.07-10.47,2.03-16.22,2.77
				c-0.27,0.04-0.54,0.08-0.8,0.11c-7.61,0.96-15.8,1.55-24.46,1.55c-8.68,0-16.89-0.59-24.52-1.55c-0.24-0.03-0.49-0.06-0.73-0.1
				c-5.79-0.75-11.25-1.71-16.31-2.79c-7.01-1.48-13.27-3.19-18.69-4.84c-27.02-14.72-41.74-40.18-34.4-63.03
				c6.57-20.48,24.25-25.52,36.34-5.31c0,0.01,0.01,0.01,0.01,0.01c0.01,0.01,0.02,0.03,0.02,0.04c0.58,0.98,1.15,2.01,1.71,3.1
				c0.95,1.88,12.04,5.81,16.01,5.36c0.6-0.06,1.21-0.18,1.82-0.34c0.33-0.08,0.65-0.17,0.98-0.27h0.01
				c10.32-3.19,23.33-16.47,37.75-16.47c14.41,0,27.4,13.23,37.7,16.45c0.02,0.01,0.04,0.01,0.05,0.02c0.33,0.1,0.65,0.19,0.99,0.27
				c0.62,0.16,1.22,0.27,1.82,0.34c3.96,0.45,15.05-3.48,16.01-5.36c0.56-1.09,1.13-2.13,1.71-3.1c0.01-0.01,0.01-0.01,0.02-0.02
				c0.02-0.03,0.03-0.05,0.04-0.07c0.01-0.01,0.01-0.01,0.01-0.01c12.08-20.13,29.73-15.08,36.3,5.37
				C244.65,186.47,229.93,211.93,202.92,226.65z"/>
		</g>
		<g>
			<path class="st6" d="M232.69,198.75c-6.18,10.83-16.49,20.66-29.76,27.9c-0.68,0.21-1.37,0.42-2.08,0.63
				c-0.57,0.17-1.14,0.33-1.72,0.5c-0.48,0.14-0.98,0.28-1.47,0.42c-0.77,0.22-1.55,0.43-2.36,0.65c-0.12,0.03-0.24,0.07-0.36,0.09
				c-0.92,0.25-1.86,0.49-2.82,0.73c-0.12,0.03-0.25,0.06-0.37,0.09c-0.81,0.2-1.63,0.4-2.46,0.6c-0.03,0.01-0.07,0.01-0.1,0.02
				c-0.49,0.11-1,0.24-1.5,0.35c-0.5,0.11-1.02,0.23-1.53,0.34c-0.66,0.15-1.33,0.3-2.01,0.44c-1.57,0.34-3.19,0.66-4.84,0.96
				c-1.48,0.29-2.99,0.55-4.53,0.8c-0.57,0.09-1.14,0.19-1.72,0.28c-1.73,0.28-3.5,0.52-5.3,0.75c-0.22,0.03-0.42,0.06-0.64,0.09
				c-1.59,0.2-3.21,0.38-4.85,0.55c-0.59,0.06-1.18,0.11-1.77,0.17c-0.66,0.06-1.33,0.12-1.99,0.17c-0.52,0.05-1.06,0.09-1.59,0.12
				c-0.17,0.02-0.34,0.03-0.52,0.04c-1.86,0.14-3.75,0.25-5.67,0.32c-0.03,0.01-0.07,0.01-0.1,0.01c-0.63,0.02-1.26,0.05-1.89,0.07
				c-0.67,0.02-1.33,0.03-2.01,0.05c-0.67,0.02-1.35,0.03-2.03,0.03c-0.68,0.01-1.36,0.01-2.05,0.01c-0.68,0-1.37,0-2.05-0.01
				c-0.68-0.01-1.35-0.01-2.03-0.03c-0.67-0.02-1.35-0.03-2.01-0.05c-0.67-0.02-1.33-0.05-1.99-0.07c-2.48-0.1-4.91-0.25-7.29-0.44
				c-0.79-0.06-1.59-0.13-2.37-0.2c-0.63-0.06-1.25-0.12-1.88-0.18c-0.77-0.07-1.55-0.15-2.31-0.25c-0.87-0.09-1.74-0.2-2.6-0.3
				c-1.4-0.17-2.78-0.36-4.13-0.57c-0.59-0.09-1.16-0.17-1.74-0.26c-0.58-0.09-1.15-0.18-1.72-0.28c-1.67-0.27-3.3-0.56-4.91-0.87
				c-0.59-0.11-1.16-0.22-1.74-0.34c-0.54-0.11-1.07-0.22-1.6-0.32c-0.4-0.08-0.8-0.16-1.2-0.25c-0.65-0.13-1.29-0.28-1.93-0.42
				c-1.03-0.23-2.04-0.46-3.03-0.69c-0.05-0.01-0.1-0.02-0.15-0.03c-0.44-0.11-0.89-0.22-1.33-0.32c-0.79-0.19-1.56-0.38-2.32-0.58
				c-0.66-0.17-1.31-0.34-1.95-0.51c-0.46-0.12-0.92-0.25-1.37-0.37c-0.91-0.25-1.8-0.49-2.66-0.74c-0.63-0.18-1.26-0.36-1.87-0.55
				c-0.7-0.21-1.39-0.41-2.07-0.62c-13.26-7.23-23.57-17.04-29.75-27.87c14.51,11.66,42.2,26.23,89.99,26.23
				C190.49,225.01,218.19,210.42,232.69,198.75z"/>
		</g>
		<g>
			<path class="st6" d="M206.8,213.75c-8.94,8.94-21.87,16.46-38.88,20.52c-0.05,0.01-0.11,0.02-0.16,0.02
				c-0.22,0.04-0.42,0.06-0.64,0.09c-0.35,0.04-0.7,0.09-1.05,0.12c-0.49,0.06-0.99,0.12-1.48,0.17c-0.77,0.09-1.54,0.17-2.32,0.25
				c-0.29,0.03-0.59,0.06-0.88,0.09c-0.29,0.03-0.59,0.06-0.89,0.09c-0.5,0.05-1.01,0.09-1.52,0.13c-0.16,0.02-0.32,0.03-0.47,0.04
				c-0.21,0.02-0.43,0.04-0.65,0.06c-0.09,0.01-0.18,0.02-0.27,0.02c-0.23,0.02-0.44,0.03-0.67,0.04c-0.08,0.01-0.16,0.02-0.24,0.03
				c-0.09,0.01-0.18,0.01-0.28,0.02c-0.46,0.04-0.93,0.06-1.4,0.1c-2.13,0.14-4.31,0.24-6.51,0.31c-0.52,0.02-1.04,0.03-1.56,0.04
				c-0.75,0.02-1.5,0.03-2.26,0.04c-0.32,0.01-0.65,0.01-0.97,0.01c-0.34,0.01-0.69,0.01-1.03,0.01c-0.34,0-0.68,0-1.02-0.01
				c-0.33,0.01-0.66,0-1-0.01h-0.11c-0.59-0.01-1.19-0.02-1.77-0.03c-0.09,0-0.18,0-0.27-0.01c-0.6-0.02-1.19-0.03-1.79-0.04
				c-2.58-0.08-5.12-0.21-7.6-0.39c-0.54-0.04-1.08-0.07-1.62-0.12c-0.47-0.03-0.94-0.07-1.4-0.11c-0.38-0.03-0.76-0.06-1.14-0.1
				c-0.63-0.06-1.25-0.12-1.88-0.18c-0.39-0.04-0.78-0.07-1.16-0.12c-0.39-0.04-0.77-0.08-1.15-0.13c-0.88-0.1-1.74-0.2-2.6-0.31
				h-0.01c-0.24-0.03-0.49-0.06-0.73-0.1c-17.01-4.07-29.95-11.59-38.89-20.53c11.57,4.75,26.13,8.67,44.24,10.36
				c5.89,1.71,12.53,2.74,19.9,2.74c7.38,0,14.03-1.03,19.92-2.74C180.68,222.42,195.23,218.5,206.8,213.75z"/>
		</g>
		<g>
			<path class="st6" d="M205.51,214.27c-13.04,11.92-33.92,20.85-62.85,21.66c-28.91-0.81-49.79-9.73-62.83-21.65
				c11.35,4.5,25.48,8.2,42.9,9.83c5.9,1.72,12.55,2.74,19.93,2.74c7.39,0,14.04-1.03,19.94-2.75
				C180.02,222.48,194.16,218.78,205.51,214.27z"/>
		</g>
		<g>
			<g>
				<path class="st12" d="M167.92,234.28c-0.27,0.04-0.54,0.08-0.8,0.11c-7.61,0.96-15.8,1.55-24.46,1.55
					c-8.68,0-16.89-0.59-24.52-1.55c-0.24-0.03-0.49-0.06-0.73-0.1c-38.24-9.14-55.9-35.73-53.79-56.65
					c1.51-14.88,13.46-21.35,18.95-21.6c0.05,0,1.64,2.14,1.78,2.28c0,0.01,0.01,0.01,0.01,0.01c0.36-0.16,0.69-0.28,0.99-0.41
					c4.55-1.84,16.07,2.75,17.4,4.48c0.78,1.02,2.8-1.85,2.68-0.12c-0.02,0.13-0.39,3.01-0.53,3.93v0.01
					c-0.02,0.14-4.83,2.57-4.84,2.59c-2.22,3.41-18.35,8.84-9.96,29.95c4.68,11.12,22.53,28.1,52.56,28.1
					c30.03,0,47.87-16.98,52.56-28.1c8.39-21.11-7.74-26.54-9.96-29.95c-0.01-0.02-4.82-2.44-4.84-2.59v-0.01
					c-0.14-0.92-0.51-3.8-0.54-3.93c-0.12-1.73,1.91,1.14,2.68,0.12c1.33-1.73,12.85-6.32,17.41-4.48c0.29,0.12,0.63,0.25,0.98,0.41
					c0.01,0,0.02-0.02,0.05-0.05c0.01-0.01,0.01-0.01,0.01-0.01c0.3-0.38,1.68-2.22,1.73-2.22c5.49,0.25,17.46,6.72,18.96,21.6
					C223.81,198.55,206.15,225.13,167.92,234.28z"/>
			</g>
		</g>
		<g>
			<g>
				<path class="st13" d="M206.8,213.75c-8.94,8.94-21.87,16.46-38.88,20.52c-0.05,0.01-0.11,0.02-0.16,0.02
					c-0.21,0.03-0.43,0.06-0.64,0.09c-0.35,0.04-0.7,0.09-1.05,0.13c-0.49,0.06-0.99,0.12-1.48,0.17c-0.77,0.09-1.54,0.17-2.32,0.25
					c-0.29,0.03-0.59,0.06-0.88,0.09c-0.29,0.03-0.59,0.06-0.89,0.09c-0.5,0.05-1.01,0.09-1.52,0.13
					c-0.37,0.04-5.14,1.08-16.32,1.08s-17.35-1.17-17.73-1.2c-0.63-0.06-1.25-0.12-1.88-0.18c-0.39-0.04-0.78-0.07-1.16-0.12
					c-0.39-0.04-0.77-0.08-1.15-0.13c-0.88-0.1-1.74-0.2-2.6-0.31h-0.01c-0.24-0.03-0.49-0.06-0.73-0.1
					c-17.01-4.07-29.95-11.59-38.89-20.53c11.57,4.75,26.13,8.67,44.24,10.36c5.89,1.71,12.53,2.74,19.9,2.74
					c7.38,0,14.03-1.03,19.92-2.74C180.68,222.42,195.23,218.5,206.8,213.75z"/>
			</g>
		</g>
		<g>
			<path class="st8" d="M142.66,239.23c-32.39,0-63.6-10.99-76.93-15.68c-2.64-0.93-4.72-1.66-5.58-1.86
				c-2.88-0.68-5.92,0.24-8.85,1.12c-2.09,0.63-4.07,1.22-5.96,1.22c-1.49,0-3.73-0.51-5.92-2.97c-4.32-4.85-6.64-15.42-6.61-24.16
				c-1.34,0.36-2.75,0.44-4.09,0.2c-2.53-0.45-4.48-1.95-5.48-4.23c-3.26-7.39,1.03-23.71,4.43-32.1c-5.82-1.33-8.04-4.05-8.85-6.27
				c-0.97-2.65-0.17-5.16,1.06-6.47c11.4-12.12,15.87-28.92,18.54-38.96c0.58-2.18,1.08-4.06,1.57-5.62
				c8.67-27.51,25.24-47.33,49.24-58.92c19.39-9.37,39.77-11.33,53.44-11.33c13.68,0,34.05,1.97,53.44,11.33
				c24,11.59,40.56,31.42,49.23,58.92c0.49,1.56,0.99,3.44,1.57,5.62c2.67,10.04,7.13,26.83,18.54,38.96
				c1.23,1.31,2.04,3.81,1.06,6.47c-0.81,2.21-3.03,4.94-8.85,6.27c3.41,8.4,7.69,24.71,4.43,32.1c-1,2.27-2.95,3.77-5.48,4.23
				c-1.34,0.24-2.75,0.16-4.09-0.2c0.03,8.74-2.29,19.31-6.61,24.16c-2.19,2.45-4.43,2.97-5.92,2.97c-1.89,0-3.87-0.59-5.96-1.22
				c-2.94-0.88-5.97-1.8-8.85-1.12c-0.86,0.2-2.94,0.94-5.58,1.86C206.26,228.24,175.05,239.23,142.66,239.23z M58.05,216.56
				c1.06,0,2.14,0.11,3.23,0.36c1.11,0.26,3.09,0.96,6.08,2.01c13.09,4.61,43.75,15.4,75.3,15.4s62.21-10.79,75.3-15.4
				c2.99-1.05,4.97-1.75,6.08-2.01c4.16-0.98,8.16,0.23,11.38,1.19c1.74,0.52,3.38,1.02,4.55,1.02c0.72,0,1.48-0.45,2.27-1.33
				c3.71-4.16,6.16-16.03,5.15-24.9l-0.82-7.15l5.01,5.17c1.02,1.05,2.73,1.61,4.16,1.36c1.36-0.24,1.74-1.1,1.86-1.38
				c2.66-6.04-2.21-24.14-5.66-30.9l-1.61-3.15l3.51-0.4c6.16-0.7,7.65-2.68,8.01-3.5c0.35-0.81,0.08-1.46,0-1.57
				c-12.23-13-16.9-30.55-19.68-41.03c-0.56-2.12-1.05-3.95-1.51-5.41c-18.33-58.14-69.27-66.83-98.01-66.83
				s-79.67,8.68-98.01,66.83c-0.45,1.45-0.94,3.28-1.51,5.4c-2.79,10.48-7.45,28.03-19.7,41.05c-0.06,0.09-0.34,0.74,0.02,1.55
				c0.36,0.82,1.85,2.81,8.01,3.5l3.51,0.4l-1.61,3.15c-3.45,6.76-8.33,24.87-5.66,30.9c0.12,0.28,0.5,1.14,1.86,1.38
				c1.43,0.25,3.14-0.3,4.16-1.36l5.01-5.17l-0.82,7.16c-1.02,8.87,1.44,20.74,5.15,24.9c0.79,0.88,1.55,1.33,2.27,1.33
				c1.17,0,2.81-0.49,4.55-1.02C52.27,217.4,55.07,216.56,58.05,216.56z"/>
		</g>
		<g>
			<g>
				<g>
					<ellipse class="st8" cx="186.62" cy="141.55" rx="23.01" ry="26.57"/>
				</g>
			</g>
			<g>
				<g>
					<ellipse class="st4" cx="180.37" cy="145.47" rx="7.5" ry="9.5"/>
				</g>
			</g>
			<g class="st14">
				<g>
					<ellipse class="st4" cx="195.2" cy="132.78" rx="4.15" ry="6.43"/>
				</g>
			</g>
		</g>
		<g>
			<g>
				<g>
					<ellipse class="st8" cx="98.7" cy="141.55" rx="23.01" ry="26.57"/>
				</g>
			</g>
			<g>
				<g>
					<ellipse class="st4" cx="104.95" cy="145.47" rx="7.5" ry="9.5"/>
				</g>
			</g>
			<g class="st14">
				<g>
					<ellipse class="st4" cx="90.12" cy="132.78" rx="4.15" ry="6.43"/>
				</g>
			</g>
		</g>
		<g>
			<g>
				<g>
					<path class="st8" d="M142.66,169.24C142.66,169.25,142.66,169.25,142.66,169.24L142.66,169.24
						C142.66,169.24,142.66,169.24,142.66,169.24z"/>
				</g>
				<g>
					<g>
						<g>
							<path class="st8" d="M131.06,154.87c2.2,6.15,11.6,9.61,11.6,9.61s9.41-3.46,11.6-9.61c1.57-4.4-9.5-5.11-11.6-5.11
								C140.56,149.75,129.49,150.47,131.06,154.87z"/>
						</g>
						<g class="st3">
							<path class="st4" d="M137.85,151.99c0.91,1.55,4.81,1.52,4.81,1.52s3.9,0.03,4.81-1.52c0.65-1.11-3.94-1.29-4.81-1.29
								S137.2,150.88,137.85,151.99z"/>
						</g>
					</g>
				</g>
			</g>
			<g>
				<path class="st8" d="M147.48,162.08c-4.11,2.54-4.61,5.83-4.82,7.51c-0.21-1.67-0.7-4.96-4.81-7.51l4.81,0.78L147.48,162.08z"/>
			</g>
			<g>
				<path class="st8" d="M167.55,175.33c-4.82,11.66-18.53,11.01-26.58,3.05c0,0,3.37,0,3.37,0c-7.42,7.36-20.13,8.74-25.81-1.35
					c-0.26-0.58-0.54-1.13-0.77-1.7c8.23,8.32,17.52,5.61,24.9-2.08C150.02,180.96,159.35,183.65,167.55,175.33L167.55,175.33z"/>
			</g>
		</g>
	</g>
</g>
</svg>
