<?xml version="1.0" encoding="utf-8"?>
<!-- Generator: Adobe Illustrator 28.0.0, SVG Export Plug-In . SVG Version: 6.00 Build 0)  -->
<svg version="1.1" id="Layer_1" xmlns="http://www.w3.org/2000/svg" xmlns:xlink="http://www.w3.org/1999/xlink" x="0px" y="0px"
	 viewBox="0 0 660.19 834.49" style="enable-background:new 0 0 660.19 834.49;" xml:space="preserve">
<style type="text/css">
	.st0{fill:#B17E4F;}
	.st1{fill:#6D6A73;}
	.st2{opacity:0.35;}
	.st3{fill:#FFFFFF;}
	.st4{fill:#575460;}
	.st5{fill:#323A49;}
	.st6{fill:#F9D9C2;}
	.st7{fill:#B3B0B7;}
	.st8{fill:#98939E;}
	.st9{fill:#F9D6B6;}
	.st10{fill:#B25B36;}
	.st11{fill:#FFAD40;}
	.st12{opacity:0.3;}
	.st13{opacity:0.2;}
</style>
<g>
	<g>
		<g>
			<path class="st0" d="M395.98,536.41c28.01,19.16,58.98,38.99,102.06,33.57c66.17-8.33,88.88-85.93,96.61-111.56l-30.39-53.3
				c-30.62,2.21-72.76,54.14-84.15,72.25c-30.18-18.08-69.7-40.18-95.57-39.91h-36.87L395.98,536.41z"/>
		</g>
		<g>
			<path class="st0" d="M395.98,536.41c28.01,19.16,58.98,38.99,102.06,33.57c66.17-8.33,88.88-85.93,96.61-111.56l-30.39-53.3
				c-30.62,2.21-72.76,54.14-84.15,72.25c-30.18-18.08-69.7-40.18-95.57-39.91h-36.87L395.98,536.41z"/>
		</g>
		<g>
			<path class="st0" d="M594.65,458.42c-2.26,7.5-5.81,19.45-11.35,32.81c-0.01,0.01-0.01,0.02-0.02,0.03
				c-13.4,32.29-38.45,72.83-85.25,78.72c-43.08,5.42-74.04-14.41-102.06-33.57l-11.91-24.41l-36.39-74.54h36.87
				c25.87-0.26,65.39,21.83,95.57,39.9c11.39-18.11,53.53-70.04,84.14-72.25L594.65,458.42z"/>
		</g>
		<g>
			<path class="st1" d="M594.65,458.42c-2.26,7.5-5.81,19.45-11.35,32.81c-0.01,0.01-0.01,0.02-0.02,0.03
				c-13.4,32.29-38.45,72.83-85.25,78.72c-43.08,5.42-74.04-14.41-102.06-33.57l-11.91-24.41l-36.39-74.54h36.87
				c9.11-0.09,19.93,2.59,31.43,6.9c21.13,7.91,44.59,21.3,64.14,33c10.01-15.9,43.75-57.93,72.56-69.39
				c3.98-1.59,7.87-2.6,11.58-2.86L594.65,458.42z"/>
		</g>
		<g class="st2">
			<path class="st3" d="M550.28,415.36c-45.95,34.39-75,79.9-75,79.9c-0.39-18.73-41.82-37.08-62.29-47.66l2.98-3.24
				c21.13,7.91,44.59,21.3,64.14,33c10.01-15.9,43.75-57.93,72.56-69.39C553.94,410.46,553.32,413.09,550.28,415.36z"/>
		</g>
		<g>
			<path class="st4" d="M583.29,491.26c-13.4,32.29-38.45,72.83-85.25,78.72c-43.08,5.42-74.04-14.41-102.06-33.57l-11.91-24.41
				l32.22-20.51c17.76,20.94,32.59,63.27,78.78,60.38C545.94,548.7,573.82,508.9,583.29,491.26z"/>
		</g>
		<g>
			<path class="st4" d="M419.4,445.69c-0.37,0.24-0.75,0.48-1.14,0.71c-14.54,6.89-35.27,12.02-59.24,14.31l-11.35-23.24h36.87
				C394.56,437.36,406.62,440.61,419.4,445.69z"/>
		</g>
		<g>
			<path class="st5" d="M483.77,574.42c-14.77,0-29.19-2.89-43.73-8.72c-16.8-6.74-31.37-16.32-46.06-26.37l3.99-5.83
				c14.35,9.82,28.56,19.16,44.7,25.64c18.19,7.3,36.15,9.7,54.93,7.34c26.86-3.38,49.47-19.18,67.21-46.94
				c14.42-22.59,21.94-47.14,26.03-60.69l-28.49-49.96c-12.01,1.84-27.46,11.78-44.89,28.91c-14.92,14.67-28.26,31.77-34.35,41.45
				l-1.84,2.93l-2.96-1.78c-13.75-8.24-31.74-18.71-49.06-26.66c-18.44-8.46-33.32-12.75-44.23-12.75c-0.14,0-0.28,0-0.43,0l-0.04,0
				h-36.87v-7.06h36.85c0.16,0,0.33,0,0.49,0c25.19,0,61.35,19.24,93.99,38.67c6.91-10.29,19.56-26.13,33.49-39.83
				c8.89-8.74,17.43-15.79,25.38-20.93c9.62-6.23,18.41-9.68,26.13-10.24l2.22-0.16l32.25,56.55l-0.69,2.28
				c-4.14,13.74-11.85,39.31-27.03,63.07c-18.91,29.62-43.23,46.49-72.28,50.14C493.53,574.11,488.63,574.42,483.77,574.42z"/>
		</g>
		<g>
			<polygon class="st5" points="474.3,498.92 476.7,476.45 483.52,478.29 474.3,498.92 			"/>
		</g>
		<g>
			<g>
				<path class="st6" d="M547.7,431.5c-1.04-7.38-2.27-22.39,24.06-28.66c16.19-4.16,27.94-10.7,38.35-6.78
					c6,2.25,5.5,8.66,5.5,8.66c3.32,0.22,26.45,1.29,25.88,16.56c5.94,7.42,2.29,14.42-2.99,18.56
					c-0.79,10.92-14.29,17.14-34.92,18.32c-20.83,1.19-41.78-0.95-50.55-17.6L547.7,431.5z"/>
			</g>
			<g>
				<path class="st7" d="M638.51,439.83c-0.78,10.93-14.28,17.14-34.91,18.32c-19.9,1.15-39.91-0.76-49.3-15.46
					c-0.46-0.69-0.86-1.4-1.26-2.14l-5.33-9.05c-1.05-7.38-2.27-22.39,24.05-28.66c16.2-4.16,27.94-10.7,38.35-6.78
					c6,2.25,5.5,8.66,5.5,8.66c3.25,0.22,25.52,1.25,25.89,15.66c0.01,0.29,0.01,0.6,0,0.9C647.44,428.7,643.78,435.7,638.51,439.83
					z"/>
			</g>
			<g>
				<path class="st8" d="M638.51,439.83c-0.78,10.93-14.28,17.14-34.91,18.32c-19.9,1.15-39.91-0.76-49.3-15.46
					c6.2,3.24,20.19,9.54,48.8,7.64c32.11-2.14,30.52-18.15,30.52-18.15s8.77,0.77,7.89-10.9
					C647.44,428.7,643.78,435.7,638.51,439.83z"/>
			</g>
			<g>
				<path class="st5" d="M547.7,431.5c-6.84-18.51,8.2-28.79,24.31-32.73c8.39-2.43,15.94-5.82,25.37-7.58
					c9.71-1.86,22.68,1.34,21.75,13.8c0,0-3.29-3.8-3.29-3.8c6.04,0.37,12.15,1.31,17.84,3.84c6.43,2.68,11.84,8.88,11.34,16.37
					c0,0-0.77-2.34-0.77-2.34c1.31,1.65,2.48,3.57,3.17,5.79c2.26,6.63-1.46,13.82-6.74,17.75c0,0,1.34-2.52,1.34-2.52
					c-1.52,20.06-29.92,22.35-45.36,22.3c-12.8-0.19-27.07-1.68-36.86-10.88c-3.22-3.06-5.62-6.9-6.77-10.97
					c2.71,3.26,5.77,5.9,9.15,7.85c10.44,5.8,22.46,6.4,34.37,6.03c10.87-0.51,36.07-1.7,38.43-14.84c0.06-1.01,0.55-1.97,1.34-2.53
					c4.72-3.54,6.39-9.04,2.41-13.57c-0.54-0.69-0.79-1.52-0.77-2.34c0.21-4.77-2.95-7.77-7.2-9.68c-4.75-2.1-10.1-2.91-15.39-3.23
					l-3.29-3.8c-0.17-1.81-1.1-3.81-2.93-4.48c-6.68-2.45-14.17,0.26-21.04,2.27c-3.66,1.1-7.4,2.27-11.23,3.3
					c-3.51,0.93-7.57,1.63-10.97,2.81C554.12,412.22,548.07,418.75,547.7,431.5L547.7,431.5z"/>
			</g>
			<g>
				<polygon class="st5" points="583.79,407.68 615.68,401.22 616.32,408.26 583.79,407.68 				"/>
			</g>
			<g>
				<path class="st5" d="M603.59,431.43c5.95-0.75,14.01-2.03,19.93-2.51c8.49-0.86,17.39,0.51,18.51,10.72c0,0-7.05,0.38-7.05,0.38
					c0.84-6.41-6.74-7.02-11.49-7.57C617.8,431.91,609.4,431.72,603.59,431.43L603.59,431.43z"/>
			</g>
			<g>
				<path class="st5" d="M565.86,426.64c6.07-4.89,15.23-3.78,21.59-0.04c2.17,1.28,4.1,2.94,5.62,4.97
					c-1.3-0.15-2.47-0.45-3.64-0.73C581.52,428.87,574.09,427.03,565.86,426.64L565.86,426.64z"/>
			</g>
			<g>
				<path class="st5" d="M603.59,417.08c10.21-0.72,20.02-3.94,30.41-2.38c3.57,0.56,7.45,1.89,10.61,4.72l-5.09,4.89
					c-1.49-1.98-3.92-3.49-6.77-4.47C623.53,416.75,613.2,418.15,603.59,417.08L603.59,417.08z"/>
			</g>
		</g>
	</g>
	<g>
		<g>
			<path class="st0" d="M264.9,536.41c-28.01,19.16-58.98,38.99-102.06,33.57c-66.17-8.33-88.88-85.93-96.61-111.56l30.39-53.3
				c30.62,2.21,72.76,54.14,84.15,72.25c30.18-18.08,69.7-40.18,95.57-39.91h36.87L264.9,536.41z"/>
		</g>
		<g>
			<path class="st0" d="M264.9,536.41c-28.01,19.16-58.98,38.99-102.06,33.57c-66.17-8.33-88.88-85.93-96.61-111.56l30.39-53.3
				c30.62,2.21,72.76,54.14,84.15,72.25c30.18-18.08,69.7-40.18,95.57-39.91h36.87L264.9,536.41z"/>
		</g>
		<g>
			<path class="st0" d="M66.22,458.42c2.26,7.5,5.81,19.45,11.35,32.81c0.01,0.01,0.01,0.02,0.02,0.03
				c13.4,32.29,38.45,72.83,85.25,78.72c43.08,5.42,74.04-14.41,102.06-33.57l11.91-24.41l36.39-74.54h-36.87
				c-25.87-0.26-65.39,21.83-95.57,39.9c-11.39-18.11-53.53-70.04-84.14-72.25L66.22,458.42z"/>
		</g>
		<g>
			<path class="st1" d="M66.22,458.42c2.26,7.5,5.81,19.45,11.35,32.81c0.01,0.01,0.01,0.02,0.02,0.03
				c13.4,32.29,38.45,72.83,85.25,78.72c43.08,5.42,74.04-14.41,102.06-33.57l11.91-24.41l36.39-74.54h-36.87
				c-9.11-0.09-19.93,2.59-31.43,6.9c-21.13,7.91-44.59,21.3-64.14,33c-10.01-15.9-43.75-57.93-72.56-69.39
				c-3.98-1.59-7.87-2.6-11.58-2.86L66.22,458.42z"/>
		</g>
		<g class="st2">
			<path class="st3" d="M110.59,415.36c45.95,34.39,75,79.9,75,79.9c0.39-18.73,41.82-37.08,62.29-47.66l-2.98-3.24
				c-21.13,7.91-44.59,21.3-64.14,33c-10.01-15.9-43.75-57.93-72.56-69.39C106.94,410.46,107.56,413.09,110.59,415.36z"/>
		</g>
		<g>
			<path class="st4" d="M77.59,491.26c13.4,32.29,38.45,72.83,85.25,78.72c43.08,5.42,74.04-14.41,102.06-33.57l11.91-24.41
				l-32.22-20.51c-17.76,20.94-32.59,63.27-78.78,60.38C114.94,548.7,87.06,508.9,77.59,491.26z"/>
		</g>
		<g>
			<path class="st4" d="M241.48,445.69c0.37,0.24,0.75,0.48,1.14,0.71c14.54,6.89,35.27,12.02,59.24,14.31l11.35-23.24h-36.87
				C266.32,437.36,254.26,440.61,241.48,445.69z"/>
		</g>
		<g>
			<path class="st5" d="M177.1,574.42c-4.86,0-9.76-0.31-14.71-0.94c-29.04-3.66-53.36-20.53-72.28-50.15
				c-15.17-23.76-22.88-49.33-27.03-63.07l-0.69-2.28l32.25-56.55l2.22,0.16c7.71,0.56,16.5,4,26.13,10.24
				c7.95,5.15,16.48,12.19,25.38,20.93c13.94,13.7,26.58,29.54,33.49,39.83c32.85-19.56,69.29-38.92,94.48-38.67h36.85V441l-36.91,0
				c-10.95-0.12-25.98,4.18-44.66,12.75c-17.32,7.95-35.31,18.42-49.06,26.66l-2.96,1.78l-1.84-2.93
				c-6.09-9.68-19.44-26.78-34.35-41.45c-17.43-17.14-32.88-27.08-44.89-28.91l-28.49,49.96c4.09,13.55,11.6,38.1,26.03,60.69
				c17.73,27.76,40.34,43.56,67.21,46.94c18.77,2.36,36.74-0.04,54.93-7.34c16.14-6.48,30.35-15.83,44.7-25.64l3.99,5.83
				c-14.68,10.05-29.26,19.62-46.06,26.37C206.29,571.53,191.87,574.42,177.1,574.42z"/>
		</g>
		<g>
			<polygon class="st5" points="186.58,498.92 177.36,478.29 184.17,476.45 186.58,498.92 			"/>
		</g>
		<g>
			<g>
				<path class="st6" d="M113.18,431.5c1.04-7.38,2.27-22.39-24.06-28.66c-16.19-4.16-27.94-10.7-38.35-6.78
					c-6,2.25-5.5,8.66-5.5,8.66c-3.32,0.22-26.45,1.29-25.88,16.56c-5.94,7.42-2.29,14.42,2.99,18.56
					c0.79,10.92,14.29,17.14,34.92,18.32c20.83,1.19,41.78-0.95,50.55-17.6L113.18,431.5z"/>
			</g>
			<g>
				<path class="st7" d="M22.37,439.83c0.78,10.93,14.28,17.14,34.91,18.32c19.9,1.15,39.91-0.76,49.3-15.46
					c0.46-0.69,0.86-1.4,1.26-2.14l5.33-9.05c1.05-7.38,2.27-22.39-24.05-28.66c-16.2-4.16-27.94-10.7-38.35-6.78
					c-6,2.25-5.5,8.66-5.5,8.66c-3.25,0.22-25.52,1.25-25.89,15.66c-0.01,0.29-0.01,0.6,0,0.9C13.44,428.7,17.09,435.7,22.37,439.83
					z"/>
			</g>
			<g>
				<path class="st8" d="M22.37,439.83c0.78,10.93,14.28,17.14,34.91,18.32c19.9,1.15,39.91-0.76,49.3-15.46
					c-6.2,3.24-20.19,9.54-48.8,7.64c-32.11-2.14-30.52-18.15-30.52-18.15s-8.77,0.77-7.89-10.9
					C13.44,428.7,17.09,435.7,22.37,439.83z"/>
			</g>
			<g>
				<path class="st5" d="M113.18,431.5c-0.36-12.72-6.42-19.3-18.23-23.15c-3.4-1.18-7.46-1.89-10.97-2.81
					c-3.82-1.04-7.56-2.21-11.23-3.3c-6.86-2.01-14.36-4.72-21.04-2.27c-1.83,0.67-2.76,2.67-2.93,4.48c0,0-3.29,3.8-3.29,3.8
					c-5.29,0.31-10.64,1.13-15.39,3.23c-4.24,1.91-7.41,4.91-7.2,9.68c0.03,0.88-0.27,1.7-0.77,2.34
					c-3.97,4.53-2.32,10.04,2.41,13.57c0.87,0.61,1.26,1.55,1.34,2.53c2.36,13.14,27.55,14.33,38.43,14.84
					c11.91,0.37,23.93-0.23,34.37-6.03c3.38-1.94,6.44-4.59,9.15-7.85c-1.15,4.07-3.55,7.91-6.77,10.97
					c-9.8,9.2-24.07,10.68-36.86,10.88c-15.42,0.05-43.84-2.25-45.36-22.3c0,0,1.34,2.52,1.34,2.52c-5.27-3.93-9-11.12-6.74-17.75
					c0.69-2.23,1.86-4.14,3.17-5.79l-0.77,2.34c-0.5-7.5,4.89-13.69,11.34-16.37c5.69-2.53,11.81-3.48,17.84-3.84
					c0,0-3.29,3.8-3.29,3.8c-0.94-12.44,12.04-15.67,21.75-13.8c9.43,1.75,16.98,5.15,25.37,7.58
					C104.95,402.7,120.02,412.98,113.18,431.5L113.18,431.5z"/>
			</g>
			<g>
				<polygon class="st5" points="77.09,407.68 44.56,408.26 45.2,401.22 77.09,407.68 				"/>
			</g>
			<g>
				<path class="st5" d="M57.29,431.43c-5.86,0.3-14.18,0.48-19.9,1.02c-4.76,0.56-12.34,1.17-11.49,7.57c0,0-7.05-0.38-7.05-0.38
					c1.13-10.22,10.02-11.58,18.51-10.72C43.25,429.4,51.38,430.69,57.29,431.43L57.29,431.43z"/>
			</g>
			<g>
				<path class="st5" d="M95.02,426.64c-8.23,0.39-15.66,2.24-23.57,4.19c-1.16,0.28-2.33,0.58-3.64,0.73
					c1.52-2.02,3.45-3.69,5.62-4.97C79.79,422.86,88.95,421.75,95.02,426.64L95.02,426.64z"/>
			</g>
			<g>
				<path class="st5" d="M57.29,417.08c-10.83,1.5-28.19-1.69-35.93,7.24c0,0-5.09-4.89-5.09-4.89c3.16-2.84,7.03-4.16,10.61-4.72
					C37.26,413.13,47.08,416.36,57.29,417.08L57.29,417.08z"/>
			</g>
		</g>
	</g>
	<g>
		<g>
			<g>
				<path class="st0" d="M333.3,685.58c0,0-1.38,75.02-0.69,96.9c0.81,25.34,15.98,25.67,20.56,26.04
					c23.29,1.84,67.88-25.63,58.02-30.99c22.5-68.67,38.62-164.91,38.62-164.91"/>
			</g>
			<g>
				<path class="st1" d="M449.81,612.62c0,0-2.02,12.08-5.63,30.73v0.01c-6.59,34-18.46,89.83-32.98,134.17
					c5.99,3.25-8.07,14.63-25.25,22.68c-11.14,5.22-23.61,9.03-32.77,8.3c-4.57-0.36-19.75-0.69-20.56-26.03
					c-0.69-21.88,0.69-96.9,0.69-96.9L449.81,612.62z"/>
			</g>
			<g>
				<path class="st4" d="M449.81,612.62c0,0-2.02,12.08-5.63,30.73v0.01c-16.12,26.54-51.02,44.22-71.19,59.49
					c-18.8,14.23-24.28,36.2-25.89,54.51c-0.49,5.42-1.21,16.06,4.68,17.21c21.35,4.17,6.11,24.37,34.17,25.64
					c-11.14,5.22-23.61,9.03-32.77,8.3c-4.57-0.36-19.75-0.69-20.56-26.03c-0.69-21.88,0.69-96.9,0.69-96.9L449.81,612.62z"/>
			</g>
			<g>
				<path class="st5" d="M355.29,812.13c-0.96,0-1.75-0.04-2.39-0.09l-0.43-0.03c-2.74-0.2-8.43-0.62-13.58-4.67
					c-6.14-4.83-9.44-13.15-9.81-24.74c-0.69-21.71,0.67-96.32,0.68-97.07l7.06,0.13c-0.01,0.75-1.37,75.18-0.69,96.72
					c0.68,21.4,12.01,22.24,16.85,22.59c0.16,0.01,0.32,0.02,0.46,0.03c0.65,0.05,1.34,0.08,2.05,0.08c8.45,0,20.52-3.65,32.88-10
					c13.55-6.96,19.26-12.79,20.45-14.93c-1.02-0.92-1.44-2.38-1-3.72c22.15-67.63,38.33-163.43,38.49-164.39l6.97,1.17
					c-0.16,0.96-16.09,95.35-38.07,163.35c0.92,1.43,1.16,3.22,0.6,5.08c-1.92,6.47-14.08,14.59-24.82,20.03
					C373.25,810.67,361.22,812.13,355.29,812.13z"/>
			</g>
		</g>
		<g>
			<g>
				<path class="st9" d="M338.72,782.4c-8.78,12.12-3.08,20.81,8.63,26.37c5.66,2.28,13.99,7.28,20.46,3.15
					c1.38-0.88,3.42-3.02,3.9-5.83c1.63,0.75,7.07,3.94,9.87,5.56c4.84,2.79,14.62,6.7,23.25,0.03c0,0,11.71,4.34,17.84-2.9
					c0,0,9.33,0.02,8.98-10.23c-0.38-10.85-17.78-27.51-46.34-28.72c-16.41-0.69-31.25,2.72-40.48,7.93
					C343.14,778.68,340.48,780.43,338.72,782.4z"/>
			</g>
			<g>
				<path class="st7" d="M422.67,808.78c-6.13,7.24-17.84,2.9-17.84,2.9c-8.63,6.68-18.41,2.76-23.24-0.03
					c-2.81-1.61-8.24-4.8-9.87-5.55c-0.48,2.81-2.52,4.95-3.9,5.83c-6.47,4.12-14.8-0.87-20.45-3.15
					c-11.71-5.56-17.41-14.25-8.63-26.37c1.75-1.98,4.41-3.73,6.1-4.65c3.61-2.04,8.07-3.8,13.16-5.15
					c7.92-2.1,17.33-3.2,27.33-2.79c24.36,1.03,40.61,13.31,45.09,23.63c0.77,1.78,1.19,3.49,1.25,5.09
					C432.01,808.79,422.67,808.78,422.67,808.78z"/>
			</g>
			<g>
				<path class="st8" d="M422.67,808.78c-6.13,7.24-17.84,2.9-17.84,2.9c-8.63,6.68-18.41,2.76-23.24-0.03
					c-2.81-1.61-8.24-4.8-9.87-5.55c-0.48,2.81-2.52,4.95-3.9,5.83c-6.47,4.12-14.8-0.87-20.45-3.15
					c-11.71-5.56-17.41-14.25-8.63-26.37c1.75-1.98,4.41-3.73,6.1-4.65c3.61-2.04,8.07-3.8,13.16-5.15
					c-27.56,9.27-17.06,24.61-11.39,26.9c5.67,2.29,14.01,7.29,20.47,3.16c1.36-0.88,2.36-3.61,0.33-5.97
					c1.62,0.75,10.64,4.07,13.43,5.7c4.84,2.78,14.62,6.69,23.26,0.01c0,0,11.7,4.35,17.84-2.9c0.05,0,6.61-0.01,8.47-6.06h0.01
					c0.77,1.78,1.19,3.49,1.25,5.09C432.01,808.79,422.67,808.78,422.67,808.78z"/>
			</g>
			<g>
				<path class="st5" d="M338.72,782.4c-0.9,4.32-2.12,9.49-0.28,13.44c2.15,4.7,6.95,8.4,11.87,10.35
					c4.87,1.97,11.57,5.97,16.19,2.29c0.85-0.77,1.59-1.99,1.74-3.04c0.33-1.9,2.15-3.17,4.05-2.84c1.83,0.5,3.52,1.75,5.13,2.58
					c0,0,3.93,2.26,3.93,2.26c4.32,2.71,9.69,4.99,14.78,4.24c2.37-0.33,4.57-1.29,6.53-2.8c1.69-1.37,3.4-0.45,5.26,0.01
					c4.09,0.92,9.15,1.01,12.05-2.4c0,0,2.7-1.25,2.7-1.25c3.01-0.43,5.15-2.36,5-5.88c-0.37-7.57-8.59-14.32-15.11-18.18
					c-16.15-9.24-35.86-9.98-53.92-7.2c-4.68,0.79-9.29,1.99-13.82,3.77c15.41-10.81,39.22-13.48,57.32-9.04
					c13.8,3.43,30.92,13.09,33.4,28.48c0.93,8.21-4.34,15.16-12.89,15.12c0,0,2.7-1.25,2.7-1.25c-5.31,6.31-14.53,6.41-21.77,3.93
					c0,0,3.39-0.52,3.39-0.52c-5.51,4.52-13.71,5.46-20.3,3.25c-4.49-1.28-8.72-4.14-12.76-6.4c-0.95-0.56-2.8-1.57-3.7-2.01
					c0,0,4.96-2.61,4.96-2.61c-1.24,7.36-8.98,11.53-15.92,10.11c-5.06-0.82-9.12-3.06-13.62-4.93c-3.28-1.58-6.36-3.21-9.25-5.78
					C328.54,799.34,329.77,787.48,338.72,782.4L338.72,782.4z"/>
			</g>
			<g>
				<path class="st5" d="M386.12,784.34c11.2,4.69,24.79,14.36,22.1,28.3c0,0-6.79-1.94-6.79-1.94
					C405.53,800.03,394.09,789.92,386.12,784.34L386.12,784.34z"/>
			</g>
			<g>
				<path class="st5" d="M356.48,789.07c1.22,1.25,3.79,1.91,5.35,2.61c4.02,1.61,8.04,3.61,10.71,7.41
					c1.95,2.94,5.12,9.92-0.26,11.11c-1.95,0.3-3.78-1.03-4.08-2.98c-0.05-1.89,0.39-3.69-0.32-5.61c-1.07-3.41-4.08-6.11-6.93-8.39
					C359.62,792.05,357.32,790.67,356.48,789.07L356.48,789.07z"/>
			</g>
			<g>
				<path class="st5" d="M402.51,781.84c9.92,4.1,20.37,10.93,23.17,22.05c0.61,3.19,1.61,8.67-3.13,8.8
					c-2.21-0.03-3.89-2.18-3.38-4.33c0.57-2.41,0.5-4.9-0.18-7.34C416.52,792.85,409.51,786.5,402.51,781.84L402.51,781.84z"/>
			</g>
		</g>
	</g>
	<g>
		<g>
			<g>
				<path class="st0" d="M327.07,685.58c0,0,1.38,75.02,0.69,96.9c-0.81,25.34-15.98,25.67-20.56,26.04
					c-23.29,1.84-67.88-25.63-58.02-30.99c-22.5-68.67-38.62-164.91-38.62-164.91"/>
			</g>
			<g>
				<path class="st1" d="M210.56,612.62c0,0,2.02,12.08,5.63,30.73v0.01c6.59,34,18.46,89.83,32.98,134.17
					c-5.99,3.25,8.07,14.63,25.25,22.68c11.14,5.22,23.61,9.03,32.77,8.3c4.57-0.36,19.75-0.69,20.56-26.03
					c0.69-21.88-0.69-96.9-0.69-96.9L210.56,612.62z"/>
			</g>
			<g>
				<path class="st4" d="M210.56,612.62c0,0,2.02,12.08,5.63,30.73v0.01c16.12,26.54,51.02,44.22,71.19,59.49
					c18.8,14.23,24.28,36.2,25.89,54.51c0.49,5.42,1.21,16.06-4.68,17.21c-21.35,4.17-6.11,24.37-34.17,25.64
					c11.14,5.22,23.61,9.03,32.77,8.3c4.57-0.36,19.75-0.69,20.56-26.03c0.69-21.88-0.69-96.9-0.69-96.9L210.56,612.62z"/>
			</g>
			<g>
				<path class="st5" d="M305.08,812.13c-5.93,0-17.96-1.46-35.72-10.46c-10.74-5.44-22.9-13.56-24.82-20.03
					c-0.55-1.87-0.32-3.65,0.6-5.08c-21.97-68-37.91-162.4-38.07-163.35l6.97-1.17c0.16,0.96,16.33,96.77,38.49,164.39
					c0.44,1.35,0.03,2.81-1,3.73c1.19,2.14,6.91,7.97,20.45,14.92c13.4,6.88,26.46,10.59,34.93,9.92c0.14-0.01,0.3-0.02,0.46-0.03
					c4.84-0.36,16.16-1.19,16.85-22.59c0.69-21.54-0.67-95.97-0.69-96.72l7.06-0.13c0.01,0.75,1.38,75.36,0.68,97.07
					c-0.37,11.59-3.67,19.91-9.81,24.74c-5.15,4.05-10.84,4.47-13.58,4.67l-0.43,0.03C306.83,812.09,306.04,812.13,305.08,812.13z"
					/>
			</g>
		</g>
		<g>
			<g>
				<path class="st9" d="M321.65,782.4c8.78,12.12,3.08,20.81-8.63,26.37c-5.66,2.28-13.99,7.28-20.46,3.15
					c-1.38-0.88-3.42-3.02-3.9-5.83c-1.63,0.75-7.07,3.94-9.87,5.56c-4.84,2.79-14.62,6.7-23.25,0.03c0,0-11.71,4.34-17.84-2.9
					c0,0-9.33,0.02-8.98-10.23c0.38-10.85,17.78-27.51,46.34-28.72c16.41-0.69,31.25,2.72,40.48,7.93
					C317.23,778.68,319.89,780.43,321.65,782.4z"/>
			</g>
			<g>
				<path class="st7" d="M237.7,808.78c6.13,7.24,17.84,2.9,17.84,2.9c8.63,6.68,18.41,2.76,23.24-0.03
					c2.81-1.61,8.24-4.8,9.87-5.55c0.48,2.81,2.52,4.95,3.9,5.83c6.47,4.12,14.8-0.87,20.45-3.15c11.71-5.56,17.41-14.25,8.63-26.37
					c-1.75-1.98-4.41-3.73-6.1-4.65c-3.61-2.04-8.07-3.8-13.16-5.15c-7.92-2.1-17.33-3.2-27.33-2.79
					c-24.36,1.03-40.61,13.31-45.09,23.63c-0.77,1.78-1.19,3.49-1.25,5.09C228.37,808.79,237.7,808.78,237.7,808.78z"/>
			</g>
			<g>
				<path class="st8" d="M237.7,808.78c6.13,7.24,17.84,2.9,17.84,2.9c8.63,6.68,18.41,2.76,23.24-0.03
					c2.81-1.61,8.24-4.8,9.87-5.55c0.48,2.81,2.52,4.95,3.9,5.83c6.47,4.12,14.8-0.87,20.45-3.15c11.71-5.56,17.41-14.25,8.63-26.37
					c-1.75-1.98-4.41-3.73-6.1-4.65c-3.61-2.04-8.07-3.8-13.16-5.15c27.56,9.27,17.06,24.61,11.39,26.9
					c-5.67,2.29-14.01,7.29-20.47,3.16c-1.36-0.88-2.36-3.61-0.33-5.97c-1.62,0.75-10.64,4.07-13.43,5.7
					c-4.84,2.78-14.62,6.69-23.26,0.01c0,0-11.7,4.35-17.84-2.9c-0.05,0-6.61-0.01-8.47-6.06h-0.01c-0.77,1.78-1.19,3.49-1.25,5.09
					C228.37,808.79,237.7,808.78,237.7,808.78z"/>
			</g>
			<g>
				<path class="st5" d="M321.65,782.4c8.93,5.07,10.21,16.92,2.3,23.7c-2.88,2.57-5.96,4.2-9.24,5.78
					c-4.5,1.86-8.55,4.11-13.62,4.93c-6.95,1.42-14.67-2.75-15.92-10.11c0,0,4.96,2.61,4.96,2.61c-0.89,0.44-2.74,1.46-3.7,2.01
					c-4.05,2.26-8.26,5.12-12.76,6.4c-6.59,2.21-14.79,1.28-20.3-3.25c0,0,3.39,0.52,3.39,0.52c-7.23,2.48-16.46,2.38-21.77-3.93
					c0,0,2.7,1.25,2.7,1.25c-8.55,0.03-13.81-6.88-12.89-15.12c2.48-15.39,19.61-25.05,33.4-28.48c18.11-4.43,41.91-1.77,57.33,9.04
					c-4.52-1.78-9.14-2.98-13.82-3.77c-18.06-2.79-37.78-2.04-53.92,7.2c-6.53,3.86-14.74,10.61-15.11,18.18
					c-0.14,3.52,1.98,5.46,5,5.88c0,0,2.7,1.25,2.7,1.25c3.35,3.88,9.45,3.29,13.92,1.87c1.18-0.43,2.46-0.19,3.39,0.52
					c6.33,5.17,15.05,2.65,21.31-1.44c0,0,3.93-2.26,3.93-2.26c1.32-0.75,2.79-1.59,4.23-2.29c1.74-0.83,3.83-0.09,4.66,1.65
					c1.98,9.32,12.33,4.33,18.22,1.65c4.92-1.95,9.72-5.65,11.87-10.35C323.76,791.89,322.54,786.73,321.65,782.4L321.65,782.4z"/>
			</g>
			<g>
				<path class="st5" d="M274.25,784.34c-7.96,5.57-19.41,15.69-15.31,26.37c0,0-6.79,1.94-6.79,1.94
					C249.46,798.7,263.05,789.04,274.25,784.34L274.25,784.34z"/>
			</g>
			<g>
				<path class="st5" d="M303.89,789.07c-0.83,1.59-3.14,2.98-4.47,4.14c-2.85,2.28-5.86,4.99-6.93,8.39
					c-0.48,1.54-0.51,3.07-0.31,4.57c0.27,1.96-1.09,3.76-3.05,4.04c-1.96,0.27-3.76-1.09-4.04-3.05c-0.04-2.87,1.2-5.78,2.73-8.07
					c2.66-3.8,6.69-5.8,10.71-7.41C300.1,790.98,302.66,790.32,303.89,789.07L303.89,789.07z"/>
			</g>
			<g>
				<path class="st5" d="M257.86,781.84c-6.99,4.66-14.01,11.02-16.48,19.18c-0.68,2.44-0.75,4.93-0.18,7.34
					c0.43,1.91-0.77,3.81-2.68,4.24c-1.91,0.43-3.81-0.77-4.24-2.68c-0.4-3.73,0.55-7.59,2.19-10.87
					C240.97,790.57,249.32,785.36,257.86,781.84L257.86,781.84z"/>
			</g>
		</g>
	</g>
	<g>
		<path class="st10" d="M390.9,455.57c-17.34,4.09-38.12,6.47-60.45,6.47c-22.35,0-43.13-2.38-60.48-6.49
			c11.69-11.87,33.65-29.63,60.46-29.63C357.25,425.93,379.22,443.7,390.9,455.57z"/>
	</g>
	<g>
		<path class="st11" d="M423.28,487.03"/>
	</g>
	<g>
		<g>
			<path class="st1" d="M404.42,466c0,0,27.23,19.23,26.05,68.95c17.55,27.57,33.32,81.7,3.74,119.11l-43.94,29.07
				c-11.81,5.98-32.11,11.92-59.83,11.92s-48.02-5.94-59.83-11.92l-43.94-29.07c-29.58-37.41-13.8-91.54,3.74-119.11
				c-1.19-49.73,26.05-68.95,26.05-68.95s28.55-12.67,73.98-12.67S404.42,466,404.42,466z"/>
		</g>
	</g>
	<g>
		<g>
			<path class="st1" d="M447.52,627.7c-2.59,9.29-6.87,18.23-13.31,26.37l-43.93,29.08c-11.81,5.98-32.12,11.92-59.83,11.92
				c-27.72,0-48.02-5.95-59.84-11.92l-43.94-29.08c-6.43-8.14-10.73-17.07-13.32-26.36c-9.31-33.36,3.33-71.18,17.06-92.75
				c-1.19-49.73,26.05-68.96,26.05-68.96s28.55-12.67,73.98-12.67c45.43,0,73.97,12.67,73.97,12.67s27.23,19.23,26.05,68.96
				C444.19,556.53,456.84,594.35,447.52,627.7z"/>
		</g>
	</g>
	<g>
		<path class="st4" d="M447.52,627.7c-2.59,9.29-6.87,18.23-13.31,26.37l-43.93,29.08c-11.81,5.98-32.12,11.92-59.83,11.92
			c-27.72,0-48.02-5.95-59.84-11.92l-43.94-29.08c-6.43-8.14-10.73-17.07-13.32-26.36c17.19,15.98,53.26,39.37,117.09,39.37
			C394.26,667.08,430.33,643.69,447.52,627.7z"/>
	</g>
	<g>
		<path class="st8" d="M403.32,654.63c-16.71,14.28-41.05,23.5-72.88,23.5h-0.01c-31.82,0-56.15-9.22-72.87-23.49
			c18.71,7.21,42.69,12.43,72.87,12.43C360.63,667.08,384.61,661.84,403.32,654.63z"/>
	</g>
	<g>
		<g>
			<path class="st4" d="M390.9,455.57c-17.34,4.09-38.12,6.47-60.45,6.47c-22.35,0-43.13-2.38-60.48-6.49
				c11.69-11.87,33.65-29.63,60.46-29.63C357.25,425.93,379.22,443.7,390.9,455.57z"/>
		</g>
	</g>
	<g>
		<g>
			<g>
				<path class="st5" d="M226.67,654.07c-8.59-6.79-14.33-16.85-17.25-27.34c-8.57-31.93,0.4-66.42,17.85-93.76
					c0,0-0.58,2.08-0.58,2.08c-0.04-6.53,0.46-13.08,1.53-19.53c3.18-18.94,11.93-38.47,28.23-49.51
					c-8.96,8.73-14.78,20.38-18.3,32.25c-1.76,5.92-2.87,12.01-3.52,18.14c-0.64,6.13-0.78,12.31-0.51,18.48
					c0.03,0.72-0.16,1.4-0.51,1.97c-15.15,25.87-23.6,58.44-17.32,88.15C218.55,635.13,222.23,644.49,226.67,654.07L226.67,654.07z"
					/>
			</g>
		</g>
		<g>
			<g>
				<path class="st5" d="M434.21,654.07c4.44-9.57,8.12-18.94,10.37-29.09c6.28-29.7-2.17-62.28-17.32-88.15
					c-0.37-0.61-0.54-1.3-0.51-1.96c0.26-6.17,0.13-12.35-0.51-18.48c-0.65-6.13-1.76-12.22-3.52-18.14
					c-3.51-11.86-9.34-23.51-18.3-32.25c16.3,11.04,25.05,30.57,28.23,49.51c1.07,6.46,1.57,13,1.53,19.53l-0.58-2.08
					c17.46,27.35,26.42,61.84,17.85,93.76C448.54,637.22,442.8,647.28,434.21,654.07L434.21,654.07z"/>
			</g>
		</g>
		<g>
			<path class="st5" d="M270.61,683.14c35.49,11.32,84.15,11.32,119.66,0C359.29,703.85,301.61,703.86,270.61,683.14L270.61,683.14z
				"/>
		</g>
	</g>
	<g>
		<path class="st11" d="M436.26,363.92"/>
	</g>
	<g>
		<path class="st7" d="M330.44,678.14h-0.01c-70.18,0-103.94-44.84-99.87-89.84c2-22.17,11.9-36.38,20.91-51.18
			c-5.68-56.53,27.91-79.21,78.97-58.41h0.01c51.06-20.8,84.65,1.88,78.97,58.41c9.01,14.8,18.91,29,20.91,51.18
			C434.39,633.3,400.62,678.14,330.44,678.14z"/>
	</g>
	<g>
		<path class="st8" d="M403.32,654.63c-16.71,14.28-41.05,23.5-72.88,23.5h-0.01c-31.82,0-56.15-9.22-72.87-23.49
			c18.71,7.21,42.69,12.43,72.87,12.43C360.63,667.08,384.61,661.84,403.32,654.63z"/>
	</g>
	<g>
		<g>
			<g>
				<path class="st7" d="M194.08,287.78c0.92-7.57,0.13-11.26-6.67-38.36c-8.4-33.44-48.76-31.09-60.67-5.79
					c-13.02,27.65,2.65,82.51,51.65,78.59C178.39,322.22,191.17,311.64,194.08,287.78z"/>
			</g>
			<g>
				<path class="st7" d="M194.08,287.78c-0.57,4.66-1.5,8.8-2.66,12.46c-4.75,15.12-13.03,21.97-13.03,21.97
					c-26.68,2.15-43.48-13.15-51.13-31.98c-6.42-15.76-6.45-34.01-0.51-46.6c11.91-25.3,52.27-27.66,60.66,5.79
					C194.21,276.52,195,280.21,194.08,287.78z"/>
			</g>
			<g class="st12">
				<path class="st3" d="M194.38,282.89c-0.98-5.22-2.85-12.76-6.02-25.4c-8.39-33.45-48.75-31.09-60.66-5.79
					c-3.34,7.11-4.8,16.01-4.27,25.24c-2.16-12.01-0.99-24.15,3.32-33.31c11.91-25.3,52.27-27.66,60.66,5.79
					C192.66,270.34,194.32,277.31,194.38,282.89z"/>
			</g>
			<g>
				<path class="st8" d="M191.42,300.24c-4.75,15.12-13.03,21.97-13.03,21.97c-26.68,2.15-43.48-13.15-51.13-31.98
					c6.39,7.42,12.64,11.24,18.23,8.09c5.42-3.05-6.99-8.64-9.42-23.23c-1.54-9.34-4.33-18.69,7.65-27.33
					c7.94-5.73,26.32,2.92,33.8,23.46C180.05,278.22,186.51,290.9,191.42,300.24z"/>
			</g>
			<g>
				<path class="st5" d="M173.47,325.95c-8.6,0-16.53-1.78-23.64-5.31c-7.68-3.81-14.2-9.55-19.39-17.04
					c-6.08-8.78-10.07-19.89-11.25-31.27c-1.14-11.09,0.4-21.81,4.35-30.19c3.33-7.07,8.77-12.8,15.74-16.58
					c6.57-3.57,14.2-5.14,21.48-4.43c14.88,1.45,26.12,11.71,30.07,27.44c3.57,14.2,5.35,21.47,6.28,26.74
					c1.01,5.72,0.95,8.95,0.47,12.9c-3.04,24.97-16.37,36.27-16.94,36.74c-0.56,0.46-1.25,0.74-1.97,0.8
					C176.91,325.88,175.18,325.95,173.47,325.95z M157.31,228.01c-5.03,0-10.14,1.29-14.65,3.74c-5.64,3.06-10.04,7.69-12.72,13.38
					c-3.41,7.24-4.73,16.63-3.71,26.46c1.05,10.22,4.62,20.16,10.03,27.98c6.6,9.54,18.99,20.52,40.65,19.21
					c1.08-1.08,3.19-3.4,5.44-7.01c2.98-4.79,6.83-12.92,8.23-24.42l0,0c0.86-7.03,0.04-10.67-6.59-37.07
					c-1.7-6.79-4.87-12.2-9.4-16.07c-4.01-3.43-9.03-5.53-14.51-6.06C159.16,228.06,158.24,228.01,157.31,228.01z"/>
			</g>
			<g>
				<path class="st5" d="M134.91,260.71c0.24-7.39,6.26-14.59,13.77-15.92c8.19-1.59,15.53,4.47,19.7,10.92
					c2.87,4.29,4.99,8.94,6.69,13.67l-6.77,2c-2.06-8.43-5.2-18.21-13.08-22.61C146.9,244.22,136.18,251.64,134.91,260.71
					L134.91,260.71z"/>
			</g>
			<g>
				<path class="st5" d="M136.07,275.1c3.99,15.25,19.61,25.92,29.67,8.74c1.08-1.7,1.98-3.56,2.84-5.42l6.24,3.31
					c-2.53,4-5.37,7.85-9.2,10.81C151.6,303.69,137.55,289.71,136.07,275.1L136.07,275.1z"/>
			</g>
			<g>
				<path class="st7" d="M163.23,292.85c0,0-14.86-6.66-13.91-17.21c0.98-10.94,16.23-9.41,16.23-9.41"/>
				<path class="st5" d="M162.27,295c-0.67-0.3-16.38-7.49-15.29-19.57c0.29-3.27,1.66-5.93,4.06-7.92
					c5.45-4.5,14.37-3.66,14.75-3.62l-0.47,4.68c-0.07-0.01-7.37-0.67-11.29,2.58c-1.41,1.17-2.18,2.71-2.36,4.7
					c-0.78,8.74,12.4,14.8,12.53,14.86L162.27,295z"/>
			</g>
		</g>
		<g>
			<g>
				<path class="st7" d="M466.82,287.62c-0.93-7.57-0.15-11.26,6.62-38.36c8.36-33.45,48.72-31.14,60.66-5.86
					c13.05,27.64-2.55,82.52-51.56,78.65C482.55,322.04,469.76,311.48,466.82,287.62z"/>
			</g>
			<g>
				<path class="st7" d="M466.82,287.62c0.57,4.66,1.51,8.8,2.68,12.46c4.77,15.12,13.06,21.96,13.06,21.96
					c26.68,2.12,43.46-13.2,51.09-32.04c6.41-15.77,6.41-34.01,0.46-46.6c-11.94-25.29-52.3-27.6-60.66,5.86
					C466.68,276.36,465.89,280.05,466.82,287.62z"/>
			</g>
			<g class="st12">
				<path class="st3" d="M466.52,282.73c0.98-5.22,2.83-12.77,5.99-25.4c8.35-33.46,48.72-31.14,60.66-5.86
					c3.35,7.1,4.82,16,4.3,25.24c2.15-12.01,0.97-24.15-3.36-33.31c-11.94-25.29-52.3-27.6-60.66,5.86
					C468.22,270.18,466.57,277.16,466.52,282.73z"/>
			</g>
			<g>
				<path class="st8" d="M469.5,300.08c4.77,15.12,13.06,21.96,13.06,21.96c26.68,2.12,43.46-13.2,51.09-32.04
					c-6.38,7.43-12.63,11.25-18.22,8.11c-5.43-3.04,6.98-8.65,9.39-23.24c1.53-9.34,4.31-18.7-7.68-27.32
					c-7.95-5.72-26.31,2.95-33.77,23.5C480.84,278.04,474.4,290.73,469.5,300.08z"/>
			</g>
			<g>
				<path class="st5" d="M487.41,325.77c-1.69,0-3.4-0.07-5.14-0.21c-0.72-0.06-1.41-0.34-1.97-0.8
					c-0.57-0.47-13.91-11.75-16.98-36.72c0,0,0,0,0,0c-0.49-3.95-0.56-7.18,0.45-12.9c0.93-5.28,2.7-12.55,6.25-26.75
					c3.93-15.74,15.16-26.01,30.04-27.48c7.28-0.72,14.91,0.85,21.48,4.4c6.98,3.77,12.43,9.5,15.76,16.56
					c3.96,8.38,5.51,19.1,4.38,30.18c-1.16,11.39-5.14,22.5-11.21,31.29c-5.18,7.5-11.69,13.24-19.37,17.07
					C503.98,323.98,496.03,325.77,487.41,325.77z M484.04,318.61c21.66,1.28,34.03-9.71,40.62-19.26c5.4-7.83,8.95-17.77,10-27.99
					c1-9.83-0.33-19.22-3.74-26.45c-2.69-5.69-7.09-10.31-12.74-13.37c-5.35-2.89-11.54-4.17-17.43-3.59
					c-5.47,0.54-10.49,2.64-14.5,6.08c-4.53,3.88-7.68,9.29-9.38,16.08c-6.6,26.41-7.41,30.05-6.54,37.08
					c0.78,6.35,2.85,15.74,8.26,24.41C480.84,315.21,482.95,317.52,484.04,318.61z"/>
			</g>
			<g>
				<path class="st5" d="M525.96,260.49c-1.28-9.07-12.01-16.48-20.32-11.92c-7.88,4.41-11,14.18-13.06,22.63
					c0,0-6.78-1.99-6.78-1.99c1.7-4.73,3.81-9.39,6.67-13.68c4.16-6.45,11.5-12.52,19.69-10.94
					C519.68,245.91,525.71,253.09,525.96,260.49L525.96,260.49z"/>
			</g>
			<g>
				<path class="st5" d="M524.82,274.87c-1.47,14.62-15.5,28.6-29.53,17.47c-3.83-2.95-6.68-6.79-9.21-10.8l6.23-3.32
					c0.87,1.86,1.77,3.72,2.85,5.42C505.25,300.83,520.86,290.1,524.82,274.87L524.82,274.87z"/>
			</g>
			<g>
				<path class="st7" d="M497.67,292.66c0,0,14.85-6.68,13.89-17.23c-0.99-10.94-16.24-9.39-16.24-9.39"/>
				<path class="st5" d="M498.64,294.81l-1.93-4.29c0.13-0.06,13.31-6.13,12.52-14.87c-0.18-1.99-0.95-3.53-2.36-4.7
					c-3.92-3.25-11.22-2.57-11.3-2.56l-0.47-4.68c0.38-0.04,9.3-0.89,14.75,3.61c2.4,1.98,3.77,4.64,4.07,7.91
					C515.01,287.3,499.31,294.5,498.64,294.81z"/>
			</g>
		</g>
		<g>
			<path class="st1" d="M330.32,53.34c101.33-0.06,146.44,63.4,158.82,107.58c14.31,51.07-1.49,92.58,6.21,123.11
				c54.86,149.04-112.67,159.89-164.8,159.92c-52.13,0.03-219.68-10.63-164.98-159.73c7.67-30.54-8.18-72.03,6.07-123.12
				C183.96,116.91,228.99,53.4,330.32,53.34z"/>
		</g>
		<g class="st12">
			<path class="st3" d="M495.34,214.46c-0.27-13.78-1.83-28.49-6.21-44.1c-12.38-44.18-57.48-107.64-158.81-107.58
				c-101.33,0.06-146.36,63.57-158.69,107.76c-4.35,15.61-5.89,30.33-6.16,44.11c-0.31-16.44,0.79-34.31,6.15-53.54
				c12.33-44.2,57.35-107.71,158.69-107.77c101.33-0.06,146.44,63.4,158.81,107.59C494.51,180.15,495.64,198.02,495.34,214.46z"/>
		</g>
		<g>
			<path class="st4" d="M330.54,443.96c-47.3,0.03-189.64-8.75-174.72-121.78c12.75,83.65,106.12,99.45,174.71,99.41
				s161.93-15.94,174.59-99.6C520.17,435,377.85,443.93,330.54,443.96z"/>
		</g>
		<g>
			<path class="st8" d="M438.87,403.38c-35.74,34.34-108.33,30.21-108.33,30.21s-72.59,4.22-108.37-30.08
				c33.31,14.81,74,18.83,108.36,18.81C364.89,422.29,405.56,418.22,438.87,403.38z"/>
		</g>
		<g>
			<path class="st5" d="M330.32,447.49c-20.27,0-50.72-1.56-81.11-8.94c-38.88-9.44-66.63-25.74-82.5-48.45
				c-19.01-27.2-20.53-63.17-4.52-106.92c3.07-12.42,2.11-26.87,1-43.58c-1.55-23.22-3.3-49.53,5.05-79.44
				c3.43-12.28,9.01-24.87,16.15-36.39c8.39-13.54,18.8-25.59,30.95-35.8c13.97-11.75,30.12-20.93,48-27.31
				c20.16-7.19,42.7-10.84,66.99-10.85c0.05,0,0.09,0,0.14,0c24.24,0,46.73,3.62,66.87,10.77c17.88,6.35,34.04,15.52,48.03,27.25
				c12.16,10.2,22.59,22.23,30.99,35.77c7.15,11.51,12.75,24.09,16.19,36.37c8.38,29.91,6.66,56.22,5.14,79.44
				c-1.09,16.72-2.04,31.16,1.05,43.58c16.06,43.73,14.58,79.7-4.4,106.92c-15.84,22.73-43.58,39.06-82.44,48.54
				c-30.5,7.44-61.06,9.02-81.33,9.03C330.47,447.49,330.39,447.49,330.32,447.49z M330.32,53.34l0,3.53
				c-23.48,0.01-45.23,3.53-64.63,10.44c-17.08,6.09-32.5,14.86-45.82,26.06c-11.58,9.73-21.5,21.21-29.49,34.11
				c-6.79,10.96-12.1,22.92-15.35,34.57c-8.02,28.75-6.31,54.43-4.8,77.08c1.16,17.39,2.16,32.41-1.24,45.95
				c-0.03,0.12-0.07,0.24-0.11,0.36c-8.04,21.92-11.54,41.88-10.41,59.33c1.01,15.53,5.73,29.42,14.02,41.29
				c34.26,49.03,121.62,54.37,157.84,54.37c0.07,0,0.14,0,0.21,0c36.08-0.02,123.71-5.38,157.99-54.55
				c8.28-11.88,12.98-25.78,13.98-41.31c1.12-17.45-2.41-37.41-10.47-59.32c-0.04-0.12-0.08-0.24-0.11-0.36
				c-3.41-13.54-2.43-28.56-1.29-45.95c1.48-22.65,3.16-48.33-4.89-77.07c-3.26-11.65-8.58-23.59-15.39-34.55
				c-8.01-12.9-17.94-24.36-29.53-34.08c-13.34-11.19-28.77-19.94-45.85-26.01c-19.37-6.88-41.07-10.37-64.5-10.37
				c-0.05,0-0.09,0-0.14,0L330.32,53.34z"/>
		</g>
		<g>
			<path class="st7" d="M330.4,187.51c18.22-0.01,33.71-29.68,75.85-23.27c36.73,5.59,57.1,43.72,56.9,73.52
				c-0.31,46.15-29.33,68.81-29.33,68.81s49.26,25.84,18.33,80.99c-28.49,50.8-121.6,45.49-121.6,45.49s-93.1,5.42-121.65-45.35
				c-31-55.11,18.23-81.01,18.23-81.01s-29.05-22.62-29.41-68.77c-0.23-29.8,20.09-67.95,56.81-73.59
				C296.66,157.86,312.18,187.52,330.4,187.51z"/>
		</g>
		<g>
			<path class="st7" d="M330.4,187.51c18.22-0.01,33.71-29.68,75.85-23.27c36.73,5.59,57.1,43.72,56.9,73.52
				c-0.31,46.15-29.33,68.81-29.33,68.81s49.26,25.84,18.33,80.99c-28.49,50.8-121.6,45.49-121.6,45.49s-93.1,5.42-121.65-45.35
				c-31-55.11,18.23-81.01,18.23-81.01s-29.05-22.62-29.41-68.77c-0.23-29.8,20.09-67.95,56.81-73.59
				C296.66,157.86,312.18,187.52,330.4,187.51z"/>
		</g>
		<g>
			<path class="st8" d="M438.87,402.83c-35.74,34.34-108.33,30.21-108.33,30.21s-72.59,4.22-108.37-30.08
				c33.31,14.81,74,18.83,108.36,18.81C364.89,421.75,405.56,417.68,438.87,402.83z"/>
		</g>
		<g>
			<path class="st5" d="M322.61,436.75c-9.19,0-25.18-0.59-42.84-3.87c-15.93-2.96-29.88-7.52-41.46-13.55
				c-14.71-7.66-25.65-17.72-32.5-29.9c-10.32-18.34-13.2-35.6-8.56-51.3c5.02-16.99,17.47-27.45,24.04-31.97
				c-2.96-2.93-7.33-7.8-11.71-14.65c-4.41-6.89-7.93-14.39-10.48-22.3c-3.18-9.86-4.83-20.38-4.92-31.27
				c-0.13-16.28,5.4-33.74,15.17-47.89c5.3-7.68,11.62-14.06,18.78-18.96c7.87-5.38,16.57-8.83,25.86-10.26
				c12.35-1.89,23.62-1.01,34.44,2.72c9.29,3.2,16.68,7.92,23.19,12.08c7.29,4.66,13.04,8.34,18.77,8.34c0,0,0.01,0,0.01,0
				c5.73,0,11.49-3.69,18.77-8.36c6.51-4.17,13.89-8.9,23.18-12.11c10.81-3.74,22.08-4.64,34.43-2.76c9.3,1.41,18,4.86,25.87,10.23
				c7.16,4.89,13.49,11.26,18.8,18.93c9.79,14.14,15.34,31.59,15.23,47.87c-0.07,10.88-1.72,21.41-4.88,31.27
				c-2.54,7.91-6.05,15.42-10.45,22.31c-4.38,6.86-8.74,11.74-11.7,14.67c6.58,4.51,19.04,14.96,24.08,31.94
				c4.65,15.69,1.79,32.95-8.5,51.31c-6.84,12.2-17.76,22.27-32.47,29.94c-11.58,6.04-25.52,10.62-41.45,13.6
				c-25.93,4.85-48.25,3.89-50.76,3.76C329.74,436.62,326.92,436.75,322.61,436.75z M266.18,166.94c-3.6,0-7.3,0.29-11.13,0.88
				c-8.24,1.26-15.96,4.33-22.94,9.11c-6.44,4.41-12.14,10.17-16.95,17.14c-8.83,12.8-14.04,29.18-13.92,43.82
				c0.08,10.09,1.6,19.84,4.51,28.96c2.33,7.3,5.56,14.23,9.6,20.59c6.9,10.88,13.87,16.41,13.94,16.47
				c0.94,0.74,1.45,1.91,1.34,3.1c-0.11,1.19-0.81,2.25-1.87,2.81c-0.18,0.1-18.84,10.19-24.76,30.39
				c-4.04,13.78-1.36,29.17,7.97,45.76c6.16,10.95,16.1,20.06,29.54,27.07c10.94,5.7,24.21,10.04,39.42,12.88
				c26.13,4.88,49.18,3.62,49.41,3.61c0.13-0.01,0.27-0.01,0.41,0c0.23,0.01,23.28,1.24,49.41-3.67
				c15.21-2.86,28.47-7.21,39.4-12.92c13.43-7.02,23.36-16.14,29.51-27.1c9.31-16.6,11.97-31.99,7.91-45.77
				c-5.95-20.19-24.62-30.27-24.8-30.36c-1.06-0.56-1.76-1.62-1.87-2.81c-0.11-1.19,0.4-2.36,1.34-3.1
				c0.06-0.05,7.02-5.59,13.91-16.48c4.03-6.37,7.25-13.3,9.58-20.6c2.91-9.13,4.41-18.87,4.48-28.97
				c0.1-14.64-5.12-31.02-13.97-43.81c-4.82-6.96-10.53-12.72-16.97-17.12c-6.99-4.77-14.71-7.83-22.95-9.08
				c-11.2-1.7-21.36-0.9-31.06,2.45c-8.49,2.94-15.49,7.42-21.67,11.38c-7.93,5.08-14.78,9.47-22.58,9.48l0-3.53l0,3.53
				c0,0-0.01,0-0.01,0c-7.8,0-14.65-4.38-22.58-9.45c-6.18-3.95-13.19-8.43-21.69-11.36C279.73,168.03,273.14,166.94,266.18,166.94z
				"/>
		</g>
		<g>
			<path class="st1" d="M390.92,74.44c6.81-9.72,27.3-8.49,22.57-16.28c-9.5-15.64-46.91-6.9-46.35-9.39
				c4.42-19.72-3-34.54-11.94-32.58c-2.65,0.58-26.84,25.75-62.27,38.71c-10.16,2.95-40.23,9.64-67.24,29.44L390.92,74.44z"/>
		</g>
		<g>
			<path class="st1" d="M390.93,74.44l-148.7,8.91l-16.54,0.99c27.01-19.8,57.08-26.48,67.25-29.44
				c35.43-12.97,59.62-38.13,62.27-38.71c3.94-0.86,7.6,1.54,10.07,6.19c3.12,5.89,4.35,15.37,1.88,26.4
				c-0.56,2.47,36.85-6.25,46.36,9.38C418.22,65.95,397.73,64.73,390.93,74.44z"/>
		</g>
		<g class="st12">
			<path class="st3" d="M365.26,22.37c-12.54-3.14-25.44,28.24-68.22,39.91c-38.38,10.47-54.33,20.75-54.82,21.07l-16.54,0.99
				c27.01-19.8,57.08-26.48,67.25-29.44c35.43-12.97,59.62-38.13,62.27-38.71C359.14,15.33,362.8,17.73,365.26,22.37z"/>
		</g>
		<g>
			<path class="st5" d="M390.92,74.44c2.19-5.48,8.24-8.57,13.22-10.99c1.92-0.94,5.87-2.61,6.46-3.59
				c-0.07,0.12-0.13,0.32-0.14,0.44c-0.02,0.12,0,0.16-0.02,0.13l-0.18-0.28c-6.51-8.96-20.03-8.14-30.18-7.96
				c-3.85,0.13-7.8,0.61-11.76,0.58c-0.75-0.06-1.06-0.03-2.01-0.32c-1.67-0.45-3.15-2.51-2.62-4.48c0.06-0.3,0.23-1.13,0.3-1.44
				c1.45-7.88,1.62-16.85-2.57-23.71c-1.62-2.33-3.22-3.59-5.45-3.19c-0.09,0.04,0.54-0.17,0.46-0.15l0.09-0.04
				c-3.4,2.49-6.74,5.53-10.13,8.18c-15.41,12.39-32.46,23.17-51.08,30.16c-2.56,0.96-5.71,1.66-8.28,2.41
				c-21.11,5.7-41.58,14.11-59.26,27c0,0-4.18-5.7-4.18-5.7c19.64-14.37,42.46-23.22,65.58-29.21c3.94-1,7.47-2.6,11.21-4.21
				c15.01-6.64,28.77-15.67,41.58-25.97c3.34-2.64,6.38-5.34,9.83-7.98c0.41-0.33,1.14-0.8,1.75-1.08c3.33-1.31,7.61-0.2,10.22,1.97
				c9.12,7.98,9.12,22.03,7.16,32.88c-0.1,0.35-0.25,1.29-0.34,1.63c-0.03,0.16,0.07-0.25,0.07-0.54c0.12-0.83-0.53-2.22-1.05-2.58
				c-0.63-0.55-0.92-0.57-1.05-0.64c-0.3-0.09-0.25-0.06-0.22-0.06l0.27,0.02c13.9-0.45,34.79-3.31,45.8,7.39
				c3.66,3.65,5.3,9.19,0.43,12.52C407.12,70.13,397.92,68.56,390.92,74.44L390.92,74.44z"/>
		</g>
		<g>
			<path class="st7" d="M348.68,296.22c0,0-1.92-0.39-3.84,1.38c-1.83,1.69-6.79,9.32-14.38,9.33c-7.59,0-12.56-7.63-14.39-9.31
				c-1.92-1.77-3.84-1.38-3.84-1.38L348.68,296.22z"/>
		</g>
		<g>
			<g>
				<path class="st7" d="M349.16,306.61c0,0,10.98-0.77,11.51-9.1c0.65-10.16-9.29-16.3-14.43-16.26
					c-8.27,0.06-12.48,9.26-15.78,9.26s-7.52-9.2-15.79-9.24c-5.14-0.03-15.07,6.12-14.41,16.28c0.54,8.33,11.52,9.08,11.52,9.08
					s7.81,5.09,18.7,5.08C341.36,311.71,349.16,306.61,349.16,306.61z"/>
			</g>
			<g class="st12">
				<path class="st3" d="M360.67,297.52c-0.03,0.52-0.11,1.01-0.22,1.48c-1.52-8-9.71-12.71-14.21-12.67
					c-8.27,0.05-6.94,8.92-15.78,8.93c-8.83,0.01-7.52-8.87-15.79-8.91c-4.51-0.03-12.69,4.69-14.2,12.69
					c-0.11-0.47-0.19-0.96-0.22-1.48c-0.66-10.16,9.26-16.31,14.41-16.28c8.27,0.05,12.49,9.24,15.79,9.24
					c3.3,0,7.51-9.2,15.78-9.26C351.38,281.22,361.31,287.36,360.67,297.52z"/>
			</g>
			<g>
				<path class="st5" d="M349.16,306.61c4.15-1.1,9.22-3.64,9.63-8.15c0.59-6.94-5.97-13.89-12.83-13.94
					c-5.26,0.43-8.14,5.91-12.46,8.65c-4.7,2.71-8.16-1.53-11.19-4.46c-2.62-2.48-5.07-4.4-8.52-4.16
					c-5.35,0.87-10.42,5.4-11.44,10.85c-0.7,3.2,0.05,6.15,2.95,8.24c1.81,1.38,4.09,2.35,6.47,2.99c-2.48,0.13-5.03-0.23-7.46-1.3
					c-8.8-3.65-6.93-16.17-0.95-21.74c7.46-7.49,16.33-7.15,23.72,0.02c0.7,0.63,2.91,2.84,3.65,3.31c0,0,0.17,0.12,0.17,0.12
					c0.02,0,0.01-0.02,0.01-0.01c0.08,0.06-0.26-0.13-0.44-0.04c-0.18-0.08-0.52,0.11-0.44,0.05c0-0.01-0.01,0.01,0.01,0.01
					c0.21-0.14,0.36-0.24,0.62-0.45c3.22-2.86,5.94-6.03,10.39-7.66c5.82-2.39,12.41,0.4,16.51,4.64
					C366.5,292.9,363.77,307.37,349.16,306.61L349.16,306.61z"/>
			</g>
			<g>
				<path class="st5" d="M348.68,296.22c-1.87,0.31-2.95,1.5-3.84,3.07c-0.95,1.56-2.05,3.15-3.37,4.59
					c-6.14,7.12-15.86,7.13-22.01,0.02c-2.02-1.99-3.03-4.61-4.88-6.55c-0.62-0.54-1.4-0.97-2.34-1.1c0.88-0.39,1.96-0.36,2.95-0.05
					c2.67,1.02,4.52,3.5,6.76,4.97c5.6,4.47,11.44,4.48,17.03-0.01C341.85,299.37,344.73,294.79,348.68,296.22L348.68,296.22z"/>
			</g>
		</g>
		<g>
			<g>
				<g>
					
						<ellipse transform="matrix(1 -1.157137e-03 1.157137e-03 1 -0.3039 0.3037)" class="st5" cx="262.28" cy="262.77" rx="34.59" ry="39.95"/>
				</g>
			</g>
			<g>
				<g>
					
						<ellipse transform="matrix(1 -1.155268e-03 1.155268e-03 1 -0.29 0.314)" class="st3" cx="271.67" cy="251.22" rx="11.28" ry="14.28"/>
				</g>
			</g>
			<g class="st13">
				<g>
					
						<ellipse transform="matrix(1 -1.158377e-03 1.158377e-03 1 -0.3198 0.2891)" class="st3" cx="249.39" cy="276.24" rx="6.25" ry="9.66"/>
				</g>
			</g>
		</g>
		<g>
			<g>
				<g>
					<path class="st5" d="M364.02,262.74c0,22.02,15.46,39.87,34.53,39.87c19.07,0,34.53-17.85,34.53-39.87
						s-15.46-39.87-34.53-39.87C379.48,222.87,364.02,240.72,364.02,262.74z"/>
				</g>
			</g>
			<g>
				<g>
					<ellipse class="st3" cx="389.16" cy="251.22" rx="11.26" ry="14.25"/>
				</g>
			</g>
			<g class="st13">
				<g>
					<ellipse class="st3" cx="411.43" cy="276.17" rx="6.23" ry="9.64"/>
				</g>
			</g>
		</g>
	</g>
	<g>
		<path class="st5" d="M342.09,361.74c2.37-7.16,7.49-13.36,14.09-17.04c8.62-4.78,21.01-4.39,27.6,3.55
			c-4.18-0.8-7.99-1.04-11.63-0.75c-5.93,0.4-11.34,2.46-16.46,5.29C350.95,355.52,346.83,358.79,342.09,361.74L342.09,361.74z"/>
	</g>
	<g>
		
			<ellipse transform="matrix(0.2298 -0.9732 0.9732 0.2298 -280.0699 675.7731)" class="st5" cx="286.9" cy="514.83" rx="6.43" ry="6.43"/>
	</g>
	<g>
		
			<ellipse transform="matrix(0.1602 -0.9871 0.9871 0.1602 -191.0313 805.1263)" class="st5" cx="377.64" cy="514.83" rx="6.43" ry="6.43"/>
	</g>
	<g>
		<g>
			<path class="st7" d="M322.01,611.27c0.86-10.47,8.92-18.36,18-17.62c9.08,0.75,15.75,9.84,14.89,20.31
				c-0.86,10.47-8.92,18.36-18,17.62"/>
		</g>
		<g>
			<path class="st8" d="M354.91,613.96c-0.86,10.49-8.93,18.37-18,17.62c0,0-5.37-0.44-10.01-6.74s-4.88-13.59-4.88-13.59
				c0.28-3.4,1.31-6.53,2.91-9.17c-2.01,9.82,2.14,19.08,9.77,21.18c8.05,2.23,16.91-4.42,19.79-14.84
				c0.04-0.14,0.08-0.28,0.11-0.42C354.95,609.91,355.08,611.9,354.91,613.96z"/>
		</g>
		<g>
			<path class="st5" d="M322.01,611.27c-1.96-18.96,21.16-28.85,32.44-12.57c6.95,9.97,4.15,25.62-6.68,31.52
				c-3.39,1.88-7.44,2.41-10.87,1.37c1.77-0.28,3.42-0.76,4.92-1.47c9.87-4.69,12.74-18.95,6.8-27.44
				C339.69,590.43,325.4,598.79,322.01,611.27L322.01,611.27z"/>
		</g>
		<g>
			<g>
				<path class="st5" d="M344.59,617.25c-0.53,0.21-1.7-1.05-5.08-3.46c-3.79,1.81-5.89,2.78-6.41,2.48
					c-0.51-0.29,0.49-2.51,4.13-4.22c-3.2-3.09-3.71-6.85-3.15-6.94c0.56-0.09,2.31,3.24,5.7,5.66c3.79-1.81,5.29-4.91,5.78-4.7
					c0.49,0.21-0.09,3.88-3.52,6.39C345.03,614.76,345.12,617.04,344.59,617.25z"/>
			</g>
		</g>
	</g>
</g>
</svg>
