<?xml version="1.0" encoding="utf-8"?>
<!-- Generator: Adobe Illustrator 28.0.0, SVG Export Plug-In . SVG Version: 6.00 Build 0)  -->
<svg version="1.1" id="Layer_1" xmlns="http://www.w3.org/2000/svg" xmlns:xlink="http://www.w3.org/1999/xlink" x="0px" y="0px"
	 viewBox="0 0 781.37 833.39" style="enable-background:new 0 0 781.37 833.39;" xml:space="preserve">
<style type="text/css">
	.st0{fill:#AD7E4F;}
	.st1{fill:#CE623A;}
	.st2{fill:#9C5F3C;}
	.st3{fill:#B8462F;}
	.st4{fill:#650000;}
	.st5{fill:#F5D2B2;}
	.st6{fill:#F0B288;}
	.st7{opacity:0.35;}
	.st8{fill:#FFFFFF;}
	.st9{fill:#F5CFB3;}
	.st10{fill:#DCAE95;}
	.st11{fill:#512717;}
	.st12{fill:#5E3519;}
	.st13{fill:#EE8075;}
	.st14{fill:#F04A4A;}
	.st15{fill:#B1CBD9;}
	.st16{fill:none;stroke:#512717;stroke-width:31.127;stroke-linecap:round;stroke-miterlimit:10;}
	.st17{fill:#F5D2B2;stroke:#5E3519;stroke-width:31.127;stroke-linecap:round;stroke-linejoin:round;stroke-miterlimit:10;}
	.st18{opacity:0.2;}
	.st19{fill:#F9D507;}
	.st20{fill:#F8AD0B;}
	.st21{fill:#F8B30B;}
	.st22{opacity:0.7;}
	.st23{fill:#B4E61B;}
	.st24{fill:#80D20D;}
</style>
<g>
	<g>
		<g>
			<path class="st0" d="M308.74,390.47C157.5,327.97,169.9,185.19,122.74,170.86c-30.86-10.44-79.25-11.44-86.97,20.91
				C13.9,283.36,85.6,442.5,274.03,476.86"/>
		</g>
		<g>
			<path class="st0" d="M308.74,390.47l-21.36,53.16l-13.35,33.23C131.17,450.81,55.41,353.04,36.65,267.36
				c-5.99-27.34-6.17-53.43-0.88-75.59c7.73-32.35,56.12-31.35,86.98-20.92C169.9,185.19,157.5,327.98,308.74,390.47z"/>
		</g>
		<g>
			<path class="st0" d="M308.74,390.47l-21.36,53.16l-13.35,33.23C131.17,450.81,55.41,353.04,36.65,267.36
				c-5.99-27.34-6.17-53.43-0.88-75.59c0.56-2.36,1.35-4.54,2.32-6.55c0-0.01,0-0.01,0-0.02c12.39-25.59,56.06-24.01,84.66-14.35
				c4.18,1.27,7.9,3.55,11.31,6.71C168.99,209.92,170.93,333.53,308.74,390.47z"/>
		</g>
		<g>
			<path class="st0" d="M308.74,390.47l-11.35,28.26l-10,24.91l-13.35,33.23C131.17,450.81,55.41,353.04,36.65,267.36
				c-5.99-27.34-6.17-53.43-0.88-75.59c0.56-2.36,1.35-4.54,2.32-6.55c0-0.01,0-0.01,0-0.02c12.39-25.59,56.06-24.01,84.66-14.35
				c4.18,1.27,7.9,3.55,11.31,6.71c26.29,24.34,33.9,100.35,94.76,160.74C248.83,358.19,274.62,376.38,308.74,390.47z"/>
		</g>
		<g>
			<path class="st0" d="M308.73,390.46l-8.01,19.95l-3.34,8.31l-10.01,24.91l-13.35,33.22C131.17,450.81,55.4,353.04,36.65,267.37
				c-5.99-27.33-6.17-53.43-0.89-75.6c0.57-2.35,1.35-4.53,2.32-6.54c0-0.01,0-0.01,0-0.02c12.4-25.59,56.07-24.02,84.66-14.35
				c4.18,1.27,7.9,3.56,11.3,6.71c24.02,22.23,32.45,87.63,80.16,144.81c4.5,5.4,9.35,10.72,14.6,15.93
				C248.83,358.19,274.62,376.38,308.73,390.46z"/>
		</g>
		<g>
			<path class="st1" d="M308.73,390.46l-8.01,19.95l-3.34,8.31l-10.01,24.91l-13.35,33.22C131.17,450.81,55.4,353.04,36.65,267.37
				c-5.99-27.33-6.17-53.43-0.89-75.6c0.57-2.35,1.35-4.53,2.32-6.54c0-0.01,0-0.01,0-0.02c12.4-25.59,56.07-24.02,84.66-14.35
				c4.18,1.27,7.9,3.56,11.3,6.71c24.02,22.23,32.45,87.63,80.16,144.81c4.5,5.4,9.35,10.72,14.6,15.93
				c0.17,0.17,0.34,0.33,0.51,0.5c19.75,19.5,45.09,37.34,78.44,51.25C308.09,390.19,308.41,390.33,308.73,390.46z"/>
		</g>
		<g>
			<path class="st2" d="M307.76,390.06l-5.9,14.68c-34.55-20.27-57.85-45.51-72.54-65.93C249.07,358.3,274.41,376.15,307.76,390.06z
				"/>
		</g>
		<g>
			<path class="st2" d="M516.93,434.26c-15.61,2.72-30.49,4.53-44.68,5.53l-2.2-16.78C485.12,424.29,501.11,428.19,516.93,434.26z"
				/>
		</g>
		<g>
			<path class="st2" d="M482.01,438.98c-84.12,8.02-144.57-11.61-186.89-38.34c16.06-28.56,47.56-73.53,83.47-66.53
				C459.23,349.84,476.78,397.96,482.01,438.98z"/>
		</g>
		<g>
			<path class="st3" d="M80.91,218.79c-45.17,1.46-45.51-21.77-42.83-33.56c0-0.01,0-0.01,0-0.02
				c12.39-25.59,56.06-24.01,84.66-14.35c4.18,1.27,7.9,3.55,11.31,6.71C137.26,193.63,122.73,217.43,80.91,218.79z"/>
		</g>
		<g>
			<path class="st3" d="M287.38,443.63l-13.35,33.23C131.17,450.81,55.41,353.04,36.65,267.36
				C69.92,372.52,176.58,432.6,269.16,440.6C276.07,441.2,282.12,442.23,287.38,443.63z"/>
		</g>
		<g>
			<path class="st4" d="M274.03,481.13c-0.25,0-0.51-0.02-0.77-0.07C184.88,464.94,111.91,418.83,67.8,351.2
				c-33.64-51.56-47.5-113.03-36.18-160.42c2.43-10.17,8.5-18,18.06-23.29c20.04-11.08,51.82-8.33,74.44-0.68
				c18.99,5.77,28.79,29.33,41.21,59.16c21.34,51.28,50.57,121.5,145.05,160.55c2.18,0.9,3.22,3.4,2.32,5.58
				c-0.9,2.18-3.4,3.21-5.58,2.32c-43.25-17.88-77.12-43.58-103.54-78.57c-22.5-29.81-35.6-61.29-46.13-86.59
				c-11.55-27.75-20.67-49.67-35.93-54.31c-20.29-6.86-50.03-9.75-67.69,0.02c-7.37,4.07-12.04,10.06-13.88,17.8
				c-10.79,45.19,2.63,104.11,35.03,153.78c42.82,65.64,113.79,110.43,199.84,126.12c2.32,0.42,3.86,2.65,3.43,4.97
				C277.85,479.69,276.05,481.13,274.03,481.13z"/>
		</g>
		<g>
			<g>
				<g>
					<path class="st5" d="M97.3,199.54c9.09-2.68,13.67-5.81,17.41-8.39c16.51-11.38,20.43-24.59,35.36-41.08
						c5.7-6.3,4.77-18.44-6.21-21.74c-14.56-4.36-22.51,11.26-27.94,12.34c1.23-17.68-2.53-66.98-27.57-61.36
						c-15.61,3.51-8.06,29.13-8.63,37.46c-2.08-9.25-14.95-36.82-32.81-28.12c-16.19,7.89,2.64,28.81,3.94,38.93
						c-6.49-13.5-21.54-23.45-31.25-14.26c-9.08,8.6,4.68,26.33,12,34.51c1.98,2.21-1.94,52.52,28.64,53.9c0,0,12.04,1.55,21.31,0.9
						C89.99,202.06,97.3,199.54,97.3,199.54z"/>
				</g>
				<g>
					<path class="st6" d="M107.46,144.04c-8.41,3.81-15.85-0.32-23.91,17.67c-3.48,7.77-5.22-7.13-36.76,0.65
						c-1.05-1.95,2.3-12.4,8.69-14.89c8.08-3.15,16.26-0.7,21.57-2.96C81.76,142.5,94.25,130.47,107.46,144.04z"/>
				</g>
				<g>
					<path class="st6" d="M123.1,165.45c0,0-17.82,27.4-46.16,28.51c-30.85,1.21-31.15-21.73-31.15-21.73S61.36,197.95,123.1,165.45
						z"/>
				</g>
				<g>
					<path class="st4" d="M97.3,199.54c9.97-4.88,18.07-11.73,24.96-20.15c6.92-8.36,12.18-18.21,19.11-26.89
						c1.67-2.09,3.56-4.24,5.3-6.27c3.24-4.2,1.93-11.09-3.49-12.85c-6.4-2.7-12.61,1.25-17.54,5.8c-2.78,2.25-5.09,4.88-9.03,5.71
						c-2.7,0.58-5.28-1.79-4.96-4.51c1-13.52-1.55-58.69-20.73-57.16c-13.61,1.08-6.25,24.64-6.95,33.85
						c-0.34,4.91-7.29,5.43-8.41,0.71c-1.72-6.69-5.22-13.49-9.49-18.89c-3.89-4.8-9.26-9.09-15.4-7.15
						c-6.63,2-7.11,6.56-4.71,13.09c1.8,5.11,4.82,10.33,7.08,15.57c1.38,3.31,4.4,10.27-1.5,11.5c-1.95,0.31-3.76-0.77-4.55-2.46
						c-3.71-6.57-9.62-13.07-16.98-14.52c-3.54-0.62-7.39,1.1-8.2,4.57c-0.31,1.54,0.1,3.9,1.01,6.27c1.86,4.79,5.06,9.73,8.62,14.3
						c1.19,1.54,2.47,3.07,3.74,4.54c0.33,0.37,0.61,0.81,0.84,1.25c0.68,1.34,0.79,3.35,0.87,4.49c0.4,9.01,0.88,17.9,2.91,26.52
						c2.46,11.51,8.12,22.19,20.43,24.89c-6.41,1.13-13.37-1.21-18.14-5.77c-12.42-11.95-13.14-30.89-14.94-46.31
						c0.12,0.46,0.52,1.09,0.82,1.4l-0.1-0.11l-0.2-0.22c-7.66-8.84-17.57-20.4-15.94-33.02c1.45-8.98,11.56-14.48,20.04-12.63
						c10.83,2.37,18.62,11.19,22.91,20.67c0,0-8.08,2.39-8.08,2.39c-1.68-7.03-6.34-13.28-8.7-20.47
						c-2.69-6.79-2.91-15.92,3.73-20.75c5.94-4.63,14.34-5.55,20.94-2.02c11.12,6.06,18.07,19.22,21.3,30.94
						c0,0-8.42,0.65-8.42,0.65c0.1-1.93-0.22-4.5-0.43-6.6c-0.77-7.87-1.89-15.85,0.58-23.72c2.8-9.93,14.46-14.01,23.73-10.14
						c19.36,8.62,21.71,46.44,20.83,64.94c0.01,0.02-5.1-4.48-5.1-4.48c3.63-2.93,6.99-7.04,11.44-9.89
						c8.74-6.22,22.8-5.16,29.09,4.35c4.33,6.57,3.84,15.28-0.91,21.48c-0.83,1.02-2.02,2.35-2.9,3.34
						c-8.31,9.33-14.54,20.2-23.67,29.13C119.7,192.6,108.7,198.53,97.3,199.54L97.3,199.54z"/>
				</g>
				<g>
					<path class="st4" d="M118.36,144.18c-9.47,4.84-20.88,2.57-29.29,9.44c-2.5,2.02-4.38,4.86-5.52,8.09
						c0.67-7.13,6.12-13.14,12.43-16.24c5.62-3.25,12.61-4.47,17.58-8.36C118.53,133.3,123.74,140.96,118.36,144.18L118.36,144.18z"
						/>
				</g>
			</g>
			<g>
				<path class="st4" d="M96.11,121.85c-19.61-1.16-42.22,4.9-53.86,21.74C45.45,121.1,78,110.82,96.11,121.85L96.11,121.85z"/>
			</g>
		</g>
	</g>
	<g>
		<g>
			<path class="st0" d="M468.18,696.52c74.07,39.34,155.3,9.99,159.99-75.62c5.59-101.89-80.19-134.36-55.09-183.93
				c11.35-22.41,37.7-26.01,51.04-18.17c11.96,7.04,17.46,23.46,7.49,45.74c-13.28,29.68,23.84,65.21,59.41,29.95
				c32.96-32.68,19.61-106.5-28.22-131.04c-35.46-18.19-84.94-19.83-121.97,10.86c-52.58,43.58-37.28,110.75,8.47,173.86
				c25.36,34.98,27.16,70.96,12.83,92.54c-14.22,21.42-43.99,26.32-75.68,11.53"/>
		</g>
		<g>
			<path class="st1" d="M468.18,696.52c74.07,39.35,155.29,9.99,159.99-75.62c2.9-52.73-18.69-86.88-36.72-114.42
				c-16.79-25.66-30.49-45.59-18.38-69.5c11.36-22.4,37.71-26,51.05-18.17c11.96,7.04,17.46,23.46,7.48,45.74
				c-12.61,28.19,20.25,61.67,54.06,34.73c1.78-1.42,3.56-3.01,5.35-4.78c32.95-32.67,19.61-106.51-28.23-131.04
				c-35.46-18.19-84.94-19.84-121.96,10.86c-52.58,43.58-37.28,110.75,8.47,173.86c25.35,34.98,27.16,70.97,12.83,92.55
				c-7.84,11.8-20.4,18.6-35.41,19.83c-12.22,1.02-26.04-1.65-40.26-8.29L468.18,696.52z"/>
		</g>
		<g class="st7">
			<path class="st8" d="M507.81,449.05c1.54-23.49,11.71-44.97,32.96-62.57c13.65-11.31,28.97-18.23,44.67-21.55
				c-0.14,0.54-0.22,1.1-0.22,1.67c-0.06,7.29,11.07,13.28,24.86,13.39c13.79,0.09,25.02-5.73,25.07-13.01
				c0.01-0.48-0.05-0.94-0.13-1.41c9.8,2.25,19.17,5.67,27.72,10.05c28.21,14.47,44.42,46.07,46.21,76.28
				c2.45-33.49-14.12-72.01-46.16-88.44c-35.46-18.19-84.94-19.84-121.96,10.86C515.96,394.92,506.27,420.8,507.81,449.05z"/>
		</g>
		<g>
			<path class="st3" d="M468.18,696.52c74.07,39.35,155.29,9.99,159.99-75.62c0,0-15.43,75.92-78.66,60.32
				c-12.4-3.06-19.2-11.28-22.8-20.68c-12.22,1.02-26.04-1.65-40.26-8.29L468.18,696.52z"/>
		</g>
		<g>
			<path class="st3" d="M591.46,506.47c-16.79-25.66-30.49-45.59-18.38-69.5c11.36-22.4,37.71-26,51.05-18.17
				c11.96,7.04,17.46,23.46,7.48,45.74c-12.61,28.19,20.25,61.67,54.06,34.73c-9.93,1.68-22.05,1.66-31.57-4.75
				c-16.05-10.82-10.14-32.09-3.87-53.28c7.26-24.57-14.51-54.6-47.57-50.52C565.47,395.33,527.35,445.98,591.46,506.47z"/>
		</g>
		<g>
			<path class="st4" d="M533.33,718.01c-21.82,0-44.97-5.94-67.15-17.72c-2.08-1.11-2.87-3.69-1.77-5.77
				c1.11-2.08,3.69-2.87,5.77-1.77c38.39,20.39,79.58,22.26,110.18,4.99c26.17-14.77,41.63-42.14,43.55-77.07
				c2.88-52.45-19.32-86.34-37.15-113.57c-16.33-24.94-30.44-46.48-17.48-72.05c5.59-11.04,15.16-19.02,26.95-22.48
				c10.59-3.1,22.1-2.13,30.06,2.56c11.73,6.9,21.18,24.44,9.22,51.16c-6.1,13.64,0.25,27.38,9.68,33.91
				c12.54,8.68,28.55,5.41,42.82-8.74c13.64-13.52,19.55-36.05,15.8-60.26c-4.35-28.08-20.81-52.59-42.97-63.96
				c-29.86-15.32-78.5-21.8-117.29,10.35c-23.68,19.62-34.15,45.16-31.12,75.9c2.73,27.68,16.67,59.55,40.32,92.17
				c24.61,33.95,29.69,72.18,12.94,97.41c-15.66,23.59-47.48,28.71-81.04,13.04c-2.14-1-3.06-3.54-2.06-5.67
				c1-2.14,3.54-3.06,5.67-2.06c29.52,13.78,57.12,9.84,70.31-10.03c14.76-22.23,9.76-56.64-12.73-87.67
				c-24.54-33.84-39.02-67.16-41.9-96.34c-3.33-33.74,8.17-61.77,34.16-83.31c42-34.8,94.47-27.88,126.64-11.37
				c24.92,12.78,42.68,39.05,47.51,70.25c4.16,26.9-2.65,52.18-18.23,67.63c-20.52,20.35-41.19,18.35-53.69,9.7
				c-14.38-9.95-19.68-28.63-12.62-44.42c8.07-18.04,5.87-33.48-5.75-40.32c-5.99-3.52-14.93-4.19-23.33-1.72
				c-9.51,2.79-17.23,9.23-21.74,18.14c-10.72,21.17,0.91,38.93,17.01,63.51c18.52,28.28,41.57,63.47,38.53,118.72
				c-2.08,37.94-19.09,67.78-47.88,84.03C569.36,713.75,551.81,718.01,533.33,718.01z"/>
		</g>
		<g>
			<path class="st8" d="M534.05,494.82"/>
		</g>
	</g>
	<g>
		<g>
			<path class="st5" d="M354.79,766.64c0,0,25.76,7.59,23.74,25.34c-0.28,2.45-3.6,10.24-15.07,9.87
				c-11.55-0.37-23.68-4.85-35.86,1.49c-6.85,3.57-16.07,12.72-25.9,16.88c-7.64,3.24-18.13,3.55-23.21-4.32
				c0,0-15.35,6.85-20.81-5.46c0,0-12.51,0.92-13.13-13.13c-0.91-20.76,34.23-36.33,60.63-35.87
				C320.79,761.71,354.79,766.64,354.79,766.64z"/>
		</g>
		<g>
			<path class="st5" d="M378.52,791.98c-0.27,2.44-3.6,10.24-15.06,9.87c-11.55-0.38-23.68-4.86-35.86,1.49
				c-6.85,3.57-16.07,12.72-25.91,16.88c-7.64,3.24-18.13,3.55-23.2-4.32c0,0-15.36,6.86-20.81-5.45c0,0-12.51,0.92-13.14-13.14
				c-0.1-2.37,0.26-4.67,1.04-6.88c5.95-17.22,36.19-29.4,59.59-29c15.6,0.27,49.61,5.21,49.61,5.21s17.74,5.23,22.61,17.15
				C378.41,786.23,378.87,788.96,378.52,791.98z"/>
		</g>
		<g>
			<path class="st6" d="M378.52,791.98c-0.27,2.44-3.6,10.24-15.06,9.87c-11.55-0.38-23.68-4.86-35.86,1.49
				c-6.85,3.57-16.07,12.72-25.91,16.88c-7.64,3.24-18.13,3.55-23.2-4.32c0,0-15.36,6.86-20.81-5.45c0,0-12.51,0.92-13.14-13.14
				c-0.1-2.37,0.26-4.67,1.04-6.88c3.23,8.77,14.3,8.34,14.3,8.34c5.45,12.31,20.81,5.46,20.81,5.46c5.07,7.86,15.56,7.55,23.2,4.32
				c9.83-4.17,19.04-13.32,25.91-16.88c12.18-6.36,23.13,0.2,34.65,1.18c7.92,0.69,11.5-4.47,12.95-9.06
				C378.41,786.23,378.87,788.96,378.52,791.98z"/>
		</g>
		<g>
			<path class="st4" d="M291.53,826.64c-5.4,0-10.64-1.66-14.49-5.7c-3.45,1-9.1,1.99-14.38-0.04c-3.15-1.21-5.74-3.37-7.6-6.3
				c-2.48-0.3-6.1-1.24-9.22-4.01c-3.45-3.07-5.32-7.47-5.57-13.09c-0.3-6.89,2.65-13.73,8.55-19.79
				c11.94-12.26,35.65-20.9,56.42-20.54c15.7,0.27,48.75,5.04,50.15,5.25c0.2,0.03,0.4,0.07,0.59,0.13
				c1.19,0.35,29.17,8.84,26.77,29.92c-0.63,5.5-6.43,14.07-19.45,13.65c-3.34-0.11-6.68-0.53-9.92-0.94
				c-8.3-1.06-16.14-2.05-23.83,1.95c-2.51,1.31-5.64,3.65-8.95,6.13c-5.15,3.86-11,8.24-17.26,10.89
				C299.67,825.71,295.56,826.64,291.53,826.64z M278.49,811.63c1.41,0,2.78,0.7,3.59,1.96c4.12,6.39,13.22,4.7,17.95,2.7
				c5.3-2.25,10.7-6.29,15.47-9.86c3.6-2.7,7-5.24,10.13-6.87c10.06-5.24,20.04-3.97,28.85-2.85c3.18,0.4,6.19,0.79,9.12,0.88
				c9.4,0.35,10.69-6.03,10.69-6.09c1.49-13.12-17.93-19.86-20.44-20.67c-3.56-0.51-34.4-4.86-48.74-5.11
				c-18.34-0.29-39.88,7.4-50.16,17.96c-4.27,4.39-6.33,8.91-6.13,13.46c0.14,3.19,1.04,5.56,2.66,7.03
				c2.41,2.19,5.9,2.03,5.94,2.03c1.76-0.09,3.45,0.91,4.17,2.53c0.94,2.12,2.3,3.5,4.14,4.21c3.93,1.51,9.41-0.2,11.02-0.92
				C277.31,811.75,277.9,811.63,278.49,811.63z"/>
		</g>
		<g>
			<path class="st4" d="M298.7,785.27c-9.41,6.39-20.13,17.61-16.03,29.76c0.77,2.25-0.42,4.7-2.67,5.47
				c-2.25,0.77-4.7-0.42-5.47-2.67c-0.53-2.27-0.43-4.68-0.19-6.97C276.08,798.08,287.6,789.71,298.7,785.27L298.7,785.27z"/>
		</g>
		<g>
			<path class="st4" d="M281.51,778.42c-10.15,6.53-23.44,17.89-19.64,31.23c0.68,2.27-0.61,4.66-2.88,5.34
				c-2.27,0.68-4.66-0.61-5.34-2.88c-0.48-2.41-0.3-4.95,0.05-7.34C256.42,791.09,269.52,783.05,281.51,778.42L281.51,778.42z"/>
		</g>
	</g>
	<g>
		<g>
			<path class="st5" d="M427.32,768.16c0,0-30,7.24-26.82,24.8c1.26,6.95,8.39,10.75,18.36,9.34c11.17-1.58,14.56-7.65,20.37,0.94
				c3.6,5.32,4.87,13.85,12.65,18.22c9.81,5.51,22.72,3.15,27.01-5.14c0,0,16.91,9.84,26.08-1.51c0,0,14.1,5.08,18.91-8.31
				c6-16.7-25.28-39.61-41.76-39.61C466.88,766.88,427.32,768.16,427.32,768.16z"/>
		</g>
		<g>
			<path class="st5" d="M523.88,806.5c-4.82,13.39-18.92,8.31-18.92,8.31c-9.17,11.35-26.08,1.51-26.08,1.51
				c-4.29,8.28-17.19,10.65-27.01,5.13c-7.78-4.36-9.05-12.9-12.65-18.21c-5.81-8.6-9.21-2.53-20.38-0.94
				c-9.96,1.41-17.09-2.39-18.35-9.34c-0.35-1.92-0.3-3.7,0.05-5.38c2.95-13.67,26.77-19.42,26.77-19.42s39.56-1.28,54.81-1.28
				c13.34,0,36.42,15.03,41.5,29.62C524.82,799.92,525.02,803.32,523.88,806.5z"/>
		</g>
		<g>
			<path class="st6" d="M523.88,806.5c-4.82,13.39-18.92,8.31-18.92,8.31c-9.17,11.35-26.08,1.51-26.08,1.51
				c-4.29,8.28-17.19,10.65-27.01,5.13c-7.78-4.36-9.05-12.9-12.65-18.21c-5.81-8.6-9.21-2.53-20.38-0.94
				c-9.96,1.41-17.09-2.39-18.35-9.34c-0.35-1.92-0.3-3.7,0.05-5.38c3.16,3.16,8.89,4.66,18.3,3.01
				c11.11-1.97,18.54-6.55,22.57,3.01c2.67,6.28,3.74,11.23,10.44,16.15c9.09,6.64,23.27,2.37,28.07-5.27c0,0,15.94,9.03,25.03-1.39
				c0,0,12.57,4.81,18.65-6.58C524.82,799.92,525.02,803.32,523.88,806.5z"/>
		</g>
		<g>
			<path class="st4" d="M463.37,828.7c-4.69,0-9.45-1.2-13.59-3.52c-6.57-3.69-9.3-9.68-11.49-14.5c-0.86-1.9-1.68-3.69-2.6-5.05
				c-2.14-3.16-2.14-3.16-6.86-1.54c-2.42,0.84-5.44,1.88-9.38,2.44c-12.15,1.72-21.46-3.42-23.16-12.81
				c-3.85-21.28,28.64-29.37,30.02-29.71c0.28-0.07,0.57-0.11,0.86-0.12c0.4-0.01,39.8-1.28,54.94-1.28
				c12.83,0,32.15,11.46,41.34,24.53c5.16,7.33,6.69,14.52,4.44,20.79c-1.77,4.94-4.79,8.43-8.95,10.4c-4.7,2.21-9.6,1.83-12.6,1.24
				c-7.77,7.18-18.89,5.23-26.07,2.19c-2.39,2.69-5.65,4.73-9.52,5.88C468.39,828.35,465.89,828.7,463.37,828.7z M432.9,794.47
				c3.2,0,6.53,1.44,9.86,6.37c1.32,1.95,2.33,4.16,3.3,6.3c1.93,4.25,3.76,8.26,7.9,10.59c4.38,2.46,9.75,3.11,14.35,1.73
				c3.15-0.94,5.56-2.76,6.78-5.11c0.54-1.04,1.48-1.81,2.6-2.14c1.12-0.33,2.33-0.18,3.34,0.41c0.13,0.07,13.87,7.83,20.62-0.5
				c1.14-1.41,3.06-1.94,4.77-1.33c1.67,0.58,10.28,3.07,13.44-5.74c1.61-4.47-0.96-9.53-3.39-12.99
				c-7.56-10.75-24.25-20.91-34.35-20.91c-14.09,0-49.6,1.11-54.18,1.26c-3.22,0.89-25.47,7.5-23.24,19.79
				c1.01,5.61,7.94,6.66,13.56,5.87c3.13-0.44,5.61-1.3,7.8-2.05C428.23,795.27,430.53,794.47,432.9,794.47z"/>
		</g>
		<g>
			<path class="st4" d="M467.47,785.84c10.91,8.25,21.38,25.11,10.88,37.75c0,0-6.14-5.93-6.14-5.93
				C482.12,809.73,474.06,793.68,467.47,785.84L467.47,785.84z"/>
		</g>
		<g>
			<path class="st4" d="M488.34,782.2c11.69,6.74,25.46,19.26,20.55,34.31c0,0-7.83-3.4-7.83-3.4c0.62-1.06,1.12-2.19,1.43-3.42
				C504.46,799.21,495.53,789.02,488.34,782.2L488.34,782.2z"/>
		</g>
	</g>
	<g>
		<g>
			<path class="st0" d="M362.08,640.12c-13.48,36.81,5.55,108.77-8.65,125.31c-6.61,7.92-29.82,10.53-44.44,9.07
				c-13.78-1.38-22.81-7.22-25.6-9.73c-16.87-21.28-46.71-136.03-46.12-171.36"/>
		</g>
		<g>
			<path class="st1" d="M353.43,765.43c-6.6,7.93-29.82,10.53-44.44,9.08c-13.77-1.37-22.8-7.21-25.6-9.74
				c-1.99-2.51-4.15-6.38-6.42-11.34c-10.87-23.65-24.22-66.1-32.35-105.99c-4.62-22.7-7.56-42.73-7.36-54.03l124.82,46.71
				C348.6,676.93,367.63,748.88,353.43,765.43z"/>
		</g>
		<g>
			<path class="st3" d="M353.43,765.43c-6.6,7.93-29.82,10.53-44.44,9.08c-13.77-1.37-22.8-7.21-25.6-9.74
				c-1.99-2.51-4.15-6.38-6.42-11.34c17.13,9.99,47.59,12.72,60.13,2.98c14.05-10.93,6.1-49.56-1.14-58.36
				c-10.28-12.49-57.6-4.69-91.34-50.6c-4.62-22.7-7.56-42.73-7.36-54.03l124.82,46.71C348.6,676.93,367.63,748.88,353.43,765.43z"
				/>
		</g>
	</g>
	<g>
		<g>
			<path class="st4" d="M317.21,779.06c-3.11,0-6.04-0.14-8.64-0.4c-14.21-1.42-24.28-7.45-27.98-10.78
				c-0.17-0.16-0.33-0.33-0.48-0.51c-17.7-22.34-47.61-139.22-47.03-174.03c0.04-2.29,1.9-4.11,4.18-4.11c0.02,0,0.05,0,0.07,0
				c2.31,0.04,4.15,1.94,4.11,4.25c-0.59,35.6,29.54,148.2,45,168.41c2.99,2.54,11.23,7.28,22.96,8.46
				c14.72,1.47,35.76-1.53,40.81-7.59c6.01-7,4.81-29.75,3.65-51.74c-1.31-24.85-2.79-53.02,4.28-72.33
				c0.79-2.17,3.19-3.28,5.36-2.49c2.17,0.79,3.28,3.2,2.49,5.36c-6.48,17.71-5.05,44.97-3.78,69.02
				c1.36,25.8,2.53,48.08-5.62,57.58C350,776.07,331.65,779.06,317.21,779.06z"/>
		</g>
	</g>
	<g>
		<path class="st9" d="M424.49,602.96c-5.84-4.15-11.81-12.33-11.43-28.5c0.62-26.16-0.53-46.14,10.92-55.55
			C424.18,551.53,426.63,582.06,424.49,602.96z"/>
	</g>
	<g>
		<path class="st9" d="M241.87,589.72c6.35,17.18,18.8,33.39,41.91,43.12c68.84,29,152.96,0.49,156.16-62.03
			c-7.87,28.04-30.85,59.53-92.84,63.95C282.61,639.38,247.56,597.21,241.87,589.72z"/>
	</g>
	<g>
		<path class="st10" d="M439.95,590.62c-8.53,65.35-69.61,85.06-127.01,68.67c-32.21-7.84-49.36-26.87-57.88-48.75
			c8.53,8.73,20.38,17.13,37.89,22.84c79.37,25.91,129.26-7.7,132.42-18.18c-14.11-10.94-36.45-67.81-10.18-95.42
			c5.54-5.82,8.09-6.54,16.38-6.96C440.65,543.24,442.07,574.38,439.95,590.62z"/>
	</g>
	<g>
		<path class="st1" d="M480.34,584.11c-0.95,30.46-6.48,44.69-9.64,51.73c0,0-54.56,48.71-105.27,45.33
			c-60.46-4.05-94.22-17.64-94.22-17.64c-34.16-20.69-43.07-63.09-41.01-101.94c0.28-5.34,0.78-10.61,1.43-15.76
			c4.49-34.84,27.81-85.05,52.17-122.88c0,0,42.76-99,94.81-88.85c91.45,17.84,101.75,77.36,105,120.91
			C487.93,513,480.15,578.29,480.34,584.11z"/>
	</g>
	<g>
		<path class="st3" d="M482.01,438.98c-84.12,8.02-144.57-11.61-186.89-38.34c16.06-28.56,47.56-73.53,83.47-66.53
			C459.23,349.84,476.78,397.96,482.01,438.98z"/>
	</g>
	<g>
		<path class="st3" d="M470.7,635.85c0,0-54.56,48.71-105.27,45.33c-60.46-4.05-94.22-17.64-94.22-17.64
			c-34.16-20.69-43.07-63.09-41.01-101.94c17.23,40.6,65.96,61.88,149.03,52.07c24.01-2.83,43.76-9.31,59.8-17.25
			c29.24-18.27,3.67-61.85,15.67-113.63c1.61-6.95,20.92,88.66,25.02,84.53C479.95,572.73,473.86,628.8,470.7,635.85z"/>
	</g>
	<g>
		<path class="st9" d="M439.03,596.42c-11.29,60.7-70.42,78.76-126.09,62.88c-42.78-10.42-58.99-40.56-63.73-70.92
			c24.89,22.57,67.83,32.64,130.01,25.3C403.23,610.83,422.99,604.35,439.03,596.42z"/>
	</g>
	<g>
		<path class="st11" d="M482.48,583.1c2.87,13.53,0.18,27.18-3.2,40.37c-1.21,4.43-2.79,8.85-4.68,13.05
			c-0.96,2.16-3.5,3.13-5.66,2.15c-2.15-0.97-3.11-3.5-2.14-5.65c3.5-7.73,5.57-15.94,6.93-24.33c1.01-8.68,2.08-17.22,4.49-25.77
			C478.81,580.75,482.09,580.89,482.48,583.1L482.48,583.1z"/>
	</g>
	<g>
		<path class="st4" d="M271.2,662.46c-32.57-14.26-45.09-52.78-46.15-85.94c-1.88-34.57,8.72-67.24,23.69-97.84
			c9.86-19.98,21.38-39.21,35.06-56.8c-10.29,19.69-19.87,39.56-28.27,59.85c-8.19,20.01-15.79,40.88-18.77,62.21
			C231.45,585.54,235.82,634.81,271.2,662.46L271.2,662.46z"/>
	</g>
	<g>
		<path class="st0" d="M488.85,581.88c3.27,29.09,10.76,169.37,1.1,183.19c-2.56,5.21-9.92,8.66-22.38,10.22
			c-19.78,2.49-36.98-1.99-43.71-7.86c-12.59-11.74-26.03-71.09-28.69-86.1c-17,1.09-54.96,2.08-90.21-8.5"/>
	</g>
	<g>
		<path class="st1" d="M489.96,765.07c-2.56,5.2-9.93,8.66-22.38,10.22c-19.78,2.49-36.98-1.99-43.71-7.86
			c-9.48-8.83-19.43-42.15-24.91-67.31c-1.8-8.28-3.11-15.06-3.77-18.78c-17.01,1.08-54.96,2.08-90.21-8.5l183.88-90.96
			c1.91,17.01,5.27,73.99,5.79,121.14C495.02,736.5,493.97,759.34,489.96,765.07z"/>
	</g>
	<g>
		<path class="st3" d="M494.65,703.03c-50.24-1.09-76.44-22.34-95.69-2.91c-1.8-8.28-3.11-15.06-3.77-18.78
			c-17.01,1.08-54.96,2.08-90.21-8.5l183.88-90.96C490.76,598.9,494.12,655.88,494.65,703.03z"/>
	</g>
	<g>
		<path class="st4" d="M493.09,581.41c4.1,46.02,5.93,92.06,5.84,138.26c-0.17,11.63-0.39,23.29-1.84,34.93
			c-0.74,4.49-1.08,8.79-3.64,12.92c-6.3,11.3-27.46,13.14-41.13,12.65c-9.78-0.55-20.29-2.29-28.87-7.71
			c-4.28-2.72-6.92-7.23-9.16-11.45c-3.28-6.38-5.69-12.85-7.93-19.36c-6.44-19.57-11.79-39.25-15.77-59.49c0,0,4.9,3.85,4.9,3.85
			c-11.53,0.73-23.1,0.66-34.61-0.32c-19.09-1.55-38.25-5.29-55.9-12.84c14.97,2.51,29.92,4.06,45.02,4.56
			c14.97,0.52,29.95,0.18,44.89-0.73c2.4-0.16,4.5,1.54,4.9,3.85c2.43,13.01,5.35,26.26,8.82,39.17
			c4.07,14.1,8.05,28.83,15.58,41.37c4.8,8.15,19.65,10.01,28.53,10.57c6.4,0.28,12.93-0.16,19.2-1.35
			c5.95-1.21,13.35-3.13,15.19-9.17c3.32-13.47,2.87-27.68,3.31-41.55c0.25-30.51-0.92-61.12-2.51-91.61
			c-0.86-15.18-1.73-30.57-3.28-45.64C484.11,576.82,492.3,575.72,493.09,581.41L493.09,581.41z"/>
	</g>
	<g>
		<g>
			<g>
				<path class="st5" d="M247.44,204.74c0,0-3.34-34.52-39.99-37.22c-35.2-2.59-53.54,30.42-51.41,56.42
					c2.25,27.32,15.35,42.74,35.99,50.9c21.57,8.53,44.95,4.97,44.95,4.97L247.44,204.74z"/>
			</g>
			<g>
				<path class="st5" d="M236.99,279.82c0,0-23.38,3.56-44.95-4.96c-15.52-6.13-26.78-16.37-32.35-32.66
					c-1.86-5.4-3.09-11.45-3.64-18.24c-2.15-26,16.2-59.01,51.4-56.43c36.65,2.71,39.99,37.21,39.99,37.21l-3.07,22.05
					L236.99,279.82z"/>
			</g>
			<g>
				<path class="st6" d="M236.99,279.82c0,0-23.38,3.56-44.95-4.96c-15.52-6.13-26.78-16.37-32.35-32.66
					c4.31,1.86,9.74,2.81,13.13-1.71c3.2-4.26,0.19-13.78,4.89-29.54c5-16.78,41.87-30.28,66.66,15.85L236.99,279.82z"/>
			</g>
			<g>
				<path class="st12" d="M224.81,284.84c-9.14,0-21.96-1.12-34.35-6.02c-23.78-9.4-36.44-27.24-38.68-54.52
					c-1.39-16.95,5.05-34.85,16.81-46.72c10.4-10.48,23.93-15.43,39.16-14.31c39.78,2.93,43.89,40.68,43.93,41.06l0.05,0.5
					l-10.96,78.73l-3.15,0.48C237.18,284.11,232.19,284.84,224.81,284.84z M203.63,171.65c-11.22,0-21.18,4.09-28.96,11.94
					c-9.9,9.99-15.54,25.69-14.37,40.01c1.98,24.06,12.56,39.08,33.31,47.28c15.78,6.24,32.76,5.64,39.61,5.06l9.92-71.24
					c-0.54-4.02-5.3-30.66-36-32.92C205.95,171.7,204.78,171.65,203.63,171.65z"/>
			</g>
			<g>
				<path class="st4" d="M224.81,284.84c-9.14,0-21.96-1.12-34.35-6.02c-23.78-9.4-36.44-27.24-38.68-54.52
					c-1.39-16.95,5.05-34.85,16.81-46.72c10.4-10.48,23.93-15.43,39.16-14.31c39.78,2.93,43.89,40.68,43.93,41.06l0.05,0.5
					l-10.96,78.73l-3.15,0.48C237.18,284.11,232.19,284.84,224.81,284.84z M203.63,171.65c-11.22,0-21.18,4.09-28.96,11.94
					c-9.9,9.99-15.54,25.69-14.37,40.01c1.98,24.06,12.56,39.08,33.31,47.28c15.78,6.24,32.76,5.64,39.61,5.06l9.92-71.24
					c-0.54-4.02-5.3-30.66-36-32.92C205.95,171.7,204.78,171.65,203.63,171.65z"/>
			</g>
			<g>
				<path class="st13" d="M174.92,225.67c1.96,29.23,49.51,47.66,61.57,18.36l2.32-9.72c-1.02-45.91-50.3-58.31-61.1-23.36
					c0,0-0.9,3.15-1.7,7.1C175.3,221.57,174.92,225.67,174.92,225.67z"/>
			</g>
			<g>
				<path class="st13" d="M238.8,234.31l-2.32,9.72c-12.05,29.3-59.6,10.87-61.57-18.36c0,0,0.39-4.09,1.09-7.62
					c0.8-3.94,1.7-7.1,1.7-7.1c0.39-1.27,0.83-2.48,1.34-3.62c0.65-1.55,1.4-2.99,2.23-4.32
					C196.58,178.37,237.88,192.32,238.8,234.31z"/>
			</g>
			<g>
				<path class="st14" d="M238.8,234.31l-2.32,9.72c-12.05,29.3-59.6,10.87-61.57-18.36c0,0,0.39-4.09,1.09-7.62
					c0.8-3.94,1.7-7.1,1.7-7.1c0.39-1.27,0.83-2.48,1.34-3.62c0,0-5.35,22.16,12.93,25.14c18.05,2.94,25.9-18.35,18.93-27.35
					c-13.08-16.87-29.62-2.1-29.62-2.1s0,0-0.01,0C196.58,178.37,237.88,192.32,238.8,234.31z"/>
			</g>
			<g>
				<path class="st4" d="M174.92,225.67c3.83,25.24,46.55,42.34,57.47,17.38c0,0,2.28-9.73,2.28-9.73l-0.12,1.08
					c-0.17-7.54-1.72-14.99-5.03-21.57c-6.22-13.02-21.39-22.98-35.91-18c-3.51,1.19-6.75,3.32-9.42,6.14
					c-2.7,2.8-4.81,6.25-6.47,9.97c2.12-13.16,13.42-23.37,27.08-22.86c23.73,0.53,39.16,25.24,38.16,47.22c0,0-2.36,9.71-2.36,9.71
					C226.96,279.41,173.73,257.53,174.92,225.67L174.92,225.67z"/>
			</g>
			<g>
				<path class="st5" d="M232.29,255.22c-6.21-3.29-16.41-12.5-14.14-22.17c3.09-13.16,20.73-8.94,20.73-8.94"/>
				<path class="st4" d="M230.79,258.05c-7.5-3.97-18.41-14.46-15.76-25.73c0.96-4.09,3.16-7.22,6.52-9.3
					c7.33-4.52,17.64-2.13,18.07-2.03l-1.49,6.23c-0.59-0.14-14.56-3.29-16.87,6.56c-1.71,7.27,6.46,15.4,12.52,18.61L230.79,258.05
					z"/>
			</g>
		</g>
		<g>
			<g>
				<path class="st5" d="M584.28,285.19c0,0,18.58-29.28,52.49-15.13c32.58,13.59,34.02,51.33,20.36,73.56
					c-14.35,23.36-33,31.19-55.11,29.14c-23.09-2.14-42.34-15.88-42.34-15.88L584.28,285.19z"/>
			</g>
			<g>
				<path class="st5" d="M559.67,356.89c0,0,19.25,13.74,42.34,15.88c16.61,1.54,31.28-2.5,43.62-14.52
					c4.1-3.97,7.94-8.82,11.49-14.63c13.67-22.23,12.22-59.96-20.35-73.56c-33.92-14.15-52.49,15.12-52.49,15.12l-7.22,21.06
					L559.67,356.89z"/>
			</g>
			<g>
				<path class="st6" d="M559.67,356.89c0,0,19.25,13.74,42.34,15.88c16.61,1.54,31.28-2.5,43.62-14.52
					c-4.69-0.29-9.96-1.89-10.94-7.46c-0.93-5.24,6.06-12.38,8.99-28.56c3.12-17.23-23.66-45.93-66.63-15.98L559.67,356.89z"/>
			</g>
			<g>
				<path class="st12" d="M608.63,377.36c-2.28,0-4.61-0.11-7-0.33c-23.97-2.22-43.61-16.07-44.43-16.65l-2.59-1.85l25.8-75.19
					l0.27-0.43c0.21-0.32,20.93-32.14,57.74-16.78c14.09,5.88,23.93,16.41,28.47,30.47c5.13,15.9,2.79,34.78-6.11,49.27
					C647.78,367,630.67,377.36,608.63,377.36z M564.79,355.13c5.86,3.62,20.79,11.83,37.62,13.39c22.22,2.06,38.45-6.56,51.08-27.13
					c7.52-12.24,9.58-28.79,5.26-42.18c-3.75-11.6-11.92-20.32-23.63-25.21c-28.57-11.93-44.71,9.74-46.99,13.09L564.79,355.13z"/>
			</g>
			<g>
				<path class="st4" d="M608.63,377.36c-2.28,0-4.61-0.11-7-0.33c-23.97-2.22-43.61-16.07-44.43-16.65l-2.59-1.85l25.8-75.19
					l0.27-0.43c0.21-0.32,20.93-32.14,57.74-16.78c14.09,5.88,23.93,16.41,28.47,30.47c5.13,15.9,2.79,34.78-6.11,49.27
					C647.78,367,630.67,377.36,608.63,377.36z M564.79,355.13c5.86,3.62,20.79,11.83,37.62,13.39c22.22,2.06,38.45-6.56,51.08-27.13
					c7.52-12.24,9.58-28.79,5.26-42.18c-3.75-11.6-11.92-20.32-23.63-25.21c-28.57-11.93-44.71,9.74-46.99,13.09L564.79,355.13z"/>
			</g>
			<g>
				<path class="st13" d="M639.51,336.63c-14.96,25.19-65.71,20.14-63.22-11.45l2.32-9.72c21.66-40.49,71.22-29.28,65.06,6.77
					c0,0-0.62,3.22-1.7,7.1C641.02,332.81,639.51,336.63,639.51,336.63z"/>
			</g>
			<g>
				<path class="st13" d="M578.62,315.47l-2.32,9.72c-2.49,31.58,48.26,36.64,63.22,11.44c0,0,1.5-3.82,2.47-7.3
					c1.07-3.88,1.7-7.1,1.7-7.1c0.22-1.31,0.38-2.59,0.44-3.83c0.12-1.68,0.11-3.3-0.04-4.86
					C641.57,284.65,598.42,278.43,578.62,315.47z"/>
			</g>
			<g>
				<path class="st14" d="M578.62,315.47l-2.32,9.72c-2.49,31.58,48.26,36.64,63.22,11.44c0,0,1.5-3.82,2.47-7.3
					c1.07-3.88,1.7-7.1,1.7-7.1c0.22-1.31,0.38-2.59,0.44-3.83c0,0-5.24,22.18-22.89,16.58c-17.43-5.54-14.81-28.07-4.53-32.96
					c19.29-9.14,27.37,11.51,27.37,11.51s0,0,0.01,0C641.57,284.65,598.42,278.43,578.62,315.47z"/>
			</g>
			<g>
				<path class="st4" d="M639.51,336.63c-13.34,28.96-70.71,24.42-67.32-12.43c0,0,2.28-9.73,2.28-9.73
					c9.08-20.08,33.93-35.13,55.38-24.88c12.41,5.72,17.88,19.93,13.82,32.63c0.2-4.06-0.13-8.1-1.26-11.81
					c-1.12-3.72-3.04-7.08-5.63-9.73c-10.7-11.01-28.74-8.98-40.17-0.18c-5.92,4.37-10.68,10.31-14.23,16.96l0.39-1.02l-2.36,9.71
					C578.86,353.37,624.69,357.42,639.51,336.63L639.51,336.63z"/>
			</g>
			<g>
				<path class="st5" d="M574.98,337.07c7.03-0.13,20.29-3.73,22.64-13.38c3.19-13.13-14.45-17.35-14.45-17.35"/>
				<path class="st4" d="M575.04,340.27l-0.11-6.4c6.86-0.12,17.82-3.68,19.58-10.94c0.58-2.4,0.3-4.49-0.86-6.39
					c-3.07-5.02-11.15-7.07-11.23-7.09l1.49-6.23c0.44,0.1,10.71,2.63,15.2,9.97c2.07,3.38,2.61,7.16,1.62,11.24
					C597.99,335.69,583.52,340.12,575.04,340.27z"/>
			</g>
		</g>
		<g>
			<path class="st15" d="M486.63,299.42"/>
		</g>
		<g>
			<path class="st16" d="M378.88,400.74"/>
		</g>
		<g>
			<path class="st14" d="M404.58,132.51"/>
		</g>
		<g class="st7">
			<path class="st8" d="M574.53,338c-0.48-0.4-0.96-0.79-1.46-1.17c7.14-6.67,13.6-15.01,19.25-24.36
				C587.16,322.01,581.19,330.74,574.53,338z"/>
		</g>
		<g>
			<path class="st0" d="M373.85,420.66c145.22,25.72,201.74-14.28,214.99-45.82c8.63-20.53,5.06-39.54-7.67-53.64
				c86.77-116.3,25.31-241.99-117.63-276.13s-254.56,50.2-229.72,193.17c-17.73,6.83-29.5,22.17-31.09,44.38
				c-2.43,34.13,29.91,95.35,171.08,138.03L373.85,420.66z"/>
		</g>
		<g>
			<path class="st1" d="M588.85,374.84c-13.26,31.55-69.78,71.54-215,45.82l-0.03-0.01c-141.17-42.68-173.51-103.9-171.09-138.03
				c0.59-8.18,2.55-15.43,5.69-21.67c5.38-10.69,14.19-18.4,25.4-22.71C208.97,95.28,320.59,10.93,463.53,45.07
				C606.48,79.21,667.94,204.9,581.17,321.2c8.01,8.89,12.41,19.71,12.39,31.64C593.56,359.84,592.04,367.24,588.85,374.84z"/>
		</g>
		<g class="st7">
			<path class="st8" d="M615.33,253.48c18-89.35-43.82-170.67-154.5-197.1c-110.67-26.43-202.58,18.16-226.88,106
				C253.26,67.11,348.21,17.53,463.53,45.07C578.87,72.62,641.16,159.76,615.33,253.48z"/>
		</g>
		<g>
			<path class="st3" d="M588.85,374.84c-13.26,31.55-69.78,71.54-215,45.82l-0.03-0.01c-141.17-42.68-173.51-103.9-171.09-138.03
				c0.59-8.18,2.55-15.43,5.69-21.67c12.79,21.46,46.68,34.11,197.19,26.4c131.02,75.03,166.86,78.94,187.95,65.49
				C593.56,359.84,592.04,367.24,588.85,374.84z"/>
		</g>
		<g>
			<path class="st4" d="M458.24,433.08c-24.66,0-52.94-2.51-85.14-8.22c-0.1-0.02-0.21-0.04-0.31-0.07l-0.03-0.01
				c-0.06-0.01-0.12-0.03-0.18-0.05c-132.98-40.2-177.13-99.93-174.11-142.42c1.54-21.63,12.62-38.46,30.58-46.7
				c-10.19-63.66,6.02-119.14,45.82-156.53c45.02-42.29,114.14-56.21,189.66-38.17c75.51,18.04,130.89,61.68,151.94,119.75
				c18.6,51.34,7.99,108.16-29.86,160.34c12.3,15.47,14.57,35.49,6.17,55.48C580.16,406.52,538.37,433.08,458.24,433.08z
				 M374.83,416.5c64.03,11.32,116.08,10.87,154.71-1.34c27.65-8.74,47.83-24.04,55.36-41.97c7.67-18.25,5.22-35.7-6.91-49.12
				c-1.37-1.51-1.47-3.78-0.25-5.41c37.71-50.55,48.61-105.62,30.69-155.06c-20.05-55.32-73.23-97-145.89-114.36
				c-72.67-17.36-138.94-4.2-181.83,36.09c-38.33,36.01-53.49,90.06-42.69,152.2c0.35,2.01-0.77,3.98-2.67,4.72
				c-16.88,6.5-26.96,20.95-28.36,40.7c-1.38,19.4,9.71,42.17,30.42,62.46C266.36,373.73,312.59,397.66,374.83,416.5z"/>
		</g>
		<g>
			<path class="st0" d="M521.36,78.21c9.47-8.38,30.4-2.03,27.43-11.28c-5.96-18.56-46.9-18.8-45.71-21.23
				c9.48-19.35,5.46-36.55-4.29-36.73c-2.89-0.05-34.21,20.02-74.15,24.67c-15.89,1.85-30.24,1.55-64.03,7.71L521.36,78.21z"/>
		</g>
		<g>
			<path class="st1" d="M521.36,78.21L394.35,49.08l-33.74-7.73c33.79-6.16,48.14-5.85,64.03-7.7
				c39.95-4.65,71.25-24.73,74.15-24.67c3.38,0.06,6.07,2.17,7.74,5.7c3.17,6.65,2.75,18.38-3.45,31.02
				c-1.19,2.44,39.75,2.67,45.71,21.23C551.76,76.18,530.83,69.83,521.36,78.21z"/>
		</g>
		<g class="st7">
			<path class="st8" d="M506.54,14.67c-6.63-10.61-17.73,11.78-45.84,21.59c-28.11,9.81-67.23,12.62-67.23,12.62l-32.86-7.53
				c33.79-6.16,48.14-5.85,64.03-7.7c39.95-4.65,71.25-24.73,74.15-24.67C502.17,9.03,504.86,11.13,506.54,14.67z"/>
		</g>
		<g>
			<path class="st4" d="M521.36,78.21c3.35-5.05,9.9-6.94,15.51-8.3c2.29-0.64,6.56-1.14,8.38-2.42c0.09-0.12-0.33,0.1-0.55,0.57
				c-0.22,0.47-0.13,0.65-0.21,0.47c-5.03-12.78-25.82-14.79-37.89-17.16c-1.98-0.43-3.7-0.54-5.61-1.65
				c-2.07-1.22-2.9-4.08-1.54-6.34c3.11-6.54,5.24-14.01,4.63-21.24c-0.48-3.63-1.31-8.14-5.11-8.87c0,0-0.25-0.02-0.25-0.02
				c0.01,0-0.06,0,0.01,0c0.12,0.01,0.56-0.03,0.57-0.04l0.16-0.03c-1.38,0.49-4.58,2.15-5.99,2.81
				c-20.32,10.16-42.23,18.37-65.21,21.5c-11.34,1.5-22.52,1.91-33.78,3.18c-11.08,1.18-22.11,2.89-33.13,4.89l-1.53-8.4
				c21.96-4.43,45.26-5.83,67.27-8.13c21.92-3,42.8-10.82,62.61-20.71c1.48-0.71,4.44-2.21,5.96-2.83c0.84-0.35,2.15-0.84,3.26-0.77
				c4.48-0.01,8.74,3.1,10.76,6.83c5.86,11.43,2.45,24.58-2.55,35.52c0,0-0.24,0.51-0.24,0.51c0.17-0.29,0.48-1.24,0.39-2.07
				c-0.06-0.86-0.42-1.57-0.67-1.95c-0.71-0.94-1.01-1.01-1.39-1.22c0.91,0.28,1.88,0.44,2.89,0.63
				c13.06,2.31,26.72,4.37,37.83,12.54c6.88,4.84,12.58,17.78,0.72,20.49C538.11,77.56,529.57,74.48,521.36,78.21L521.36,78.21z"/>
		</g>
		<g>
			<path class="st5" d="M373.8,420.59c81.48,19.46,185.31-2.27,196.73-57.82c4.46-21.67-9.11-38.23-14.31-43.05
				c12.17-15.58,32.95-61.56,18.51-107.83c-22.65-72.59-105.32-83.73-143.93-29.95l0.04,0.01c-10.14-65.42-88.92-92.85-141.93-38.32
				c-33.79,34.75-36.03,85.16-32.22,104.55c-6.81,1.95-26.4,10.59-32.21,31.94c-14.92,54.72,67.88,121.02,149.36,140.48
				L373.8,420.59z"/>
		</g>
		<g>
			<path class="st6" d="M373.84,420.6l-0.04-0.01c-81.47-19.47-164.24-85.77-149.32-140.47c0.73-2.68,1.68-5.15,2.79-7.44
				c-1.9,52.18,75.13,110.97,151.03,129.11l0.04,0.01c75.91,18.12,171.19,0.48,193.07-46.92c-0.05,2.54-0.32,5.18-0.88,7.9
				C559.11,418.31,455.31,440.05,373.84,420.6z"/>
		</g>
		<g>
			<path class="st4" d="M435.16,431.9c-20.85,0-42.1-2.32-62.27-7.13c-0.01,0-0.03-0.01-0.04-0.01
				c-59.98-14.32-118.67-52.68-142.73-93.27c-10.94-18.46-14.23-36.12-9.76-52.49c5.81-21.34,23.6-30.54,31.53-33.66
				c-3.52-25.03,2.46-72.29,33.96-104.68c26.06-26.8,60.76-36.69,92.84-26.47c26.93,8.59,47.15,30.38,54.46,57.99
				c19-21.32,46.88-31.63,74.79-27.12c33.23,5.37,59.72,29.88,70.86,65.56c13.46,43.13-2.55,87.99-17.01,108.73
				c5.67,6.37,17.37,22.61,12.91,44.28c-3.42,16.62-14.33,30.89-32.43,42.41C515.87,422.85,476.31,431.9,435.16,431.9z
				 M374.76,416.43c0.01,0,0.02,0.01,0.03,0.01c57.91,13.83,124.89,6.59,162.9-17.6c16.08-10.23,25.72-22.66,28.65-36.93
				c4.61-22.4-12.3-38.39-13.03-39.06c-1.63-1.51-1.83-4.01-0.46-5.76c9.31-11.92,32.57-56.6,17.8-103.93
				c-10.15-32.53-34.1-54.84-64.07-59.68c-27.92-4.51-54.78,6.87-71.97,30.46c-0.22,0.43-0.52,0.82-0.89,1.15
				c-1.05,0.96-2.51,1.34-3.89,1.01c-1.38-0.33-2.53-1.34-3.02-2.67c-0.16-0.42-0.24-0.85-0.27-1.29
				c-4.64-28.87-23.47-51.21-50.46-59.82c-28.92-9.23-60.37-0.15-84.12,24.28c-34.56,35.54-34.01,85.91-31.09,100.75
				c0.43,2.18-0.88,4.32-3.01,4.93c-0.95,0.27-23.26,6.89-29.27,28.95c-3.83,14.06-0.85,29.5,8.87,45.89
				C260.43,365.88,316.88,402.59,374.76,416.43z"/>
		</g>
		<g>
			<path class="st17" d="M431.29,180.1"/>
		</g>
		<g>
			<path class="st4" d="M410.72,299.34c-0.97,0.07-1.68-0.87-1.35-1.79c0.99-2.74,3.28-7.33,7.52-7.13
				c5.62,0.27,5.23,5.12,4.45,6.42c-0.91,1.52-2.5,2.27-5.33,2.27C414.27,299.13,412.22,299.23,410.72,299.34z"/>
		</g>
		<g>
			<path class="st4" d="M395.96,295.67c0.86,0.45,1.89-0.13,1.95-1.1c0.19-2.91-0.09-8.03-4.06-9.53c-5.26-1.98-6.83,2.62-6.63,4.12
				c0.23,1.76,1.39,3.07,3.99,4.2C392.8,294.06,394.63,294.97,395.96,295.67z"/>
		</g>
		<g>
			
				<ellipse transform="matrix(0.2323 -0.9726 0.9726 0.2323 -50.3199 472.7566)" class="st13" cx="274.32" cy="268.26" rx="11.94" ry="21.91"/>
		</g>
		<g>
			
				<ellipse transform="matrix(0.2323 -0.9726 0.9726 0.2323 87.3542 770.0199)" class="st13" cx="531.47" cy="329.67" rx="11.94" ry="21.91"/>
		</g>
		<g>
			<g>
				<g>
					
						<ellipse transform="matrix(0.2317 -0.9728 0.9728 0.2317 22.4332 527.2014)" class="st4" cx="344.99" cy="249.4" rx="33.57" ry="29.07"/>
				</g>
			</g>
			<g>
				<g>
					
						<ellipse transform="matrix(0.2317 -0.9728 0.9728 0.2317 37.4696 531.0222)" class="st8" cx="354.93" cy="241.79" rx="12" ry="9.48"/>
				</g>
			</g>
			<g class="st18">
				<g>
					
						<ellipse transform="matrix(0.2317 -0.9728 0.9728 0.2317 4.0615 520.9072)" class="st8" cx="331.82" cy="257.88" rx="8.12" ry="5.25"/>
				</g>
			</g>
		</g>
		<g>
			<g>
				<g>
					
						<ellipse transform="matrix(0.2329 -0.9725 0.9725 0.2329 92.9872 679.9761)" class="st4" cx="477.5" cy="281.05" rx="33.57" ry="29.07"/>
				</g>
			</g>
			<g>
				<g>
					
						<ellipse transform="matrix(0.2329 -0.9725 0.9725 0.2329 99.7943 666.0486)" class="st8" cx="472.08" cy="269.77" rx="12" ry="9.48"/>
				</g>
			</g>
			<g class="st18">
				<g>
					
						<ellipse transform="matrix(0.2329 -0.9725 0.9725 0.2329 85.9109 698.0469)" class="st8" cx="485.42" cy="294.57" rx="8.12" ry="5.25"/>
				</g>
			</g>
		</g>
		<g>
			<g>
				<path class="st4" d="M385.9,370.05c53.29,12.73,72.56-43.12,72.56-43.12s-22.43,14.02-63.28,4.26
					c-40.85-9.76-54.53-32.4-54.53-32.4S332.6,357.32,385.9,370.05z"/>
			</g>
			<g>
				<path class="st13" d="M425.83,365.96c-10.39,5.44-23.55,8-39.93,4.09c-16.4-3.92-26.98-12.16-33.78-21.71
					c6.47-5.23,15.22-7.51,23.95-5.43c5.74,1.37,10.63,4.43,14.28,8.54c5.11-2.02,10.86-2.53,16.58-1.16
					C415.65,352.38,422.43,358.37,425.83,365.96z"/>
			</g>
			<g>
				<path class="st4" d="M401.19,376.21c-5.07,0-10.49-0.62-16.29-2.01c-56.4-13.47-48.57-75.37-48.48-75.99
					c0.25-1.79,1.6-3.23,3.37-3.6c1.77-0.36,3.58,0.42,4.52,1.98c0.12,0.2,13.49,21.29,51.86,30.46
					c38.37,9.16,59.83-3.61,60.04-3.74c1.54-0.94,3.51-0.82,4.91,0.31c1.41,1.13,1.96,3.01,1.37,4.72
					C462.31,328.86,445.4,376.21,401.19,376.21z M344.47,309.87c0.49,16.51,6.39,47.43,42.42,56.03
					c36.03,8.6,55.26-16.31,63.16-30.82c-10.86,3.4-29.78,6.5-55.86,0.27C368.11,329.12,352.62,317.81,344.47,309.87z"/>
			</g>
			<g>
				<path class="st4" d="M405.01,349.91c-2.61-0.34-12.28-0.34-16.08,7.47c0.14-8.69-8.49-13.06-10.97-13.93l4.74-7.61l10.03,5.62
					l11.49-0.48L405.01,349.91z"/>
			</g>
			<g>
				<path class="st4" d="M452.46,318.71c9.12-3.45,18.31,8.83,10.69,15.87c-1.35-2.99-2.34-5.89-4.32-8.33
					C456.89,323.64,454.78,321.62,452.46,318.71L452.46,318.71z"/>
			</g>
			<g>
				<path class="st4" d="M349.71,294.17c-4.68,2.17-8.51,2.99-12.49,5.9c-1.5,1-2.61,2.22-4.22,3.42
					C329.39,293.77,343.13,286.97,349.71,294.17L349.71,294.17z"/>
			</g>
		</g>
	</g>
	<g>
		<path class="st5" d="M312.93,659.29c57.41,16.38,118.49-3.33,127.01-68.67c4.73-36.3-8.17-147.06-85.02-157.93
			c-53.58-7.58-96.56,45.99-105.81,109.85C244.21,580.93,247.32,643.31,312.93,659.29z"/>
	</g>
	<g>
		<path class="st6" d="M439.03,596.42c-11.29,60.7-70.42,78.76-126.09,62.88c-42.78-10.42-58.99-40.56-63.73-70.92
			c24.89,22.57,67.83,32.64,130.01,25.3C403.23,610.83,422.99,604.35,439.03,596.42z"/>
	</g>
	<g>
		<g>
			<g>
				<path class="st19" d="M341.46,439.31c0,0-40.66,46.21-17.89,100.15c17.77,42.08,65.42,105.39,162.57,134.65
					c60.24,18.14,117.08,18.74,171.19-2.65c63.91-25.27,96.71-66.71,103.07-98.97c2.18-2.46,5.45-7.33,5.13-9.77
					c-0.42-3.17-5.28-11.97-7.84-14.73c-3.95-4.25-11.07-2.89-14.56-1.83c-55.16-29.73-106.13,11.6-201.63-17.84
					c-58.76-18.11-116.8-85.9-149.95-98.05c-3.26-1.2-10.73-4.11-17.39-5.72c-6.36-14.91,3.67-32.51-2.56-44.23
					c-6.29-11.85-43.26-11.52-50.82,7.45C312.95,407.43,341.46,439.31,341.46,439.31z"/>
			</g>
			<g>
				<path class="st19" d="M341.47,439.31c0,0-40.66,46.22-17.89,100.15c17.77,42.09,65.42,105.39,162.57,134.65
					c60.24,18.14,117.08,18.74,171.19-2.65c63.92-25.28,96.71-66.71,103.07-98.98c2.18-2.46,5.44-7.33,5.12-9.76
					c-0.42-3.17-5.28-11.97-7.85-14.74c-3.94-4.25-11.07-2.89-14.56-1.83c-55.17-29.73-106.13,11.6-201.63-17.84
					c-58.76-18.11-116.8-85.9-149.94-98.05c-3.27-1.2-10.73-4.11-17.39-5.73c-6.32-14.82,3.55-32.31-2.45-44.02
					c-0.03-0.07-0.07-0.14-0.1-0.2c-6.2-11.67-42.15-11.53-50.45,6.6c-0.13,0.27-0.25,0.56-0.37,0.85
					C312.95,407.42,341.47,439.31,341.47,439.31z"/>
			</g>
			<g>
				<path class="st19" d="M341.47,439.31c0,0-0.21,0.24-0.58,0.69c-4.88,5.92-38.46,49.37-17.31,99.47
					c17.77,42.09,65.42,105.39,162.57,134.65c60.24,18.14,117.08,18.74,171.19-2.65c63.92-25.28,96.71-66.71,103.07-98.98
					c2.18-2.46,5.44-7.33,5.12-9.76c-0.42-3.17-5.28-11.97-7.85-14.74c-3.94-4.25-11.07-2.89-14.56-1.83
					c-55.17-29.73-106.13,11.6-201.63-17.84c-58.76-18.11-116.8-85.9-149.94-98.05c-3.21-1.18-10.47-4.01-17.03-5.64
					c-0.12-0.03-0.24-0.06-0.36-0.09c-6.32-14.82,3.55-32.31-2.45-44.02c-0.03-0.07-0.07-0.14-0.1-0.2
					c-6.2-11.67-42.15-11.53-50.45,6.6c-0.13,0.27-0.25,0.56-0.37,0.85C312.95,407.42,341.47,439.31,341.47,439.31z"/>
			</g>
			<g>
				<path class="st19" d="M341.47,439.31c0,0-0.21,0.24-0.58,0.69c-4.88,5.92-38.46,49.37-17.31,99.47
					c17.77,42.09,65.42,105.39,162.57,134.65c60.24,18.14,117.08,18.74,171.19-2.65c58.67-23.21,91.12-60.02,100.97-90.86
					c0.88-2.76,1.58-5.46,2.11-8.11c2.18-2.46,5.44-7.33,5.12-9.76c-0.42-3.17-5.28-11.97-7.85-14.74
					c-3.94-4.25-11.07-2.89-14.56-1.83c-4.7-2.53-9.36-4.55-14.03-6.13l-0.01,0c-50.14-17.07-100.23,15.23-187.6-11.7
					c-58.76-18.11-116.8-85.9-149.94-98.05c-3.21-1.18-10.47-4.01-17.03-5.64c-0.12-0.03-0.24-0.06-0.36-0.09
					c-6.32-14.82,3.55-32.31-2.45-44.02c-0.03-0.07-0.07-0.14-0.1-0.2c-6.2-11.67-42.15-11.53-50.45,6.6
					c-0.13,0.27-0.25,0.56-0.37,0.85C312.95,407.42,341.47,439.31,341.47,439.31z"/>
			</g>
			<g>
				<path class="st20" d="M750.09,577.97c-4.83,15.13-15.18,30.58-29.92,44.69c-17.34,16.59-39.55,30.31-66,40.78
					C628.06,673.77,600.35,679,571.82,679c0,0,0,0,0,0c-26.24,0-54.23-4.42-83.19-13.14c-42.28-12.73-78.49-33.1-107.62-60.53
					c-29.27-27.56-43.57-55.19-49.49-69.21c-4.96-11.74-0.47-27.6,9.16-31.49c11.68-4.73,19.4,0.57,31.8,15.29
					c9.92,11.77,56.59,76.2,119.84,96.32C577.81,643.43,680.07,634.38,750.09,577.97z"/>
			</g>
			<g>
				<path class="st20" d="M488.9,646.41c-6.27-6.29-10.78-30.36,1.4-49.83c19.41-31.02,25.19-71.8-2.3-91.88
					c-16.86-12.32,65.4,26.55,77.08,68.59c8.05,28.99-17.79,75.28-17.79,75.28"/>
			</g>
			<g>
				<path class="st21" d="M464.95,654.17"/>
			</g>
			<g class="st22">
				<path class="st8" d="M320.78,387.77L320.78,387.77c-0.12,0.3-0.23,0.6-0.33,0.91l-0.01,0.03c-0.1,0.28-0.18,0.56-0.26,0.85
					c-0.07,0.23-0.14,0.47-0.19,0.71c-0.03,0.11-0.06,0.24-0.08,0.35c-0.02,0.06-0.03,0.13-0.04,0.19c-0.05,0.22-0.1,0.44-0.13,0.67
					c10.36-15.56,36.92-22.06,45.8-9.05c4.18,6.13-6.64,36.85,3.46,48.58c1.81-1.9,3.7-4.08,5.51-6.37
					c-0.12-0.03-0.24-0.06-0.36-0.09c-6.32-14.82,3.55-32.31-2.45-44.02c-0.03-0.07-0.07-0.14-0.1-0.2
					c-6.2-11.67-42.15-11.53-50.45,6.6C321.02,387.2,320.9,387.48,320.78,387.77z"/>
			</g>
			<g>
				<path class="st4" d="M729.1,540.03c22.82,11.08,28.06,30.57,29.2,40.58c0.88-2.76,1.58-5.46,2.11-8.11
					c2.18-2.46,5.44-7.33,5.12-9.76c-0.42-3.17-5.28-11.97-7.85-14.74c-3.94-4.25-11.07-2.89-14.56-1.83
					C738.43,543.63,733.76,541.61,729.1,540.03z"/>
			</g>
			<g>
				<path class="st23" d="M341.47,439.31c0,0-0.21,0.24-0.58,0.69c9.45,0.57,17.35-0.99,20.37-2.42c2.98-1.43,8.36-6.78,13.27-12.94
					c-0.12-0.03-0.24-0.06-0.36-0.09c-6.32-14.82,3.55-32.31-2.45-44.02c-0.03-0.07-0.07-0.14-0.1-0.2
					c-6.2-11.67-42.15-11.53-50.45,6.6c-0.13,0.27-0.25,0.56-0.37,0.85C312.95,407.42,341.47,439.31,341.47,439.31z"/>
			</g>
			<g>
				<path class="st24" d="M365.3,386.26c-1.7-1.28-7.95-1.72-9.65,2.56c-2.03,5.11-1.32,32.48,4.79,37.91
					c3.25,2.89,6.89-0.73,5.93-5.07c-0.77-3.48-0.92-7.7-0.72-11.55C366.42,395.02,369.19,389.19,365.3,386.26z"/>
			</g>
			<g>
				<path class="st4" d="M321.15,386.92c0.28,0.72,0.89,0.87,1.69,1.02c6.35,1.21,13.74-1.1,24.3-3.19
					c10.57-2.09,16.16-2.18,19.96-2.42c1.68-0.11,4.64-0.48,4.6-1.8c-0.03-0.07-0.07-0.14-0.1-0.2
					C365.4,368.65,329.46,368.79,321.15,386.92z"/>
			</g>
			<g>
				<path class="st4" d="M571.89,691.95c-27.66,0-56.53-4.58-86.97-13.75c-44.21-13.32-82.15-34.68-112.75-63.49
					c-22.97-21.63-41.62-47.76-52.52-73.58c-20.54-48.65,7.6-90.55,16.27-101.76c-7.01-8.57-26.44-34.74-19.1-53.18
					c4.92-12.34,19.36-17.43,31.23-18.08c9.82-0.53,22.87,1.81,27.33,10.21c3.69,6.95,2.7,15.13,1.74,23.05
					c-0.8,6.66-1.64,13.53,0.27,19.6c5.36,1.47,10.78,3.49,14.19,4.76l1.44,0.54c14.38,5.27,32.48,19.92,53.43,36.89
					c29.36,23.77,62.64,50.72,96.3,61.09c48.07,14.82,84.44,11.42,116.52,8.43c30.46-2.84,56.84-5.3,84.36,8.93
					c4.43-1.07,12.19-1.89,17.18,3.48c2.86,3.08,8.37,12.69,8.95,17.08c0.58,4.37-3.57,10.01-5.4,12.25
					c-6.73,31.53-37.83,74.27-105.46,101.02C631.05,686.45,602.19,691.95,571.89,691.95z M344.67,442.13L344.67,442.13
					c-0.39,0.44-38.59,44.92-17.16,95.68c9.54,22.6,49.27,98.91,159.87,132.22c61.87,18.63,116.95,17.8,168.39-2.53
					c65.29-25.82,94.92-67.76,100.45-95.83c0.15-0.75,0.49-1.44,1-2.01c1.99-2.24,3.84-5.38,4.06-6.54
					c-0.46-2.21-4.51-9.85-6.71-12.22c-2.01-2.16-6.58-1.75-10.18-0.65c-1.09,0.33-2.27,0.22-3.27-0.32
					c-25.79-13.9-50.17-11.63-81.03-8.75c-32.88,3.07-70.14,6.55-119.83-8.77c-35.23-10.86-69.19-38.35-99.16-62.61
					c-20.36-16.49-37.95-30.73-51-35.51l-1.48-0.55c-3.7-1.38-9.89-3.68-15.44-5.03c-1.31-0.32-2.39-1.23-2.92-2.47
					c-3.68-8.63-2.57-17.79-1.59-25.88c0.84-6.91,1.63-13.44-0.81-18.02c-1.69-3.18-9.03-6.24-19.32-5.69
					c-8.82,0.48-20.33,4.1-23.76,12.71c-5.62,14.11,12.46,38.8,19.9,47.12C346.09,438.08,346.1,440.51,344.67,442.13z"/>
			</g>
			<g>
				<path class="st4" d="M361.73,456.75c8.83,51.37,58.83,96.07,101.94,121.37c79.64,47.43,177.68,52.52,258.51,4.48
					c-37.26,26.82-83.91,41.76-130.25,41.23c-65.24-0.52-129.24-28.08-176.73-72.4C389.05,526.38,364.49,494.01,361.73,456.75
					L361.73,456.75z"/>
			</g>
			<g>
				<path class="st4" d="M355.67,423.2c-7.2-13.74-13.89-28-14.65-43.87c0,0,12.73,1.4,12.73,1.4
					C350.48,394.44,352.95,409.44,355.67,423.2L355.67,423.2z"/>
			</g>
		</g>
		<g>
			<g>
				<path class="st5" d="M520.25,626.69c-18.69,12.8-58.5,3.64-58.5,25.22c0.38,14.18,22.13,6.95,21.4,12.29
					c-0.52,3.77-10.26,5.61-10.26,5.61c-5.31,15.33,3.71,33.69,38.74,31.94c12.24,4.78,27.08,6.87,39.8,2.07
					c15.21-5.75,21.93-21.33,32.88-39.69c12.61-36.8-6.04-64.33-6.04-64.33"/>
			</g>
			<g>
				<path class="st5" d="M584.31,664.13c-4.92,8.25-8.98,15.91-13.33,22.39c-5.36,7.97-11.16,14.13-19.54,17.3
					c-12.72,4.81-27.56,2.72-39.8-2.07c-35.03,1.75-44.05-16.6-38.74-31.94c0,0,6.37-1.2,9.08-3.65c0.65-0.57,1.09-1.23,1.19-1.95
					c0.73-5.35-21.02,1.89-21.39-12.29c0-21.58,39.8-12.42,58.49-25.21l58.01-26.9C578.26,599.8,596.91,627.32,584.31,664.13z"/>
			</g>
			<g>
				<path class="st6" d="M570.97,686.52c-5.36,7.97-11.16,14.13-19.54,17.3c-12.72,4.81-27.56,2.72-39.8-2.07
					c-35.03,1.75-44.05-16.6-38.74-31.94c0,0,6.37-1.2,9.08-3.65c-0.24,5.26,0.94,24.93,31.91,25.17
					C528.94,698.77,551.61,700.68,570.97,686.52z"/>
			</g>
		</g>
		<g>
			<g>
				<path class="st4" d="M535.61,710.83c-9.9,0-18.86-2.59-24.68-4.78c-23.15,0.96-33.88-6.62-38.81-13.19
					c-5.1-6.8-6.29-15.71-3.27-24.45c0.5-1.45,1.74-2.51,3.24-2.8c0.06-0.01,0.12-0.02,0.18-0.04c-6.31-0.81-14.52-3.33-14.79-13.56
					c0-16.62,17.52-19.1,32.97-21.29c10.13-1.44,20.6-2.92,27.38-7.56c1.95-1.33,4.6-0.83,5.93,1.11c1.33,1.94,0.83,4.6-1.11,5.93
					c-8.43,5.77-19.91,7.39-31.01,8.97c-17.43,2.47-25.63,4.53-25.63,12.72c0.1,3.77,2.34,4.93,10.87,5.52
					c3.91,0.27,7.29,0.5,9.29,2.96c0.99,1.22,1.42,2.78,1.2,4.39c-0.68,5.01-6.79,7.5-11.1,8.64c-1.25,5.3-0.33,10.32,2.67,14.32
					c5.3,7.07,16.83,10.53,32.46,9.74c0.6-0.03,1.21,0.07,1.77,0.29c13.17,5.15,26.56,5.9,36.73,2.05
					c11.38-4.3,17.73-15.37,25.77-29.38c1.51-2.63,3.06-5.34,4.72-8.12c11.44-34.01-5.51-59.88-5.69-60.14
					c-1.31-1.96-0.79-4.61,1.16-5.92c1.95-1.31,4.6-0.81,5.92,1.14c0.81,1.2,19.69,29.73,6.55,68.1c-0.1,0.28-0.22,0.55-0.37,0.8
					c-1.71,2.87-3.32,5.68-4.88,8.38c-8.54,14.88-15.91,27.73-30.16,33.11C547.12,710.01,541.21,710.83,535.61,710.83z"/>
			</g>
		</g>
		<g>
			<path class="st0" d="M477.57,486.01c26.12,20.55,46.54,49.9,41.69,82.42c-3.23,21.66-19.49,44.51-19.63,65.94
				c0.67,14.91,6.6,35.16,37.51,42.3c77.53,17.16,111.03-90.82,80.75-151.91c-25.69-51.83-92.87-91.45-147.85-96.09L477.57,486.01z"
				/>
		</g>
		<g>
			<path class="st0" d="M599.03,658.74c-15.31,15.57-36.18,23.64-61.89,17.95c-30.91-7.15-36.84-27.4-37.51-42.3
				c0.14-21.44,16.41-44.28,19.63-65.95c4.65-31.14-13.88-59.4-38.41-79.77c-0.03-0.03-0.05-0.04-0.05-0.04
				c-1.07-0.88-2.13-1.76-3.22-2.61l-7.54-57.32c54.98,4.64,122.16,44.25,147.85,96.08C638.12,565.61,629.88,627.38,599.03,658.74z"
				/>
		</g>
		<g>
			<path class="st1" d="M599.03,658.73c-15.3,15.56-36.17,23.64-61.88,17.95c-30.91-7.15-36.83-27.4-37.51-42.3
				c0.14-21.45,16.41-44.29,19.63-65.95c4.65-31.15-13.88-59.4-38.41-79.78c-0.03-0.03-0.06-0.05-0.06-0.05
				c-1.07-0.87-2.14-1.75-3.23-2.6l-6.08-46.22l-1.45-11.1c11.57,0.98,23.66,3.5,35.81,7.36c45.59,14.49,91.76,47.8,112.04,88.72
				C638.13,565.61,629.88,627.38,599.03,658.73z"/>
		</g>
		<g>
			<path class="st3" d="M505.85,436.06c-11.61,1.74-22.81,2.98-33.61,3.74c0,0-0.27,0.02-0.75,0l-1.45-11.1
				C481.61,429.67,493.7,432.19,505.85,436.06z"/>
		</g>
		<g>
			<path class="st3" d="M599.03,658.74c-15.31,15.57-36.18,23.64-61.89,17.95c-30.91-7.15-36.84-27.4-37.51-42.3
				c0.14-21.44,16.41-44.28,19.63-65.95c4.65-31.14-13.88-59.4-38.41-79.77c1.71,1.03,47.66,29.38,49.56,69.71
				c1.97,42.23-36.48,84.29,11.55,101.69C564.13,668.1,584.51,663.35,599.03,658.74z"/>
		</g>
		<g>
			<path class="st4" d="M477.57,486.01c29.37,15.88,51.32,49.12,46.11,83.32c-2.07,13.4-7.82,25.42-12.52,37.71
				c-3.49,9.32-6.91,18.65-6.55,28.45c0.53,7.83,2.98,15.9,7.93,21.89c14.47,17.11,45.66,20.26,65.46,10.25
				c43.03-22.28,54.44-88.32,39.23-130.98c-21.63-55.7-89.46-97.47-147.56-103.7c0,0,0.72-8.51,0.72-8.51
				c13.31,1.03,26.36,3.88,38.98,7.89c25.17,8.25,48.78,21.06,69.42,37.64c32.62,26.28,55,59.9,55.38,102.83
				c1.24,45.53-21.09,103.12-71.68,110.28c-20.24,2.35-44.36-2.96-57.79-19.41c-9.07-11.42-11.82-26.99-8.57-40.89
				c4.14-19.09,15.32-35.81,18.64-54.81C519.99,536.09,497.81,508.31,477.57,486.01L477.57,486.01z"/>
		</g>
	</g>
</g>
</svg>
